<?xml version="1.0" standalone="no"?>
<!DOCTYPE svg PUBLIC "-//W3C//DTD SVG 20010904//EN"
 "http://www.w3.org/TR/2001/REC-SVG-20010904/DTD/svg10.dtd">
<svg version="1.0" xmlns="http://www.w3.org/2000/svg"
 width="100.000000pt" height="100.000000pt" viewBox="0 0 100.000000 100.000000"
 preserveAspectRatio="xMidYMid meet">
<metadata>
Created by potrace 1.11, written by Peter Selinger 2001-2013
</metadata>
<g transform="translate(0.000000,100.000000) scale(0.100000,-0.100000)"
fill="#000000" stroke="none">
<path d="M290 880 c-113 -66 -208 -121 -213 -122 -4 -2 -8 -116 -9 -253 l-1
-250 44 -28 c24 -16 122 -73 217 -128 l172 -99 213 122 c116 67 214 123 216
124 5 4 1 496 -5 505 -4 6 -100 64 -254 151 -19 11 -65 38 -102 59 -36 22 -68
39 -70 38 -2 0 -95 -54 -208 -119z m580 -380 l0 -215 -186 -107 -186 -106 -62
37 c-33 20 -116 68 -183 106 l-123 70 0 215 0 215 186 106 185 107 184 -107
185 -106 0 -215z"/>
<path d="M353 771 c-72 -43 -138 -83 -147 -90 -13 -11 -15 -41 -13 -188 l2
-176 154 -88 153 -87 42 24 c22 13 91 52 153 86 l112 63 1 181 0 182 -150 86
c-83 47 -156 86 -163 85 -6 -1 -71 -36 -144 -78z m273 -60 l119 -69 3 -144 2
-143 -123 -71 -124 -70 -124 71 -124 71 0 139 c0 121 2 142 17 153 25 18 222
132 229 132 4 0 60 -31 125 -69z"/>
<path d="M405 657 l-90 -52 0 -108 0 -107 94 -54 94 -53 91 52 91 53 3 109 3
108 -92 53 c-50 28 -94 52 -98 52 -4 0 -47 -24 -96 -53z m159 -52 l62 -35 0
-72 -1 -72 -55 -32 c-30 -18 -60 -33 -67 -34 -6 0 -36 15 -66 33 -61 35 -67
50 -58 133 6 45 9 49 61 80 30 18 57 33 58 34 2 0 32 -16 66 -35z"/>
</g>
</svg>
