<svg width="1013" height="307" viewBox="0 0 1013 307" fill="none" xmlns="http://www.w3.org/2000/svg">
<path d="M383.742 42.956H390.276L404.64 80H399.186L395.46 70.118H378.288L374.67 80H369.378L383.742 42.956ZM393.786 65.636L389.466 54.08L386.982 47.384H386.712L384.282 53.972L379.962 65.636H393.786ZM416.358 80.648C413.91 80.648 411.732 80.072 409.824 78.92C407.916 77.768 406.962 75.68 406.962 72.656C406.962 69.02 408.582 66.536 411.822 65.204C415.062 63.836 419.742 63.152 425.862 63.152V60.02C425.862 58.364 425.394 57.104 424.458 56.24C423.522 55.34 421.83 54.89 419.382 54.89C417.078 54.89 415.422 55.322 414.414 56.186C413.442 57.05 412.956 58.112 412.956 59.372V60.02H408.366C408.33 59.804 408.312 59.408 408.312 58.832C408.312 56.312 409.356 54.368 411.444 53C413.532 51.632 416.322 50.948 419.814 50.948C423.342 50.948 426.024 51.686 427.86 53.162C429.696 54.638 430.614 56.726 430.614 59.426V74.816C430.614 75.464 430.794 75.95 431.154 76.274C431.514 76.562 431.964 76.706 432.504 76.706H434.664V79.784C433.728 80.216 432.504 80.432 430.992 80.432C429.768 80.432 428.742 80.072 427.914 79.352C427.086 78.596 426.528 77.606 426.24 76.382H425.862C424.89 77.714 423.558 78.758 421.866 79.514C420.21 80.27 418.374 80.648 416.358 80.648ZM417.6 76.706C419.004 76.706 420.336 76.418 421.596 75.842C422.856 75.266 423.882 74.42 424.674 73.304C425.466 72.152 425.862 70.766 425.862 69.146V67.094C421.218 67.094 417.726 67.472 415.386 68.228C413.082 68.948 411.93 70.334 411.93 72.386C411.93 73.934 412.398 75.05 413.334 75.734C414.306 76.382 415.728 76.706 417.6 76.706Z" fill="black"/>
<path d="M458.623 49.0625V55H456.963V40.7227H460.879C462.63 40.7227 463.923 41.0579 464.756 41.7285C465.596 42.3991 466.016 43.4082 466.016 44.7559C466.016 46.6439 465.059 47.9199 463.145 48.584L467.021 55H465.059L461.602 49.0625H458.623ZM458.623 47.6367H460.898C462.07 47.6367 462.93 47.4056 463.477 46.9434C464.023 46.4746 464.297 45.7747 464.297 44.8438C464.297 43.8997 464.017 43.2194 463.457 42.8027C462.904 42.3861 462.012 42.1777 460.781 42.1777H458.623V47.6367ZM473.604 55.1953C472.021 55.1953 470.771 54.7135 469.854 53.75C468.942 52.7865 468.486 51.4486 468.486 49.7363C468.486 48.0111 468.91 46.6406 469.756 45.625C470.609 44.6094 471.751 44.1016 473.184 44.1016C474.525 44.1016 475.586 44.5443 476.367 45.4297C477.148 46.3086 477.539 47.4707 477.539 48.916V49.9414H470.166C470.199 51.1979 470.514 52.1517 471.113 52.8027C471.719 53.4538 472.568 53.7793 473.662 53.7793C474.814 53.7793 475.954 53.5384 477.08 53.0566V54.502C476.507 54.7493 475.964 54.9251 475.449 55.0293C474.941 55.14 474.326 55.1953 473.604 55.1953ZM473.164 45.459C472.305 45.459 471.618 45.7389 471.104 46.2988C470.596 46.8587 470.296 47.6335 470.205 48.623H475.801C475.801 47.6009 475.573 46.8197 475.117 46.2793C474.661 45.7324 474.01 45.459 473.164 45.459ZM489.072 44.2969V45.3223L487.09 45.5566C487.272 45.7845 487.435 46.084 487.578 46.4551C487.721 46.8197 487.793 47.2331 487.793 47.6953C487.793 48.7435 487.435 49.5801 486.719 50.2051C486.003 50.8301 485.02 51.1426 483.77 51.1426C483.451 51.1426 483.151 51.1165 482.871 51.0645C482.181 51.429 481.836 51.888 481.836 52.4414C481.836 52.7344 481.956 52.9525 482.197 53.0957C482.438 53.2324 482.852 53.3008 483.438 53.3008H485.332C486.491 53.3008 487.38 53.5449 487.998 54.0332C488.623 54.5215 488.936 55.2311 488.936 56.1621C488.936 57.347 488.46 58.2487 487.51 58.8672C486.559 59.4922 485.173 59.8047 483.35 59.8047C481.95 59.8047 480.869 59.5443 480.107 59.0234C479.352 58.5026 478.975 57.7669 478.975 56.8164C478.975 56.1654 479.183 55.6022 479.6 55.127C480.016 54.6517 480.602 54.3294 481.357 54.1602C481.084 54.0365 480.853 53.8444 480.664 53.584C480.482 53.3236 480.391 53.0208 480.391 52.6758C480.391 52.2852 480.495 51.9434 480.703 51.6504C480.911 51.3574 481.24 51.0742 481.689 50.8008C481.136 50.5729 480.684 50.1855 480.332 49.6387C479.987 49.0918 479.814 48.4668 479.814 47.7637C479.814 46.5918 480.166 45.6901 480.869 45.0586C481.572 44.4206 482.568 44.1016 483.857 44.1016C484.417 44.1016 484.922 44.1667 485.371 44.2969H489.072ZM480.537 56.7969C480.537 57.3763 480.781 57.8158 481.27 58.1152C481.758 58.4147 482.458 58.5645 483.369 58.5645C484.73 58.5645 485.736 58.3594 486.387 57.9492C487.044 57.5456 487.373 56.9954 487.373 56.2988C487.373 55.7194 487.194 55.3158 486.836 55.0879C486.478 54.8665 485.804 54.7559 484.814 54.7559H482.871C482.135 54.7559 481.562 54.9316 481.152 55.2832C480.742 55.6348 480.537 56.1393 480.537 56.7969ZM481.416 47.7246C481.416 48.4733 481.628 49.0397 482.051 49.4238C482.474 49.8079 483.063 50 483.818 50C485.4 50 486.191 49.2318 486.191 47.6953C486.191 46.0872 485.391 45.2832 483.789 45.2832C483.027 45.2832 482.441 45.4883 482.031 45.8984C481.621 46.3086 481.416 46.9173 481.416 47.7246ZM492.793 44.2969V51.2402C492.793 52.1126 492.992 52.7637 493.389 53.1934C493.786 53.623 494.408 53.8379 495.254 53.8379C496.374 53.8379 497.191 53.5319 497.705 52.9199C498.226 52.3079 498.486 51.3086 498.486 49.9219V44.2969H500.107V55H498.77L498.535 53.5645H498.447C498.115 54.0918 497.653 54.4954 497.061 54.7754C496.475 55.0553 495.804 55.1953 495.049 55.1953C493.747 55.1953 492.77 54.8861 492.119 54.2676C491.475 53.6491 491.152 52.6595 491.152 51.2988V44.2969H492.793ZM505.176 55H503.555V39.8047H505.176V55ZM515.195 55L514.873 53.4766H514.795C514.261 54.1471 513.727 54.6029 513.193 54.8438C512.666 55.0781 512.005 55.1953 511.211 55.1953C510.15 55.1953 509.316 54.9219 508.711 54.375C508.112 53.8281 507.812 53.0501 507.812 52.041C507.812 49.8796 509.541 48.7467 512.998 48.6426L514.814 48.584V47.9199C514.814 47.0801 514.632 46.4616 514.268 46.0645C513.91 45.6608 513.333 45.459 512.539 45.459C511.647 45.459 510.638 45.7324 509.512 46.2793L509.014 45.0391C509.541 44.7526 510.117 44.528 510.742 44.3652C511.374 44.2025 512.005 44.1211 512.637 44.1211C513.913 44.1211 514.857 44.4043 515.469 44.9707C516.087 45.5371 516.396 46.4453 516.396 47.6953V55H515.195ZM511.533 53.8574C512.542 53.8574 513.333 53.5807 513.906 53.0273C514.486 52.474 514.775 51.6992 514.775 50.7031V49.7363L513.154 49.8047C511.865 49.8503 510.934 50.0521 510.361 50.4102C509.795 50.7617 509.512 51.3118 509.512 52.0605C509.512 52.6465 509.688 53.0924 510.039 53.3984C510.397 53.7044 510.895 53.8574 511.533 53.8574ZM524.629 44.1016C525.104 44.1016 525.531 44.1406 525.908 44.2188L525.684 45.7227C525.241 45.625 524.85 45.5762 524.512 45.5762C523.646 45.5762 522.904 45.9277 522.285 46.6309C521.673 47.334 521.367 48.2096 521.367 49.2578V55H519.746V44.2969H521.084L521.27 46.2793H521.348C521.745 45.5827 522.223 45.0456 522.783 44.668C523.343 44.2904 523.958 44.1016 524.629 44.1016Z" fill="black"/>
<path d="M463.828 82.375H462.133V85H460.891V82.375H455.336V81.2422L460.758 73.5156H462.133V81.1953H463.828V82.375ZM460.891 81.1953V77.3984C460.891 76.6536 460.917 75.8125 460.969 74.875H460.906C460.656 75.375 460.422 75.7891 460.203 76.1172L456.633 81.1953H460.891ZM472.508 79.2734C472.508 81.2474 472.195 82.7214 471.57 83.6953C470.951 84.6693 470 85.1562 468.719 85.1562C467.49 85.1562 466.555 84.6589 465.914 83.6641C465.273 82.6641 464.953 81.2005 464.953 79.2734C464.953 77.2839 465.263 75.8073 465.883 74.8438C466.503 73.8802 467.448 73.3984 468.719 73.3984C469.958 73.3984 470.898 73.901 471.539 74.9062C472.185 75.9115 472.508 77.3672 472.508 79.2734ZM466.266 79.2734C466.266 80.9349 466.461 82.1458 466.852 82.9062C467.242 83.6615 467.865 84.0391 468.719 84.0391C469.583 84.0391 470.208 83.6562 470.594 82.8906C470.984 82.1198 471.18 80.9141 471.18 79.2734C471.18 77.6328 470.984 76.4323 470.594 75.6719C470.208 74.9062 469.583 74.5234 468.719 74.5234C467.865 74.5234 467.242 74.901 466.852 75.6562C466.461 76.4062 466.266 77.612 466.266 79.2734ZM481.664 79.2734C481.664 81.2474 481.352 82.7214 480.727 83.6953C480.107 84.6693 479.156 85.1562 477.875 85.1562C476.646 85.1562 475.711 84.6589 475.07 83.6641C474.43 82.6641 474.109 81.2005 474.109 79.2734C474.109 77.2839 474.419 75.8073 475.039 74.8438C475.659 73.8802 476.604 73.3984 477.875 73.3984C479.115 73.3984 480.055 73.901 480.695 74.9062C481.341 75.9115 481.664 77.3672 481.664 79.2734ZM475.422 79.2734C475.422 80.9349 475.617 82.1458 476.008 82.9062C476.398 83.6615 477.021 84.0391 477.875 84.0391C478.74 84.0391 479.365 83.6562 479.75 82.8906C480.141 82.1198 480.336 80.9141 480.336 79.2734C480.336 77.6328 480.141 76.4323 479.75 75.6719C479.365 74.9062 478.74 74.5234 477.875 74.5234C477.021 74.5234 476.398 74.901 476.008 75.6562C475.617 76.4062 475.422 77.612 475.422 79.2734Z" fill="black"/>
<path d="M623.634 42.956H632.328L646.746 80H639.294L636.27 71.954H619.314L616.344 80H609.216L623.634 42.956ZM634.056 66.122L630.276 55.97C629.7 54.53 629.088 52.694 628.44 50.462C628.332 50.138 628.224 49.85 628.116 49.598C628.044 49.31 627.972 49.076 627.9 48.896H627.63L627.09 50.57L625.254 55.97L621.474 66.122H634.056ZM657.661 80.648C655.357 80.648 653.269 80.09 651.397 78.974C649.561 77.822 648.643 75.716 648.643 72.656C648.643 69.02 650.191 66.464 653.287 64.988C656.383 63.512 660.775 62.774 666.463 62.774V60.398C666.463 59.03 666.103 57.968 665.383 57.212C664.699 56.456 663.439 56.078 661.603 56.078C659.695 56.078 658.345 56.384 657.553 56.996C656.761 57.608 656.365 58.364 656.365 59.264V60.02H650.101C650.065 59.804 650.047 59.408 650.047 58.832C650.047 56.384 651.091 54.458 653.179 53.054C655.303 51.65 658.111 50.948 661.603 50.948C665.383 50.948 668.209 51.722 670.081 53.27C671.989 54.818 672.943 57.032 672.943 59.912V73.466C672.943 74.114 673.123 74.6 673.483 74.924C673.843 75.212 674.293 75.356 674.833 75.356H676.561V79.784C675.409 80.324 674.059 80.594 672.511 80.594C671.107 80.594 669.937 80.252 669.001 79.568C668.065 78.884 667.435 77.948 667.111 76.76H666.733C664.609 79.352 661.585 80.648 657.661 80.648ZM659.605 75.464C661.729 75.464 663.403 74.852 664.627 73.628C665.851 72.404 666.463 70.748 666.463 68.66V67.364C662.971 67.364 660.235 67.706 658.255 68.39C656.275 69.038 655.285 70.244 655.285 72.008C655.285 74.312 656.725 75.464 659.605 75.464Z" fill="black"/>
<path d="M705.02 51.2012C705.02 52.4577 704.564 53.4375 703.652 54.1406C702.741 54.8438 701.504 55.1953 699.941 55.1953C698.249 55.1953 696.947 54.9772 696.035 54.541V52.9395C696.621 53.1868 697.259 53.3822 697.949 53.5254C698.639 53.6686 699.323 53.7402 700 53.7402C701.107 53.7402 701.94 53.5319 702.5 53.1152C703.06 52.6921 703.34 52.1061 703.34 51.3574C703.34 50.8626 703.239 50.459 703.037 50.1465C702.842 49.8275 702.51 49.5345 702.041 49.2676C701.579 49.0007 700.872 48.6979 699.922 48.3594C698.594 47.8841 697.643 47.321 697.07 46.6699C696.504 46.0189 696.221 45.1693 696.221 44.1211C696.221 43.0208 696.634 42.1452 697.461 41.4941C698.288 40.8431 699.382 40.5176 700.742 40.5176C702.161 40.5176 703.467 40.778 704.658 41.2988L704.141 42.7441C702.962 42.2493 701.816 42.002 700.703 42.002C699.824 42.002 699.137 42.1908 698.643 42.5684C698.148 42.946 697.9 43.4701 697.9 44.1406C697.9 44.6354 697.992 45.0423 698.174 45.3613C698.356 45.6738 698.662 45.9635 699.092 46.2305C699.528 46.4909 700.192 46.7806 701.084 47.0996C702.581 47.6335 703.61 48.2064 704.17 48.8184C704.736 49.4303 705.02 50.2246 705.02 51.2012ZM712.217 55.1953C710.635 55.1953 709.385 54.7135 708.467 53.75C707.555 52.7865 707.1 51.4486 707.1 49.7363C707.1 48.0111 707.523 46.6406 708.369 45.625C709.222 44.6094 710.365 44.1016 711.797 44.1016C713.138 44.1016 714.199 44.5443 714.98 45.4297C715.762 46.3086 716.152 47.4707 716.152 48.916V49.9414H708.779C708.812 51.1979 709.128 52.1517 709.727 52.8027C710.332 53.4538 711.182 53.7793 712.275 53.7793C713.428 53.7793 714.567 53.5384 715.693 53.0566V54.502C715.12 54.7493 714.577 54.9251 714.062 55.0293C713.555 55.14 712.939 55.1953 712.217 55.1953ZM711.777 45.459C710.918 45.459 710.231 45.7389 709.717 46.2988C709.209 46.8587 708.91 47.6335 708.818 48.623H714.414C714.414 47.6009 714.186 46.8197 713.73 46.2793C713.275 45.7324 712.624 45.459 711.777 45.459ZM732.568 55V48.0371C732.568 47.1842 732.386 46.5462 732.021 46.123C731.657 45.6934 731.09 45.4785 730.322 45.4785C729.313 45.4785 728.568 45.7682 728.086 46.3477C727.604 46.9271 727.363 47.819 727.363 49.0234V55H725.742V48.0371C725.742 47.1842 725.56 46.5462 725.195 46.123C724.831 45.6934 724.261 45.4785 723.486 45.4785C722.471 45.4785 721.725 45.7845 721.25 46.3965C720.781 47.002 720.547 47.998 720.547 49.3848V55H718.926V44.2969H720.244L720.508 45.7617H720.586C720.892 45.2409 721.322 44.834 721.875 44.541C722.435 44.248 723.06 44.1016 723.75 44.1016C725.423 44.1016 726.517 44.707 727.031 45.918H727.109C727.428 45.3581 727.891 44.9154 728.496 44.5898C729.102 44.2643 729.792 44.1016 730.566 44.1016C731.777 44.1016 732.682 44.4141 733.281 45.0391C733.887 45.6576 734.189 46.6504 734.189 48.0176V55H732.568ZM739.16 55H737.539V44.2969H739.16V55ZM737.402 41.3965C737.402 41.0254 737.493 40.7552 737.676 40.5859C737.858 40.4102 738.086 40.3223 738.359 40.3223C738.62 40.3223 738.844 40.4102 739.033 40.5859C739.222 40.7617 739.316 41.0319 739.316 41.3965C739.316 41.7611 739.222 42.0345 739.033 42.2168C738.844 42.3926 738.62 42.4805 738.359 42.4805C738.086 42.4805 737.858 42.3926 737.676 42.2168C737.493 42.0345 737.402 41.7611 737.402 41.3965ZM741.699 50.3809V48.8965H746.494V50.3809H741.699ZM754.023 44.1211C755.43 44.1211 756.52 44.6029 757.295 45.5664C758.076 46.5234 758.467 47.8809 758.467 49.6387C758.467 51.3965 758.073 52.7637 757.285 53.7402C756.504 54.7103 755.417 55.1953 754.023 55.1953C753.327 55.1953 752.689 55.0684 752.109 54.8145C751.536 54.554 751.055 54.1569 750.664 53.623H750.547L750.205 55H749.043V39.8047H750.664V43.4961C750.664 44.3229 750.638 45.0651 750.586 45.7227H750.664C751.419 44.6549 752.539 44.1211 754.023 44.1211ZM753.789 45.4785C752.682 45.4785 751.885 45.7975 751.396 46.4355C750.908 47.0671 750.664 48.1348 750.664 49.6387C750.664 51.1426 750.915 52.2201 751.416 52.8711C751.917 53.5156 752.721 53.8379 753.828 53.8379C754.824 53.8379 755.566 53.4766 756.055 52.7539C756.543 52.0247 756.787 50.9798 756.787 49.6191C756.787 48.2259 756.543 47.1875 756.055 46.5039C755.566 45.8203 754.811 45.4785 753.789 45.4785ZM770.547 49.6387C770.547 51.3835 770.107 52.7474 769.229 53.7305C768.35 54.707 767.135 55.1953 765.586 55.1953C764.629 55.1953 763.779 54.9707 763.037 54.5215C762.295 54.0723 761.722 53.4277 761.318 52.5879C760.915 51.748 760.713 50.765 760.713 49.6387C760.713 47.8939 761.149 46.5365 762.021 45.5664C762.894 44.5898 764.105 44.1016 765.654 44.1016C767.152 44.1016 768.34 44.5996 769.219 45.5957C770.104 46.5918 770.547 47.9395 770.547 49.6387ZM762.393 49.6387C762.393 51.0059 762.666 52.0475 763.213 52.7637C763.76 53.4798 764.564 53.8379 765.625 53.8379C766.686 53.8379 767.49 53.4831 768.037 52.7734C768.59 52.0573 768.867 51.0124 768.867 49.6387C768.867 48.278 768.59 47.2461 768.037 46.543C767.49 45.8333 766.68 45.4785 765.605 45.4785C764.544 45.4785 763.743 45.8268 763.203 46.5234C762.663 47.2201 762.393 48.2585 762.393 49.6387ZM775.02 55H773.398V39.8047H775.02V55ZM785.742 53.5645H785.654C784.906 54.6517 783.786 55.1953 782.295 55.1953C780.895 55.1953 779.805 54.7168 779.023 53.7598C778.249 52.8027 777.861 51.4421 777.861 49.6777C777.861 47.9134 778.252 46.543 779.033 45.5664C779.814 44.5898 780.902 44.1016 782.295 44.1016C783.747 44.1016 784.86 44.6289 785.635 45.6836H785.762L785.693 44.9121L785.654 44.1602V39.8047H787.275V55H785.957L785.742 53.5645ZM782.5 53.8379C783.607 53.8379 784.408 53.5384 784.902 52.9395C785.404 52.334 785.654 51.3607 785.654 50.0195V49.6777C785.654 48.1608 785.4 47.0801 784.893 46.4355C784.391 45.7845 783.587 45.459 782.48 45.459C781.53 45.459 780.801 45.8301 780.293 46.5723C779.792 47.3079 779.541 48.3496 779.541 49.6973C779.541 51.0645 779.792 52.0964 780.293 52.793C780.794 53.4896 781.53 53.8379 782.5 53.8379Z" fill="black"/>
<path d="M695.914 80.1172C695.914 77.8724 696.349 76.1953 697.219 75.0859C698.094 73.9714 699.385 73.4141 701.094 73.4141C701.682 73.4141 702.146 73.4635 702.484 73.5625V74.6797C702.083 74.5495 701.625 74.4844 701.109 74.4844C699.885 74.4844 698.951 74.8672 698.305 75.6328C697.659 76.3932 697.305 77.5911 697.242 79.2266H697.336C697.909 78.3307 698.815 77.8828 700.055 77.8828C701.081 77.8828 701.888 78.1927 702.477 78.8125C703.07 79.4323 703.367 80.2734 703.367 81.3359C703.367 82.5234 703.042 83.4583 702.391 84.1406C701.745 84.8177 700.87 85.1562 699.766 85.1562C698.583 85.1562 697.646 84.7135 696.953 83.8281C696.26 82.9375 695.914 81.7005 695.914 80.1172ZM699.75 84.0547C700.49 84.0547 701.062 83.8229 701.469 83.3594C701.88 82.8906 702.086 82.2161 702.086 81.3359C702.086 80.5807 701.896 79.987 701.516 79.5547C701.135 79.1224 700.568 78.9062 699.812 78.9062C699.344 78.9062 698.914 79.0026 698.523 79.1953C698.133 79.388 697.82 79.6536 697.586 79.9922C697.357 80.3307 697.242 80.6823 697.242 81.0469C697.242 81.5833 697.346 82.0833 697.555 82.5469C697.763 83.0104 698.057 83.3776 698.438 83.6484C698.823 83.9193 699.26 84.0547 699.75 84.0547ZM712.508 79.2734C712.508 81.2474 712.195 82.7214 711.57 83.6953C710.951 84.6693 710 85.1562 708.719 85.1562C707.49 85.1562 706.555 84.6589 705.914 83.6641C705.273 82.6641 704.953 81.2005 704.953 79.2734C704.953 77.2839 705.263 75.8073 705.883 74.8438C706.503 73.8802 707.448 73.3984 708.719 73.3984C709.958 73.3984 710.898 73.901 711.539 74.9062C712.185 75.9115 712.508 77.3672 712.508 79.2734ZM706.266 79.2734C706.266 80.9349 706.461 82.1458 706.852 82.9062C707.242 83.6615 707.865 84.0391 708.719 84.0391C709.583 84.0391 710.208 83.6562 710.594 82.8906C710.984 82.1198 711.18 80.9141 711.18 79.2734C711.18 77.6328 710.984 76.4323 710.594 75.6719C710.208 74.9062 709.583 74.5234 708.719 74.5234C707.865 74.5234 707.242 74.901 706.852 75.6562C706.461 76.4062 706.266 77.612 706.266 79.2734ZM721.664 79.2734C721.664 81.2474 721.352 82.7214 720.727 83.6953C720.107 84.6693 719.156 85.1562 717.875 85.1562C716.646 85.1562 715.711 84.6589 715.07 83.6641C714.43 82.6641 714.109 81.2005 714.109 79.2734C714.109 77.2839 714.419 75.8073 715.039 74.8438C715.659 73.8802 716.604 73.3984 717.875 73.3984C719.115 73.3984 720.055 73.901 720.695 74.9062C721.341 75.9115 721.664 77.3672 721.664 79.2734ZM715.422 79.2734C715.422 80.9349 715.617 82.1458 716.008 82.9062C716.398 83.6615 717.021 84.0391 717.875 84.0391C718.74 84.0391 719.365 83.6562 719.75 82.8906C720.141 82.1198 720.336 80.9141 720.336 79.2734C720.336 77.6328 720.141 76.4323 719.75 75.6719C719.365 74.9062 718.74 74.5234 717.875 74.5234C717.021 74.5234 716.398 74.901 716.008 75.6562C715.617 76.4062 715.422 77.612 715.422 79.2734Z" fill="black"/>
<path d="M381.004 176.432C377.092 176.432 374.056 175.364 371.896 173.228C369.76 171.068 368.692 167.876 368.692 163.652C368.692 159.428 369.76 156.248 371.896 154.112C374.056 151.952 377.092 150.872 381.004 150.872C384.94 150.872 387.976 151.952 390.112 154.112C392.272 156.248 393.352 159.428 393.352 163.652C393.352 167.852 392.272 171.032 390.112 173.192C387.976 175.352 384.94 176.432 381.004 176.432ZM381.004 173.516C383.86 173.516 386.044 172.748 387.556 171.212C389.068 169.652 389.824 167.18 389.824 163.796V163.652C389.8 160.22 389.032 157.724 387.52 156.164C386.008 154.58 383.836 153.788 381.004 153.788C378.196 153.788 376.036 154.58 374.524 156.164C373.012 157.724 372.244 160.22 372.22 163.652V163.796C372.22 167.18 372.976 169.652 374.488 171.212C376 172.748 378.172 173.516 381.004 173.516ZM397.432 157.064H399.844L400.204 159.908H400.42C400.78 158.972 401.32 158.192 402.04 157.568C402.76 156.944 403.708 156.632 404.884 156.632C405.532 156.632 406.096 156.728 406.576 156.92V159.98H405.244C403.9 159.98 402.784 160.376 401.896 161.168C401.032 161.936 400.6 163.148 400.6 164.804V176H397.432V157.064ZM412.804 182.552C411.412 182.552 410.2 182.192 409.168 181.472C408.16 180.776 407.656 179.612 407.656 177.98C407.656 176.012 408.676 174.668 410.716 173.948C410.14 173.636 409.66 173.24 409.276 172.76C408.916 172.256 408.736 171.68 408.736 171.032C408.736 170.096 409.06 169.388 409.708 168.908C410.38 168.428 411.112 168.092 411.904 167.9C411.112 167.324 410.488 166.616 410.032 165.776C409.576 164.936 409.348 164.012 409.348 163.004C409.348 160.988 410.032 159.428 411.4 158.324C412.768 157.196 414.64 156.632 417.016 156.632C418.336 156.632 419.536 156.848 420.616 157.28C422.176 156.536 423.088 155.444 423.352 154.004H426.376C426.376 155.132 426.04 156.104 425.368 156.92C424.72 157.736 423.832 158.276 422.704 158.54C424.048 159.74 424.72 161.228 424.72 163.004C424.72 165.02 424.024 166.592 422.632 167.72C421.264 168.824 419.392 169.376 417.016 169.376H413.992C413.344 169.376 412.84 169.52 412.48 169.808C412.144 170.096 411.976 170.468 411.976 170.924C411.976 171.38 412.144 171.752 412.48 172.04C412.84 172.328 413.344 172.472 413.992 172.472H421.588C423.076 172.472 424.252 172.928 425.116 173.84C425.98 174.728 426.412 175.808 426.412 177.08C426.412 177.992 426.208 178.868 425.8 179.708C425.392 180.548 424.732 181.232 423.82 181.76C422.932 182.288 421.804 182.552 420.436 182.552H412.804ZM417.052 166.928C418.54 166.928 419.668 166.592 420.436 165.92C421.204 165.224 421.588 164.252 421.588 163.004C421.588 161.756 421.204 160.796 420.436 160.124C419.668 159.428 418.54 159.08 417.052 159.08C415.564 159.08 414.436 159.428 413.668 160.124C412.9 160.796 412.516 161.756 412.516 163.004C412.516 164.252 412.9 165.224 413.668 165.92C414.436 166.592 415.564 166.928 417.052 166.928ZM420.508 179.996C421.3 179.996 421.96 179.78 422.488 179.348C423.016 178.916 423.28 178.34 423.28 177.62C423.28 176.9 423.064 176.336 422.632 175.928C422.224 175.496 421.672 175.28 420.976 175.28H413.092C412.396 175.28 411.844 175.496 411.436 175.928C411.028 176.336 410.824 176.9 410.824 177.62C410.824 178.34 411.028 178.916 411.436 179.348C411.844 179.78 412.396 179.996 413.092 179.996H420.508ZM434.572 176.432C432.94 176.432 431.488 176.048 430.216 175.28C428.944 174.512 428.308 173.12 428.308 171.104C428.308 168.68 429.388 167.024 431.548 166.136C433.708 165.224 436.828 164.768 440.908 164.768V162.68C440.908 161.576 440.596 160.736 439.972 160.16C439.348 159.56 438.22 159.26 436.588 159.26C435.052 159.26 433.948 159.548 433.276 160.124C432.628 160.7 432.304 161.408 432.304 162.248V162.68H429.244C429.22 162.536 429.208 162.272 429.208 161.888C429.208 160.208 429.904 158.912 431.296 158C432.688 157.088 434.548 156.632 436.876 156.632C439.228 156.632 441.016 157.124 442.24 158.108C443.464 159.092 444.076 160.484 444.076 162.284V172.544C444.076 172.976 444.196 173.3 444.436 173.516C444.676 173.708 444.976 173.804 445.336 173.804H446.776V175.856C446.152 176.144 445.336 176.288 444.328 176.288C443.512 176.288 442.828 176.048 442.276 175.568C441.724 175.064 441.352 174.404 441.16 173.588H440.908C440.26 174.476 439.372 175.172 438.244 175.676C437.14 176.18 435.916 176.432 434.572 176.432ZM435.4 173.804C436.336 173.804 437.224 173.612 438.064 173.228C438.904 172.844 439.588 172.28 440.116 171.536C440.644 170.768 440.908 169.844 440.908 168.764V167.396C437.812 167.396 435.484 167.648 433.924 168.152C432.388 168.632 431.62 169.556 431.62 170.924C431.62 171.956 431.932 172.7 432.556 173.156C433.204 173.588 434.152 173.804 435.4 173.804ZM449.428 157.064H451.84L452.2 159.62H452.452C453.844 157.628 455.968 156.632 458.824 156.632C460.72 156.632 462.172 157.148 463.18 158.18C464.212 159.188 464.728 160.82 464.728 163.076V176H461.56V163.292C461.56 161.78 461.224 160.736 460.552 160.16C459.88 159.56 458.908 159.26 457.636 159.26C456.724 159.26 455.884 159.488 455.116 159.944C454.348 160.376 453.736 161.012 453.28 161.852C452.824 162.692 452.596 163.676 452.596 164.804V176H449.428V157.064ZM469.432 149.972H472.564V153.392H469.432V149.972ZM469.432 157.064H472.6V176H469.432V157.064ZM484.612 176.432C481.732 176.432 479.62 175.64 478.276 174.056C476.932 172.448 476.26 169.94 476.26 166.532C476.26 163.148 476.932 160.652 478.276 159.044C479.644 157.436 481.756 156.632 484.612 156.632C487.204 156.632 489.1 157.256 490.3 158.504C491.5 159.752 492.1 161.612 492.1 164.084H488.86C488.86 162.38 488.548 161.156 487.924 160.412C487.324 159.644 486.22 159.26 484.612 159.26C482.86 159.26 481.576 159.836 480.76 160.988C479.944 162.116 479.536 163.964 479.536 166.532V166.676C479.536 169.22 479.932 171.044 480.724 172.148C481.516 173.252 482.812 173.804 484.612 173.804C486.196 173.804 487.324 173.408 487.996 172.616C488.692 171.8 489.04 170.588 489.04 168.98H492.1C492.1 171.14 491.488 172.928 490.264 174.344C489.04 175.736 487.156 176.432 484.612 176.432ZM509.716 176.396C508.42 176.396 507.472 176.012 506.872 175.244C506.272 174.476 505.972 173.528 505.972 172.4V159.692H503.668V157.064H506.008L506.692 151.808H509.14V157.064H512.344V159.692H509.14V172.112C509.14 173.24 509.668 173.804 510.724 173.804H512.344V175.892C512.032 176.036 511.624 176.156 511.12 176.252C510.616 176.348 510.148 176.396 509.716 176.396ZM523.047 176.432C520.143 176.432 517.959 175.628 516.495 174.02C515.031 172.388 514.299 169.892 514.299 166.532C514.299 163.172 515.031 160.688 516.495 159.08C517.959 157.448 520.143 156.632 523.047 156.632C525.951 156.632 528.135 157.448 529.599 159.08C531.063 160.688 531.795 163.172 531.795 166.532C531.795 169.892 531.063 172.388 529.599 174.02C528.135 175.628 525.951 176.432 523.047 176.432ZM523.047 173.804C524.967 173.804 526.359 173.252 527.223 172.148C528.087 171.02 528.519 169.196 528.519 166.676V166.388C528.519 163.868 528.087 162.056 527.223 160.952C526.359 159.824 524.967 159.26 523.047 159.26C521.127 159.26 519.735 159.824 518.871 160.952C518.007 162.056 517.575 163.868 517.575 166.388V166.676C517.575 169.196 518.007 171.02 518.871 172.148C519.735 173.252 521.127 173.804 523.047 173.804ZM535.455 157.064H537.867L538.227 159.62H538.479C539.775 157.628 541.671 156.632 544.167 156.632C546.615 156.632 548.247 157.628 549.063 159.62H549.279C549.927 158.66 550.767 157.928 551.799 157.424C552.855 156.896 553.971 156.632 555.147 156.632C558.867 156.632 560.727 158.54 560.727 162.356V176H557.559V162.932C557.559 161.564 557.259 160.616 556.659 160.088C556.059 159.536 555.231 159.26 554.175 159.26C552.903 159.26 551.835 159.764 550.971 160.772C550.107 161.78 549.675 163.124 549.675 164.804V176H546.507V162.932C546.507 161.564 546.219 160.616 545.643 160.088C545.067 159.536 544.251 159.26 543.195 159.26C542.379 159.26 541.623 159.488 540.927 159.944C540.231 160.376 539.667 161.012 539.235 161.852C538.827 162.692 538.623 163.676 538.623 164.804V176H535.455V157.064ZM570.591 176.432C568.959 176.432 567.507 176.048 566.235 175.28C564.963 174.512 564.327 173.12 564.327 171.104C564.327 168.68 565.407 167.024 567.567 166.136C569.727 165.224 572.847 164.768 576.927 164.768V162.68C576.927 161.576 576.615 160.736 575.991 160.16C575.367 159.56 574.239 159.26 572.607 159.26C571.071 159.26 569.967 159.548 569.295 160.124C568.647 160.7 568.323 161.408 568.323 162.248V162.68H565.263C565.239 162.536 565.227 162.272 565.227 161.888C565.227 160.208 565.923 158.912 567.315 158C568.707 157.088 570.567 156.632 572.895 156.632C575.247 156.632 577.035 157.124 578.259 158.108C579.483 159.092 580.095 160.484 580.095 162.284V172.544C580.095 172.976 580.215 173.3 580.455 173.516C580.695 173.708 580.995 173.804 581.355 173.804H582.795V175.856C582.171 176.144 581.355 176.288 580.347 176.288C579.531 176.288 578.847 176.048 578.295 175.568C577.743 175.064 577.371 174.404 577.179 173.588H576.927C576.279 174.476 575.391 175.172 574.263 175.676C573.159 176.18 571.935 176.432 570.591 176.432ZM571.419 173.804C572.355 173.804 573.243 173.612 574.083 173.228C574.923 172.844 575.607 172.28 576.135 171.536C576.663 170.768 576.927 169.844 576.927 168.764V167.396C573.831 167.396 571.503 167.648 569.943 168.152C568.407 168.632 567.639 169.556 567.639 170.924C567.639 171.956 567.951 172.7 568.575 173.156C569.223 173.588 570.171 173.804 571.419 173.804ZM589.731 176.396C588.435 176.396 587.487 176.012 586.887 175.244C586.287 174.476 585.987 173.528 585.987 172.4V159.692H583.683V157.064H586.023L586.707 151.808H589.155V157.064H592.359V159.692H589.155V172.112C589.155 173.24 589.683 173.804 590.739 173.804H592.359V175.892C592.047 176.036 591.639 176.156 591.135 176.252C590.631 176.348 590.163 176.396 589.731 176.396ZM603.063 176.432C600.159 176.432 597.975 175.628 596.511 174.02C595.047 172.388 594.315 169.892 594.315 166.532C594.315 163.172 595.047 160.688 596.511 159.08C597.975 157.448 600.159 156.632 603.063 156.632C605.967 156.632 608.151 157.448 609.615 159.08C611.079 160.688 611.811 163.172 611.811 166.532C611.811 169.892 611.079 172.388 609.615 174.02C608.151 175.628 605.967 176.432 603.063 176.432ZM603.063 173.804C604.983 173.804 606.375 173.252 607.239 172.148C608.103 171.02 608.535 169.196 608.535 166.676V166.388C608.535 163.868 608.103 162.056 607.239 160.952C606.375 159.824 604.983 159.26 603.063 159.26C601.143 159.26 599.751 159.824 598.887 160.952C598.023 162.056 597.591 163.868 597.591 166.388V166.676C597.591 169.196 598.023 171.02 598.887 172.148C599.751 173.252 601.143 173.804 603.063 173.804ZM621.951 176.432C620.199 176.432 618.735 176.18 617.559 175.676C616.407 175.148 615.555 174.464 615.003 173.624C614.451 172.784 614.175 171.872 614.175 170.888C614.175 170.6 614.175 170.408 614.175 170.312C614.199 170.192 614.211 170.12 614.211 170.096H617.343V170.456C617.343 171.584 617.787 172.436 618.675 173.012C619.563 173.564 620.715 173.84 622.131 173.84C623.355 173.84 624.363 173.6 625.155 173.12C625.971 172.616 626.379 171.92 626.379 171.032C626.379 170.336 626.151 169.772 625.695 169.34C625.239 168.884 624.675 168.536 624.003 168.296C623.331 168.032 622.419 167.756 621.267 167.468C619.875 167.108 618.735 166.748 617.847 166.388C616.983 166.028 616.239 165.5 615.615 164.804C615.015 164.084 614.715 163.16 614.715 162.032C614.715 160.376 615.387 159.068 616.731 158.108C618.099 157.124 619.935 156.632 622.239 156.632C623.679 156.632 624.927 156.872 625.983 157.352C627.039 157.808 627.831 158.432 628.359 159.224C628.911 159.992 629.187 160.856 629.187 161.816L629.151 162.5H626.055V162.176C626.055 161.336 625.719 160.64 625.047 160.088C624.399 159.536 623.343 159.26 621.879 159.26C620.439 159.26 619.431 159.524 618.855 160.052C618.279 160.556 617.991 161.144 617.991 161.816C617.991 162.368 618.195 162.824 618.603 163.184C619.011 163.544 619.515 163.832 620.115 164.048C620.715 164.264 621.555 164.504 622.635 164.768C624.123 165.152 625.335 165.536 626.271 165.92C627.207 166.28 627.999 166.844 628.647 167.612C629.319 168.356 629.655 169.352 629.655 170.6C629.655 172.544 628.947 174.008 627.531 174.992C626.139 175.952 624.279 176.432 621.951 176.432ZM635.703 176H634.263V172.112H637.863V175.676L636.135 180.824H634.263L635.703 176ZM657.794 176.396C656.498 176.396 655.55 176.012 654.95 175.244C654.35 174.476 654.05 173.528 654.05 172.4V159.692H651.746V157.064H654.086L654.77 151.808H657.218V157.064H660.422V159.692H657.218V172.112C657.218 173.24 657.746 173.804 658.802 173.804H660.422V175.892C660.11 176.036 659.702 176.156 659.198 176.252C658.694 176.348 658.226 176.396 657.794 176.396ZM671.125 176.432C668.221 176.432 666.037 175.628 664.573 174.02C663.109 172.388 662.377 169.892 662.377 166.532C662.377 163.172 663.109 160.688 664.573 159.08C666.037 157.448 668.221 156.632 671.125 156.632C674.029 156.632 676.213 157.448 677.677 159.08C679.141 160.688 679.873 163.172 679.873 166.532C679.873 169.892 679.141 172.388 677.677 174.02C676.213 175.628 674.029 176.432 671.125 176.432ZM671.125 173.804C673.045 173.804 674.437 173.252 675.301 172.148C676.165 171.02 676.597 169.196 676.597 166.676V166.388C676.597 163.868 676.165 162.056 675.301 160.952C674.437 159.824 673.045 159.26 671.125 159.26C669.205 159.26 667.813 159.824 666.949 160.952C666.085 162.056 665.653 163.868 665.653 166.388V166.676C665.653 169.196 666.085 171.02 666.949 172.148C667.813 173.252 669.205 173.804 671.125 173.804ZM683.533 157.064H685.945L686.305 159.62H686.557C687.853 157.628 689.749 156.632 692.245 156.632C694.693 156.632 696.325 157.628 697.141 159.62H697.357C698.005 158.66 698.845 157.928 699.877 157.424C700.933 156.896 702.049 156.632 703.225 156.632C706.945 156.632 708.805 158.54 708.805 162.356V176H705.637V162.932C705.637 161.564 705.337 160.616 704.737 160.088C704.137 159.536 703.309 159.26 702.253 159.26C700.981 159.26 699.913 159.764 699.049 160.772C698.185 161.78 697.753 163.124 697.753 164.804V176H694.585V162.932C694.585 161.564 694.297 160.616 693.721 160.088C693.145 159.536 692.329 159.26 691.273 159.26C690.457 159.26 689.701 159.488 689.005 159.944C688.309 160.376 687.745 161.012 687.313 161.852C686.905 162.692 686.701 163.676 686.701 164.804V176H683.533V157.064ZM718.669 176.432C717.037 176.432 715.585 176.048 714.313 175.28C713.041 174.512 712.405 173.12 712.405 171.104C712.405 168.68 713.485 167.024 715.645 166.136C717.805 165.224 720.925 164.768 725.005 164.768V162.68C725.005 161.576 724.693 160.736 724.069 160.16C723.445 159.56 722.317 159.26 720.685 159.26C719.149 159.26 718.045 159.548 717.373 160.124C716.725 160.7 716.401 161.408 716.401 162.248V162.68H713.341C713.317 162.536 713.305 162.272 713.305 161.888C713.305 160.208 714.001 158.912 715.393 158C716.785 157.088 718.645 156.632 720.973 156.632C723.325 156.632 725.113 157.124 726.337 158.108C727.561 159.092 728.173 160.484 728.173 162.284V172.544C728.173 172.976 728.293 173.3 728.533 173.516C728.773 173.708 729.073 173.804 729.433 173.804H730.873V175.856C730.249 176.144 729.433 176.288 728.425 176.288C727.609 176.288 726.925 176.048 726.373 175.568C725.821 175.064 725.449 174.404 725.257 173.588H725.005C724.357 174.476 723.469 175.172 722.341 175.676C721.237 176.18 720.013 176.432 718.669 176.432ZM719.497 173.804C720.433 173.804 721.321 173.612 722.161 173.228C723.001 172.844 723.685 172.28 724.213 171.536C724.741 170.768 725.005 169.844 725.005 168.764V167.396C721.909 167.396 719.581 167.648 718.021 168.152C716.485 168.632 715.717 169.556 715.717 170.924C715.717 171.956 716.029 172.7 716.653 173.156C717.301 173.588 718.249 173.804 719.497 173.804ZM737.809 176.396C736.513 176.396 735.565 176.012 734.965 175.244C734.365 174.476 734.065 173.528 734.065 172.4V159.692H731.761V157.064H734.101L734.785 151.808H737.233V157.064H740.437V159.692H737.233V172.112C737.233 173.24 737.761 173.804 738.817 173.804H740.437V175.892C740.125 176.036 739.717 176.156 739.213 176.252C738.709 176.348 738.241 176.396 737.809 176.396ZM743.545 149.972H746.677V153.392H743.545V149.972ZM743.545 157.064H746.713V176H743.545V157.064ZM751.525 149.972H754.693V176H751.525V149.972ZM759.506 149.972H762.674V176H759.506V149.972ZM775.082 176.432C772.178 176.432 769.994 175.628 768.53 174.02C767.066 172.388 766.334 169.892 766.334 166.532C766.334 163.172 767.066 160.688 768.53 159.08C769.994 157.448 772.178 156.632 775.082 156.632C777.986 156.632 780.17 157.448 781.634 159.08C783.098 160.688 783.83 163.172 783.83 166.532C783.83 169.892 783.098 172.388 781.634 174.02C780.17 175.628 777.986 176.432 775.082 176.432ZM775.082 173.804C777.002 173.804 778.394 173.252 779.258 172.148C780.122 171.02 780.554 169.196 780.554 166.676V166.388C780.554 163.868 780.122 162.056 779.258 160.952C778.394 159.824 777.002 159.26 775.082 159.26C773.162 159.26 771.77 159.824 770.906 160.952C770.042 162.056 769.61 163.868 769.61 166.388V166.676C769.61 169.196 770.042 171.02 770.906 172.148C771.77 173.252 773.162 173.804 775.082 173.804ZM793.97 176.432C792.218 176.432 790.754 176.18 789.578 175.676C788.426 175.148 787.574 174.464 787.022 173.624C786.47 172.784 786.194 171.872 786.194 170.888C786.194 170.6 786.194 170.408 786.194 170.312C786.218 170.192 786.23 170.12 786.23 170.096H789.362V170.456C789.362 171.584 789.806 172.436 790.694 173.012C791.582 173.564 792.734 173.84 794.15 173.84C795.374 173.84 796.382 173.6 797.174 173.12C797.99 172.616 798.398 171.92 798.398 171.032C798.398 170.336 798.17 169.772 797.714 169.34C797.258 168.884 796.694 168.536 796.022 168.296C795.35 168.032 794.438 167.756 793.286 167.468C791.894 167.108 790.754 166.748 789.866 166.388C789.002 166.028 788.258 165.5 787.634 164.804C787.034 164.084 786.734 163.16 786.734 162.032C786.734 160.376 787.406 159.068 788.75 158.108C790.118 157.124 791.954 156.632 794.258 156.632C795.698 156.632 796.946 156.872 798.002 157.352C799.058 157.808 799.85 158.432 800.378 159.224C800.93 159.992 801.206 160.856 801.206 161.816L801.17 162.5H798.074V162.176C798.074 161.336 797.738 160.64 797.066 160.088C796.418 159.536 795.362 159.26 793.898 159.26C792.458 159.26 791.45 159.524 790.874 160.052C790.298 160.556 790.01 161.144 790.01 161.816C790.01 162.368 790.214 162.824 790.622 163.184C791.03 163.544 791.534 163.832 792.134 164.048C792.734 164.264 793.574 164.504 794.654 164.768C796.142 165.152 797.354 165.536 798.29 165.92C799.226 166.28 800.018 166.844 800.666 167.612C801.338 168.356 801.674 169.352 801.674 170.6C801.674 172.544 800.966 174.008 799.55 174.992C798.158 175.952 796.298 176.432 793.97 176.432ZM807.722 176H806.282V172.112H809.882V175.676L808.154 180.824H806.282L807.722 176ZM830.677 176.432C829.045 176.432 827.593 176.048 826.321 175.28C825.049 174.512 824.413 173.12 824.413 171.104C824.413 168.68 825.493 167.024 827.653 166.136C829.813 165.224 832.933 164.768 837.013 164.768V162.68C837.013 161.576 836.701 160.736 836.077 160.16C835.453 159.56 834.325 159.26 832.693 159.26C831.157 159.26 830.053 159.548 829.381 160.124C828.733 160.7 828.409 161.408 828.409 162.248V162.68H825.349C825.325 162.536 825.313 162.272 825.313 161.888C825.313 160.208 826.009 158.912 827.401 158C828.793 157.088 830.653 156.632 832.981 156.632C835.333 156.632 837.121 157.124 838.345 158.108C839.569 159.092 840.181 160.484 840.181 162.284V172.544C840.181 172.976 840.301 173.3 840.541 173.516C840.781 173.708 841.081 173.804 841.441 173.804H842.881V175.856C842.257 176.144 841.441 176.288 840.433 176.288C839.617 176.288 838.933 176.048 838.381 175.568C837.829 175.064 837.457 174.404 837.265 173.588H837.013C836.365 174.476 835.477 175.172 834.349 175.676C833.245 176.18 832.021 176.432 830.677 176.432ZM831.505 173.804C832.441 173.804 833.329 173.612 834.169 173.228C835.009 172.844 835.693 172.28 836.221 171.536C836.749 170.768 837.013 169.844 837.013 168.764V167.396C833.917 167.396 831.589 167.648 830.029 168.152C828.493 168.632 827.725 169.556 827.725 170.924C827.725 171.956 828.037 172.7 828.661 173.156C829.309 173.588 830.257 173.804 831.505 173.804ZM845.533 157.064H847.945L848.305 159.62H848.557C849.949 157.628 852.073 156.632 854.929 156.632C856.825 156.632 858.277 157.148 859.285 158.18C860.317 159.188 860.833 160.82 860.833 163.076V176H857.665V163.292C857.665 161.78 857.329 160.736 856.657 160.16C855.985 159.56 855.013 159.26 853.741 159.26C852.829 159.26 851.989 159.488 851.221 159.944C850.453 160.376 849.841 161.012 849.385 161.852C848.929 162.692 848.701 163.676 848.701 164.804V176H845.533V157.064ZM871.873 176.432C869.473 176.432 867.625 175.628 866.329 174.02C865.033 172.412 864.385 169.916 864.385 166.532C864.385 163.22 865.021 160.748 866.293 159.116C867.589 157.46 869.353 156.632 871.585 156.632C872.929 156.632 874.069 156.836 875.005 157.244C875.941 157.652 876.721 158.312 877.345 159.224H877.561V149.972H880.729V176H878.353L877.957 173.444H877.741C877.117 174.428 876.289 175.172 875.257 175.676C874.249 176.18 873.121 176.432 871.873 176.432ZM872.665 173.804C874.369 173.804 875.605 173.204 876.373 172.004C877.165 170.804 877.561 169.028 877.561 166.676V166.532C877.561 164.132 877.165 162.32 876.373 161.096C875.581 159.872 874.345 159.26 872.665 159.26C871.465 159.26 870.493 159.5 869.749 159.98C869.029 160.436 868.501 161.192 868.165 162.248C867.829 163.304 867.661 164.732 867.661 166.532V166.676C867.661 168.452 867.829 169.856 868.165 170.888C868.501 171.92 869.029 172.664 869.749 173.12C870.469 173.576 871.441 173.804 872.665 173.804ZM902.76 176.432C899.88 176.432 897.768 175.64 896.424 174.056C895.08 172.448 894.408 169.94 894.408 166.532C894.408 163.148 895.08 160.652 896.424 159.044C897.792 157.436 899.904 156.632 902.76 156.632C905.352 156.632 907.248 157.256 908.448 158.504C909.648 159.752 910.248 161.612 910.248 164.084H907.008C907.008 162.38 906.696 161.156 906.072 160.412C905.472 159.644 904.368 159.26 902.76 159.26C901.008 159.26 899.724 159.836 898.908 160.988C898.092 162.116 897.684 163.964 897.684 166.532V166.676C897.684 169.22 898.08 171.044 898.872 172.148C899.664 173.252 900.96 173.804 902.76 173.804C904.344 173.804 905.472 173.408 906.144 172.616C906.84 171.8 907.188 170.588 907.188 168.98H910.248C910.248 171.14 909.636 172.928 908.412 174.344C907.188 175.736 905.304 176.432 902.76 176.432ZM913.56 149.972H916.728V159.188H916.98C918.3 157.484 920.292 156.632 922.956 156.632C926.892 156.632 928.86 158.78 928.86 163.076V176H925.692V163.292C925.692 161.78 925.356 160.736 924.684 160.16C924.012 159.56 923.04 159.26 921.768 159.26C920.856 159.26 920.016 159.488 919.248 159.944C918.48 160.376 917.868 161.012 917.412 161.852C916.956 162.692 916.728 163.676 916.728 164.804V176H913.56V149.972ZM933.564 149.972H936.696V153.392H933.564V149.972ZM933.564 157.064H936.732V176H933.564V157.064ZM941.545 149.972H944.713V176H941.545V149.972ZM957.553 176.432C954.505 176.432 952.237 175.628 950.749 174.02C949.261 172.412 948.517 169.916 948.517 166.532C948.517 163.148 949.261 160.652 950.749 159.044C952.237 157.436 954.505 156.632 957.553 156.632C960.289 156.632 962.329 157.364 963.673 158.828C965.041 160.268 965.725 162.596 965.725 165.812V167.396H951.793C951.913 169.58 952.429 171.2 953.341 172.256C954.277 173.288 955.681 173.804 957.553 173.804C959.065 173.804 960.289 173.456 961.225 172.76C962.161 172.064 962.629 170.996 962.629 169.556H965.725C965.725 171.764 964.957 173.468 963.421 174.668C961.909 175.844 959.953 176.432 957.553 176.432ZM962.413 164.768C962.413 161.096 960.793 159.26 957.553 159.26C955.753 159.26 954.397 159.692 953.485 160.556C952.597 161.42 952.057 162.824 951.865 164.768H962.413ZM976.009 176.432C974.257 176.432 972.793 176.18 971.617 175.676C970.465 175.148 969.613 174.464 969.061 173.624C968.509 172.784 968.233 171.872 968.233 170.888C968.233 170.6 968.233 170.408 968.233 170.312C968.257 170.192 968.269 170.12 968.269 170.096H971.401V170.456C971.401 171.584 971.845 172.436 972.733 173.012C973.621 173.564 974.773 173.84 976.189 173.84C977.413 173.84 978.421 173.6 979.213 173.12C980.029 172.616 980.437 171.92 980.437 171.032C980.437 170.336 980.209 169.772 979.753 169.34C979.297 168.884 978.733 168.536 978.061 168.296C977.389 168.032 976.477 167.756 975.325 167.468C973.933 167.108 972.793 166.748 971.905 166.388C971.041 166.028 970.297 165.5 969.673 164.804C969.073 164.084 968.773 163.16 968.773 162.032C968.773 160.376 969.445 159.068 970.789 158.108C972.157 157.124 973.993 156.632 976.297 156.632C977.737 156.632 978.985 156.872 980.041 157.352C981.097 157.808 981.889 158.432 982.417 159.224C982.969 159.992 983.245 160.856 983.245 161.816L983.209 162.5H980.113V162.176C980.113 161.336 979.777 160.64 979.105 160.088C978.457 159.536 977.401 159.26 975.937 159.26C974.497 159.26 973.489 159.524 972.913 160.052C972.337 160.556 972.049 161.144 972.049 161.816C972.049 162.368 972.253 162.824 972.661 163.184C973.069 163.544 973.573 163.832 974.173 164.048C974.773 164.264 975.613 164.504 976.693 164.768C978.181 165.152 979.393 165.536 980.329 165.92C981.265 166.28 982.057 166.844 982.705 167.612C983.377 168.356 983.713 169.352 983.713 170.6C983.713 172.544 983.005 174.008 981.589 174.992C980.197 175.952 978.337 176.432 976.009 176.432ZM370.096 203.692H367.324V201.064H370.096V198.04C370.096 196.792 370.408 195.76 371.032 194.944C371.656 194.104 372.712 193.684 374.2 193.684C374.68 193.684 375.16 193.732 375.64 193.828C376.144 193.9 376.564 193.996 376.9 194.116V196.312H375.028C373.852 196.312 373.264 196.888 373.264 198.04V201.064H376.9V203.692H373.264V220H370.096V203.692ZM379.432 201.064H381.844L382.204 203.908H382.42C382.78 202.972 383.32 202.192 384.04 201.568C384.76 200.944 385.708 200.632 386.884 200.632C387.532 200.632 388.096 200.728 388.576 200.92V203.98H387.244C385.9 203.98 384.784 204.376 383.896 205.168C383.032 205.936 382.6 207.148 382.6 208.804V220H379.432V201.064ZM399.016 220.432C396.112 220.432 393.928 219.628 392.464 218.02C391 216.388 390.268 213.892 390.268 210.532C390.268 207.172 391 204.688 392.464 203.08C393.928 201.448 396.112 200.632 399.016 200.632C401.92 200.632 404.104 201.448 405.568 203.08C407.032 204.688 407.764 207.172 407.764 210.532C407.764 213.892 407.032 216.388 405.568 218.02C404.104 219.628 401.92 220.432 399.016 220.432ZM399.016 217.804C400.936 217.804 402.328 217.252 403.192 216.148C404.056 215.02 404.488 213.196 404.488 210.676V210.388C404.488 207.868 404.056 206.056 403.192 204.952C402.328 203.824 400.936 203.26 399.016 203.26C397.096 203.26 395.704 203.824 394.84 204.952C393.976 206.056 393.544 207.868 393.544 210.388V210.676C393.544 213.196 393.976 215.02 394.84 216.148C395.704 217.252 397.096 217.804 399.016 217.804ZM411.424 201.064H413.836L414.196 203.62H414.448C415.744 201.628 417.64 200.632 420.136 200.632C422.584 200.632 424.216 201.628 425.032 203.62H425.248C425.896 202.66 426.736 201.928 427.768 201.424C428.824 200.896 429.94 200.632 431.116 200.632C434.836 200.632 436.696 202.54 436.696 206.356V220H433.528V206.932C433.528 205.564 433.228 204.616 432.628 204.088C432.028 203.536 431.2 203.26 430.144 203.26C428.872 203.26 427.804 203.764 426.94 204.772C426.076 205.78 425.644 207.124 425.644 208.804V220H422.476V206.932C422.476 205.564 422.188 204.616 421.612 204.088C421.036 203.536 420.22 203.26 419.164 203.26C418.348 203.26 417.592 203.488 416.896 203.944C416.2 204.376 415.636 205.012 415.204 205.852C414.796 206.692 414.592 207.676 414.592 208.804V220H411.424V201.064ZM455.716 220.396C454.42 220.396 453.472 220.012 452.872 219.244C452.272 218.476 451.972 217.528 451.972 216.4V203.692H449.668V201.064H452.008L452.692 195.808H455.14V201.064H458.344V203.692H455.14V216.112C455.14 217.24 455.668 217.804 456.724 217.804H458.344V219.892C458.032 220.036 457.624 220.156 457.12 220.252C456.616 220.348 456.148 220.396 455.716 220.396ZM461.451 193.972H464.619V203.188H464.871C466.191 201.484 468.183 200.632 470.847 200.632C474.783 200.632 476.751 202.78 476.751 207.076V220H473.583V207.292C473.583 205.78 473.247 204.736 472.575 204.16C471.903 203.56 470.931 203.26 469.659 203.26C468.747 203.26 467.907 203.488 467.139 203.944C466.371 204.376 465.759 205.012 465.303 205.852C464.847 206.692 464.619 207.676 464.619 208.804V220H461.451V193.972ZM489.483 220.432C486.435 220.432 484.167 219.628 482.679 218.02C481.191 216.412 480.447 213.916 480.447 210.532C480.447 207.148 481.191 204.652 482.679 203.044C484.167 201.436 486.435 200.632 489.483 200.632C492.219 200.632 494.259 201.364 495.603 202.828C496.971 204.268 497.655 206.596 497.655 209.812V211.396H483.723C483.843 213.58 484.359 215.2 485.271 216.256C486.207 217.288 487.611 217.804 489.483 217.804C490.995 217.804 492.219 217.456 493.155 216.76C494.091 216.064 494.559 214.996 494.559 213.556H497.655C497.655 215.764 496.887 217.468 495.351 218.668C493.839 219.844 491.883 220.432 489.483 220.432ZM494.343 208.768C494.343 205.096 492.723 203.26 489.483 203.26C487.683 203.26 486.327 203.692 485.415 204.556C484.527 205.42 483.987 206.824 483.795 208.768H494.343ZM522.782 220.432C518.798 220.432 515.798 219.376 513.782 217.264C511.766 215.128 510.758 211.924 510.758 207.652C510.758 203.38 511.766 200.188 513.782 198.076C515.798 195.94 518.798 194.872 522.782 194.872C525.998 194.872 528.566 195.676 530.486 197.284C532.43 198.868 533.402 201.184 533.402 204.232H529.91C529.91 202.12 529.274 200.524 528.002 199.444C526.754 198.34 525.014 197.788 522.782 197.788C519.878 197.788 517.742 198.556 516.374 200.092C515.006 201.628 514.31 204.124 514.286 207.58V207.652C514.286 211.132 514.97 213.652 516.338 215.212C517.706 216.748 519.854 217.516 522.782 217.516C525.062 217.516 526.838 216.976 528.11 215.896C529.406 214.816 530.054 213.232 530.054 211.144H533.402C533.402 214.216 532.442 216.532 530.522 218.092C528.602 219.652 526.022 220.432 522.782 220.432ZM542.607 220.432C540.975 220.432 539.523 220.048 538.251 219.28C536.979 218.512 536.343 217.12 536.343 215.104C536.343 212.68 537.423 211.024 539.583 210.136C541.743 209.224 544.863 208.768 548.943 208.768V206.68C548.943 205.576 548.631 204.736 548.007 204.16C547.383 203.56 546.255 203.26 544.623 203.26C543.087 203.26 541.983 203.548 541.311 204.124C540.663 204.7 540.339 205.408 540.339 206.248V206.68H537.279C537.255 206.536 537.243 206.272 537.243 205.888C537.243 204.208 537.939 202.912 539.331 202C540.723 201.088 542.583 200.632 544.911 200.632C547.263 200.632 549.051 201.124 550.275 202.108C551.499 203.092 552.111 204.484 552.111 206.284V216.544C552.111 216.976 552.231 217.3 552.471 217.516C552.711 217.708 553.011 217.804 553.371 217.804H554.811V219.856C554.187 220.144 553.371 220.288 552.363 220.288C551.547 220.288 550.863 220.048 550.311 219.568C549.759 219.064 549.387 218.404 549.195 217.588H548.943C548.295 218.476 547.407 219.172 546.279 219.676C545.175 220.18 543.951 220.432 542.607 220.432ZM543.435 217.804C544.371 217.804 545.259 217.612 546.099 217.228C546.939 216.844 547.623 216.28 548.151 215.536C548.679 214.768 548.943 213.844 548.943 212.764V211.396C545.847 211.396 543.519 211.648 541.959 212.152C540.423 212.632 539.655 213.556 539.655 214.924C539.655 215.956 539.967 216.7 540.591 217.156C541.239 217.588 542.187 217.804 543.435 217.804ZM557.463 193.972H560.631V220H557.463V193.972ZM565.443 193.972H568.575V197.392H565.443V193.972ZM565.443 201.064H568.611V220H565.443V201.064ZM574.108 203.692H571.336V201.064H574.108V198.04C574.108 196.792 574.42 195.76 575.044 194.944C575.668 194.104 576.724 193.684 578.212 193.684C578.692 193.684 579.172 193.732 579.652 193.828C580.156 193.9 580.576 193.996 580.912 194.116V196.312H579.04C577.864 196.312 577.276 196.888 577.276 198.04V201.064H580.912V203.692H577.276V220H574.108V203.692ZM591.039 220.432C588.135 220.432 585.951 219.628 584.487 218.02C583.023 216.388 582.291 213.892 582.291 210.532C582.291 207.172 583.023 204.688 584.487 203.08C585.951 201.448 588.135 200.632 591.039 200.632C593.943 200.632 596.127 201.448 597.591 203.08C599.055 204.688 599.787 207.172 599.787 210.532C599.787 213.892 599.055 216.388 597.591 218.02C596.127 219.628 593.943 220.432 591.039 220.432ZM591.039 217.804C592.959 217.804 594.351 217.252 595.215 216.148C596.079 215.02 596.511 213.196 596.511 210.676V210.388C596.511 207.868 596.079 206.056 595.215 204.952C594.351 203.824 592.959 203.26 591.039 203.26C589.119 203.26 587.727 203.824 586.863 204.952C585.999 206.056 585.567 207.868 585.567 210.388V210.676C585.567 213.196 585.999 215.02 586.863 216.148C587.727 217.252 589.119 217.804 591.039 217.804ZM603.447 201.064H605.859L606.219 203.908H606.435C606.795 202.972 607.335 202.192 608.055 201.568C608.775 200.944 609.723 200.632 610.899 200.632C611.547 200.632 612.111 200.728 612.591 200.92V203.98H611.259C609.915 203.98 608.799 204.376 607.911 205.168C607.047 205.936 606.615 207.148 606.615 208.804V220H603.447V201.064ZM615.435 201.064H617.847L618.207 203.62H618.459C619.851 201.628 621.975 200.632 624.831 200.632C626.727 200.632 628.179 201.148 629.187 202.18C630.219 203.188 630.735 204.82 630.735 207.076V220H627.567V207.292C627.567 205.78 627.231 204.736 626.559 204.16C625.887 203.56 624.915 203.26 623.643 203.26C622.731 203.26 621.891 203.488 621.123 203.944C620.355 204.376 619.743 205.012 619.287 205.852C618.831 206.692 618.603 207.676 618.603 208.804V220H615.435V201.064ZM635.439 193.972H638.571V197.392H635.439V193.972ZM635.439 201.064H638.607V220H635.439V201.064ZM648.568 220.432C646.936 220.432 645.484 220.048 644.212 219.28C642.94 218.512 642.304 217.12 642.304 215.104C642.304 212.68 643.384 211.024 645.544 210.136C647.704 209.224 650.824 208.768 654.904 208.768V206.68C654.904 205.576 654.592 204.736 653.968 204.16C653.344 203.56 652.216 203.26 650.584 203.26C649.048 203.26 647.944 203.548 647.272 204.124C646.624 204.7 646.3 205.408 646.3 206.248V206.68H643.24C643.216 206.536 643.204 206.272 643.204 205.888C643.204 204.208 643.9 202.912 645.292 202C646.684 201.088 648.544 200.632 650.872 200.632C653.224 200.632 655.012 201.124 656.236 202.108C657.46 203.092 658.072 204.484 658.072 206.284V216.544C658.072 216.976 658.192 217.3 658.432 217.516C658.672 217.708 658.972 217.804 659.332 217.804H660.772V219.856C660.148 220.144 659.332 220.288 658.324 220.288C657.508 220.288 656.824 220.048 656.272 219.568C655.72 219.064 655.348 218.404 655.156 217.588H654.904C654.256 218.476 653.368 219.172 652.24 219.676C651.136 220.18 649.912 220.432 648.568 220.432ZM649.396 217.804C650.332 217.804 651.22 217.612 652.06 217.228C652.9 216.844 653.584 216.28 654.112 215.536C654.64 214.768 654.904 213.844 654.904 212.764V211.396C651.808 211.396 649.48 211.648 647.92 212.152C646.384 212.632 645.616 213.556 645.616 214.924C645.616 215.956 645.928 216.7 646.552 217.156C647.2 217.588 648.148 217.804 649.396 217.804ZM680.643 220.432C677.763 220.432 675.651 219.64 674.307 218.056C672.963 216.448 672.291 213.94 672.291 210.532C672.291 207.148 672.963 204.652 674.307 203.044C675.675 201.436 677.787 200.632 680.643 200.632C683.235 200.632 685.131 201.256 686.331 202.504C687.531 203.752 688.131 205.612 688.131 208.084H684.891C684.891 206.38 684.579 205.156 683.955 204.412C683.355 203.644 682.251 203.26 680.643 203.26C678.891 203.26 677.607 203.836 676.791 204.988C675.975 206.116 675.567 207.964 675.567 210.532V210.676C675.567 213.22 675.963 215.044 676.755 216.148C677.547 217.252 678.843 217.804 680.643 217.804C682.227 217.804 683.355 217.408 684.027 216.616C684.723 215.8 685.071 214.588 685.071 212.98H688.131C688.131 215.14 687.519 216.928 686.295 218.344C685.071 219.736 683.187 220.432 680.643 220.432ZM699.039 220.432C696.135 220.432 693.951 219.628 692.487 218.02C691.023 216.388 690.291 213.892 690.291 210.532C690.291 207.172 691.023 204.688 692.487 203.08C693.951 201.448 696.135 200.632 699.039 200.632C701.943 200.632 704.127 201.448 705.591 203.08C707.055 204.688 707.787 207.172 707.787 210.532C707.787 213.892 707.055 216.388 705.591 218.02C704.127 219.628 701.943 220.432 699.039 220.432ZM699.039 217.804C700.959 217.804 702.351 217.252 703.215 216.148C704.079 215.02 704.511 213.196 704.511 210.676V210.388C704.511 207.868 704.079 206.056 703.215 204.952C702.351 203.824 700.959 203.26 699.039 203.26C697.119 203.26 695.727 203.824 694.863 204.952C693.999 206.056 693.567 207.868 693.567 210.388V210.676C693.567 213.196 693.999 215.02 694.863 216.148C695.727 217.252 697.119 217.804 699.039 217.804ZM716.595 220.432C714.963 220.432 713.511 220.048 712.239 219.28C710.967 218.512 710.331 217.12 710.331 215.104C710.331 212.68 711.411 211.024 713.571 210.136C715.731 209.224 718.851 208.768 722.931 208.768V206.68C722.931 205.576 722.619 204.736 721.995 204.16C721.371 203.56 720.243 203.26 718.611 203.26C717.075 203.26 715.971 203.548 715.299 204.124C714.651 204.7 714.327 205.408 714.327 206.248V206.68H711.267C711.243 206.536 711.231 206.272 711.231 205.888C711.231 204.208 711.927 202.912 713.319 202C714.711 201.088 716.571 200.632 718.899 200.632C721.251 200.632 723.039 201.124 724.263 202.108C725.487 203.092 726.099 204.484 726.099 206.284V216.544C726.099 216.976 726.219 217.3 726.459 217.516C726.699 217.708 726.999 217.804 727.359 217.804H728.799V219.856C728.175 220.144 727.359 220.288 726.351 220.288C725.535 220.288 724.851 220.048 724.299 219.568C723.747 219.064 723.375 218.404 723.183 217.588H722.931C722.283 218.476 721.395 219.172 720.267 219.676C719.163 220.18 717.939 220.432 716.595 220.432ZM717.423 217.804C718.359 217.804 719.247 217.612 720.087 217.228C720.927 216.844 721.611 216.28 722.139 215.536C722.667 214.768 722.931 213.844 722.931 212.764V211.396C719.835 211.396 717.507 211.648 715.947 212.152C714.411 212.632 713.643 213.556 713.643 214.924C713.643 215.956 713.955 216.7 714.579 217.156C715.227 217.588 716.175 217.804 717.423 217.804ZM737.931 220.432C736.179 220.432 734.715 220.18 733.539 219.676C732.387 219.148 731.535 218.464 730.983 217.624C730.431 216.784 730.155 215.872 730.155 214.888C730.155 214.6 730.155 214.408 730.155 214.312C730.179 214.192 730.191 214.12 730.191 214.096H733.323V214.456C733.323 215.584 733.767 216.436 734.655 217.012C735.543 217.564 736.695 217.84 738.111 217.84C739.335 217.84 740.343 217.6 741.135 217.12C741.951 216.616 742.359 215.92 742.359 215.032C742.359 214.336 742.131 213.772 741.675 213.34C741.219 212.884 740.655 212.536 739.983 212.296C739.311 212.032 738.399 211.756 737.247 211.468C735.855 211.108 734.715 210.748 733.827 210.388C732.963 210.028 732.219 209.5 731.595 208.804C730.995 208.084 730.695 207.16 730.695 206.032C730.695 204.376 731.367 203.068 732.711 202.108C734.079 201.124 735.915 200.632 738.219 200.632C739.659 200.632 740.907 200.872 741.963 201.352C743.019 201.808 743.811 202.432 744.339 203.224C744.891 203.992 745.167 204.856 745.167 205.816L745.131 206.5H742.035V206.176C742.035 205.336 741.699 204.64 741.027 204.088C740.379 203.536 739.323 203.26 737.859 203.26C736.419 203.26 735.411 203.524 734.835 204.052C734.259 204.556 733.971 205.144 733.971 205.816C733.971 206.368 734.175 206.824 734.583 207.184C734.991 207.544 735.495 207.832 736.095 208.048C736.695 208.264 737.535 208.504 738.615 208.768C740.103 209.152 741.315 209.536 742.251 209.92C743.187 210.28 743.979 210.844 744.627 211.612C745.299 212.356 745.635 213.352 745.635 214.6C745.635 216.544 744.927 218.008 743.511 218.992C742.119 219.952 740.259 220.432 737.931 220.432ZM753.735 220.396C752.439 220.396 751.491 220.012 750.891 219.244C750.291 218.476 749.991 217.528 749.991 216.4V203.692H747.687V201.064H750.027L750.711 195.808H753.159V201.064H756.363V203.692H753.159V216.112C753.159 217.24 753.687 217.804 754.743 217.804H756.363V219.892C756.051 220.036 755.643 220.156 755.139 220.252C754.635 220.348 754.167 220.396 753.735 220.396ZM760.335 216.112H763.935V220H760.335V216.112ZM791.03 220.432C786.998 220.432 783.95 219.376 781.886 217.264C779.822 215.128 778.79 211.924 778.79 207.652C778.79 199.132 782.942 194.872 791.246 194.872C794.654 194.872 797.39 195.628 799.454 197.14C801.518 198.652 802.55 200.848 802.55 203.728H799.058C799.058 201.736 798.362 200.248 796.97 199.264C795.578 198.28 793.67 197.788 791.246 197.788C788.246 197.788 786.014 198.556 784.55 200.092C783.086 201.628 782.354 204.148 782.354 207.652V207.724C782.378 211.204 783.098 213.712 784.514 215.248C785.954 216.76 788.126 217.516 791.03 217.516C793.814 217.516 795.854 216.94 797.15 215.788C798.47 214.636 799.13 212.872 799.13 210.496V210.136H790.418V207.148H802.55V220H799.886L799.634 217.264C797.762 219.376 794.894 220.432 791.03 220.432ZM807.529 201.064H809.941L810.301 203.908H810.517C810.877 202.972 811.417 202.192 812.137 201.568C812.857 200.944 813.805 200.632 814.981 200.632C815.629 200.632 816.193 200.728 816.673 200.92V203.98H815.341C813.997 203.98 812.881 204.376 811.993 205.168C811.129 205.936 810.697 207.148 810.697 208.804V220H807.529V201.064ZM827.113 220.432C824.209 220.432 822.025 219.628 820.561 218.02C819.097 216.388 818.365 213.892 818.365 210.532C818.365 207.172 819.097 204.688 820.561 203.08C822.025 201.448 824.209 200.632 827.113 200.632C830.017 200.632 832.201 201.448 833.665 203.08C835.129 204.688 835.861 207.172 835.861 210.532C835.861 213.892 835.129 216.388 833.665 218.02C832.201 219.628 830.017 220.432 827.113 220.432ZM827.113 217.804C829.033 217.804 830.425 217.252 831.289 216.148C832.153 215.02 832.585 213.196 832.585 210.676V210.388C832.585 207.868 832.153 206.056 831.289 204.952C830.425 203.824 829.033 203.26 827.113 203.26C825.193 203.26 823.801 203.824 822.937 204.952C822.073 206.056 821.641 207.868 821.641 210.388V210.676C821.641 213.196 822.073 215.02 822.937 216.148C823.801 217.252 825.193 217.804 827.113 217.804ZM837.289 201.064H840.565L843.481 211.792C843.673 212.44 844.045 213.928 844.597 216.256H844.777L845.713 211.792L848.197 201.064H852.049L854.677 211.792C854.845 212.44 855.169 213.928 855.649 216.256H855.829C856.333 214.024 856.693 212.536 856.909 211.792L859.789 201.064H862.885L857.197 220H853.741L851.005 208.696L850.141 204.808H849.997C849.613 206.728 849.337 208.024 849.169 208.696L846.469 220H842.977L837.289 201.064ZM865.502 201.064H867.914L868.274 203.62H868.526C869.918 201.628 872.042 200.632 874.898 200.632C876.794 200.632 878.246 201.148 879.254 202.18C880.286 203.188 880.802 204.82 880.802 207.076V220H877.634V207.292C877.634 205.78 877.298 204.736 876.626 204.16C875.954 203.56 874.982 203.26 873.71 203.26C872.798 203.26 871.958 203.488 871.19 203.944C870.422 204.376 869.81 205.012 869.354 205.852C868.898 206.692 868.67 207.676 868.67 208.804V220H865.502V201.064ZM893.293 201.064H896.569L899.485 211.792C899.677 212.44 900.049 213.928 900.601 216.256H900.781L901.717 211.792L904.201 201.064H908.053L910.681 211.792C910.849 212.44 911.173 213.928 911.653 216.256H911.833C912.337 214.024 912.697 212.536 912.913 211.792L915.793 201.064H918.889L913.201 220H909.745L907.009 208.696L906.145 204.808H906.001C905.617 206.728 905.341 208.024 905.173 208.696L902.473 220H898.981L893.293 201.064ZM921.506 193.972H924.638V197.392H921.506V193.972ZM921.506 201.064H924.674V220H921.506V201.064ZM933.77 220.396C932.474 220.396 931.526 220.012 930.926 219.244C930.326 218.476 930.026 217.528 930.026 216.4V203.692H927.722V201.064H930.062L930.746 195.808H933.194V201.064H936.398V203.692H933.194V216.112C933.194 217.24 933.722 217.804 934.778 217.804H936.398V219.892C936.086 220.036 935.678 220.156 935.174 220.252C934.67 220.348 934.202 220.396 933.77 220.396ZM939.506 193.972H942.674V203.188H942.926C944.246 201.484 946.238 200.632 948.902 200.632C952.838 200.632 954.806 202.78 954.806 207.076V220H951.638V207.292C951.638 205.78 951.302 204.736 950.63 204.16C949.958 203.56 948.986 203.26 947.714 203.26C946.802 203.26 945.962 203.488 945.194 203.944C944.426 204.376 943.814 205.012 943.358 205.852C942.902 206.692 942.674 207.676 942.674 208.804V220H939.506V193.972ZM369.412 237.972H372.58V264H369.412V237.972ZM384.988 264.432C382.084 264.432 379.9 263.628 378.436 262.02C376.972 260.388 376.24 257.892 376.24 254.532C376.24 251.172 376.972 248.688 378.436 247.08C379.9 245.448 382.084 244.632 384.988 244.632C387.892 244.632 390.076 245.448 391.54 247.08C393.004 248.688 393.736 251.172 393.736 254.532C393.736 257.892 393.004 260.388 391.54 262.02C390.076 263.628 387.892 264.432 384.988 264.432ZM384.988 261.804C386.908 261.804 388.3 261.252 389.164 260.148C390.028 259.02 390.46 257.196 390.46 254.676V254.388C390.46 251.868 390.028 250.056 389.164 248.952C388.3 247.824 386.908 247.26 384.988 247.26C383.068 247.26 381.676 247.824 380.812 248.952C379.948 250.056 379.516 251.868 379.516 254.388V254.676C379.516 257.196 379.948 259.02 380.812 260.148C381.676 261.252 383.068 261.804 384.988 261.804ZM395.452 245.064H398.8L402.148 254.532C402.628 255.876 403.252 257.856 404.02 260.472H404.2C404.896 258 405.508 256.02 406.036 254.532L409.348 245.064H412.516L405.568 264H402.4L395.452 245.064ZM423.424 264.432C420.376 264.432 418.108 263.628 416.62 262.02C415.132 260.412 414.388 257.916 414.388 254.532C414.388 251.148 415.132 248.652 416.62 247.044C418.108 245.436 420.376 244.632 423.424 244.632C426.16 244.632 428.2 245.364 429.544 246.828C430.912 248.268 431.596 250.596 431.596 253.812V255.396H417.664C417.784 257.58 418.3 259.2 419.212 260.256C420.148 261.288 421.552 261.804 423.424 261.804C424.936 261.804 426.16 261.456 427.096 260.76C428.032 260.064 428.5 258.996 428.5 257.556H431.596C431.596 259.764 430.828 261.468 429.292 262.668C427.78 263.844 425.824 264.432 423.424 264.432ZM428.284 252.768C428.284 249.096 426.664 247.26 423.424 247.26C421.624 247.26 420.268 247.692 419.356 248.556C418.468 249.42 417.928 250.824 417.736 252.768H428.284ZM454.276 264.432C453.028 264.432 451.888 264.18 450.856 263.676C449.848 263.172 449.032 262.428 448.408 261.444H448.192L447.796 264H445.42V237.972H448.588V247.224H448.804C449.428 246.312 450.208 245.652 451.144 245.244C452.08 244.836 453.22 244.632 454.564 244.632C456.796 244.632 458.548 245.46 459.82 247.116C461.116 248.748 461.764 251.22 461.764 254.532C461.764 257.916 461.116 260.412 459.82 262.02C458.524 263.628 456.676 264.432 454.276 264.432ZM453.484 261.804C454.708 261.804 455.68 261.576 456.4 261.12C457.12 260.664 457.648 259.92 457.984 258.888C458.32 257.856 458.488 256.452 458.488 254.676V254.532C458.488 252.732 458.32 251.304 457.984 250.248C457.648 249.192 457.108 248.436 456.364 247.98C455.644 247.5 454.684 247.26 453.484 247.26C451.804 247.26 450.568 247.872 449.776 249.096C448.984 250.32 448.588 252.132 448.588 254.532V254.676C448.588 257.028 448.972 258.804 449.74 260.004C450.532 261.204 451.78 261.804 453.484 261.804ZM467.224 270.552C466.168 270.552 465.328 270.456 464.704 270.264V268.212H465.964C468.412 268.212 470.02 266.808 470.788 264L463.48 245.064H466.828L470.356 254.532C470.86 255.876 471.544 257.856 472.408 260.472H472.588C473.284 258.024 473.872 256.044 474.352 254.532L477.376 245.064H480.544L474.316 263.028C473.476 265.428 472.516 267.276 471.436 268.572C470.38 269.892 468.976 270.552 467.224 270.552ZM493.443 237.972H496.611V264H493.443V237.972ZM509.02 264.432C506.116 264.432 503.932 263.628 502.468 262.02C501.004 260.388 500.272 257.892 500.272 254.532C500.272 251.172 501.004 248.688 502.468 247.08C503.932 245.448 506.116 244.632 509.02 244.632C511.924 244.632 514.108 245.448 515.572 247.08C517.036 248.688 517.768 251.172 517.768 254.532C517.768 257.892 517.036 260.388 515.572 262.02C514.108 263.628 511.924 264.432 509.02 264.432ZM509.02 261.804C510.94 261.804 512.332 261.252 513.196 260.148C514.06 259.02 514.492 257.196 514.492 254.676V254.388C514.492 251.868 514.06 250.056 513.196 248.952C512.332 247.824 510.94 247.26 509.02 247.26C507.1 247.26 505.708 247.824 504.844 248.952C503.98 250.056 503.548 251.868 503.548 254.388V254.676C503.548 257.196 503.98 259.02 504.844 260.148C505.708 261.252 507.1 261.804 509.02 261.804ZM528.628 264.432C525.748 264.432 523.636 263.64 522.292 262.056C520.948 260.448 520.276 257.94 520.276 254.532C520.276 251.148 520.948 248.652 522.292 247.044C523.66 245.436 525.772 244.632 528.628 244.632C531.22 244.632 533.116 245.256 534.316 246.504C535.516 247.752 536.116 249.612 536.116 252.084H532.876C532.876 250.38 532.564 249.156 531.94 248.412C531.34 247.644 530.236 247.26 528.628 247.26C526.876 247.26 525.592 247.836 524.776 248.988C523.96 250.116 523.552 251.964 523.552 254.532V254.676C523.552 257.22 523.948 259.044 524.74 260.148C525.532 261.252 526.828 261.804 528.628 261.804C530.212 261.804 531.34 261.408 532.012 260.616C532.708 259.8 533.056 258.588 533.056 256.98H536.116C536.116 259.14 535.504 260.928 534.28 262.344C533.056 263.736 531.172 264.432 528.628 264.432ZM544.576 264.432C542.944 264.432 541.492 264.048 540.22 263.28C538.948 262.512 538.312 261.12 538.312 259.104C538.312 256.68 539.392 255.024 541.552 254.136C543.712 253.224 546.832 252.768 550.912 252.768V250.68C550.912 249.576 550.6 248.736 549.976 248.16C549.352 247.56 548.224 247.26 546.592 247.26C545.056 247.26 543.952 247.548 543.28 248.124C542.632 248.7 542.308 249.408 542.308 250.248V250.68H539.248C539.224 250.536 539.212 250.272 539.212 249.888C539.212 248.208 539.908 246.912 541.3 246C542.692 245.088 544.552 244.632 546.88 244.632C549.232 244.632 551.02 245.124 552.244 246.108C553.468 247.092 554.08 248.484 554.08 250.284V260.544C554.08 260.976 554.2 261.3 554.44 261.516C554.68 261.708 554.98 261.804 555.34 261.804H556.78V263.856C556.156 264.144 555.34 264.288 554.332 264.288C553.516 264.288 552.832 264.048 552.28 263.568C551.728 263.064 551.356 262.404 551.164 261.588H550.912C550.264 262.476 549.376 263.172 548.248 263.676C547.144 264.18 545.92 264.432 544.576 264.432ZM545.404 261.804C546.34 261.804 547.228 261.612 548.068 261.228C548.908 260.844 549.592 260.28 550.12 259.536C550.648 258.768 550.912 257.844 550.912 256.764V255.396C547.816 255.396 545.488 255.648 543.928 256.152C542.392 256.632 541.624 257.556 541.624 258.924C541.624 259.956 541.936 260.7 542.56 261.156C543.208 261.588 544.156 261.804 545.404 261.804ZM559.432 237.972H562.6V264H559.432V237.972ZM578.116 247.692H575.344V245.064H578.116V242.04C578.116 240.792 578.428 239.76 579.052 238.944C579.676 238.104 580.732 237.684 582.22 237.684C582.7 237.684 583.18 237.732 583.66 237.828C584.164 237.9 584.584 237.996 584.92 238.116V240.312H583.048C581.872 240.312 581.284 240.888 581.284 242.04V245.064H584.92V247.692H581.284V264H578.116V247.692ZM592.599 264.432C590.967 264.432 589.515 264.048 588.243 263.28C586.971 262.512 586.335 261.12 586.335 259.104C586.335 256.68 587.415 255.024 589.575 254.136C591.735 253.224 594.855 252.768 598.935 252.768V250.68C598.935 249.576 598.623 248.736 597.999 248.16C597.375 247.56 596.247 247.26 594.615 247.26C593.079 247.26 591.975 247.548 591.303 248.124C590.655 248.7 590.331 249.408 590.331 250.248V250.68H587.271C587.247 250.536 587.235 250.272 587.235 249.888C587.235 248.208 587.931 246.912 589.323 246C590.715 245.088 592.575 244.632 594.903 244.632C597.255 244.632 599.043 245.124 600.267 246.108C601.491 247.092 602.103 248.484 602.103 250.284V260.544C602.103 260.976 602.223 261.3 602.463 261.516C602.703 261.708 603.003 261.804 603.363 261.804H604.803V263.856C604.179 264.144 603.363 264.288 602.355 264.288C601.539 264.288 600.855 264.048 600.303 263.568C599.751 263.064 599.379 262.404 599.187 261.588H598.935C598.287 262.476 597.399 263.172 596.271 263.676C595.167 264.18 593.943 264.432 592.599 264.432ZM593.427 261.804C594.363 261.804 595.251 261.612 596.091 261.228C596.931 260.844 597.615 260.28 598.143 259.536C598.671 258.768 598.935 257.844 598.935 256.764V255.396C595.839 255.396 593.511 255.648 591.951 256.152C590.415 256.632 589.647 257.556 589.647 258.924C589.647 259.956 589.959 260.7 590.583 261.156C591.231 261.588 592.179 261.804 593.427 261.804ZM607.455 245.064H609.867L610.227 247.908H610.443C610.803 246.972 611.343 246.192 612.063 245.568C612.783 244.944 613.731 244.632 614.907 244.632C615.555 244.632 616.119 244.728 616.599 244.92V247.98H615.267C613.923 247.98 612.807 248.376 611.919 249.168C611.055 249.936 610.623 251.148 610.623 252.804V264H607.455V245.064ZM619.443 245.064H621.855L622.215 247.62H622.467C623.763 245.628 625.659 244.632 628.155 244.632C630.603 244.632 632.235 245.628 633.051 247.62H633.267C633.915 246.66 634.755 245.928 635.787 245.424C636.843 244.896 637.959 244.632 639.135 244.632C642.855 244.632 644.715 246.54 644.715 250.356V264H641.547V250.932C641.547 249.564 641.247 248.616 640.647 248.088C640.047 247.536 639.219 247.26 638.163 247.26C636.891 247.26 635.823 247.764 634.959 248.772C634.095 249.78 633.663 251.124 633.663 252.804V264H630.495V250.932C630.495 249.564 630.207 248.616 629.631 248.088C629.055 247.536 628.239 247.26 627.183 247.26C626.367 247.26 625.611 247.488 624.915 247.944C624.219 248.376 623.655 249.012 623.223 249.852C622.815 250.692 622.611 251.676 622.611 252.804V264H619.443V245.064ZM657.46 264.432C654.412 264.432 652.144 263.628 650.656 262.02C649.168 260.412 648.424 257.916 648.424 254.532C648.424 251.148 649.168 248.652 650.656 247.044C652.144 245.436 654.412 244.632 657.46 244.632C660.196 244.632 662.236 245.364 663.58 246.828C664.948 248.268 665.632 250.596 665.632 253.812V255.396H651.7C651.82 257.58 652.336 259.2 653.248 260.256C654.184 261.288 655.588 261.804 657.46 261.804C658.972 261.804 660.196 261.456 661.132 260.76C662.068 260.064 662.536 258.996 662.536 257.556H665.632C665.632 259.764 664.864 261.468 663.328 262.668C661.816 263.844 659.86 264.432 657.46 264.432ZM662.32 252.768C662.32 249.096 660.7 247.26 657.46 247.26C655.66 247.26 654.304 247.692 653.392 248.556C652.504 249.42 651.964 250.824 651.772 252.768H662.32ZM669.435 245.064H671.847L672.207 247.908H672.423C672.783 246.972 673.323 246.192 674.043 245.568C674.763 244.944 675.711 244.632 676.887 244.632C677.535 244.632 678.099 244.728 678.579 244.92V247.98H677.247C675.903 247.98 674.787 248.376 673.899 249.168C673.035 249.936 672.603 251.148 672.603 252.804V264H669.435V245.064ZM687.904 264.432C686.152 264.432 684.688 264.18 683.512 263.676C682.36 263.148 681.508 262.464 680.956 261.624C680.404 260.784 680.128 259.872 680.128 258.888C680.128 258.6 680.128 258.408 680.128 258.312C680.152 258.192 680.164 258.12 680.164 258.096H683.296V258.456C683.296 259.584 683.74 260.436 684.628 261.012C685.516 261.564 686.668 261.84 688.084 261.84C689.308 261.84 690.316 261.6 691.108 261.12C691.924 260.616 692.332 259.92 692.332 259.032C692.332 258.336 692.104 257.772 691.648 257.34C691.192 256.884 690.628 256.536 689.956 256.296C689.284 256.032 688.372 255.756 687.22 255.468C685.828 255.108 684.688 254.748 683.8 254.388C682.936 254.028 682.192 253.5 681.568 252.804C680.968 252.084 680.668 251.16 680.668 250.032C680.668 248.376 681.34 247.068 682.684 246.108C684.052 245.124 685.888 244.632 688.192 244.632C689.632 244.632 690.88 244.872 691.936 245.352C692.992 245.808 693.784 246.432 694.312 247.224C694.864 247.992 695.14 248.856 695.14 249.816L695.104 250.5H692.008V250.176C692.008 249.336 691.672 248.64 691 248.088C690.352 247.536 689.296 247.26 687.832 247.26C686.392 247.26 685.384 247.524 684.808 248.052C684.232 248.556 683.944 249.144 683.944 249.816C683.944 250.368 684.148 250.824 684.556 251.184C684.964 251.544 685.468 251.832 686.068 252.048C686.668 252.264 687.508 252.504 688.588 252.768C690.076 253.152 691.288 253.536 692.224 253.92C693.16 254.28 693.952 254.844 694.6 255.612C695.272 256.356 695.608 257.352 695.608 258.6C695.608 260.544 694.9 262.008 693.484 262.992C692.092 263.952 690.232 264.432 687.904 264.432ZM700.288 260.112H703.888V264H700.288V260.112Z" fill="black"/>
<g filter="url(#filter0_d)">
<rect x="10" y="5" width="287" height="287" rx="9.56667" fill="white"/>
<rect x="11.1958" y="6.19583" width="284.608" height="284.608" rx="8.37083" stroke="#F0F5F9" stroke-width="2.39167"/>
</g>
<path d="M103.141 246.663H101.156V229.589H110.673V231.353H103.141V237.6H110.218V239.364H103.141V246.663ZM111.666 252.408C110.926 252.408 110.327 252.311 109.868 252.116V250.54C110.405 250.695 110.934 250.773 111.456 250.773C112.063 250.773 112.507 250.606 112.787 250.271C113.075 249.944 113.219 249.442 113.219 248.765V233.863H115.158V248.625C115.158 251.147 113.994 252.408 111.666 252.408ZM113.056 230.395C113.056 229.951 113.165 229.628 113.383 229.426C113.601 229.216 113.873 229.11 114.2 229.11C114.511 229.11 114.78 229.216 115.006 229.426C115.232 229.636 115.345 229.959 115.345 230.395C115.345 230.831 115.232 231.158 115.006 231.376C114.78 231.586 114.511 231.691 114.2 231.691C113.873 231.691 113.601 231.586 113.383 231.376C113.165 231.158 113.056 230.831 113.056 230.395ZM127.139 246.663L126.754 244.841H126.661C126.022 245.643 125.384 246.188 124.745 246.476C124.115 246.756 123.325 246.896 122.375 246.896C121.106 246.896 120.109 246.569 119.385 245.915C118.669 245.261 118.311 244.331 118.311 243.124C118.311 240.539 120.378 239.185 124.512 239.06L126.684 238.99V238.196C126.684 237.192 126.466 236.452 126.03 235.977C125.602 235.494 124.913 235.253 123.963 235.253C122.896 235.253 121.69 235.58 120.343 236.234L119.747 234.751C120.378 234.408 121.067 234.14 121.814 233.945C122.569 233.751 123.325 233.653 124.08 233.653C125.606 233.653 126.735 233.992 127.466 234.669C128.206 235.347 128.576 236.433 128.576 237.927V246.663H127.139ZM122.76 245.296C123.967 245.296 124.913 244.965 125.598 244.304C126.291 243.642 126.637 242.715 126.637 241.524V240.368L124.699 240.45C123.157 240.504 122.044 240.746 121.359 241.174C120.681 241.594 120.343 242.252 120.343 243.148C120.343 243.848 120.553 244.381 120.973 244.747C121.402 245.113 121.997 245.296 122.76 245.296ZM134.52 246.663H132.581V228.492H134.52V246.663ZM140.569 246.663H138.631V228.492H140.569V246.663ZM152.551 246.663L152.165 244.841H152.072C151.434 245.643 150.795 246.188 150.157 246.476C149.526 246.756 148.736 246.896 147.786 246.896C146.517 246.896 145.521 246.569 144.797 245.915C144.08 245.261 143.722 244.331 143.722 243.124C143.722 240.539 145.789 239.185 149.923 239.06L152.095 238.99V238.196C152.095 237.192 151.877 236.452 151.441 235.977C151.013 235.494 150.324 235.253 149.374 235.253C148.308 235.253 147.101 235.58 145.754 236.234L145.159 234.751C145.789 234.408 146.478 234.14 147.226 233.945C147.981 233.751 148.736 233.653 149.491 233.653C151.017 233.653 152.146 233.992 152.878 234.669C153.617 235.347 153.987 236.433 153.987 237.927V246.663H152.551ZM148.172 245.296C149.378 245.296 150.324 244.965 151.009 244.304C151.702 243.642 152.049 242.715 152.049 241.524V240.368L150.11 240.45C148.569 240.504 147.455 240.746 146.77 241.174C146.093 241.594 145.754 242.252 145.754 243.148C145.754 243.848 145.964 244.381 146.385 244.747C146.813 245.113 147.409 245.296 148.172 245.296ZM179.317 238.103C179.317 240.835 178.624 242.984 177.238 244.549C175.86 246.114 173.941 246.896 171.481 246.896C168.966 246.896 167.024 246.129 165.654 244.596C164.291 243.054 163.61 240.882 163.61 238.079C163.61 235.3 164.295 233.147 165.665 231.621C167.036 230.088 168.982 229.321 171.504 229.321C173.957 229.321 175.872 230.099 177.25 231.656C178.628 233.213 179.317 235.362 179.317 238.103ZM165.712 238.103C165.712 240.415 166.202 242.17 167.183 243.369C168.172 244.561 169.605 245.156 171.481 245.156C173.373 245.156 174.801 244.561 175.767 243.369C176.732 242.178 177.215 240.423 177.215 238.103C177.215 235.806 176.732 234.066 175.767 232.882C174.809 231.691 173.388 231.096 171.504 231.096C169.612 231.096 168.172 231.695 167.183 232.894C166.202 234.085 165.712 235.821 165.712 238.103ZM191.602 246.663V238.383C191.602 237.34 191.365 236.561 190.89 236.047C190.415 235.533 189.671 235.276 188.659 235.276C187.32 235.276 186.339 235.639 185.717 236.363C185.094 237.087 184.782 238.282 184.782 239.948V246.663H182.844V233.863H184.42L184.736 235.615H184.829C185.226 234.985 185.783 234.498 186.499 234.155C187.215 233.805 188.013 233.63 188.893 233.63C190.434 233.63 191.594 234.004 192.373 234.751C193.152 235.491 193.541 236.678 193.541 238.313V246.663H191.602ZM202.942 246.896C201.05 246.896 199.555 246.32 198.457 245.168C197.367 244.016 196.822 242.416 196.822 240.368C196.822 238.305 197.328 236.666 198.341 235.452C199.36 234.237 200.727 233.63 202.44 233.63C204.043 233.63 205.312 234.159 206.247 235.218C207.181 236.269 207.648 237.659 207.648 239.387V240.613H198.831C198.87 242.116 199.248 243.256 199.964 244.035C200.688 244.814 201.704 245.203 203.012 245.203C204.39 245.203 205.752 244.915 207.099 244.339V246.067C206.414 246.363 205.764 246.573 205.149 246.698C204.542 246.83 203.806 246.896 202.942 246.896ZM202.416 235.253C201.388 235.253 200.567 235.588 199.952 236.257C199.345 236.927 198.987 237.853 198.878 239.037H205.569C205.569 237.815 205.297 236.88 204.752 236.234C204.207 235.58 203.428 235.253 202.416 235.253Z" fill="black"/>
<path d="M110.022 73.9636H131.076L153.402 194.638H134.891L131.571 173.018H109.527L106.348 194.638H87.7662L110.022 73.9636ZM129.451 159.241L120.973 99.1158H120.196L111.647 159.241H129.451ZM177.424 195.697C174.409 195.697 171.725 195.109 169.37 193.931C167.062 192.707 165.107 191.058 163.505 188.986C161.904 186.913 160.679 184.464 159.832 181.638C159.031 178.764 158.63 175.656 158.63 172.312C158.63 168.308 159.125 164.752 160.114 161.643C161.103 158.534 162.54 155.732 164.424 153.235C166.355 150.739 168.734 148.478 171.56 146.453C174.386 144.38 177.659 142.426 181.38 140.589C183.17 139.694 185.172 138.799 187.386 137.904C189.647 136.962 191.649 136.161 193.391 135.502V122.643C193.391 120.759 193.321 119.016 193.179 117.415C193.038 115.766 192.685 114.353 192.12 113.176C191.602 111.951 190.801 111.009 189.717 110.35C188.634 109.643 187.15 109.29 185.266 109.29C183.995 109.29 182.746 109.525 181.522 109.996C180.344 110.467 179.284 111.268 178.342 112.398C177.448 113.529 176.717 115.036 176.152 116.92C175.634 118.804 175.375 121.136 175.375 123.915V128.154H161.739C161.315 126.317 160.986 124.645 160.75 123.138C160.562 121.583 160.467 120.052 160.467 118.545C160.467 114.918 161.08 111.715 162.304 108.936C163.576 106.158 165.319 103.826 167.533 101.942C169.794 100.058 172.478 98.6448 175.587 97.7028C178.696 96.7137 182.111 96.2191 185.832 96.2191C190.683 96.2191 194.71 96.7608 197.913 97.8441C201.116 98.8803 203.659 100.458 205.544 102.578C207.475 104.697 208.817 107.359 209.571 110.561C210.371 113.764 210.772 117.509 210.772 121.795V194.638H197.489L196.217 186.301C194.286 189.08 191.696 191.341 188.446 193.083C185.243 194.826 181.569 195.697 177.424 195.697ZM185.337 181.92C186.844 181.92 188.304 181.543 189.717 180.79C191.178 179.989 192.402 179.024 193.391 177.893V147.442C192.449 147.819 191.39 148.266 190.212 148.784C189.034 149.302 187.763 149.985 186.397 150.833C185.125 151.634 183.877 152.6 182.652 153.73C181.428 154.86 180.321 156.203 179.332 157.757C178.39 159.312 177.612 161.078 177 163.056C176.435 164.987 176.152 167.154 176.152 169.556C176.152 173.277 176.882 176.268 178.342 178.529C179.803 180.79 182.134 181.92 185.337 181.92Z" fill="black"/>
<g filter="url(#filter1_d)">
<rect x="10" y="5" width="287" height="287" rx="9.56667" fill="white"/>
<rect x="11.1958" y="6.19583" width="284.608" height="284.608" rx="8.37083" stroke="#F0F5F9" stroke-width="2.39167"/>
</g>
<path d="M125.201 246.663L123.075 241.232H116.232L114.13 246.663H112.121L118.871 229.519H120.541L127.256 246.663H125.201ZM122.456 239.446L120.471 234.155C120.214 233.486 119.95 232.664 119.677 231.691C119.506 232.439 119.261 233.26 118.941 234.155L116.933 239.446H122.456ZM135.151 233.63C135.719 233.63 136.229 233.677 136.68 233.77L136.412 235.568C135.882 235.452 135.415 235.393 135.01 235.393C133.975 235.393 133.087 235.814 132.348 236.654C131.616 237.495 131.25 238.542 131.25 239.796V246.663H129.311V233.863H130.911L131.133 236.234H131.227C131.702 235.401 132.274 234.759 132.943 234.307C133.613 233.856 134.349 233.63 135.151 233.63ZM144.189 246.896C142.336 246.896 140.9 246.328 139.88 245.191C138.868 244.047 138.362 242.431 138.362 240.345C138.362 238.204 138.876 236.549 139.903 235.382C140.939 234.214 142.41 233.63 144.318 233.63C144.933 233.63 145.548 233.696 146.163 233.828C146.778 233.961 147.261 234.116 147.611 234.296L147.015 235.942C146.587 235.771 146.12 235.631 145.614 235.522C145.108 235.405 144.66 235.347 144.271 235.347C141.671 235.347 140.371 237.005 140.371 240.321C140.371 241.894 140.686 243.101 141.317 243.942C141.955 244.782 142.897 245.203 144.143 245.203C145.209 245.203 146.303 244.973 147.424 244.514V246.231C146.568 246.674 145.489 246.896 144.189 246.896ZM159.231 246.663V238.383C159.231 237.34 158.993 236.561 158.518 236.047C158.043 235.533 157.3 235.276 156.288 235.276C154.941 235.276 153.956 235.642 153.333 236.374C152.718 237.106 152.411 238.305 152.411 239.971V246.663H150.472V228.492H152.411V233.992C152.411 234.654 152.38 235.203 152.317 235.639H152.434C152.816 235.023 153.357 234.541 154.057 234.19C154.766 233.832 155.572 233.653 156.475 233.653C158.04 233.653 159.211 234.027 159.99 234.774C160.776 235.514 161.169 236.693 161.169 238.313V246.663H159.231ZM167.102 246.663H165.163V233.863H167.102V246.663ZM165 230.395C165 229.951 165.109 229.628 165.327 229.426C165.545 229.216 165.817 229.11 166.144 229.11C166.456 229.11 166.724 229.216 166.95 229.426C167.176 229.636 167.289 229.959 167.289 230.395C167.289 230.831 167.176 231.158 166.95 231.376C166.724 231.586 166.456 231.691 166.144 231.691C165.817 231.691 165.545 231.586 165.327 231.376C165.109 231.158 165 230.831 165 230.395ZM174.015 246.663L169.157 233.863H171.236L173.992 241.454C174.615 243.229 174.98 244.381 175.089 244.911H175.183C175.269 244.498 175.537 243.646 175.989 242.353C176.448 241.053 177.472 238.223 179.06 233.863H181.139L176.281 246.663H174.015ZM194.242 240.251C194.242 242.338 193.716 243.969 192.665 245.144C191.614 246.312 190.162 246.896 188.309 246.896C187.165 246.896 186.149 246.628 185.261 246.09C184.374 245.553 183.688 244.782 183.206 243.778C182.723 242.774 182.482 241.598 182.482 240.251C182.482 238.165 183.003 236.542 184.047 235.382C185.09 234.214 186.538 233.63 188.391 233.63C190.181 233.63 191.602 234.225 192.653 235.417C193.712 236.608 194.242 238.219 194.242 240.251ZM184.49 240.251C184.49 241.886 184.817 243.132 185.471 243.988C186.125 244.845 187.087 245.273 188.356 245.273C189.625 245.273 190.586 244.849 191.24 244C191.902 243.144 192.233 241.894 192.233 240.251C192.233 238.624 191.902 237.39 191.24 236.549C190.586 235.701 189.617 235.276 188.332 235.276C187.063 235.276 186.106 235.693 185.46 236.526C184.813 237.359 184.49 238.601 184.49 240.251Z" fill="black"/>
<path d="M104.306 88.3763H121.814L160.303 187.638H145.689L135.705 161.158H89.6919L79.9973 187.638H65.8171L104.306 88.3763ZM131.22 149.149L119.644 118.184L112.988 100.241H112.264L105.753 117.894L94.1775 149.149H131.22ZM191.701 189.374C185.142 189.374 179.306 187.831 174.193 184.744C169.081 181.657 166.524 176.062 166.524 167.959C166.524 158.216 170.865 151.56 179.547 147.991C188.229 144.325 200.769 142.493 217.168 142.493V134.1C217.168 129.663 215.914 126.287 213.406 123.972C210.898 121.56 206.364 120.354 199.804 120.354C193.631 120.354 189.193 121.512 186.492 123.827C183.888 126.142 182.586 128.988 182.586 132.364V134.1H170.286C170.19 133.521 170.142 132.46 170.142 130.917C170.142 124.164 172.939 118.955 178.534 115.29C184.129 111.624 191.605 109.791 200.962 109.791C210.415 109.791 217.602 111.769 222.522 115.724C227.441 119.679 229.901 125.274 229.901 132.509V173.747C229.901 175.483 230.383 176.786 231.348 177.654C232.313 178.425 233.518 178.811 234.965 178.811H240.753V187.059C238.245 188.216 234.965 188.795 230.914 188.795C227.634 188.795 224.885 187.831 222.666 185.901C220.448 183.876 218.952 181.223 218.181 177.943H217.168C214.563 181.512 210.994 184.31 206.46 186.335C202.023 188.361 197.103 189.374 191.701 189.374ZM195.029 178.811C198.791 178.811 202.361 178.04 205.737 176.496C209.113 174.953 211.862 172.686 213.985 169.695C216.107 166.609 217.168 162.895 217.168 158.554V153.055C204.724 153.055 195.367 154.068 189.097 156.094C182.923 158.023 179.836 161.737 179.836 167.236C179.836 171.384 181.09 174.374 183.598 176.207C186.203 177.943 190.013 178.811 195.029 178.811Z" fill="black"/>
<defs>
<filter id="filter0_d" x="0.433332" y="0.216666" width="306.133" height="306.133" filterUnits="userSpaceOnUse" color-interpolation-filters="sRGB">
<feFlood flood-opacity="0" result="BackgroundImageFix"/>
<feColorMatrix in="SourceAlpha" type="matrix" values="0 0 0 0 0 0 0 0 0 0 0 0 0 0 0 0 0 0 127 0"/>
<feOffset dy="4.78333"/>
<feGaussianBlur stdDeviation="4.78333"/>
<feColorMatrix type="matrix" values="0 0 0 0 0 0 0 0 0 0 0 0 0 0 0 0 0 0 0.08 0"/>
<feBlend mode="normal" in2="BackgroundImageFix" result="effect1_dropShadow"/>
<feBlend mode="normal" in="SourceGraphic" in2="effect1_dropShadow" result="shape"/>
</filter>
<filter id="filter1_d" x="0.433332" y="0.216666" width="306.133" height="306.133" filterUnits="userSpaceOnUse" color-interpolation-filters="sRGB">
<feFlood flood-opacity="0" result="BackgroundImageFix"/>
<feColorMatrix in="SourceAlpha" type="matrix" values="0 0 0 0 0 0 0 0 0 0 0 0 0 0 0 0 0 0 127 0"/>
<feOffset dy="4.78333"/>
<feGaussianBlur stdDeviation="4.78333"/>
<feColorMatrix type="matrix" values="0 0 0 0 0 0 0 0 0 0 0 0 0 0 0 0 0 0 0.08 0"/>
<feBlend mode="normal" in2="BackgroundImageFix" result="effect1_dropShadow"/>
<feBlend mode="normal" in="SourceGraphic" in2="effect1_dropShadow" result="shape"/>
</filter>
</defs>
</svg>
