<svg width="525" height="233" viewBox="0 0 525 233" fill="none" xmlns="http://www.w3.org/2000/svg">
<path d="M280.742 18.956H287.276L301.64 56H296.186L292.46 46.118H275.288L271.67 56H266.378L280.742 18.956ZM290.786 41.636L286.466 30.08L283.982 23.384H283.712L281.282 29.972L276.962 41.636H290.786ZM313.358 56.648C310.91 56.648 308.732 56.072 306.824 54.92C304.916 53.768 303.962 51.68 303.962 48.656C303.962 45.02 305.582 42.536 308.822 41.204C312.062 39.836 316.742 39.152 322.862 39.152V36.02C322.862 34.364 322.394 33.104 321.458 32.24C320.522 31.34 318.83 30.89 316.382 30.89C314.078 30.89 312.422 31.322 311.414 32.186C310.442 33.05 309.956 34.112 309.956 35.372V36.02H305.366C305.33 35.804 305.312 35.408 305.312 34.832C305.312 32.312 306.356 30.368 308.444 29C310.532 27.632 313.322 26.948 316.814 26.948C320.342 26.948 323.024 27.686 324.86 29.162C326.696 30.638 327.614 32.726 327.614 35.426V50.816C327.614 51.464 327.794 51.95 328.154 52.274C328.514 52.562 328.964 52.706 329.504 52.706H331.664V55.784C330.728 56.216 329.504 56.432 327.992 56.432C326.768 56.432 325.742 56.072 324.914 55.352C324.086 54.596 323.528 53.606 323.24 52.382H322.862C321.89 53.714 320.558 54.758 318.866 55.514C317.21 56.27 315.374 56.648 313.358 56.648ZM314.6 52.706C316.004 52.706 317.336 52.418 318.596 51.842C319.856 51.266 320.882 50.42 321.674 49.304C322.466 48.152 322.862 46.766 322.862 45.146V43.094C318.218 43.094 314.726 43.472 312.386 44.228C310.082 44.948 308.93 46.334 308.93 48.386C308.93 49.934 309.398 51.05 310.334 51.734C311.306 52.382 312.728 52.706 314.6 52.706Z" fill="black"/>
<path d="M360.828 58.375H359.133V61H357.891V58.375H352.336V57.2422L357.758 49.5156H359.133V57.1953H360.828V58.375ZM357.891 57.1953V53.3984C357.891 52.6536 357.917 51.8125 357.969 50.875H357.906C357.656 51.375 357.422 51.7891 357.203 52.1172L353.633 57.1953H357.891ZM369.508 55.2734C369.508 57.2474 369.195 58.7214 368.57 59.6953C367.951 60.6693 367 61.1562 365.719 61.1562C364.49 61.1562 363.555 60.6589 362.914 59.6641C362.273 58.6641 361.953 57.2005 361.953 55.2734C361.953 53.2839 362.263 51.8073 362.883 50.8438C363.503 49.8802 364.448 49.3984 365.719 49.3984C366.958 49.3984 367.898 49.901 368.539 50.9062C369.185 51.9115 369.508 53.3672 369.508 55.2734ZM363.266 55.2734C363.266 56.9349 363.461 58.1458 363.852 58.9062C364.242 59.6615 364.865 60.0391 365.719 60.0391C366.583 60.0391 367.208 59.6562 367.594 58.8906C367.984 58.1198 368.18 56.9141 368.18 55.2734C368.18 53.6328 367.984 52.4323 367.594 51.6719C367.208 50.9062 366.583 50.5234 365.719 50.5234C364.865 50.5234 364.242 50.901 363.852 51.6562C363.461 52.4062 363.266 53.612 363.266 55.2734ZM378.664 55.2734C378.664 57.2474 378.352 58.7214 377.727 59.6953C377.107 60.6693 376.156 61.1562 374.875 61.1562C373.646 61.1562 372.711 60.6589 372.07 59.6641C371.43 58.6641 371.109 57.2005 371.109 55.2734C371.109 53.2839 371.419 51.8073 372.039 50.8438C372.659 49.8802 373.604 49.3984 374.875 49.3984C376.115 49.3984 377.055 49.901 377.695 50.9062C378.341 51.9115 378.664 53.3672 378.664 55.2734ZM372.422 55.2734C372.422 56.9349 372.617 58.1458 373.008 58.9062C373.398 59.6615 374.021 60.0391 374.875 60.0391C375.74 60.0391 376.365 59.6562 376.75 58.8906C377.141 58.1198 377.336 56.9141 377.336 55.2734C377.336 53.6328 377.141 52.4323 376.75 51.6719C376.365 50.9062 375.74 50.5234 374.875 50.5234C374.021 50.5234 373.398 50.901 373.008 51.6562C372.617 52.4062 372.422 53.612 372.422 55.2734Z" fill="black"/>
<path d="M280.634 90.956H289.328L303.746 128H296.294L293.27 119.954H276.314L273.344 128H266.216L280.634 90.956ZM291.056 114.122L287.276 103.97C286.7 102.53 286.088 100.694 285.44 98.462C285.332 98.138 285.224 97.85 285.116 97.598C285.044 97.31 284.972 97.076 284.9 96.896H284.63L284.09 98.57L282.254 103.97L278.474 114.122H291.056ZM314.661 128.648C312.357 128.648 310.269 128.09 308.397 126.974C306.561 125.822 305.643 123.716 305.643 120.656C305.643 117.02 307.191 114.464 310.287 112.988C313.383 111.512 317.775 110.774 323.463 110.774V108.398C323.463 107.03 323.103 105.968 322.383 105.212C321.699 104.456 320.439 104.078 318.603 104.078C316.695 104.078 315.345 104.384 314.553 104.996C313.761 105.608 313.365 106.364 313.365 107.264V108.02H307.101C307.065 107.804 307.047 107.408 307.047 106.832C307.047 104.384 308.091 102.458 310.179 101.054C312.303 99.65 315.111 98.948 318.603 98.948C322.383 98.948 325.209 99.722 327.081 101.27C328.989 102.818 329.943 105.032 329.943 107.912V121.466C329.943 122.114 330.123 122.6 330.483 122.924C330.843 123.212 331.293 123.356 331.833 123.356H333.561V127.784C332.409 128.324 331.059 128.594 329.511 128.594C328.107 128.594 326.937 128.252 326.001 127.568C325.065 126.884 324.435 125.948 324.111 124.76H323.733C321.609 127.352 318.585 128.648 314.661 128.648ZM316.605 123.464C318.729 123.464 320.403 122.852 321.627 121.628C322.851 120.404 323.463 118.748 323.463 116.66V115.364C319.971 115.364 317.235 115.706 315.255 116.39C313.275 117.038 312.285 118.244 312.285 120.008C312.285 122.312 313.725 123.464 316.605 123.464Z" fill="black"/>
<path d="M362.02 99.2012C362.02 100.458 361.564 101.438 360.652 102.141C359.741 102.844 358.504 103.195 356.941 103.195C355.249 103.195 353.947 102.977 353.035 102.541V100.939C353.621 101.187 354.259 101.382 354.949 101.525C355.639 101.669 356.323 101.74 357 101.74C358.107 101.74 358.94 101.532 359.5 101.115C360.06 100.692 360.34 100.106 360.34 99.3574C360.34 98.8626 360.239 98.459 360.037 98.1465C359.842 97.8275 359.51 97.5345 359.041 97.2676C358.579 97.0007 357.872 96.6979 356.922 96.3594C355.594 95.8841 354.643 95.321 354.07 94.6699C353.504 94.0189 353.221 93.1693 353.221 92.1211C353.221 91.0208 353.634 90.1452 354.461 89.4941C355.288 88.8431 356.382 88.5176 357.742 88.5176C359.161 88.5176 360.467 88.778 361.658 89.2988L361.141 90.7441C359.962 90.2493 358.816 90.002 357.703 90.002C356.824 90.002 356.137 90.1908 355.643 90.5684C355.148 90.946 354.9 91.4701 354.9 92.1406C354.9 92.6354 354.992 93.0423 355.174 93.3613C355.356 93.6738 355.662 93.9635 356.092 94.2305C356.528 94.4909 357.192 94.7806 358.084 95.0996C359.581 95.6335 360.61 96.2064 361.17 96.8184C361.736 97.4303 362.02 98.2246 362.02 99.2012ZM369.217 103.195C367.635 103.195 366.385 102.714 365.467 101.75C364.555 100.786 364.1 99.4486 364.1 97.7363C364.1 96.0111 364.523 94.6406 365.369 93.625C366.222 92.6094 367.365 92.1016 368.797 92.1016C370.138 92.1016 371.199 92.5443 371.98 93.4297C372.762 94.3086 373.152 95.4707 373.152 96.916V97.9414H365.779C365.812 99.1979 366.128 100.152 366.727 100.803C367.332 101.454 368.182 101.779 369.275 101.779C370.428 101.779 371.567 101.538 372.693 101.057V102.502C372.12 102.749 371.577 102.925 371.062 103.029C370.555 103.14 369.939 103.195 369.217 103.195ZM368.777 93.459C367.918 93.459 367.231 93.7389 366.717 94.2988C366.209 94.8587 365.91 95.6335 365.818 96.623H371.414C371.414 95.6009 371.186 94.8197 370.73 94.2793C370.275 93.7324 369.624 93.459 368.777 93.459ZM389.568 103V96.0371C389.568 95.1842 389.386 94.5462 389.021 94.123C388.657 93.6934 388.09 93.4785 387.322 93.4785C386.313 93.4785 385.568 93.7682 385.086 94.3477C384.604 94.9271 384.363 95.819 384.363 97.0234V103H382.742V96.0371C382.742 95.1842 382.56 94.5462 382.195 94.123C381.831 93.6934 381.261 93.4785 380.486 93.4785C379.471 93.4785 378.725 93.7845 378.25 94.3965C377.781 95.002 377.547 95.998 377.547 97.3848V103H375.926V92.2969H377.244L377.508 93.7617H377.586C377.892 93.2409 378.322 92.834 378.875 92.541C379.435 92.248 380.06 92.1016 380.75 92.1016C382.423 92.1016 383.517 92.707 384.031 93.918H384.109C384.428 93.3581 384.891 92.9154 385.496 92.5898C386.102 92.2643 386.792 92.1016 387.566 92.1016C388.777 92.1016 389.682 92.4141 390.281 93.0391C390.887 93.6576 391.189 94.6504 391.189 96.0176V103H389.568ZM396.16 103H394.539V92.2969H396.16V103ZM394.402 89.3965C394.402 89.0254 394.493 88.7552 394.676 88.5859C394.858 88.4102 395.086 88.3223 395.359 88.3223C395.62 88.3223 395.844 88.4102 396.033 88.5859C396.222 88.7617 396.316 89.0319 396.316 89.3965C396.316 89.7611 396.222 90.0345 396.033 90.2168C395.844 90.3926 395.62 90.4805 395.359 90.4805C395.086 90.4805 394.858 90.3926 394.676 90.2168C394.493 90.0345 394.402 89.7611 394.402 89.3965ZM398.699 98.3809V96.8965H403.494V98.3809H398.699ZM411.023 92.1211C412.43 92.1211 413.52 92.6029 414.295 93.5664C415.076 94.5234 415.467 95.8809 415.467 97.6387C415.467 99.3965 415.073 100.764 414.285 101.74C413.504 102.71 412.417 103.195 411.023 103.195C410.327 103.195 409.689 103.068 409.109 102.814C408.536 102.554 408.055 102.157 407.664 101.623H407.547L407.205 103H406.043V87.8047H407.664V91.4961C407.664 92.3229 407.638 93.0651 407.586 93.7227H407.664C408.419 92.6549 409.539 92.1211 411.023 92.1211ZM410.789 93.4785C409.682 93.4785 408.885 93.7975 408.396 94.4355C407.908 95.0671 407.664 96.1348 407.664 97.6387C407.664 99.1426 407.915 100.22 408.416 100.871C408.917 101.516 409.721 101.838 410.828 101.838C411.824 101.838 412.566 101.477 413.055 100.754C413.543 100.025 413.787 98.9798 413.787 97.6191C413.787 96.2259 413.543 95.1875 413.055 94.5039C412.566 93.8203 411.811 93.4785 410.789 93.4785ZM427.547 97.6387C427.547 99.3835 427.107 100.747 426.229 101.73C425.35 102.707 424.135 103.195 422.586 103.195C421.629 103.195 420.779 102.971 420.037 102.521C419.295 102.072 418.722 101.428 418.318 100.588C417.915 99.748 417.713 98.765 417.713 97.6387C417.713 95.8939 418.149 94.5365 419.021 93.5664C419.894 92.5898 421.105 92.1016 422.654 92.1016C424.152 92.1016 425.34 92.5996 426.219 93.5957C427.104 94.5918 427.547 95.9395 427.547 97.6387ZM419.393 97.6387C419.393 99.0059 419.666 100.048 420.213 100.764C420.76 101.48 421.564 101.838 422.625 101.838C423.686 101.838 424.49 101.483 425.037 100.773C425.59 100.057 425.867 99.0124 425.867 97.6387C425.867 96.278 425.59 95.2461 425.037 94.543C424.49 93.8333 423.68 93.4785 422.605 93.4785C421.544 93.4785 420.743 93.8268 420.203 94.5234C419.663 95.2201 419.393 96.2585 419.393 97.6387ZM432.02 103H430.398V87.8047H432.02V103ZM442.742 101.564H442.654C441.906 102.652 440.786 103.195 439.295 103.195C437.895 103.195 436.805 102.717 436.023 101.76C435.249 100.803 434.861 99.4421 434.861 97.6777C434.861 95.9134 435.252 94.543 436.033 93.5664C436.814 92.5898 437.902 92.1016 439.295 92.1016C440.747 92.1016 441.86 92.6289 442.635 93.6836H442.762L442.693 92.9121L442.654 92.1602V87.8047H444.275V103H442.957L442.742 101.564ZM439.5 101.838C440.607 101.838 441.408 101.538 441.902 100.939C442.404 100.334 442.654 99.3607 442.654 98.0195V97.6777C442.654 96.1608 442.4 95.0801 441.893 94.4355C441.391 93.7845 440.587 93.459 439.48 93.459C438.53 93.459 437.801 93.8301 437.293 94.5723C436.792 95.3079 436.541 96.3496 436.541 97.6973C436.541 99.0645 436.792 100.096 437.293 100.793C437.794 101.49 438.53 101.838 439.5 101.838Z" fill="black"/>
<path d="M352.914 128.117C352.914 125.872 353.349 124.195 354.219 123.086C355.094 121.971 356.385 121.414 358.094 121.414C358.682 121.414 359.146 121.464 359.484 121.562V122.68C359.083 122.549 358.625 122.484 358.109 122.484C356.885 122.484 355.951 122.867 355.305 123.633C354.659 124.393 354.305 125.591 354.242 127.227H354.336C354.909 126.331 355.815 125.883 357.055 125.883C358.081 125.883 358.888 126.193 359.477 126.812C360.07 127.432 360.367 128.273 360.367 129.336C360.367 130.523 360.042 131.458 359.391 132.141C358.745 132.818 357.87 133.156 356.766 133.156C355.583 133.156 354.646 132.714 353.953 131.828C353.26 130.938 352.914 129.701 352.914 128.117ZM356.75 132.055C357.49 132.055 358.062 131.823 358.469 131.359C358.88 130.891 359.086 130.216 359.086 129.336C359.086 128.581 358.896 127.987 358.516 127.555C358.135 127.122 357.568 126.906 356.812 126.906C356.344 126.906 355.914 127.003 355.523 127.195C355.133 127.388 354.82 127.654 354.586 127.992C354.357 128.331 354.242 128.682 354.242 129.047C354.242 129.583 354.346 130.083 354.555 130.547C354.763 131.01 355.057 131.378 355.438 131.648C355.823 131.919 356.26 132.055 356.75 132.055ZM369.508 127.273C369.508 129.247 369.195 130.721 368.57 131.695C367.951 132.669 367 133.156 365.719 133.156C364.49 133.156 363.555 132.659 362.914 131.664C362.273 130.664 361.953 129.201 361.953 127.273C361.953 125.284 362.263 123.807 362.883 122.844C363.503 121.88 364.448 121.398 365.719 121.398C366.958 121.398 367.898 121.901 368.539 122.906C369.185 123.911 369.508 125.367 369.508 127.273ZM363.266 127.273C363.266 128.935 363.461 130.146 363.852 130.906C364.242 131.661 364.865 132.039 365.719 132.039C366.583 132.039 367.208 131.656 367.594 130.891C367.984 130.12 368.18 128.914 368.18 127.273C368.18 125.633 367.984 124.432 367.594 123.672C367.208 122.906 366.583 122.523 365.719 122.523C364.865 122.523 364.242 122.901 363.852 123.656C363.461 124.406 363.266 125.612 363.266 127.273ZM378.664 127.273C378.664 129.247 378.352 130.721 377.727 131.695C377.107 132.669 376.156 133.156 374.875 133.156C373.646 133.156 372.711 132.659 372.07 131.664C371.43 130.664 371.109 129.201 371.109 127.273C371.109 125.284 371.419 123.807 372.039 122.844C372.659 121.88 373.604 121.398 374.875 121.398C376.115 121.398 377.055 121.901 377.695 122.906C378.341 123.911 378.664 125.367 378.664 127.273ZM372.422 127.273C372.422 128.935 372.617 130.146 373.008 130.906C373.398 131.661 374.021 132.039 374.875 132.039C375.74 132.039 376.365 131.656 376.75 130.891C377.141 130.12 377.336 128.914 377.336 127.273C377.336 125.633 377.141 124.432 376.75 123.672C376.365 122.906 375.74 122.523 374.875 122.523C374.021 122.523 373.398 122.901 373.008 123.656C372.617 124.406 372.422 125.612 372.422 127.273Z" fill="black"/>
<path d="M276.288 184.288C273.6 184.288 271.568 183.584 270.192 182.176C268.816 180.752 268.128 178.616 268.128 175.768C268.128 170.088 270.896 167.248 276.432 167.248C278.704 167.248 280.528 167.752 281.904 168.76C283.28 169.768 283.968 171.232 283.968 173.152H281.64C281.64 171.824 281.176 170.832 280.248 170.176C279.32 169.52 278.048 169.192 276.432 169.192C274.432 169.192 272.944 169.704 271.968 170.728C270.992 171.752 270.504 173.432 270.504 175.768V175.816C270.52 178.136 271 179.808 271.944 180.832C272.904 181.84 274.352 182.344 276.288 182.344C278.144 182.344 279.504 181.96 280.368 181.192C281.248 180.424 281.688 179.248 281.688 177.664V177.424H275.88V175.432H283.968V184H282.192L282.024 182.176C280.776 183.584 278.864 184.288 276.288 184.288ZM287.288 171.376H288.896L289.136 173.272H289.28C289.52 172.648 289.88 172.128 290.36 171.712C290.84 171.296 291.472 171.088 292.256 171.088C292.688 171.088 293.064 171.152 293.384 171.28V173.32H292.496C291.6 173.32 290.856 173.584 290.264 174.112C289.688 174.624 289.4 175.432 289.4 176.536V184H287.288V171.376ZM300.344 184.288C298.408 184.288 296.952 183.752 295.976 182.68C295 181.592 294.512 179.928 294.512 177.688C294.512 175.448 295 173.792 295.976 172.72C296.952 171.632 298.408 171.088 300.344 171.088C302.28 171.088 303.736 171.632 304.712 172.72C305.688 173.792 306.176 175.448 306.176 177.688C306.176 179.928 305.688 181.592 304.712 182.68C303.736 183.752 302.28 184.288 300.344 184.288ZM300.344 182.536C301.624 182.536 302.552 182.168 303.128 181.432C303.704 180.68 303.992 179.464 303.992 177.784V177.592C303.992 175.912 303.704 174.704 303.128 173.968C302.552 173.216 301.624 172.84 300.344 172.84C299.064 172.84 298.136 173.216 297.56 173.968C296.984 174.704 296.696 175.912 296.696 177.592V177.784C296.696 179.464 296.984 180.68 297.56 181.432C298.136 182.168 299.064 182.536 300.344 182.536ZM307.128 171.376H309.312L311.256 178.528C311.384 178.96 311.632 179.952 312 181.504H312.12L312.744 178.528L314.4 171.376H316.968L318.72 178.528C318.832 178.96 319.048 179.952 319.368 181.504H319.488C319.824 180.016 320.064 179.024 320.208 178.528L322.128 171.376H324.192L320.4 184H318.096L316.272 176.464L315.696 173.872H315.6C315.344 175.152 315.16 176.016 315.048 176.464L313.248 184H310.92L307.128 171.376ZM325.936 171.376H327.544L327.784 173.08H327.952C328.88 171.752 330.296 171.088 332.2 171.088C333.464 171.088 334.432 171.432 335.104 172.12C335.792 172.792 336.136 173.88 336.136 175.384V184H334.024V175.528C334.024 174.52 333.8 173.824 333.352 173.44C332.904 173.04 332.256 172.84 331.408 172.84C330.8 172.84 330.24 172.992 329.728 173.296C329.216 173.584 328.808 174.008 328.504 174.568C328.2 175.128 328.048 175.784 328.048 176.536V184H325.936V171.376ZM344.464 171.376H346.648L348.592 178.528C348.72 178.96 348.968 179.952 349.336 181.504H349.456L350.08 178.528L351.736 171.376H354.304L356.056 178.528C356.168 178.96 356.384 179.952 356.704 181.504H356.824C357.16 180.016 357.4 179.024 357.544 178.528L359.464 171.376H361.528L357.736 184H355.432L353.608 176.464L353.032 173.872H352.936C352.68 175.152 352.496 176.016 352.384 176.464L350.584 184H348.256L344.464 171.376ZM363.272 166.648H365.36V168.928H363.272V166.648ZM363.272 171.376H365.384V184H363.272V171.376ZM371.448 184.264C370.584 184.264 369.952 184.008 369.552 183.496C369.152 182.984 368.952 182.352 368.952 181.6V173.128H367.416V171.376H368.976L369.432 167.872H371.064V171.376H373.2V173.128H371.064V181.408C371.064 182.16 371.416 182.536 372.12 182.536H373.2V183.928C372.992 184.024 372.72 184.104 372.384 184.168C372.048 184.232 371.736 184.264 371.448 184.264ZM375.272 166.648H377.384V172.792H377.552C378.432 171.656 379.76 171.088 381.536 171.088C384.16 171.088 385.472 172.52 385.472 175.384V184H383.36V175.528C383.36 174.52 383.136 173.824 382.688 173.44C382.24 173.04 381.592 172.84 380.744 172.84C380.136 172.84 379.576 172.992 379.064 173.296C378.552 173.584 378.144 174.008 377.84 174.568C377.536 175.128 377.384 175.784 377.384 176.536V184H375.272V166.648ZM395.288 166.648H397.4V184H395.288V166.648ZM405.672 184.288C403.736 184.288 402.28 183.752 401.304 182.68C400.328 181.592 399.84 179.928 399.84 177.688C399.84 175.448 400.328 173.792 401.304 172.72C402.28 171.632 403.736 171.088 405.672 171.088C407.608 171.088 409.064 171.632 410.04 172.72C411.016 173.792 411.504 175.448 411.504 177.688C411.504 179.928 411.016 181.592 410.04 182.68C409.064 183.752 407.608 184.288 405.672 184.288ZM405.672 182.536C406.952 182.536 407.88 182.168 408.456 181.432C409.032 180.68 409.32 179.464 409.32 177.784V177.592C409.32 175.912 409.032 174.704 408.456 173.968C407.88 173.216 406.952 172.84 405.672 172.84C404.392 172.84 403.464 173.216 402.888 173.968C402.312 174.704 402.024 175.912 402.024 177.592V177.784C402.024 179.464 402.312 180.68 402.888 181.432C403.464 182.168 404.392 182.536 405.672 182.536ZM412.648 171.376H414.88L417.112 177.688C417.432 178.584 417.848 179.904 418.36 181.648H418.48C418.944 180 419.352 178.68 419.704 177.688L421.912 171.376H424.024L419.392 184H417.28L412.648 171.376ZM431.296 184.288C429.264 184.288 427.752 183.752 426.76 182.68C425.768 181.608 425.272 179.944 425.272 177.688C425.272 175.432 425.768 173.768 426.76 172.696C427.752 171.624 429.264 171.088 431.296 171.088C433.12 171.088 434.48 171.576 435.376 172.552C436.288 173.512 436.744 175.064 436.744 177.208V178.264H427.456C427.536 179.72 427.88 180.8 428.488 181.504C429.112 182.192 430.048 182.536 431.296 182.536C432.304 182.536 433.12 182.304 433.744 181.84C434.368 181.376 434.68 180.664 434.68 179.704H436.744C436.744 181.176 436.232 182.312 435.208 183.112C434.2 183.896 432.896 184.288 431.296 184.288ZM434.536 176.512C434.536 174.064 433.456 172.84 431.296 172.84C430.096 172.84 429.192 173.128 428.584 173.704C427.992 174.28 427.632 175.216 427.504 176.512H434.536ZM451.864 184.288C451.032 184.288 450.272 184.12 449.584 183.784C448.912 183.448 448.368 182.952 447.952 182.296H447.808L447.544 184H445.96V166.648H448.072V172.816H448.216C448.632 172.208 449.152 171.768 449.776 171.496C450.4 171.224 451.16 171.088 452.056 171.088C453.544 171.088 454.712 171.64 455.56 172.744C456.424 173.832 456.856 175.48 456.856 177.688C456.856 179.944 456.424 181.608 455.56 182.68C454.696 183.752 453.464 184.288 451.864 184.288ZM451.336 182.536C452.152 182.536 452.8 182.384 453.28 182.08C453.76 181.776 454.112 181.28 454.336 180.592C454.56 179.904 454.672 178.968 454.672 177.784V177.688C454.672 176.488 454.56 175.536 454.336 174.832C454.112 174.128 453.752 173.624 453.256 173.32C452.776 173 452.136 172.84 451.336 172.84C450.216 172.84 449.392 173.248 448.864 174.064C448.336 174.88 448.072 176.088 448.072 177.688V177.784C448.072 179.352 448.328 180.536 448.84 181.336C449.368 182.136 450.2 182.536 451.336 182.536ZM460.496 188.368C459.792 188.368 459.232 188.304 458.816 188.176V186.808H459.656C461.288 186.808 462.36 185.872 462.872 184L458 171.376H460.232L462.584 177.688C462.92 178.584 463.376 179.904 463.952 181.648H464.072C464.536 180.016 464.928 178.696 465.248 177.688L467.264 171.376H469.376L465.224 183.352C464.664 184.952 464.024 186.184 463.304 187.048C462.6 187.928 461.664 188.368 460.496 188.368ZM268.608 195.648H270.72V213H268.608V195.648ZM278.992 213.288C277.056 213.288 275.6 212.752 274.624 211.68C273.648 210.592 273.16 208.928 273.16 206.688C273.16 204.448 273.648 202.792 274.624 201.72C275.6 200.632 277.056 200.088 278.992 200.088C280.928 200.088 282.384 200.632 283.36 201.72C284.336 202.792 284.824 204.448 284.824 206.688C284.824 208.928 284.336 210.592 283.36 211.68C282.384 212.752 280.928 213.288 278.992 213.288ZM278.992 211.536C280.272 211.536 281.2 211.168 281.776 210.432C282.352 209.68 282.64 208.464 282.64 206.784V206.592C282.64 204.912 282.352 203.704 281.776 202.968C281.2 202.216 280.272 201.84 278.992 201.84C277.712 201.84 276.784 202.216 276.208 202.968C275.632 203.704 275.344 204.912 275.344 206.592V206.784C275.344 208.464 275.632 209.68 276.208 210.432C276.784 211.168 277.712 211.536 278.992 211.536ZM292.064 213.288C290.144 213.288 288.736 212.76 287.84 211.704C286.944 210.632 286.496 208.96 286.496 206.688C286.496 204.432 286.944 202.768 287.84 201.696C288.752 200.624 290.16 200.088 292.064 200.088C293.792 200.088 295.056 200.504 295.856 201.336C296.656 202.168 297.056 203.408 297.056 205.056H294.896C294.896 203.92 294.688 203.104 294.272 202.608C293.872 202.096 293.136 201.84 292.064 201.84C290.896 201.84 290.04 202.224 289.496 202.992C288.952 203.744 288.68 204.976 288.68 206.688V206.784C288.68 208.48 288.944 209.696 289.472 210.432C290 211.168 290.864 211.536 292.064 211.536C293.12 211.536 293.872 211.272 294.32 210.744C294.784 210.2 295.016 209.392 295.016 208.32H297.056C297.056 209.76 296.648 210.952 295.832 211.896C295.016 212.824 293.76 213.288 292.064 213.288ZM302.696 213.288C301.608 213.288 300.64 213.032 299.792 212.52C298.944 212.008 298.52 211.08 298.52 209.736C298.52 208.12 299.24 207.016 300.68 206.424C302.12 205.816 304.2 205.512 306.92 205.512V204.12C306.92 203.384 306.712 202.824 306.296 202.44C305.88 202.04 305.128 201.84 304.04 201.84C303.016 201.84 302.28 202.032 301.832 202.416C301.4 202.8 301.184 203.272 301.184 203.832V204.12H299.144C299.128 204.024 299.12 203.848 299.12 203.592C299.12 202.472 299.584 201.608 300.512 201C301.44 200.392 302.68 200.088 304.232 200.088C305.8 200.088 306.992 200.416 307.808 201.072C308.624 201.728 309.032 202.656 309.032 203.856V210.696C309.032 210.984 309.112 211.2 309.272 211.344C309.432 211.472 309.632 211.536 309.872 211.536H310.832V212.904C310.416 213.096 309.872 213.192 309.2 213.192C308.656 213.192 308.2 213.032 307.832 212.712C307.464 212.376 307.216 211.936 307.088 211.392H306.92C306.488 211.984 305.896 212.448 305.144 212.784C304.408 213.12 303.592 213.288 302.696 213.288ZM303.248 211.536C303.872 211.536 304.464 211.408 305.024 211.152C305.584 210.896 306.04 210.52 306.392 210.024C306.744 209.512 306.92 208.896 306.92 208.176V207.264C304.856 207.264 303.304 207.432 302.264 207.768C301.24 208.088 300.728 208.704 300.728 209.616C300.728 210.304 300.936 210.8 301.352 211.104C301.784 211.392 302.416 211.536 303.248 211.536ZM312.6 195.648H314.712V213H312.6V195.648ZM325.056 202.128H323.208V200.376H325.056V198.36C325.056 197.528 325.264 196.84 325.68 196.296C326.096 195.736 326.8 195.456 327.792 195.456C328.112 195.456 328.432 195.488 328.752 195.552C329.088 195.6 329.368 195.664 329.592 195.744V197.208H328.344C327.56 197.208 327.168 197.592 327.168 198.36V200.376H329.592V202.128H327.168V213H325.056V202.128ZM334.712 213.288C333.624 213.288 332.656 213.032 331.808 212.52C330.96 212.008 330.536 211.08 330.536 209.736C330.536 208.12 331.256 207.016 332.696 206.424C334.136 205.816 336.216 205.512 338.936 205.512V204.12C338.936 203.384 338.728 202.824 338.312 202.44C337.896 202.04 337.144 201.84 336.056 201.84C335.032 201.84 334.296 202.032 333.848 202.416C333.416 202.8 333.2 203.272 333.2 203.832V204.12H331.16C331.144 204.024 331.136 203.848 331.136 203.592C331.136 202.472 331.6 201.608 332.528 201C333.456 200.392 334.696 200.088 336.248 200.088C337.816 200.088 339.008 200.416 339.824 201.072C340.64 201.728 341.048 202.656 341.048 203.856V210.696C341.048 210.984 341.128 211.2 341.288 211.344C341.448 211.472 341.648 211.536 341.888 211.536H342.848V212.904C342.432 213.096 341.888 213.192 341.216 213.192C340.672 213.192 340.216 213.032 339.848 212.712C339.48 212.376 339.232 211.936 339.104 211.392H338.936C338.504 211.984 337.912 212.448 337.16 212.784C336.424 213.12 335.608 213.288 334.712 213.288ZM335.264 211.536C335.888 211.536 336.48 211.408 337.04 211.152C337.6 210.896 338.056 210.52 338.408 210.024C338.76 209.512 338.936 208.896 338.936 208.176V207.264C336.872 207.264 335.32 207.432 334.28 207.768C333.256 208.088 332.744 208.704 332.744 209.616C332.744 210.304 332.952 210.8 333.368 211.104C333.8 211.392 334.432 211.536 335.264 211.536ZM344.616 200.376H346.224L346.464 202.272H346.608C346.848 201.648 347.208 201.128 347.688 200.712C348.168 200.296 348.8 200.088 349.584 200.088C350.016 200.088 350.392 200.152 350.712 200.28V202.32H349.824C348.928 202.32 348.184 202.584 347.592 203.112C347.016 203.624 346.728 204.432 346.728 205.536V213H344.616V200.376ZM352.608 200.376H354.216L354.456 202.08H354.624C355.488 200.752 356.752 200.088 358.416 200.088C360.048 200.088 361.136 200.752 361.68 202.08H361.824C362.256 201.44 362.816 200.952 363.504 200.616C364.208 200.264 364.952 200.088 365.736 200.088C368.216 200.088 369.456 201.36 369.456 203.904V213H367.344V204.288C367.344 203.376 367.144 202.744 366.744 202.392C366.344 202.024 365.792 201.84 365.088 201.84C364.24 201.84 363.528 202.176 362.952 202.848C362.376 203.52 362.088 204.416 362.088 205.536V213H359.976V204.288C359.976 203.376 359.784 202.744 359.4 202.392C359.016 202.024 358.472 201.84 357.768 201.84C357.224 201.84 356.72 201.992 356.256 202.296C355.792 202.584 355.416 203.008 355.128 203.568C354.856 204.128 354.72 204.784 354.72 205.536V213H352.608V200.376ZM377.952 213.288C375.92 213.288 374.408 212.752 373.416 211.68C372.424 210.608 371.928 208.944 371.928 206.688C371.928 204.432 372.424 202.768 373.416 201.696C374.408 200.624 375.92 200.088 377.952 200.088C379.776 200.088 381.136 200.576 382.032 201.552C382.944 202.512 383.4 204.064 383.4 206.208V207.264H374.112C374.192 208.72 374.536 209.8 375.144 210.504C375.768 211.192 376.704 211.536 377.952 211.536C378.96 211.536 379.776 211.304 380.4 210.84C381.024 210.376 381.336 209.664 381.336 208.704H383.4C383.4 210.176 382.888 211.312 381.864 212.112C380.856 212.896 379.552 213.288 377.952 213.288ZM381.192 205.512C381.192 203.064 380.112 201.84 377.952 201.84C376.752 201.84 375.848 202.128 375.24 202.704C374.648 203.28 374.288 204.216 374.16 205.512H381.192ZM385.936 200.376H387.544L387.784 202.272H387.928C388.168 201.648 388.528 201.128 389.008 200.712C389.488 200.296 390.12 200.088 390.904 200.088C391.336 200.088 391.712 200.152 392.032 200.28V202.32H391.144C390.248 202.32 389.504 202.584 388.912 203.112C388.336 203.624 388.048 204.432 388.048 205.536V213H385.936V200.376ZM398.248 213.288C397.08 213.288 396.104 213.12 395.32 212.784C394.552 212.432 393.984 211.976 393.616 211.416C393.248 210.856 393.064 210.248 393.064 209.592C393.064 209.4 393.064 209.272 393.064 209.208C393.08 209.128 393.088 209.08 393.088 209.064H395.176V209.304C395.176 210.056 395.472 210.624 396.064 211.008C396.656 211.376 397.424 211.56 398.368 211.56C399.184 211.56 399.856 211.4 400.384 211.08C400.928 210.744 401.2 210.28 401.2 209.688C401.2 209.224 401.048 208.848 400.744 208.56C400.44 208.256 400.064 208.024 399.616 207.864C399.168 207.688 398.56 207.504 397.792 207.312C396.864 207.072 396.104 206.832 395.512 206.592C394.936 206.352 394.44 206 394.024 205.536C393.624 205.056 393.424 204.44 393.424 203.688C393.424 202.584 393.872 201.712 394.768 201.072C395.68 200.416 396.904 200.088 398.44 200.088C399.4 200.088 400.232 200.248 400.936 200.568C401.64 200.872 402.168 201.288 402.52 201.816C402.888 202.328 403.072 202.904 403.072 203.544L403.048 204H400.984V203.784C400.984 203.224 400.76 202.76 400.312 202.392C399.88 202.024 399.176 201.84 398.2 201.84C397.24 201.84 396.568 202.016 396.184 202.368C395.8 202.704 395.608 203.096 395.608 203.544C395.608 203.912 395.744 204.216 396.016 204.456C396.288 204.696 396.624 204.888 397.024 205.032C397.424 205.176 397.984 205.336 398.704 205.512C399.696 205.768 400.504 206.024 401.128 206.28C401.752 206.52 402.28 206.896 402.712 207.408C403.16 207.904 403.384 208.568 403.384 209.4C403.384 210.696 402.912 211.672 401.968 212.328C401.04 212.968 399.8 213.288 398.248 213.288ZM406.504 210.408H408.904V213H406.504V210.408Z" fill="black"/>
<g filter="url(#filter0_d)">
<rect x="8" y="4" width="218" height="218" rx="7.3" fill="white"/>
<rect x="8.9125" y="4.9125" width="216.175" height="216.175" rx="6.3875" stroke="#F0F5F9" stroke-width="1.825"/>
</g>
<path d="M95.4049 187.774L93.783 183.631H88.5611L86.9571 187.774H85.4244L90.575 174.693H91.8493L96.9732 187.774H95.4049ZM93.3107 182.267L91.7958 178.231C91.5998 177.72 91.3978 177.093 91.1899 176.35C91.0592 176.921 90.8721 177.547 90.6285 178.231L89.0958 182.267H93.3107ZM102.997 177.83C103.431 177.83 103.82 177.865 104.164 177.937L103.96 179.309C103.556 179.22 103.199 179.175 102.89 179.175C102.1 179.175 101.423 179.496 100.858 180.138C100.3 180.779 100.021 181.578 100.021 182.535V187.774H98.5416V178.008H99.7624L99.9317 179.817H100.003C100.365 179.181 100.802 178.691 101.313 178.346C101.824 178.002 102.385 177.83 102.997 177.83ZM109.894 187.953C108.48 187.953 107.384 187.519 106.606 186.652C105.834 185.778 105.448 184.546 105.448 182.953C105.448 181.32 105.84 180.057 106.624 179.166C107.414 178.275 108.537 177.83 109.992 177.83C110.462 177.83 110.931 177.88 111.4 177.981C111.87 178.082 112.238 178.201 112.505 178.338L112.051 179.594C111.724 179.463 111.368 179.356 110.982 179.273C110.595 179.184 110.254 179.14 109.957 179.14C107.973 179.14 106.98 180.405 106.98 182.936C106.98 184.136 107.221 185.057 107.702 185.698C108.189 186.34 108.908 186.661 109.859 186.661C110.673 186.661 111.507 186.485 112.363 186.135V187.445C111.709 187.783 110.886 187.953 109.894 187.953ZM121.372 187.774V181.456C121.372 180.66 121.191 180.066 120.828 179.674C120.466 179.282 119.899 179.086 119.126 179.086C118.099 179.086 117.347 179.365 116.872 179.924C116.402 180.482 116.168 181.397 116.168 182.668V187.774H114.689V173.909H116.168V178.106C116.168 178.611 116.144 179.03 116.097 179.362H116.186C116.477 178.893 116.89 178.525 117.424 178.257C117.965 177.984 118.58 177.847 119.269 177.847C120.463 177.847 121.357 178.133 121.951 178.703C122.551 179.267 122.851 180.167 122.851 181.403V187.774H121.372ZM127.378 187.774H125.899V178.008H127.378V187.774ZM125.774 175.361C125.774 175.023 125.857 174.776 126.024 174.622C126.19 174.461 126.398 174.381 126.647 174.381C126.885 174.381 127.09 174.461 127.262 174.622C127.434 174.782 127.521 175.029 127.521 175.361C127.521 175.694 127.434 175.943 127.262 176.11C127.09 176.27 126.885 176.35 126.647 176.35C126.398 176.35 126.19 176.27 126.024 176.11C125.857 175.943 125.774 175.694 125.774 175.361ZM132.653 187.774L128.946 178.008H130.533L132.636 183.8C133.111 185.155 133.39 186.034 133.473 186.438H133.545C133.61 186.123 133.815 185.472 134.159 184.486C134.51 183.494 135.291 181.335 136.503 178.008H138.089L134.382 187.774H132.653ZM148.087 182.882C148.087 184.474 147.686 185.719 146.884 186.616C146.082 187.507 144.975 187.953 143.561 187.953C142.687 187.953 141.912 187.748 141.235 187.338C140.558 186.928 140.035 186.34 139.666 185.573C139.298 184.807 139.114 183.91 139.114 182.882C139.114 181.29 139.512 180.051 140.308 179.166C141.104 178.275 142.209 177.83 143.623 177.83C144.989 177.83 146.074 178.284 146.876 179.193C147.684 180.102 148.087 181.332 148.087 182.882ZM140.647 182.882C140.647 184.13 140.896 185.08 141.395 185.734C141.894 186.387 142.628 186.714 143.596 186.714C144.565 186.714 145.298 186.39 145.797 185.743C146.302 185.089 146.555 184.136 146.555 182.882C146.555 181.641 146.302 180.699 145.797 180.057C145.298 179.41 144.559 179.086 143.578 179.086C142.61 179.086 141.879 179.404 141.386 180.04C140.893 180.675 140.647 181.623 140.647 182.882Z" fill="black"/>
<path d="M79.4627 67.6828H92.8226L122.192 143.426H111.041L103.422 123.22H68.3111L60.9134 143.426H50.093L79.4627 67.6828ZM99.9995 114.056L91.1665 90.4278L86.0875 76.7366H85.5354L80.5669 90.2069L71.7339 114.056H99.9995ZM146.151 144.751C141.146 144.751 136.692 143.573 132.791 141.218C128.89 138.862 126.939 134.593 126.939 128.41C126.939 120.975 130.252 115.896 136.876 113.173C143.501 110.376 153.07 108.977 165.584 108.977V102.573C165.584 99.1872 164.627 96.6109 162.713 94.8443C160.799 93.0041 157.339 92.084 152.334 92.084C147.623 92.084 144.237 92.9673 142.176 94.7339C140.189 96.5005 139.195 98.6719 139.195 101.248V102.573H129.81C129.736 102.131 129.7 101.322 129.7 100.144C129.7 94.9915 131.834 91.0166 136.103 88.2195C140.373 85.4224 146.077 84.0238 153.217 84.0238C160.431 84.0238 165.915 85.5328 169.669 88.5508C173.423 91.5687 175.3 95.838 175.3 101.359V132.826C175.3 134.151 175.668 135.145 176.404 135.807C177.14 136.396 178.06 136.691 179.164 136.691H183.581V142.984C181.667 143.867 179.164 144.309 176.073 144.309C173.57 144.309 171.472 143.573 169.779 142.101C168.086 140.555 166.945 138.531 166.357 136.028H165.584C163.596 138.752 160.873 140.886 157.413 142.432C154.027 143.978 150.273 144.751 146.151 144.751ZM148.691 136.691C151.561 136.691 154.285 136.102 156.861 134.924C159.437 133.746 161.535 132.016 163.155 129.735C164.774 127.379 165.584 124.545 165.584 121.233V117.037C156.088 117.037 148.948 117.81 144.164 119.356C139.453 120.828 137.097 123.662 137.097 127.858C137.097 131.023 138.054 133.305 139.968 134.703C141.955 136.028 144.863 136.691 148.691 136.691Z" fill="black"/>
<defs>
<filter id="filter0_d" x="0.699999" y="0.35" width="232.6" height="232.6" filterUnits="userSpaceOnUse" color-interpolation-filters="sRGB">
<feFlood flood-opacity="0" result="BackgroundImageFix"/>
<feColorMatrix in="SourceAlpha" type="matrix" values="0 0 0 0 0 0 0 0 0 0 0 0 0 0 0 0 0 0 127 0"/>
<feOffset dy="3.65"/>
<feGaussianBlur stdDeviation="3.65"/>
<feColorMatrix type="matrix" values="0 0 0 0 0 0 0 0 0 0 0 0 0 0 0 0 0 0 0.08 0"/>
<feBlend mode="normal" in2="BackgroundImageFix" result="effect1_dropShadow"/>
<feBlend mode="normal" in="SourceGraphic" in2="effect1_dropShadow" result="shape"/>
</filter>
</defs>
</svg>
