<svg width="268" height="73" viewBox="0 0 268 73" fill="none" xmlns="http://www.w3.org/2000/svg">
<g clip-path="url(#clip0)">
<path d="M51.9629 51.6127H14.4664C15.8477 57.7564 21.0963 61.5238 28.6566 61.5238C30.9472 61.613 33.232 61.2363 35.3717 60.4167C37.5114 59.5971 39.4612 58.3518 41.1021 56.7566L48.7352 65.0159C44.1408 70.2467 37.2202 72.9998 28.2932 72.9998C11.1515 72.9998 0 62.2628 0 47.5701C0 32.8773 11.3405 22.1113 26.4467 22.1113C40.9858 22.1113 52.2391 31.834 52.2391 47.7294C52.2391 48.8596 52.0647 50.4101 51.9629 51.6127ZM14.2774 43.2521H38.7032C38.2138 40.3769 36.7189 37.7672 34.4835 35.8855C32.2481 34.0037 29.4165 32.9714 26.4903 32.9714C23.5642 32.9714 20.7325 34.0037 18.4971 35.8855C16.2616 37.7672 14.7668 40.3769 14.2774 43.2521Z" fill="#464BE3"/>
<path d="M147.412 43.9922V72.2765H133.033V46.1947C133.033 38.2107 129.442 34.5303 123.641 34.5303C117.185 34.5303 112.678 38.6599 112.678 47.4843V72.2765H98.3136V46.1947C98.3136 38.2107 94.9115 34.5303 88.9214 34.5303C82.5678 34.5303 78.0461 38.6599 78.0461 47.4843V72.2765H63.6814V22.866H77.4064V28.5605C79.3765 26.4275 81.7879 24.7462 84.4739 23.6329C87.1599 22.5196 90.0564 22.0009 92.9632 22.1125C99.8693 22.1125 105.772 24.7642 109.262 30.1834C111.429 27.5702 114.167 25.4847 117.266 24.086C120.365 22.6874 123.744 22.0124 127.145 22.1125C138.936 22.1125 147.412 28.9228 147.412 43.9922Z" fill="#464BE3"/>
<path d="M160.396 7.9984C160.396 3.49204 163.987 0 169.337 0C174.688 0 178.279 3.27471 178.279 7.72311C178.279 12.4903 174.688 15.9823 169.352 15.9823C164.016 15.9823 160.396 12.4903 160.396 7.9984ZM162.14 22.865H176.52V72.2755H162.14V22.865Z" fill="#464BE3"/>
<path d="M191.713 4.12891H206.092V72.2313H191.713V4.12891Z" fill="#464BE3"/>
<path d="M267.724 51.6127H230.227C231.608 57.7564 236.857 61.5238 244.417 61.5238C246.706 61.6144 248.989 61.2384 251.126 60.4186C253.264 59.5989 255.211 58.3528 256.848 56.7566L264.496 65.0159C259.887 70.2467 252.981 72.9998 244.039 72.9998C226.912 72.9998 215.761 62.2628 215.761 47.5701C215.761 32.8773 227.087 22.1113 242.251 22.1113C256.79 22.1113 268.043 31.834 268.043 47.7294C268 48.8596 267.811 50.4101 267.724 51.6127ZM230.038 43.2521H254.449C253.969 40.3714 252.479 37.754 250.244 35.8659C248.009 33.9778 245.174 32.9415 242.244 32.9415C239.314 32.9415 236.479 33.9778 234.244 35.8659C232.009 37.754 230.518 40.3714 230.038 43.2521Z" fill="#464BE3"/>
</g>
<defs>
<clipPath id="clip0">
<rect width="268" height="73" fill="white"/>
</clipPath>
</defs>
</svg>
