<svg width="448" height="80" viewBox="0 0 448 80" fill="none" xmlns="http://www.w3.org/2000/svg">
<path d="M22.6541 1.10747C16.9596 1.07493 11.2882 3.29995 6.91782 7.77698C-1.84091 16.7438 -1.92451 31.3768 6.73118 40.4431L39.5449 74.8848C39.8102 75.1662 40.1297 75.3915 40.4804 75.545C40.8336 75.6986 41.2079 75.7803 41.5902 75.7825C41.9726 75.7847 42.3528 75.7098 42.7027 75.5577C43.0577 75.4082 43.3772 75.1866 43.6483 74.9082L76.8996 40.8439C85.648 31.8848 85.7827 17.2906 77.1321 8.22437C76.9943 8.0849 76.8437 7.9582 76.6826 7.84942C72.3981 3.58489 66.8646 1.4294 61.3241 1.39774C55.6323 1.36522 49.9327 3.57467 45.5675 8.04403L42.6222 11.0525L42.6298 11.0603L41.9845 11.7063L41.3441 11.0529L41.3519 11.0453L38.4437 8.00333C34.1171 3.47147 28.4023 1.15058 22.6951 1.1077C22.6823 1.10763 22.6694 1.10755 22.6541 1.10747ZM76.4894 8.87558L76.4843 8.87042L77.1296 8.22179L76.4894 8.87558Z" fill="#DFD7C5"/>
<path fill-rule="evenodd" clip-rule="evenodd" d="M83.3376 21.8357L0.458888 21.3622C-0.337661 28.1173 1.74724 35.1701 6.72583 40.3811L39.5116 74.7686C39.7767 75.0496 40.0959 75.2745 40.4463 75.4278C40.7993 75.5811 41.1732 75.6627 41.5552 75.6649C41.9373 75.6671 42.3172 75.5924 42.6668 75.4405C43.0215 75.2913 43.3407 75.07 43.6115 74.7921L76.8343 40.7816C81.8738 35.6245 84.0525 28.5972 83.3376 21.8357Z" fill="white"/>
<path d="M0.481419 27.6433C4.52818 26.6436 10.617 25.4611 15.3168 24.6058L0.29157 24.5199C0.285624 25.5607 0.348892 26.6044 0.481419 27.6433ZM4.80963 38.4185C10.2918 36.1637 17.375 33.2787 19.3763 32.6023C21.7707 31.79 24.7924 30.2448 26.7365 29.256C27.5465 28.8439 28.1689 28.5252 28.4825 28.3915C29.2484 28.0711 34.7607 25.929 37.8393 24.7344L26.3781 24.669C19.5636 26.2999 7.08311 29.5989 1.21259 31.1636C1.95946 33.7328 3.15821 36.1971 4.80963 38.4185ZM15.7231 49.9882C18.7815 47.8525 26.3877 41.8405 26.3877 41.8405C26.3877 41.8405 32.1151 37.0427 34.7635 36.2114C36.2996 35.7318 37.6119 34.4735 38.9887 33.1542C39.9813 32.2009 41.0126 31.212 42.1861 30.4618C44.263 29.1286 48.336 26.2188 50.3031 24.8031L43.4469 24.7639C36.0062 27.3783 29.5402 30.8499 25.1704 33.1903C22.9199 34.3998 21.2275 35.3081 20.2435 35.6477C18.6455 36.1986 12.7582 38.9088 7.42847 41.4075L15.7231 49.9882ZM27.6271 62.3103C28.5696 61.1598 29.5083 59.7689 30.5453 58.2278C32.2469 55.7084 34.2175 52.7866 36.9111 49.8689C39.8601 46.679 41.7245 44.3805 43.5734 42.105C44.4101 41.0715 45.2442 40.0432 46.1787 38.9361C48.5668 36.0985 51.4592 32.9313 54.1892 29.9422L54.1892 29.9397C55.8302 28.1411 57.4145 26.4087 58.7952 24.8516L53.9133 24.8237C50.9949 27.1392 42.6904 33.7507 40.7803 35.5247C39.3393 36.8615 33.5951 41.4419 28.5593 45.4586C25.458 47.9316 22.6245 50.1913 21.2282 51.3494C20.5042 51.9488 19.7159 52.5912 18.8839 53.259L27.6271 62.3103ZM51.1126 67.1292C52.5762 60.9262 54.4996 54.1529 55.8319 51.1865C57.6006 47.2458 58.8176 43.821 59.8782 40.8351C60.3291 39.5693 60.7487 38.3801 61.173 37.2676C62.3652 34.1367 63.0485 31.678 63.6978 29.3394C64.1114 27.8534 64.5094 26.416 65.0181 24.8872L61.4336 24.8667C59.7166 28.2835 57.0625 31.0173 54.9397 33.2069C53.4592 34.7328 52.2392 35.9916 51.7691 37.0348C51.1847 38.3408 48.9542 40.9952 46.672 43.7158C44.32 46.5153 41.9113 49.3834 41.182 50.9187C40.3205 52.7217 36.995 57.1804 34.6953 60.2614L34.6927 60.264C33.6152 61.7077 32.7651 62.8485 32.496 63.274C31.9707 64.1098 31.4506 64.9302 30.9384 65.7354L39.5439 74.6426C39.8116 74.9203 40.1308 75.1421 40.4813 75.2924C40.8342 75.4453 41.2107 75.5267 41.5927 75.5289C41.9748 75.5311 42.3521 75.4565 42.7043 75.3051C43.059 75.1588 43.3781 74.9407 43.649 74.6661L51.1126 67.1292ZM73.7356 44.2719L57.3615 60.8154C58.6238 55.2991 60.3606 49.7522 61.818 45.0911C62.7949 41.9693 63.6463 39.2456 64.1478 37.1976C64.6754 35.0526 65.5214 31.9428 66.7131 27.5563L66.7131 27.5538C66.9384 26.7163 67.1794 25.8354 67.4309 24.9035L71.0359 24.9241C71.2427 27.3239 71.8671 34.2754 72.1748 35.6146C72.8905 38.7128 73.3584 41.623 73.7356 44.2719ZM82.0407 33.0703C81.5664 32.1597 81.1813 31.3571 80.8215 30.6033C79.9093 28.693 79.1466 27.1006 77.4947 24.961L73.4281 24.9378C73.9802 27.9507 75.9022 38.4513 76.5132 41.4672L76.8975 41.0807C79.2186 38.7337 80.9343 35.9945 82.0407 33.0703ZM83.5381 24.9955L80.7946 24.9799C81.6508 25.9207 82.4955 27.0788 83.294 28.2239C83.4489 27.1533 83.532 26.0746 83.5381 24.9955ZM83.1702 20.7357C83.3267 21.606 83.432 22.4838 83.4885 23.3612L0.359879 22.8863C0.442863 21.8255 0.595061 20.7677 0.821529 19.7257C3.19191 18.6294 5.60783 17.6408 8.06671 16.7624C13.6445 14.815 20.0326 16.9125 24.4653 18.3699C25.2101 18.6145 25.8985 18.8409 26.5206 19.0286C29.4363 19.8712 32.4307 20.4023 35.4578 20.6038C36.1319 20.646 37.7448 20.1847 39.5529 19.6682C41.8592 19.0114 44.4815 18.2592 45.881 18.3491C47.1652 18.428 48.6907 18.9021 50.165 19.358C51.5548 19.7879 52.8961 20.2047 53.947 20.2644C58.5763 20.5313 63.895 19.0657 65.568 17.9475C67.6221 16.5707 73.1535 15.1217 77.0021 17.3787C79.9691 19.1217 81.8328 20.0913 83.1702 20.7357Z" fill="url(#paint0_linear)"/>
<path d="M96.7386 30.4074L99.6271 30.177V7.97321L96.7386 7.74284V6.16571H116.089V11.8363H114.211L114.052 7.97321H101.736V18.0562H112.51V19.8814H101.736V30.177L104.624 30.4074V31.9668H96.7386V30.4074ZM132.127 31.9668C131.985 31.317 131.884 30.7559 131.825 30.2833C131.766 29.8108 131.737 29.3323 131.737 28.848C131.028 29.8521 130.083 30.685 128.901 31.3466C127.72 32.0081 126.391 32.3389 124.914 32.3389C123.036 32.3389 121.583 31.8546 120.555 30.8858C119.527 29.9171 119.013 28.6058 119.013 26.9519C119.013 25.1798 119.775 23.774 121.299 22.7344C122.823 21.6948 124.891 21.175 127.501 21.175H131.737V18.641C131.737 17.2706 131.294 16.1955 130.408 15.4158C129.533 14.6361 128.305 14.2463 126.722 14.2463C125.659 14.2463 124.684 14.3939 123.798 14.6893C122.924 14.9728 122.191 15.3627 121.601 15.8588L121.423 18.4283H119.669L119.687 14.7424C120.573 14.0573 121.63 13.502 122.859 13.0767C124.099 12.6514 125.416 12.4388 126.81 12.4388C128.925 12.4388 130.626 12.9763 131.914 14.0513C133.202 15.1264 133.845 16.6681 133.845 18.6764V28.1037C133.845 28.4936 133.851 28.8716 133.863 29.2378C133.887 29.5922 133.928 29.9408 133.987 30.2833L135.901 30.4074V31.9668H132.127ZM125.145 30.4606C126.68 30.4606 128.033 30.1061 129.203 29.3973C130.372 28.6885 131.217 27.7729 131.737 26.6506V22.8053H127.466C125.54 22.8053 123.999 23.207 122.841 24.0103C121.695 24.8018 121.122 25.806 121.122 27.0228C121.122 28.0506 121.476 28.8834 122.185 29.5214C122.906 30.1475 123.892 30.4606 125.145 30.4606ZM143.503 12.7932L143.769 15.9829V16.2133C144.312 15.0319 145.051 14.1104 145.984 13.4488C146.929 12.7755 148.045 12.4388 149.333 12.4388C149.605 12.4388 149.865 12.4624 150.113 12.5097C150.373 12.5451 150.585 12.5865 150.751 12.6337L150.467 14.6184L148.89 14.5121C147.555 14.5121 146.457 14.8901 145.594 15.6462C144.744 16.3905 144.135 17.4182 143.769 18.7296V30.177L146.657 30.4074V31.9668H138.772V30.4074L141.66 30.177V14.6007L138.772 14.3703V12.7932H141.66H143.503ZM153.054 14.3703V12.7932H157.821L158.016 15.9652C158.631 14.8429 159.452 13.9746 160.479 13.3602C161.507 12.7459 162.73 12.4388 164.148 12.4388C165.612 12.4388 166.835 12.7991 167.816 13.5197C168.796 14.2286 169.499 15.3154 169.924 16.7803C170.503 15.4335 171.324 14.3762 172.388 13.6083C173.463 12.8286 174.768 12.4388 176.304 12.4388C178.348 12.4388 179.925 13.1181 181.035 14.4766C182.157 15.8352 182.719 17.938 182.719 20.7851V30.1593L185.607 30.4074V31.9668H177.686V30.4074L180.574 30.1593V20.7497C180.574 18.387 180.155 16.7212 179.316 15.7525C178.489 14.772 177.332 14.2817 175.843 14.2817C174.189 14.2817 172.913 14.8074 172.015 15.8588C171.129 16.9103 170.58 18.2511 170.367 19.8814C170.367 19.9759 170.367 20.0645 170.367 20.1472C170.379 20.2299 170.385 20.3362 170.385 20.4662V30.177L173.274 30.4074V31.9668H165.37V30.4074L168.259 30.177V20.7497C168.259 18.4342 167.833 16.7803 166.983 15.788C166.144 14.7838 164.986 14.2817 163.51 14.2817C161.997 14.2817 160.798 14.6657 159.912 15.4335C159.038 16.1896 158.424 17.2115 158.069 18.4992V30.177L160.958 30.4074V31.9668H153.054V30.4074L155.943 30.177V14.6007L153.054 14.3703ZM196.612 30.4074L199.5 30.177V7.97321L196.612 7.74284V6.16571H215.962V11.8363H214.084L213.924 7.97321H201.609V18.0562H212.383V19.8814H201.609V30.177L204.497 30.4074V31.9668H196.612V30.4074ZM223.494 12.7932L223.759 15.9829V16.2133C224.303 15.0319 225.041 14.1104 225.974 13.4488C226.92 12.7755 228.036 12.4388 229.324 12.4388C229.595 12.4388 229.855 12.4624 230.103 12.5097C230.363 12.5451 230.576 12.5865 230.741 12.6337L230.458 14.6184L228.881 14.5121C227.546 14.5121 226.447 14.8901 225.585 15.6462C224.734 16.3905 224.126 17.4182 223.759 18.7296V30.177L226.648 30.4074V31.9668H218.762V30.4074L221.651 30.177V14.6007L218.762 14.3703V12.7932H221.651H223.494ZM241.604 32.3389C239.194 32.3389 237.197 31.4588 235.614 29.6986C234.031 27.9265 233.24 25.676 233.24 22.9471V21.9724C233.24 19.2316 234.025 16.9575 235.597 15.15C237.18 13.3425 239.088 12.4388 241.32 12.4388C243.671 12.4388 245.52 13.183 246.867 14.6716C248.214 16.1601 248.887 18.1448 248.887 20.6257V22.4332H235.349V22.9471C235.349 25.0971 235.922 26.9046 237.067 28.3695C238.225 29.8226 239.737 30.5492 241.604 30.5492C242.915 30.5492 244.038 30.366 244.971 29.9998C245.904 29.6336 246.702 29.1079 247.363 28.4227L248.267 29.8758C247.546 30.6319 246.637 31.2343 245.538 31.6833C244.439 32.1204 243.128 32.3389 241.604 32.3389ZM241.32 14.2463C239.761 14.2463 238.444 14.8488 237.369 16.0538C236.305 17.2469 235.685 18.7473 235.508 20.5548L235.543 20.6434H246.778V20.1118C246.778 18.446 246.288 17.052 245.307 15.9297C244.327 14.8074 242.998 14.2463 241.32 14.2463ZM266.59 18.7118H264.853L264.605 16.0006C264.074 15.4454 263.4 15.0142 262.585 14.707C261.782 14.3999 260.854 14.2463 259.803 14.2463C258.255 14.2463 257.092 14.583 256.312 15.2563C255.544 15.9179 255.16 16.6976 255.16 17.5955C255.16 18.4815 255.491 19.2139 256.152 19.7928C256.826 20.3717 258.161 20.8797 260.157 21.3168C262.437 21.8248 264.144 22.5218 265.279 23.4078C266.413 24.282 266.98 25.4752 266.98 26.9873C266.98 28.5822 266.33 29.8758 265.03 30.8681C263.743 31.8487 262.036 32.3389 259.909 32.3389C258.492 32.3389 257.198 32.144 256.028 31.7542C254.871 31.3525 253.867 30.7913 253.016 30.0707V26.2076H254.735L255.036 28.9366C255.603 29.5036 256.318 29.9171 257.18 30.177C258.054 30.4251 258.964 30.5492 259.909 30.5492C261.445 30.5492 262.656 30.2125 263.542 29.5391C264.428 28.8657 264.871 28.0506 264.871 27.0937C264.871 26.1958 264.499 25.4102 263.755 24.7368C263.022 24.0634 261.693 23.5141 259.767 23.0888C257.487 22.5926 255.792 21.937 254.682 21.1218C253.583 20.2949 253.034 19.143 253.034 17.6663C253.034 16.2014 253.654 14.9669 254.894 13.9627C256.135 12.9468 257.771 12.4388 259.803 12.4388C261.209 12.4388 262.49 12.6573 263.648 13.0944C264.818 13.5197 265.769 14.0986 266.501 14.831L266.59 18.7118ZM270.24 5.89991V4.32278H275.237V16.0715C275.875 14.9256 276.726 14.0336 277.789 13.3957C278.852 12.7577 280.093 12.4388 281.511 12.4388C283.531 12.4388 285.078 13.0649 286.153 14.3172C287.24 15.5694 287.784 17.5128 287.784 20.1472V30.177L290.672 30.4074V31.9668H282.769V30.4074L285.657 30.177V20.1118C285.657 18.0326 285.244 16.544 284.417 15.6462C283.602 14.7365 282.473 14.2817 281.032 14.2817C279.579 14.2817 278.362 14.6657 277.382 15.4335C276.413 16.1896 275.698 17.1997 275.237 18.4638V30.177L278.126 30.4074V31.9668H270.24V30.4074L273.129 30.177V6.13027L270.24 5.89991Z" fill="#38420E"/>
<path d="M96.4728 68.8657L99.2195 68.3341V49.8161L96.4728 49.2845V46.1657H117.011V53.2362H113.042L112.811 50.1528H104.394V57.2588H113.431V61.2459H104.394V68.3341L107.158 68.8657V71.9668H96.4728V68.8657ZM118.641 62.2028C118.641 59.3439 119.439 57.0048 121.033 55.1855C122.64 53.3543 124.855 52.4388 127.679 52.4388C130.514 52.4388 132.729 53.3484 134.324 55.1677C135.931 56.987 136.734 59.3321 136.734 62.2028V62.5749C136.734 65.4575 135.931 67.8084 134.324 69.6277C132.729 71.4352 130.526 72.3389 127.714 72.3389C124.867 72.3389 122.64 71.4352 121.033 69.6277C119.439 67.8084 118.641 65.4575 118.641 62.5749V62.2028ZM123.816 62.5749C123.816 64.3233 124.123 65.7292 124.737 66.7924C125.351 67.8438 126.344 68.3695 127.714 68.3695C129.049 68.3695 130.024 67.8379 130.638 66.7747C131.264 65.7115 131.577 64.3115 131.577 62.5749V62.2028C131.577 60.5016 131.264 59.1135 130.638 58.0385C130.012 56.9634 129.025 56.4259 127.679 56.4259C126.332 56.4259 125.351 56.9634 124.737 58.0385C124.123 59.1135 123.816 60.5016 123.816 62.2028V62.5749ZM138.984 62.2028C138.984 59.3439 139.782 57.0048 141.377 55.1855C142.983 53.3543 145.198 52.4388 148.022 52.4388C150.857 52.4388 153.072 53.3484 154.667 55.1677C156.274 56.987 157.077 59.3321 157.077 62.2028V62.5749C157.077 65.4575 156.274 67.8084 154.667 69.6277C153.072 71.4352 150.869 72.3389 148.057 72.3389C145.21 72.3389 142.983 71.4352 141.377 69.6277C139.782 67.8084 138.984 65.4575 138.984 62.5749V62.2028ZM144.159 62.5749C144.159 64.3233 144.466 65.7292 145.08 66.7924C145.695 67.8438 146.687 68.3695 148.057 68.3695C149.392 68.3695 150.367 67.8379 150.981 66.7747C151.607 65.7115 151.92 64.3115 151.92 62.5749V62.2028C151.92 60.5016 151.607 59.1135 150.981 58.0385C150.355 56.9634 149.369 56.4259 148.022 56.4259C146.675 56.4259 145.695 56.9634 145.08 58.0385C144.466 59.1135 144.159 60.5016 144.159 62.2028V62.5749ZM171.803 69.6277C171.2 70.5137 170.486 71.1871 169.659 71.6478C168.843 72.1086 167.91 72.3389 166.859 72.3389C164.496 72.3389 162.659 71.4765 161.348 69.7517C160.048 68.0269 159.398 65.7469 159.398 62.9116V62.5395C159.398 59.5152 160.054 57.0756 161.365 55.2209C162.677 53.3662 164.52 52.4388 166.894 52.4388C167.851 52.4388 168.713 52.6514 169.481 53.0767C170.249 53.4902 170.923 54.0809 171.502 54.8488V47.9732L168.737 47.4416V44.3228H171.502H176.676V68.3341L179.157 68.8657V71.9668H172.193L171.803 69.6277ZM164.573 62.9116C164.573 64.5892 164.85 65.9123 165.406 66.881C165.973 67.8379 166.894 68.3164 168.17 68.3164C168.926 68.3164 169.582 68.1628 170.137 67.8556C170.692 67.5485 171.147 67.1055 171.502 66.5266V58.3929C171.147 57.7786 170.692 57.306 170.137 56.9752C169.594 56.6326 168.95 56.4613 168.206 56.4613C166.941 56.4613 166.02 57.0225 165.441 58.1448C164.862 59.2671 164.573 60.732 164.573 62.5395V62.9116ZM201.166 46.1657C204.095 46.1657 206.393 46.8391 208.059 48.1859C209.725 49.5208 210.558 51.3696 210.558 53.7324C210.558 55.0319 210.209 56.1601 209.512 57.117C208.815 58.0739 207.793 58.8477 206.446 59.4384C207.97 59.8873 209.063 60.6375 209.725 61.6889C210.398 62.7285 210.735 64.0221 210.735 65.5697V66.881C210.735 67.4481 210.847 67.8911 211.071 68.21C211.296 68.5172 211.668 68.7003 212.188 68.7594L212.826 68.848V71.9668H210.15C208.461 71.9668 207.273 71.512 206.588 70.6023C205.903 69.6927 205.56 68.5172 205.56 67.0759V65.6051C205.56 64.3529 205.224 63.3723 204.55 62.6635C203.889 61.9429 202.95 61.5648 201.733 61.5294H197.498V68.3341L200.262 68.8657V71.9668H189.576V68.8657L192.323 68.3341V49.8161L189.576 49.2845V46.1657H192.323H201.166ZM197.498 57.5423H201.077C202.518 57.5423 203.599 57.2351 204.32 56.6208C205.041 56.0065 205.401 55.1205 205.401 53.9627C205.401 52.805 205.041 51.8835 204.32 51.1983C203.611 50.5013 202.56 50.1528 201.166 50.1528H197.498V57.5423ZM223.83 72.3389C221.066 72.3389 218.857 71.4529 217.203 69.6808C215.549 67.9088 214.722 65.6583 214.722 62.9293V62.2205C214.722 59.3734 215.502 57.0284 217.061 55.1855C218.632 53.3425 220.735 52.427 223.369 52.4388C225.957 52.4388 227.965 53.2185 229.394 54.7779C230.824 56.3373 231.539 58.446 231.539 61.1041V63.9217H220.091L220.056 64.028C220.15 65.2921 220.57 66.3317 221.314 67.1468C222.07 67.962 223.092 68.3695 224.38 68.3695C225.525 68.3695 226.476 68.2573 227.233 68.0328C227.989 67.7966 228.816 67.4303 229.713 66.9342L231.113 70.1239C230.322 70.75 229.294 71.2757 228.03 71.701C226.778 72.1263 225.378 72.3389 223.83 72.3389ZM223.369 56.4259C222.413 56.4259 221.657 56.7921 221.101 57.5246C220.546 58.257 220.203 59.2198 220.073 60.413L220.127 60.5016H226.471V60.0409C226.471 58.9422 226.211 58.068 225.691 57.4182C225.183 56.7567 224.409 56.4259 223.369 56.4259ZM233.452 47.4416V44.3228H241.391V68.3341L243.89 68.8657V71.9668H233.718V68.8657L236.217 68.3341V47.9732L233.452 47.4416ZM245.432 68.8657L247.93 68.3341V56.4436L245.166 55.912V52.7932H253.105V68.3341L255.585 68.8657V71.9668H245.432V68.8657ZM253.105 48.2036H247.93V44.3228H253.105V48.2036ZM266.466 72.3389C263.701 72.3389 261.492 71.4529 259.838 69.6808C258.184 67.9088 257.357 65.6583 257.357 62.9293V62.2205C257.357 59.3734 258.137 57.0284 259.697 55.1855C261.268 53.3425 263.371 52.427 266.005 52.4388C268.592 52.4388 270.601 53.2185 272.03 54.7779C273.46 56.3373 274.174 58.446 274.174 61.1041V63.9217H262.727L262.691 64.028C262.786 65.2921 263.205 66.3317 263.949 67.1468C264.706 67.962 265.727 68.3695 267.015 68.3695C268.161 68.3695 269.112 68.2573 269.868 68.0328C270.624 67.7966 271.451 67.4303 272.349 66.9342L273.749 70.1239C272.957 70.75 271.93 71.2757 270.666 71.701C269.413 72.1263 268.013 72.3389 266.466 72.3389ZM266.005 56.4259C265.048 56.4259 264.292 56.7921 263.737 57.5246C263.182 58.257 262.839 59.2198 262.709 60.413L262.762 60.5016H269.106V60.0409C269.106 58.9422 268.846 58.068 268.326 57.4182C267.818 56.7567 267.045 56.4259 266.005 56.4259ZM276.921 68.8657L279.42 68.3341V56.4259H276.567V52.7932H279.42V50.6667C279.42 48.5166 280.04 46.8627 281.28 45.705C282.521 44.5354 284.263 43.9506 286.508 43.9506C286.945 43.9506 287.388 43.9861 287.837 44.057C288.297 44.116 288.8 44.2046 289.343 44.3228L288.9 48.1681C288.616 48.1209 288.339 48.0795 288.067 48.0441C287.807 48.0086 287.5 47.9909 287.146 47.9909C286.307 47.9909 285.669 48.2213 285.232 48.682C284.807 49.1428 284.594 49.8043 284.594 50.6667V52.7932H288.404V56.4259H284.594V68.3341L287.092 68.8657V71.9668H276.921V68.8657ZM311.192 46.1657C314.146 46.1657 316.473 46.9277 318.174 48.4517C319.887 49.9638 320.744 51.9485 320.744 54.4058C320.744 56.8748 319.887 58.8595 318.174 60.3599C316.473 61.8602 314.146 62.6104 311.192 62.6104H306.833V68.3341L309.598 68.8657V71.9668H298.912V68.8657L301.659 68.3341V49.8161L298.912 49.2845V46.1657H301.659H311.192ZM306.833 58.6232H311.192C312.634 58.6232 313.721 58.2334 314.453 57.4537C315.197 56.6622 315.569 55.658 315.569 54.4412C315.569 53.2008 315.197 52.1789 314.453 51.3755C313.721 50.5604 312.634 50.1528 311.192 50.1528H306.833V58.6232ZM322.923 68.8657L325.404 68.3341V56.4436L322.658 55.912V52.7932H330.224L330.455 55.593C330.904 54.6007 331.482 53.8269 332.191 53.2716C332.9 52.7164 333.721 52.4388 334.654 52.4388C334.926 52.4388 335.21 52.4624 335.505 52.5097C335.812 52.5451 336.066 52.5924 336.267 52.6514L335.718 57.3651L333.591 57.3119C332.835 57.3119 332.209 57.4596 331.713 57.7549C331.217 58.0503 330.839 58.4697 330.579 59.0131V68.3341L333.06 68.8657V71.9668H322.923V68.8657ZM337.454 62.2028C337.454 59.3439 338.252 57.0048 339.847 55.1855C341.453 53.3543 343.668 52.4388 346.492 52.4388C349.327 52.4388 351.542 53.3484 353.137 55.1677C354.744 56.987 355.547 59.3321 355.547 62.2028V62.5749C355.547 65.4575 354.744 67.8084 353.137 69.6277C351.542 71.4352 349.339 72.3389 346.527 72.3389C343.68 72.3389 341.453 71.4352 339.847 69.6277C338.252 67.8084 337.454 65.4575 337.454 62.5749V62.2028ZM342.629 62.5749C342.629 64.3233 342.936 65.7292 343.55 66.7924C344.164 67.8438 345.157 68.3695 346.527 68.3695C347.862 68.3695 348.837 67.8379 349.451 66.7747C350.077 65.7115 350.39 64.3115 350.39 62.5749V62.2028C350.39 60.5016 350.077 59.1135 349.451 58.0385C348.825 56.9634 347.838 56.4259 346.492 56.4259C345.145 56.4259 344.164 56.9634 343.55 58.0385C342.936 59.1135 342.629 60.5016 342.629 62.2028V62.5749ZM358.116 62.5395C358.116 59.5152 358.772 57.0756 360.083 55.2209C361.406 53.3662 363.255 52.4388 365.63 52.4388C366.705 52.4388 367.65 52.681 368.465 53.1653C369.28 53.6379 369.977 54.3172 370.556 55.2032L370.928 52.7932H375.429V71.3997C375.429 73.9279 374.632 75.9421 373.037 77.4424C371.454 78.9546 369.274 79.7107 366.498 79.7107C365.529 79.7107 364.502 79.5748 363.415 79.3031C362.328 79.0432 361.324 78.6829 360.402 78.2221L361.359 74.5894C362.186 74.9438 363.013 75.2215 363.84 75.4223C364.667 75.6349 365.541 75.7413 366.463 75.7413C367.727 75.7413 368.672 75.3573 369.298 74.5894C369.924 73.8215 370.237 72.7524 370.237 71.382V70.1239C369.67 70.8445 369.003 71.3938 368.235 71.7719C367.467 72.1499 366.587 72.3389 365.594 72.3389C363.244 72.3389 361.406 71.4765 360.083 69.7517C358.772 68.0151 358.116 65.7351 358.116 62.9116V62.5395ZM363.291 62.9116C363.291 64.5892 363.574 65.9123 364.141 66.881C364.708 67.8379 365.63 68.3164 366.906 68.3164C367.697 68.3164 368.365 68.1746 368.908 67.8911C369.463 67.5957 369.906 67.1704 370.237 66.6152V58.2866C369.906 57.7077 369.463 57.2588 368.908 56.9398C368.365 56.6208 367.709 56.4613 366.941 56.4613C365.677 56.4613 364.75 57.0225 364.159 58.1448C363.58 59.2671 363.291 60.732 363.291 62.5395V62.9116ZM378.92 68.8657L381.401 68.3341V56.4436L378.654 55.912V52.7932H386.221L386.451 55.593C386.9 54.6007 387.479 53.8269 388.188 53.2716C388.897 52.7164 389.718 52.4388 390.651 52.4388C390.923 52.4388 391.206 52.4624 391.502 52.5097C391.809 52.5451 392.063 52.5924 392.264 52.6514L391.714 57.3651L389.588 57.3119C388.832 57.3119 388.206 57.4596 387.71 57.7549C387.213 58.0503 386.835 58.4697 386.576 59.0131V68.3341L389.056 68.8657V71.9668H378.92V68.8657ZM405.661 71.9668C405.519 71.6478 405.395 71.323 405.288 70.9922C405.182 70.6496 405.099 70.307 405.04 69.9644C404.426 70.6732 403.676 71.2462 402.79 71.6833C401.916 72.1204 400.911 72.3389 399.777 72.3389C397.899 72.3389 396.405 71.8309 395.294 70.815C394.195 69.7872 393.646 68.3932 393.646 66.6329C393.646 64.8372 394.367 63.4491 395.808 62.4686C397.249 61.4881 399.364 60.9978 402.152 60.9978H404.792V59.1194C404.792 58.1979 404.526 57.4832 403.995 56.9752C403.463 56.4672 402.678 56.2133 401.638 56.2133C401.047 56.2133 400.522 56.2841 400.061 56.4259C399.6 56.5558 399.228 56.7153 398.944 56.9044L398.608 58.9599H394.709L394.727 54.707C395.672 54.0691 396.753 53.5315 397.97 53.0944C399.198 52.6573 400.533 52.4388 401.975 52.4388C404.349 52.4388 406.275 53.0236 407.752 54.1931C409.24 55.3509 409.984 57.0048 409.984 59.1549V67.0759C409.984 67.3713 409.984 67.6489 409.984 67.9088C409.996 68.1687 410.02 68.4168 410.055 68.6531L411.632 68.8657V71.9668H405.661ZM401.177 68.5113C401.957 68.5113 402.666 68.3459 403.304 68.0151C403.942 67.6725 404.438 67.2472 404.792 66.7392V63.8154H402.152C401.053 63.8154 400.22 64.0753 399.653 64.5951C399.086 65.103 398.803 65.7174 398.803 66.438C398.803 67.0877 399.009 67.5957 399.423 67.962C399.848 68.3282 400.433 68.5113 401.177 68.5113ZM412.802 55.912V52.7932H420.369L420.581 55.3272C421.196 54.4058 421.963 53.6969 422.885 53.2008C423.818 52.6928 424.893 52.4388 426.11 52.4388C427.339 52.4388 428.39 52.7105 429.264 53.2539C430.138 53.7974 430.8 54.6184 431.249 55.7171C431.84 54.6893 432.608 53.886 433.553 53.3071C434.498 52.7282 435.608 52.4388 436.884 52.4388C438.774 52.4388 440.263 53.0944 441.35 54.4058C442.448 55.7053 442.998 57.69 442.998 60.3599V68.3341L445.496 68.8657V71.9668H435.59V68.8657L437.823 68.3341V60.3421C437.823 58.889 437.587 57.879 437.114 57.3119C436.642 56.7449 435.939 56.4613 435.006 56.4613C434.273 56.4613 433.635 56.6267 433.092 56.9575C432.56 57.2765 432.135 57.7254 431.816 58.3043C431.816 58.5287 431.822 58.7237 431.834 58.889C431.846 59.0426 431.851 59.2021 431.851 59.3675V68.3341L433.942 68.8657V71.9668H424.604V68.8657L426.695 68.3341V60.3421C426.695 58.9245 426.459 57.9262 425.986 57.3474C425.513 56.7567 424.805 56.4613 423.859 56.4613C423.162 56.4613 422.548 56.5972 422.017 56.8689C421.497 57.1288 421.066 57.5009 420.723 57.9853V68.3341L422.956 68.8657V71.9668H413.068V68.8657L415.566 68.3341V56.4436L412.802 55.912Z" fill="#38420E"/>
<defs>
<linearGradient id="paint0_linear" x1="46.3645" y1="32.8487" x2="75.7522" y2="51.3487" gradientUnits="userSpaceOnUse">
<stop stop-color="#56660E"/>
<stop offset="1" stop-color="#9A541D"/>
</linearGradient>
</defs>
</svg>
