<svg width="900" height="402" viewBox="0 0 900 402" fill="none" xmlns="http://www.w3.org/2000/svg">
<path d="M815.895 282.737C814.996 313.022 811.719 341.916 804.176 368.12L536.306 368.761C528.766 342.558 524.588 313.052 524.588 282.737C524.588 162.942 589.8 65.8364 670.24 65.8364C750.681 65.8364 819.591 157.801 815.895 282.737Z" fill="#B59B00"/>
<path d="M0 369.427C13.5818 356.035 34.3942 364.956 34.3942 364.956C34.3942 364.956 28.2098 337.39 55.0569 329.103C85.838 319.594 98.1491 343.153 98.1491 343.153C98.1491 343.153 105.711 297.949 145.836 302.176C209.97 308.934 171.456 374.041 241.936 353.304C275.695 343.371 281.06 369.219 281.06 369.219L0 369.427Z" fill="#DBE5E5"/>
<path d="M900 368.55L553.033 368.764C566.775 355.372 587.834 364.295 587.834 364.295C587.834 364.295 581.576 336.727 608.742 328.433C618.901 325.334 627.071 325.751 633.469 327.719C638.275 329.19 643.422 329.112 648.18 327.495C652.939 325.879 657.068 322.805 659.983 318.711C666.473 309.668 678.461 301.509 700.598 301.509C719.491 301.509 734.089 311.917 750.24 322.153C754.756 316.377 762.434 312.59 771.13 312.59C785.035 312.59 796.291 322.264 796.291 334.196C796.291 336.519 795.861 338.821 795.023 340.986C807.742 342.794 822.477 341.812 840.299 336.105C889.974 320.185 900 368.55 900 368.55Z" fill="#DBE5E5"/>
<path d="M127.794 396.678C127.794 399.1 116.739 401.061 103.101 401.061C89.4639 401.061 78.4084 399.1 78.4084 396.678C78.4084 395.003 83.703 393.546 91.4833 392.808L84.9095 381.24L95.8837 387.764V371.006L102.254 383.909L113.235 340.013L111.453 385.984L122.724 379.015L115.075 392.851C122.66 393.591 127.794 395.029 127.794 396.678Z" fill="#B59B00"/>
<path d="M807.832 342.269L751.327 342.759C750.225 342.71 749.113 342.607 747.992 342.445C719.408 338.314 703.248 329.182 695.339 314.019C693.297 315.416 690.943 316.291 688.484 316.569C686.025 316.847 683.535 316.519 681.232 315.613C678.928 314.708 676.882 313.253 675.271 311.374C673.659 309.496 672.532 307.252 671.987 304.838C671.443 302.423 671.497 299.913 672.146 297.524C672.795 295.136 674.018 292.943 675.71 291.136C677.401 289.33 679.509 287.964 681.849 287.16C684.189 286.355 686.691 286.135 689.136 286.519C689.005 281.811 689.111 277.099 689.455 272.401C692.182 232.75 712.344 204.104 743.339 203.071C774.334 202.038 800.405 228.932 801.74 268.653C801.842 271.753 801.789 274.844 801.59 277.907C802.945 277.705 804.311 277.582 805.68 277.537C824.407 276.91 842.305 290.896 842.902 308.769C843.499 326.642 826.559 341.643 807.832 342.269Z" fill="#FFDB00"/>
<path d="M745.354 238.653V368.345" stroke="#B59B00" stroke-width="1.18132" stroke-miterlimit="10"/>
<path d="M732.453 232.196V253.484C732.452 254.762 732.704 256.028 733.193 257.209C733.682 258.39 734.399 259.463 735.303 260.368C736.207 261.272 737.28 261.989 738.461 262.478C739.642 262.967 740.908 263.219 742.186 263.219V263.219C743.026 263.219 743.832 263.553 744.426 264.147C745.02 264.741 745.354 265.547 745.354 266.387" stroke="#B59B00" stroke-width="1.18132" stroke-miterlimit="10"/>
<path d="M745.354 253.993C745.354 251.828 745.788 249.686 746.631 247.693C747.473 245.7 748.707 243.895 750.259 242.387L755.736 237.069" stroke="#B59B00" stroke-width="1.18132" stroke-miterlimit="10"/>
<path d="M765.722 288.184L756.542 295.457C753.054 298.217 750.236 301.731 748.298 305.735C746.361 309.739 745.354 314.129 745.354 318.578" stroke="#B59B00" stroke-width="1.18132" stroke-miterlimit="10"/>
<path d="M745.354 364.008C745.354 360.717 746.661 357.562 748.988 355.235C751.315 352.908 754.471 351.601 757.762 351.601H775.688C781.152 351.601 786.392 349.43 790.256 345.567C794.12 341.704 796.29 336.464 796.291 331V310.134" stroke="#B59B00" stroke-width="1.18132" stroke-miterlimit="10"/>
<path d="M809.223 315.769V319.303C809.223 320.751 808.647 322.141 807.623 323.165C806.599 324.19 805.21 324.765 803.761 324.766H801.755C800.306 324.766 798.917 325.341 797.893 326.366C796.869 327.39 796.293 328.779 796.293 330.227" stroke="#B59B00" stroke-width="1.18132" stroke-miterlimit="10"/>
<path d="M796.293 312.579C796.293 312.579 788.213 306.425 791.848 295.894C791.848 295.896 799.921 302.05 796.293 312.579Z" fill="#B59B00"/>
<path d="M808.778 317.337C808.778 317.337 805.171 303.387 816.241 304.878L808.778 317.337Z" fill="#B59B00"/>
<path d="M811.571 319.328C811.571 319.328 816.836 313.891 823.51 319.328C823.51 319.328 819.506 323.258 811.571 319.328Z" fill="#B59B00"/>
<path d="M758.934 293.555C758.934 293.555 761.664 283.809 770.824 284.254C770.824 284.254 769.547 292.77 758.934 293.555Z" fill="#B59B00"/>
<path d="M738.902 319.277C738.902 319.277 728.893 315.471 730.45 305.757C730.45 305.757 737.94 306.696 738.902 319.277Z" fill="#B59B00"/>
<path d="M739.658 353.18C739.658 353.18 728.949 353.252 726.886 343.632C726.886 343.632 734.209 341.799 739.658 353.18Z" fill="#B59B00"/>
<path d="M750.26 242.387C750.26 242.387 750.767 233.683 760.556 232.198C760.556 232.196 761.394 239.228 750.26 242.387Z" fill="#B59B00"/>
<path d="M732.453 241.765C732.453 241.765 730.722 227.379 733.193 223.301C733.193 223.301 740.608 229.678 732.453 241.765Z" fill="#B59B00"/>
<path d="M727.186 242.387C727.186 242.387 718.512 242.285 718.364 232.198C718.364 232.196 724.591 233.741 727.186 242.387Z" fill="#B59B00"/>
<path d="M780.033 388.248C780.033 388.248 766.77 390.656 763.591 374.809C763.591 374.809 778.138 376.112 780.033 388.248Z" fill="#B59B00"/>
<path d="M794.738 375.252C794.738 375.252 788.207 382.393 778.446 374.548C778.446 374.548 787.578 369.012 794.738 375.252Z" fill="#423C52"/>
<path d="M114.769 256.175C114.767 262.906 112.252 269.394 107.716 274.368C103.181 279.342 96.9517 282.444 90.249 283.066C83.5464 283.687 76.8532 281.784 71.4804 277.729C66.1077 273.673 62.4425 267.758 61.2028 261.142C56.5256 263.064 51.5181 264.053 46.4615 264.056C20.791 264.056 0 238.674 0 207.367C0 176.059 20.7995 150.677 46.4615 150.677C72.1235 150.677 92.9209 176.059 92.9209 207.367C92.9391 214.792 91.7313 222.169 89.3463 229.201C96.2249 229.606 102.689 232.624 107.415 237.639C112.141 242.653 114.772 249.284 114.769 256.175Z" fill="#B59B00"/>
<path d="M36.7687 318.248C47.5885 318.248 56.3596 310.005 56.3596 299.836C56.3596 289.667 47.5885 281.424 36.7687 281.424C25.949 281.424 17.1779 289.667 17.1779 299.836C17.1779 310.005 25.949 318.248 36.7687 318.248Z" fill="#FFDB00"/>
<path d="M103.846 226.153C107.25 226.153 110.009 223.394 110.009 219.99C110.009 216.586 107.25 213.827 103.846 213.827C100.442 213.827 97.6827 216.586 97.6827 219.99C97.6827 223.394 100.442 226.153 103.846 226.153Z" fill="#B59B00"/>
<path d="M46.4552 185.572V368.903" stroke="#423C52" stroke-width="1.18132" stroke-miterlimit="10" stroke-linecap="round"/>
<path d="M33.5514 179.343V200.63C33.5503 201.909 33.8012 203.176 34.29 204.359C34.7787 205.541 35.4956 206.615 36.3997 207.52C37.3038 208.425 38.3774 209.144 39.5592 209.634C40.7409 210.124 42.0076 210.376 43.2869 210.376C44.1268 210.376 44.9323 210.71 45.5264 211.303C46.1205 211.897 46.4545 212.702 46.4551 213.542" stroke="#423C52" stroke-width="1.18132" stroke-miterlimit="10" stroke-linecap="round"/>
<path d="M36.681 298.46V319.748C36.6807 321.027 36.9325 322.293 37.4219 323.475C37.9114 324.656 38.6289 325.73 39.5334 326.634C40.4379 327.538 41.5118 328.255 42.6936 328.744C43.8754 329.233 45.1419 329.484 46.4209 329.483" stroke="#423C52" stroke-width="1.18132" stroke-miterlimit="10" stroke-linecap="round"/>
<path d="M46.4552 201.137C46.4551 198.973 46.8891 196.831 47.7317 194.837C48.5743 192.844 49.8082 191.04 51.3604 189.532L56.8346 184.212" stroke="#423C52" stroke-width="1.18132" stroke-miterlimit="10" stroke-linecap="round"/>
<path d="M66.8205 235.328L57.6433 242.589C54.155 245.349 51.3366 248.863 49.399 252.868C47.4615 256.872 46.4551 261.263 46.4552 265.711" stroke="#423C52" stroke-width="1.18132" stroke-miterlimit="10" stroke-linecap="round"/>
<path d="M46.4552 311.152C46.4552 307.862 47.7624 304.706 50.0892 302.379C52.4161 300.052 55.572 298.745 58.8626 298.745H61.1452C63.8505 298.745 66.5295 298.213 69.029 297.178C71.5285 296.142 73.7996 294.625 75.7126 292.712C77.6256 290.799 79.143 288.528 80.1782 286.028C81.2134 283.529 81.746 280.85 81.7457 278.144V257.281" stroke="#423C52" stroke-width="1.18132" stroke-miterlimit="10" stroke-linecap="round"/>
<path d="M94.6793 262.911V266.447C94.6793 267.896 94.1039 269.285 93.0797 270.309C92.0555 271.333 90.6664 271.909 89.2179 271.909H87.2113C85.7623 271.909 84.3726 272.484 83.348 273.509C82.3234 274.534 81.7478 275.923 81.7478 277.372" stroke="#423C52" stroke-width="1.18132" stroke-miterlimit="10" stroke-linecap="round"/>
<path d="M81.7478 259.724C81.7478 259.724 73.6701 253.569 77.3025 243.038C77.3025 243.04 85.378 249.195 81.7478 259.724Z" fill="#423C52"/>
<path d="M94.2321 264.468C94.2321 264.468 90.6254 250.519 101.698 252.012L94.2321 264.468Z" fill="#423C52"/>
<path d="M97.0282 266.471C97.0282 266.471 102.293 261.033 108.967 266.471C108.967 266.471 104.963 270.4 97.0282 266.471Z" fill="#423C52"/>
<path d="M60.0327 240.698C60.0327 240.698 62.7645 230.954 71.9224 231.399C71.9224 231.399 70.6475 239.915 60.0327 240.698Z" fill="#423C52"/>
<path d="M44.1682 274.27C44.1682 274.27 33.6048 276.042 30.0494 266.871C30.043 266.871 36.9826 263.9 44.1682 274.27Z" fill="#423C52"/>
<path d="M36.2768 309.657C36.2768 309.657 28.2826 308.624 27.72 301.242C27.7242 301.242 33.3718 300.617 36.2768 309.657Z" fill="#423C52"/>
<path d="M96.3885 290.128C96.3885 290.128 88.6274 297.506 80.5433 291.902C80.5433 291.902 84.6292 285.555 96.3885 290.128Z" fill="#423C52"/>
<path d="M42.2944 230.324C42.2944 230.324 31.5855 230.397 29.5233 220.777C29.5212 220.777 36.8458 218.944 42.2944 230.324Z" fill="#423C52"/>
<path d="M51.3604 189.532C51.3604 189.532 51.8673 180.825 61.6564 179.343C61.6564 179.343 62.4949 186.372 51.3604 189.532Z" fill="#423C52"/>
<path d="M33.5514 188.909C33.5514 188.909 31.8208 174.523 34.2937 170.444C34.2937 170.444 41.7146 176.821 33.5514 188.909Z" fill="#423C52"/>
<path d="M28.2868 189.532C28.2868 189.532 19.6101 189.427 19.4625 179.343C19.4668 179.343 25.6919 180.885 28.2868 189.532Z" fill="#423C52"/>
<path d="M306.958 369.427C306.958 369.348 306.958 369.271 306.958 369.193C306.958 362.851 312.034 357.712 318.295 357.712C320.576 357.709 322.803 358.404 324.677 359.704C325.147 349.81 332.483 341.949 341.467 341.949C344.853 341.96 348.142 343.076 350.835 345.127C352.422 334.245 362.277 325.875 374.191 325.875C387.214 325.875 397.776 335.886 397.776 348.231C397.775 349.21 397.708 350.187 397.574 351.156C398.365 351.022 399.165 350.955 399.966 350.955C406.106 350.955 411.422 354.897 413.989 360.639L413.691 360.718H425.457C426.886 351.703 433.939 344.856 442.429 344.856C450.073 344.856 456.548 350.405 458.814 358.093C461.228 356.674 463.977 355.925 466.778 355.922C471.144 355.922 475.121 357.732 478.165 360.718C480.339 362.878 481.972 365.521 482.931 368.432V369.433L306.958 369.427Z" fill="#423C52"/>
<path d="M437.24 387.379C441.109 387.379 444.246 384.242 444.246 380.373C444.246 376.504 441.109 373.367 437.24 373.367C433.371 373.367 430.234 376.504 430.234 380.373C430.234 384.242 433.371 387.379 437.24 387.379Z" fill="#423C52"/>
<path d="M451.573 378.668C453.116 378.668 454.366 377.417 454.366 375.874C454.366 374.331 453.116 373.08 451.573 373.08C450.03 373.08 448.779 374.331 448.779 375.874C448.779 377.417 450.03 378.668 451.573 378.668Z" fill="#423C52"/>
<path d="M435.864 362.603C437.407 362.603 438.658 361.352 438.658 359.809C438.658 358.266 437.407 357.015 435.864 357.015C434.321 357.015 433.071 358.266 433.071 359.809C433.071 361.352 434.321 362.603 435.864 362.603Z" fill="white"/>
<path d="M317.75 366.335C318.775 366.335 319.607 365.504 319.607 364.478C319.607 363.453 318.775 362.622 317.75 362.622C316.724 362.622 315.893 363.453 315.893 364.478C315.893 365.504 316.724 366.335 317.75 366.335Z" fill="white"/>
<path d="M362.233 345.912C364.343 345.912 366.053 344.202 366.053 342.092C366.053 339.982 364.343 338.271 362.233 338.271C360.123 338.271 358.412 339.982 358.412 342.092C358.412 344.202 360.123 345.912 362.233 345.912Z" fill="white"/>
<path d="M401.842 368.712V14.9082" stroke="#423C52" stroke-width="1.18132" stroke-miterlimit="10" stroke-linecap="round"/>
<path d="M423.842 40.4761L404.503 87.6649C402.746 91.9551 401.842 96.5466 401.842 101.183V109.033" stroke="#423C52" stroke-width="1.18132" stroke-miterlimit="10" stroke-linecap="round"/>
<path d="M414.889 62.3197L428.527 55.793" stroke="#423C52" stroke-width="1.18132" stroke-miterlimit="10" stroke-linecap="round"/>
<path d="M393.377 36.0669L400.088 50.528C401.243 53.0187 401.842 55.7315 401.842 58.4773V66.1784" stroke="#423C52" stroke-width="1.18132" stroke-miterlimit="10" stroke-linecap="round"/>
<path d="M373.801 79.6707L397.831 129.942C400.471 135.466 401.842 141.511 401.842 147.633V159.895" stroke="#423C52" stroke-width="1.18132" stroke-miterlimit="10" stroke-linecap="round"/>
<path d="M443.76 158.197L407.327 214.886C403.746 220.422 401.842 226.874 401.842 233.467V244.574" stroke="#423C52" stroke-width="1.18132" stroke-miterlimit="10" stroke-linecap="round"/>
<path d="M421.472 46.2581C421.472 46.2581 417.304 31.8163 433.023 25.9827C433.025 25.9763 437.107 40.2319 421.472 46.2581Z" fill="#423C52"/>
<path d="M377.066 102.607C377.066 102.607 366.19 103.003 363.125 91.3358C363.125 91.3358 374.696 89.9518 377.066 102.607Z" fill="#423C52"/>
<path d="M437.079 174.187C437.079 174.187 442.911 164.631 457.939 168.272C457.939 168.272 450.732 179.229 437.079 174.187Z" fill="#423C52"/>
<path d="M399.634 48.4809C399.634 48.4809 391.798 54.8985 383.93 45.6443C383.93 45.6443 393.963 41.1969 399.634 48.4809Z" fill="#423C52"/>
<path d="M378.097 88.0136C378.097 88.0136 370.045 79.3092 377.956 65.8279C377.956 65.8364 387.644 74.6286 378.097 88.0136Z" fill="#423C52"/>
<path d="M419.741 196.405C419.741 196.405 424.447 184.783 442.928 186.054C442.928 186.054 436.365 198.944 419.741 196.405Z" fill="#423C52"/>
<path d="M407.462 18.5683C407.462 22.2799 404.955 25.2919 401.866 25.2919C398.777 25.2919 396.27 22.2799 396.27 18.5683C396.27 14.8568 401.866 0 401.866 0C401.866 0 407.462 14.8525 407.462 18.5683Z" fill="#B59B00"/>
<path d="M396.746 43.3277C396.746 43.3277 383.787 39.6269 387.939 24.0063C387.939 24.0063 400.411 31.6048 396.746 43.3277Z" fill="#B59B00"/>
<path d="M377.064 87.6135C377.064 87.6135 365.854 82.6356 366.447 67.0129C366.447 67.0129 379.141 71.2956 377.064 87.6135Z" fill="#B59B00"/>
<path d="M391.302 103.694C391.302 103.694 383.888 95.2912 389.621 83.8208C389.621 83.8208 397.333 93.6098 391.302 103.694Z" fill="#B59B00"/>
<path d="M420.449 182.934C420.449 182.934 412.459 167.859 425.797 157.379C425.808 157.379 432.294 171.413 420.449 182.934Z" fill="#B59B00"/>
<path d="M438.014 167.445C438.014 167.445 436.386 150.759 449.634 145.411C449.634 145.417 453.286 159.515 438.014 167.445Z" fill="#B59B00"/>
<path d="M419.741 196.405C419.741 196.405 428.599 187.887 446.842 194.084C446.842 194.084 435.757 203.317 419.741 196.405Z" fill="#B59B00"/>
<path d="M423.594 58.1524C423.594 58.1524 426.4 47.4371 439.747 50.5026C439.747 50.5026 435.618 60.8606 423.594 58.1524Z" fill="#B59B00"/>
<path d="M421.521 45.9483C421.521 45.9483 424.325 35.233 437.674 38.2985C437.682 38.2985 433.545 48.6523 421.521 45.9483Z" fill="#B59B00"/>
<path d="M531.202 152.036C534.907 166.154 520.919 165.241 524.556 176.209C528.192 187.176 549.599 181.533 549.599 181.533L548.799 152.046L531.202 152.036Z" fill="#FFDB00"/>
<path d="M546.297 170.69L546.361 181.02H569.096L563.079 164.206L546.297 170.69Z" fill="#A0505A"/>
<path d="M563.245 164.666L546.362 181.022L546.307 170.685L563.08 164.206L563.245 164.666Z" fill="#423C52"/>
<path d="M531.202 152.036C529.974 150.288 528.828 143.631 538.617 139.282C548.406 134.933 553.942 133.348 563.928 140.863C573.914 148.378 586.865 154.902 587.064 169.139C587.262 183.375 574.228 187.429 562.366 185.947C550.504 184.464 549.807 170.48 557.391 166.48L550.258 153.826C550.258 153.826 535.658 158.364 531.202 152.036Z" fill="#FFDB00"/>
<path d="M596.117 177.689C598.585 177.689 600.586 175.688 600.586 173.22C600.586 170.752 598.585 168.751 596.117 168.751C593.649 168.751 591.648 170.752 591.648 173.22C591.648 175.688 593.649 177.689 596.117 177.689Z" fill="#FFDB00"/>
<path d="M531.279 152.143C538.668 157.236 547.811 154.496 547.811 154.496L553.016 153.043C554.765 152.551 556.635 152.749 558.243 153.596C559.85 154.443 561.071 155.874 561.653 157.595C562.236 159.315 562.136 161.194 561.375 162.843C560.613 164.493 559.247 165.786 557.56 166.458L546.087 170.904C544.939 171.348 543.709 171.545 542.479 171.48C541.249 171.414 540.048 171.089 538.953 170.525C537.858 169.961 536.895 169.172 536.128 168.209C535.36 167.246 534.806 166.131 534.501 164.937L534.026 163.085L532.315 163.451C532.133 163.49 531.945 163.486 531.764 163.441C531.584 163.395 531.417 163.309 531.275 163.188C531.134 163.068 531.022 162.916 530.948 162.745C530.875 162.575 530.842 162.389 530.852 162.204L531.279 152.143Z" fill="#A0505A"/>
<path d="M537.803 160.932C538.288 160.758 538.435 159.931 538.132 159.085C537.828 158.238 537.189 157.693 536.704 157.867C536.219 158.041 536.072 158.868 536.376 159.715C536.679 160.561 537.319 161.106 537.803 160.932Z" fill="#423C52"/>
<path d="M556.33 155.2C554.118 155.739 552.789 158.073 553.358 160.417" stroke="#423C52" stroke-width="1.18132" stroke-miterlimit="10" stroke-linecap="round"/>
<path d="M513.625 261.578C508.794 266.693 503.581 272.212 498.222 277.864C492.111 284.314 485.815 290.937 479.722 297.331C459.811 318.214 441.935 336.675 438.981 338.797C431.864 343.912 420.073 351.483 398.052 351.474C392.417 351.474 382.365 341.118 377.231 335.387C376.958 335.077 376.781 334.694 376.721 334.286C376.661 333.877 376.721 333.46 376.893 333.084C377.065 332.708 377.342 332.391 377.691 332.169C378.04 331.948 378.446 331.832 378.859 331.836C386.774 331.978 397.66 331.058 400.251 327.224C404.923 320.33 389.371 324.114 389.816 317.435C389.816 317.435 409.834 314.325 416.286 308.686C418.873 306.427 450.467 266.248 477.521 231.653C477.521 231.653 479.32 247.599 513.625 261.578Z" fill="#A0505A"/>
<path d="M410.713 344.896C404.955 346.563 398.64 347.677 390.177 347.677" stroke="#423C52" stroke-width="1.18132" stroke-miterlimit="10" stroke-linecap="round"/>
<path d="M406.236 340.203C400.477 341.87 393.737 342.984 385.272 342.984" stroke="#423C52" stroke-width="1.18132" stroke-miterlimit="10" stroke-linecap="round"/>
<path d="M401.774 335.52C396.015 337.186 389.058 338.301 380.596 338.301" stroke="#423C52" stroke-width="1.18132" stroke-miterlimit="10" stroke-linecap="round"/>
<path d="M479.05 297.111C477.32 294.661 476.397 291.733 476.409 288.734C476.409 281.032 482.304 274.794 489.58 274.794C492.485 274.799 495.299 275.804 497.55 277.64" stroke="#423C52" stroke-width="1.18132" stroke-miterlimit="10" stroke-linecap="round"/>
<path d="M664.751 273.881V273.915C664.751 300.138 562.666 270.841 562.666 270.841C562.666 270.841 664.065 253.561 664.749 273.697C664.749 273.757 664.751 273.821 664.751 273.881Z" fill="#423C52"/>
<path d="M664.103 273.22C663.419 254.07 562.889 270.503 562.889 270.503L543.835 239.773C543.381 239.043 542.765 238.427 542.035 237.973C541.305 237.518 540.481 237.238 539.625 237.153C538.77 237.068 537.906 237.181 537.101 237.483C536.296 237.785 535.571 238.268 534.983 238.894C530.276 243.902 522.622 252.042 513.62 261.57C479.32 247.594 477.528 231.644 477.528 231.644C487.034 219.487 495.98 208.019 502.907 199.128C507.181 193.644 512.65 189.206 518.898 186.154C525.146 183.102 532.008 181.516 538.961 181.516H587.641C594.226 181.515 600.714 183.097 606.559 186.128C612.404 189.159 617.435 193.551 621.227 198.934C637.438 221.956 663.849 261.018 664.103 273.22Z" fill="white" stroke="#423C52" stroke-width="1.18132" stroke-miterlimit="10"/>
<path d="M647.928 265.538C647.928 265.538 650.495 270.946 652.992 280.587C656.451 293.947 658.505 312.094 647.714 319.964C629.959 332.906 555.029 328.268 555.029 328.268V369.2H513.077C504.839 369.2 496.841 366.423 490.375 361.318C483.91 356.213 479.354 349.077 477.443 341.064C475.532 333.05 476.377 324.627 479.844 317.153C483.31 309.679 489.193 303.592 496.545 299.875C518.848 288.594 553.234 272.364 563.102 270.931L647.928 265.538Z" fill="#FE552F"/>
<path d="M630.425 271.879C636.92 293.226 637.44 317.844 625.15 326.762" stroke="#423C52" stroke-width="1.18132" stroke-linecap="round" stroke-linejoin="round"/>
<path d="M651.578 275.552C631.555 269.498 572 269.41 563.113 270.95C618.799 261.292 647.997 265.269 647.997 265.269C647.997 265.269 650.834 270.005 651.578 275.552Z" fill="#423C52"/>
<path d="M521.64 327.186H552.905" stroke="#423C52" stroke-width="1.18132" stroke-linecap="round" stroke-linejoin="round"/>
<path d="M617.847 305.941L604.629 314.881L591.413 305.941V286.335H617.847V305.941Z" stroke="#423C52" stroke-width="1.18132" stroke-linecap="round" stroke-linejoin="round"/>
<path d="M653.261 312.284L644.974 305.941V286.335H653.706" stroke="#423C52" stroke-width="1.18132" stroke-linecap="round" stroke-linejoin="round"/>
<path d="M675.349 378.218L658.235 369.518C656.08 368.81 653.827 368.449 651.559 368.448H582.405C582.365 368.45 582.325 368.45 582.285 368.448C577.886 368.29 574.344 359.179 574.344 347.965C574.344 336.651 577.951 327.478 582.405 327.478C582.548 327.477 582.691 327.487 582.832 327.508L654.357 325.769L687.568 378.56C687.568 378.56 680.827 381.071 675.349 378.218Z" fill="#423C52"/>
<path d="M680.733 345.399C690.041 358.786 693.765 374.336 689.69 377.205C684.597 380.786 670.367 372.165 660.77 358.11C651.174 344.056 644.987 328.264 655.698 325.77C661.761 324.358 670.264 330.339 680.733 345.399Z" fill="white" stroke="#907B00" stroke-width="1.18132" stroke-miterlimit="10"/>
<path d="M650.684 337.321H674.592" stroke="#907B00" stroke-width="1.18132" stroke-miterlimit="10"/>
<path d="M650.019 331.958H669.554" stroke="#907B00" stroke-width="1.18132" stroke-miterlimit="10"/>
<path d="M652.023 342.089H678.357" stroke="#907B00" stroke-width="1.18132" stroke-miterlimit="10"/>
<path d="M654.115 346.856H681.72" stroke="#907B00" stroke-width="1.18132" stroke-miterlimit="10"/>
<path d="M656.772 351.624H684.595" stroke="#907B00" stroke-width="1.18132" stroke-miterlimit="10"/>
<path d="M659.994 356.393H686.993" stroke="#907B00" stroke-width="1.18132" stroke-miterlimit="10"/>
<path d="M663.125 361.161H688.253H688.941" stroke="#907B00" stroke-width="1.18132" stroke-miterlimit="10"/>
<path d="M667.023 365.927H690.407" stroke="#907B00" stroke-width="1.18132" stroke-miterlimit="10"/>
<path d="M672.164 370.695H691.027" stroke="#907B00" stroke-width="1.18132" stroke-miterlimit="10"/>
<path d="M646.444 379.588L624.044 370.259C621.888 369.551 619.634 369.19 617.365 369.189H548.22C548.181 369.191 548.141 369.191 548.102 369.189C543.704 369.031 540.161 359.922 540.161 348.706C540.161 337.946 544.44 327.504 548.682 326.51H620.172L654.325 378.279C655.217 379.802 649.541 381.023 646.444 379.588Z" fill="#8C7200"/>
<path d="M553.059 369.2H550.977C547.505 366.188 544.987 357.766 544.987 347.97C544.987 338.305 547.768 329.592 551.405 326.516H553.525C549.929 327.586 546.065 336.57 546.065 347.97C546.059 359.65 549.627 368.132 553.059 369.2Z" fill="white"/>
<path d="M645.879 346.593C655.187 359.982 658.911 375.53 654.836 378.399C649.742 381.982 635.512 373.361 625.916 359.304C616.319 345.247 610.133 329.458 620.844 326.963C626.906 325.552 635.41 331.535 645.879 346.593Z" fill="white" stroke="#8C7200" stroke-width="1.18132" stroke-miterlimit="10"/>
<path d="M642.482 377.945L636.347 375.391C630.565 371.367 625.556 366.334 621.56 360.534C613.6 348.873 609.972 336.718 612.535 330.288C613.118 328.737 614.184 327.415 615.575 326.516H618.232C615.969 327.139 614.392 328.542 613.538 330.683C611.102 336.797 614.685 348.55 622.452 359.931C628.109 368.229 635.966 374.653 642.482 377.945Z" fill="white"/>
<path d="M615.592 331.141H632.487" stroke="#8C7200" stroke-width="1.18132" stroke-miterlimit="10"/>
<path d="M615.164 335.907H637.433" stroke="#8C7200" stroke-width="1.18132" stroke-miterlimit="10"/>
<path d="M616.058 340.676H641.162" stroke="#8C7200" stroke-width="1.18132" stroke-miterlimit="10"/>
<path d="M617.846 345.444H645.177" stroke="#8C7200" stroke-width="1.18132" stroke-miterlimit="10"/>
<path d="M620.305 350.21H648.365" stroke="#8C7200" stroke-width="1.18132" stroke-miterlimit="10"/>
<path d="M622.987 354.978H650.842" stroke="#8C7200" stroke-width="1.18132" stroke-miterlimit="10"/>
<path d="M626.339 359.747H653.077" stroke="#8C7200" stroke-width="1.18132" stroke-miterlimit="10"/>
<path d="M629.691 364.515H654.592" stroke="#8C7200" stroke-width="1.18132" stroke-miterlimit="10"/>
<path d="M633.938 369.281H656.012" stroke="#8C7200" stroke-width="1.18132" stroke-miterlimit="10"/>
<path d="M639.748 374.049H656.474" stroke="#8C7200" stroke-width="1.18132" stroke-miterlimit="10"/>
<path d="M253.973 380.23H206.07C206.07 380.23 193.877 376.651 194.946 358.498C195.308 352.414 196.613 345.32 198.536 336.464L198.583 335.797C212.894 336.398 228.26 335.91 242.627 333.206C240.22 345.635 239.072 355.332 240.18 360.062C242.405 369.562 253.973 380.23 253.973 380.23Z" fill="white" stroke="#423C52" stroke-width="1.18132" stroke-miterlimit="10"/>
<path d="M242.608 333.332L239.865 352.206C239.865 352.206 210.695 349.969 197.592 341.001L198.536 335.792H198.664C212.984 336.393 228.344 335.948 242.608 333.332Z" fill="#423C52"/>
<path d="M255.732 382.155C255.732 382.408 255.682 382.657 255.585 382.89C255.488 383.123 255.346 383.335 255.167 383.513C254.988 383.691 254.776 383.832 254.543 383.927C254.309 384.023 254.059 384.071 253.807 384.07H206.22C206.728 384.07 207.215 383.868 207.574 383.509C207.933 383.15 208.134 382.663 208.134 382.155C208.134 381.648 207.933 381.161 207.574 380.801C207.215 380.442 206.728 380.241 206.22 380.241H253.817C254.324 380.244 254.81 380.446 255.168 380.805C255.526 381.163 255.729 381.648 255.732 382.155Z" fill="white" stroke="#423C52" stroke-width="1.18132" stroke-miterlimit="10"/>
<path d="M206.069 380.23H154.574C153.56 380.229 152.56 379.997 151.649 379.551C150.738 379.105 149.942 378.457 149.32 377.656C148.698 376.855 148.267 375.923 148.06 374.93C147.853 373.937 147.876 372.91 148.127 371.928L157.931 331.357C168.381 333.152 182.842 335.131 198.576 335.794L198.529 336.462C196.603 345.32 195.301 352.414 194.939 358.495C193.872 376.653 206.069 380.23 206.069 380.23Z" fill="white" stroke="#423C52" stroke-width="1.18132" stroke-miterlimit="10"/>
<path d="M198.536 335.792L195.567 352.206C195.567 352.206 172.536 347.889 157.146 334.613L157.932 331.359C168.243 333.131 182.642 335.079 198.313 335.768L198.536 335.792Z" fill="#423C52"/>
<path d="M208.13 382.155C208.13 382.407 208.081 382.656 207.985 382.888C207.888 383.12 207.747 383.331 207.57 383.509C207.392 383.687 207.181 383.828 206.948 383.924C206.716 384.02 206.467 384.07 206.216 384.07H149.845C149.577 384.098 149.306 384.07 149.049 383.987C148.792 383.903 148.556 383.767 148.355 383.586C148.154 383.406 147.994 383.185 147.884 382.939C147.774 382.692 147.717 382.425 147.717 382.155C147.717 381.885 147.774 381.618 147.884 381.372C147.994 381.125 148.154 380.905 148.355 380.724C148.556 380.543 148.792 380.407 149.049 380.324C149.306 380.241 149.577 380.212 149.845 380.241H206.22C206.726 380.245 207.21 380.448 207.568 380.806C207.925 381.164 208.127 381.649 208.13 382.155Z" fill="white" stroke="#423C52" stroke-width="1.18132" stroke-miterlimit="10"/>
<path d="M261.388 131.046L244.411 77.0503C249.227 77.8397 264.588 79.966 280.816 120.996C283.897 128.789 314.276 198.977 314.276 198.977C314.276 198.977 316.787 212.785 304.339 212.454C297.656 212.259 266.011 154.624 261.388 131.046Z" fill="#A0505A"/>
<path d="M271.325 207.754C268.7 233.6 250.547 295.776 243.301 333.206C213.138 338.883 177.888 334.784 157.947 331.36C147.911 329.635 141.575 328.082 141.357 328.029C142.765 286.851 168.112 257.356 177.396 191.887C182.573 155.38 182.102 116.617 181.957 91.5284C181.946 89.4427 182.348 87.3755 183.139 85.4455C183.929 83.5155 185.094 81.7608 186.565 80.2822C188.036 78.8036 189.784 77.6303 191.71 76.8297C193.636 76.0291 195.701 75.6169 197.787 75.6169H236.956C241.14 75.6186 245.221 76.9188 248.635 79.3381C252.049 81.7574 254.628 85.1766 256.016 89.1239C263.074 109.192 277.109 150.806 271.325 207.754Z" fill="#FFDB00"/>
<path d="M232.457 200.859C229.366 230.04 205.013 294.165 198.891 337.555" stroke="#423C52" stroke-width="1.18132" stroke-miterlimit="10" stroke-linecap="round"/>
<path d="M296.89 214.826L253.133 202.205C251.111 201.622 249.239 200.608 247.646 199.232C246.054 197.857 244.778 196.152 243.908 194.237C243.037 192.321 242.592 190.239 242.603 188.135C242.614 186.03 243.082 183.953 243.973 182.047L270.048 126.237L322.55 141.498L315.373 202.626C315.114 204.715 314.405 206.723 313.295 208.511C312.185 210.3 310.7 211.826 308.943 212.986C307.187 214.145 305.199 214.91 303.119 215.228C301.038 215.546 298.913 215.409 296.89 214.826Z" fill="white" stroke="#423C52" stroke-width="1.18132" stroke-miterlimit="10" stroke-linecap="round"/>
<path d="M322.55 141.509C320.882 147.3 308.123 148.568 293.502 144.365C278.88 140.161 268.379 132.039 270.048 126.248C271.716 120.457 284.924 119.188 299.545 123.394C314.167 127.6 324.221 135.718 322.55 141.509Z" fill="white" stroke="#423C52" stroke-width="1.18132" stroke-miterlimit="10" stroke-linecap="round"/>
<path d="M319.91 140.653C321.259 135.974 311.729 129.118 298.624 125.34C285.519 121.563 273.801 122.294 272.452 126.973C271.103 131.652 280.634 138.508 293.739 142.286C306.844 146.063 318.561 145.332 319.91 140.653Z" fill="#423C52"/>
<path d="M347.222 155.258L345.455 161.38L337.698 172.339L315.061 204.322L318.612 176.663L336.352 163.387L347.222 155.258Z" fill="white" stroke="#423C52" stroke-width="1.18132" stroke-miterlimit="10" stroke-linecap="round"/>
<path d="M347.222 155.258L345.455 161.38L337.698 172.339C336.431 169.8 335.895 166.664 336.352 163.387L347.222 155.258Z" fill="#423C52"/>
<path d="M360.393 161.31C361.452 153.956 357.484 147.301 351.532 146.444C345.58 145.588 339.897 150.854 338.838 158.207C337.78 165.561 341.747 172.216 347.7 173.073C353.652 173.929 359.335 168.663 360.393 161.31Z" fill="white" stroke="#423C52" stroke-width="1.18132" stroke-miterlimit="10" stroke-linecap="round"/>
<path d="M351.952 153.485C352.055 152.766 351.667 152.115 351.085 152.031C350.502 151.947 349.946 152.462 349.843 153.181C349.739 153.9 350.128 154.551 350.71 154.635C351.292 154.719 351.848 154.204 351.952 153.485Z" fill="white" stroke="#423C52" stroke-width="1.18132" stroke-miterlimit="10" stroke-linecap="round"/>
<path d="M349.942 166.223C350.045 165.504 349.657 164.853 349.075 164.769C348.492 164.685 347.936 165.201 347.833 165.92C347.729 166.639 348.118 167.29 348.7 167.374C349.282 167.458 349.838 166.942 349.942 166.223Z" fill="white" stroke="#423C52" stroke-width="1.18132" stroke-miterlimit="10" stroke-linecap="round"/>
<path d="M351.059 159.967C351.162 159.248 350.774 158.597 350.192 158.513C349.609 158.43 349.053 158.945 348.95 159.664C348.846 160.383 349.235 161.034 349.817 161.118C350.399 161.202 350.955 160.687 351.059 159.967Z" fill="white" stroke="#423C52" stroke-width="1.18132" stroke-miterlimit="10" stroke-linecap="round"/>
<path d="M356.2 157.285C356.303 156.565 355.915 155.914 355.333 155.831C354.75 155.747 354.194 156.262 354.091 156.981C353.987 157.7 354.375 158.351 354.958 158.435C355.54 158.519 356.096 158.004 356.2 157.285Z" fill="white" stroke="#423C52" stroke-width="1.18132" stroke-miterlimit="10" stroke-linecap="round"/>
<path d="M355.305 163.765C355.408 163.046 355.02 162.395 354.438 162.311C353.855 162.227 353.299 162.742 353.196 163.461C353.092 164.181 353.48 164.832 354.063 164.915C354.645 164.999 355.201 164.484 355.305 163.765Z" fill="white" stroke="#423C52" stroke-width="1.18132" stroke-miterlimit="10" stroke-linecap="round"/>
<path d="M346.589 155.943C346.693 155.224 346.304 154.573 345.722 154.489C345.14 154.405 344.584 154.921 344.48 155.64C344.377 156.359 344.765 157.01 345.347 157.094C345.93 157.177 346.486 156.662 346.589 155.943Z" fill="white" stroke="#423C52" stroke-width="1.18132" stroke-miterlimit="10" stroke-linecap="round"/>
<path d="M345.694 162.423C345.798 161.704 345.409 161.053 344.827 160.969C344.245 160.886 343.689 161.401 343.585 162.12C343.482 162.839 343.87 163.49 344.452 163.574C345.035 163.658 345.591 163.143 345.694 162.423Z" fill="white" stroke="#423C52" stroke-width="1.18132" stroke-miterlimit="10" stroke-linecap="round"/>
<path d="M269.825 126.472L259.259 123.14C246.751 119.535 234.798 130.293 237.069 143.111L243.973 182.058L269.825 126.472Z" stroke="#423C52" stroke-width="1.18132" stroke-miterlimit="10" stroke-linecap="round"/>
<path d="M355.135 157.11C358.918 157.11 362.547 158.613 365.222 161.289C367.898 163.964 369.401 167.593 369.401 171.377V322.437" stroke="#DBE5E5" stroke-width="1.18132" stroke-miterlimit="10" stroke-linecap="round" stroke-dasharray="3.54 3.54"/>
<path d="M351.295 153.317H361.931C364.145 153.317 366.336 153.753 368.381 154.6C370.427 155.447 372.285 156.688 373.85 158.253C375.415 159.819 376.657 161.677 377.503 163.722C378.35 165.767 378.786 167.959 378.786 170.172V323.969" stroke="#DBE5E5" stroke-width="1.18132" stroke-miterlimit="10" stroke-linecap="round" stroke-dasharray="3.54 3.54"/>
<path d="M354.467 163.596C357.058 163.853 358.899 168.418 358.899 176.297L359.113 327.582" stroke="#DBE5E5" stroke-width="1.18132" stroke-miterlimit="10" stroke-linecap="round" stroke-dasharray="3.54 3.54"/>
<path d="M348.841 166.018V340.609" stroke="#DBE5E5" stroke-width="1.18132" stroke-miterlimit="10" stroke-linecap="round" stroke-dasharray="3.54 3.54"/>
<path d="M325.975 176.461C325.975 176.461 330.35 184.766 329.612 190.848C328.874 196.929 319.707 207.679 309.717 212.454C309.717 212.454 315.82 208.729 312.261 195.982C310.453 189.502 325.975 176.461 325.975 176.461Z" fill="#A0505A"/>
<path d="M323.74 181.824C323.74 181.824 326.998 191.023 326.255 197.105" stroke="#423C52" stroke-width="1.18132" stroke-miterlimit="10" stroke-linecap="round"/>
<path d="M319.94 186.518C319.94 186.518 323.198 195.716 322.456 201.798" stroke="#423C52" stroke-width="1.18132" stroke-miterlimit="10" stroke-linecap="round"/>
<path d="M315.694 190.764C315.694 190.764 318.952 199.963 318.21 206.045" stroke="#423C52" stroke-width="1.18132" stroke-miterlimit="10" stroke-linecap="round"/>
<path d="M267.596 227.244C259.702 224.515 235.012 207.621 213.662 177.88C208.422 170.587 203.636 162.979 199.33 155.099C190.253 138.475 182.785 119.451 178.949 98.4658C177.187 88.8244 180.599 83.0785 185.204 79.7649C194.422 73.1333 207.452 77.3176 211.399 87.958C221.4 114.912 247.348 178.019 276.818 195.667C282.808 199.25 265.523 198.399 264.362 199.798C262.184 202.414 270.056 206.984 290.674 212.364C295.44 213.607 272.011 228.774 267.596 227.244Z" fill="#A0505A"/>
<path d="M268.958 210.774C273.32 212.668 278.474 214.576 287.997 216.388" stroke="#423C52" stroke-width="1.18132" stroke-miterlimit="10" stroke-linecap="round"/>
<path d="M264.712 214.349C269.074 216.244 274.003 217.928 283.518 219.74" stroke="#423C52" stroke-width="1.18132" stroke-miterlimit="10" stroke-linecap="round"/>
<path d="M259.794 218.148C264.158 220.044 267.068 221.952 276.591 223.762" stroke="#423C52" stroke-width="1.18132" stroke-miterlimit="10" stroke-linecap="round"/>
<path d="M199.993 154.877C200.667 154.458 201.392 154.124 202.149 153.884C208.124 151.995 214.817 156.319 217.102 163.541C218.813 168.942 217.568 174.438 214.321 177.66" stroke="#423C52" stroke-width="1.18132" stroke-miterlimit="10" stroke-linecap="round"/>
<path d="M235.527 75.634C235.536 75.8942 235.516 76.1545 235.469 76.4105C235.178 78.1818 233.514 82.364 224.33 82.2335C212.689 82.0709 213.313 75.634 213.313 75.634L220.097 62.157H238.308L235.527 75.634Z" fill="#A0505A"/>
<path d="M235.527 75.634L238.308 62.157H224.403C224.403 62.157 224.378 72.4466 235.527 75.634Z" fill="#423C52"/>
<path d="M244.753 44.4613C243.78 41.7017 241.117 41.0621 241.016 41.0258C241.057 41.1113 242.02 43.2077 237.745 47.8434C233.381 52.5775 224.418 50.4661 224.418 50.4661H219.59C218.446 50.4678 217.33 50.8205 216.393 51.4765C215.455 52.1326 214.742 53.0605 214.349 54.1348C214.122 54.7514 214.007 55.4033 214.009 56.0601V56.3126C214.009 56.3254 214.009 56.3404 214.009 56.3532C212.618 61.3547 207.296 66.0203 200.142 67.8878C190.73 70.3479 181.719 67.0321 180.012 60.5033C178.305 53.9744 184.543 46.6711 193.954 44.211C201.075 42.3499 207.972 43.7832 211.643 47.4391C211.161 38.4544 216.713 31.1576 226.189 31.3052C241.983 31.549 245.327 46.085 244.753 44.4613Z" fill="#FE552F"/>
<path d="M170.677 67.2463C173.454 67.2463 175.706 64.9946 175.706 62.217C175.706 59.4394 173.454 57.1877 170.677 57.1877C167.899 57.1877 165.648 59.4394 165.648 62.217C165.648 64.9946 167.899 67.2463 170.677 67.2463Z" fill="#FE552F"/>
<path d="M239.299 69.2804C231.51 70.9618 224.418 62.1482 224.418 62.1482H219.59C218.109 62.1482 216.689 61.5605 215.64 60.5141C214.592 59.4676 214.003 58.048 214 56.567V56.0686C214 55.3344 214.144 54.6073 214.425 53.9288C214.706 53.2504 215.118 52.6339 215.637 52.1147C216.156 51.5954 216.772 51.1834 217.45 50.9024C218.129 50.6214 218.856 50.4767 219.59 50.4767H224.418C224.418 50.4767 233.381 52.5881 237.745 47.854C242.024 43.2184 241.057 41.1219 241.016 41.0364C241.405 41.1499 241.784 41.2929 242.15 41.4642C243.303 42.0054 244.195 43.1135 244.843 44.5896C248.037 51.8266 245.387 67.9669 239.299 69.2804Z" fill="#A0505A"/>
<path d="M222.936 57.4037C222.936 56.8576 222.828 56.3169 222.619 55.8123C222.41 55.3078 222.104 54.8493 221.718 54.4632C221.331 54.077 220.873 53.7707 220.368 53.5617C219.864 53.3527 219.323 53.2451 218.777 53.2451" stroke="#423C52" stroke-width="1.18132" stroke-miterlimit="10" stroke-linecap="round"/>
<path d="M246.206 51.6129C246.206 51.6129 240.081 51.399 240.081 61.819" stroke="#423C52" stroke-width="1.18132" stroke-miterlimit="10" stroke-linecap="round"/>
<path d="M244.601 56.9413C244.782 56.2084 244.588 55.5302 244.168 55.4266C243.748 55.3229 243.261 55.833 243.08 56.566C242.9 57.2989 243.093 57.9771 243.513 58.0808C243.933 58.1844 244.42 57.6743 244.601 56.9413Z" fill="#423C52"/>
<path d="M234.992 56.6506C235.188 55.8569 234.979 55.1225 234.525 55.0104C234.071 54.8982 233.544 55.4508 233.348 56.2445C233.152 57.0382 233.361 57.7726 233.815 57.8847C234.269 57.9969 234.796 57.4444 234.992 56.6506Z" fill="#423C52"/>
</svg>
