<svg width="900" height="341" viewBox="0 0 900 341" fill="none" xmlns="http://www.w3.org/2000/svg">
<path d="M145.462 308.64C152.092 294.097 156.657 282.9 173.158 282.511C202.884 281.808 198.957 308.525 209.756 306.74C220.554 304.955 206.509 251.857 259.305 247.082C307.55 242.712 306.952 291.821 321.475 291.505C329.359 291.333 333.408 265.661 358.263 271.882C379.782 277.267 371.056 310.913 395.556 303.382C420.055 295.851 416.019 312.807 416.019 312.807C463.728 298.533 465.29 319.569 465.29 319.569H87.1512C87.1512 319.569 121.422 289.788 145.462 308.64Z" fill="#C8D9D2"/>
<path d="M665.457 295.623C674.098 297.102 670.517 267.969 695.829 260.164C706.604 256.842 715.82 260.004 724.066 263.923C736.098 269.644 743.829 271.775 755.925 257.592C772.792 237.816 794.751 237.193 807.412 240.347C818.527 242.719 839.822 248.658 855.046 284.904C858.104 292.183 862.501 299.093 871.928 297.245C891.532 293.407 904.706 306.729 898.414 319.471H624.49C624.49 319.471 629.242 289.42 665.457 295.623Z" fill="#B59B00"/>
<path d="M400.55 60.0111H359.629C359.629 60.0111 381.161 51.0015 387.708 51.0015C394.254 51.0015 399.658 54.0991 400.55 60.0111Z" fill="#E5F1EF"/>
<path d="M213.97 41.9315C213.456 37.5469 211.549 33.4429 208.529 30.2234C205.508 27.0038 201.534 24.8386 197.191 24.0464C202.042 10.0995 216.293 0 233.117 0C253.946 0 270.832 15.4882 270.832 34.5803C270.832 34.5803 258.597 38.6771 257.875 50.1932C258.241 49.2639 262.438 39.8973 273.291 39.0341C281.536 38.3768 291.059 43.962 292.18 52.184C292.18 52.184 336.874 40.0635 337.133 60.0112H148.028C148.028 59.9224 148.028 59.8336 148.028 59.7449C148.028 52.4786 154.863 46.5912 163.293 46.5912C166.308 46.5748 169.273 47.3631 171.881 48.8748C172.514 37.5419 182.396 28.4964 194.496 28.5361C208.252 28.5814 213.97 41.9315 213.97 41.9315Z" fill="#E5F1EF"/>
<path d="M215.373 21.4377C217.864 21.4377 219.884 19.4183 219.884 16.9272C219.884 14.4362 217.864 12.4167 215.373 12.4167C212.882 12.4167 210.863 14.4362 210.863 16.9272C210.863 19.4183 212.882 21.4377 215.373 21.4377Z" fill="white"/>
<path d="M748.243 72.8494H595.352C595.669 71.2722 606.685 63.3751 628.049 69.765C628.049 69.765 626.053 61.3711 638.181 65.0977C650.309 68.8243 645.991 52.1669 656.648 49.4999C662.864 47.9436 666.451 50.4179 668.982 53.2587C670.199 54.8488 670.966 56.7372 671.202 58.7259C671.439 60.7146 671.135 62.7302 670.324 64.5613C671.483 62.5516 672.089 60.2705 672.079 57.9505C672.096 55.1623 671.215 52.4429 669.565 50.195C672.325 35.1223 686.207 23.6592 702.922 23.6592C721.621 23.6592 736.776 38.0141 736.776 55.7047C736.776 56.7905 736.719 57.8756 736.605 58.9553C738.52 56.5811 742.755 54.46 748.531 54.5959C748.661 54.5959 748.793 54.5959 748.925 54.6111C760.636 55.2929 759.969 72.8494 748.243 72.8494Z" fill="#E5F1EF"/>
<path d="M682.239 48.2534C684.073 48.2534 685.56 46.7667 685.56 44.9328C685.56 43.099 684.073 41.6123 682.239 41.6123C680.405 41.6123 678.918 43.099 678.918 44.9328C678.918 46.7667 680.405 48.2534 682.239 48.2534Z" fill="white"/>
<path d="M703.683 301.159L697.321 318.015H719.503L725.306 304.277L703.683 301.159Z" fill="#A0505A"/>
<path d="M724.494 306.11L725.306 304.277L703.683 301.159L700.823 308.986L724.494 306.11Z" fill="#423C52"/>
<path d="M697.693 318.015L693.417 329.147C693.242 329.603 693.18 330.095 693.237 330.58C693.295 331.066 693.469 331.53 693.746 331.932C694.022 332.335 694.393 332.665 694.825 332.892C695.258 333.12 695.739 333.238 696.228 333.238H731.614V331.58C731.614 330.874 731.469 330.176 731.188 329.529C730.907 328.882 730.496 328.299 729.981 327.818L719.503 318.015H697.693Z" fill="white" stroke="#423C52" stroke-width="1.0461" stroke-miterlimit="10" stroke-linecap="round"/>
<path d="M694.161 327.102C693.986 327.558 693.925 328.049 693.982 328.534C694.04 329.019 694.214 329.483 694.491 329.886C694.768 330.288 695.138 330.617 695.57 330.845C696.002 331.072 696.483 331.191 696.972 331.191H731.427" stroke="#423C52" stroke-width="1.0461" stroke-miterlimit="10" stroke-linecap="round"/>
<path d="M705.135 318.015L700.222 331.191" stroke="#423C52" stroke-width="1.0461" stroke-miterlimit="10" stroke-linecap="round"/>
<path d="M707.368 318.015L702.455 331.191" stroke="#423C52" stroke-width="1.0461" stroke-miterlimit="10" stroke-linecap="round"/>
<path d="M709.601 318.015L704.688 331.191" stroke="#423C52" stroke-width="1.0461" stroke-miterlimit="10" stroke-linecap="round"/>
<path d="M725.714 323.541V322.272C725.711 321.709 725.486 321.169 725.086 320.772C724.687 320.375 724.146 320.152 723.583 320.153H718.446C718.166 320.152 717.889 320.207 717.631 320.314C717.372 320.421 717.138 320.578 716.94 320.776C716.742 320.973 716.585 321.208 716.478 321.466C716.372 321.725 716.317 322.002 716.317 322.281" stroke="#423C52" stroke-width="1.0461" stroke-miterlimit="10" stroke-linecap="round"/>
<path d="M729.327 326.503V325.232C729.327 324.667 729.102 324.126 728.703 323.727C728.304 323.328 727.763 323.104 727.199 323.103H722.059C721.495 323.104 720.954 323.328 720.554 323.727C720.155 324.126 719.931 324.667 719.93 325.232" stroke="#423C52" stroke-width="1.0461" stroke-miterlimit="10" stroke-linecap="round"/>
<path d="M786.925 305.199V318.61H764.744V306.742C772.168 306.867 779.589 306.35 786.925 305.199Z" fill="#A0505A"/>
<path d="M786.925 305.199V307.256L764.744 312.837V306.742C772.168 306.867 779.589 306.35 786.925 305.199Z" fill="#423C52"/>
<path d="M765.115 317.862L761.715 329.731C761.591 330.137 761.564 330.566 761.637 330.984C761.709 331.403 761.878 331.798 762.131 332.139C762.383 332.48 762.713 332.757 763.092 332.948C763.471 333.139 763.889 333.238 764.314 333.238H805.435V331.108C805.435 330.339 805.218 329.585 804.809 328.934C804.4 328.282 803.816 327.759 803.123 327.425L786.917 317.863L765.115 317.862Z" fill="white" stroke="#423C52" stroke-width="1.0461" stroke-miterlimit="10" stroke-linecap="round"/>
<path d="M762.344 327.683C762.22 328.089 762.193 328.519 762.265 328.937C762.337 329.355 762.506 329.751 762.758 330.092C763.011 330.433 763.34 330.71 763.719 330.901C764.098 331.092 764.517 331.191 764.941 331.191H805.318" stroke="#423C52" stroke-width="1.0461" stroke-miterlimit="10" stroke-linecap="round"/>
<path d="M771.739 318.015L768.686 331.191" stroke="#423C52" stroke-width="1.0461" stroke-miterlimit="10" stroke-linecap="round"/>
<path d="M773.971 318.015L770.919 331.191" stroke="#423C52" stroke-width="1.0461" stroke-miterlimit="10" stroke-linecap="round"/>
<path d="M776.204 318.015L773.152 331.191" stroke="#423C52" stroke-width="1.0461" stroke-miterlimit="10" stroke-linecap="round"/>
<path d="M796.769 323.647V322.376C796.769 321.811 796.545 321.27 796.146 320.871C795.747 320.471 795.205 320.247 794.641 320.247H790.804C790.24 320.248 789.699 320.472 789.3 320.871C788.901 321.27 788.676 321.811 788.676 322.376" stroke="#423C52" stroke-width="1.0461" stroke-miterlimit="10" stroke-linecap="round"/>
<path d="M800.756 325.338C800.756 325.058 800.701 324.781 800.594 324.523C800.487 324.264 800.33 324.029 800.132 323.832C799.934 323.634 799.699 323.477 799.441 323.37C799.183 323.264 798.906 323.209 798.626 323.209H794.418C793.853 323.209 793.311 323.433 792.912 323.832C792.513 324.232 792.289 324.773 792.289 325.338" stroke="#423C52" stroke-width="1.0461" stroke-miterlimit="10" stroke-linecap="round"/>
<path d="M794.593 110.369C801.392 111.34 807.363 116.674 808.666 123.43L815.995 159.34C816.403 161.033 816.61 162.768 816.611 164.51V166.064C816.611 171.904 814.291 177.504 810.162 181.633C806.033 185.762 800.432 188.082 794.593 188.082V110.369Z" fill="#A0505A"/>
<path d="M755.468 154.997H685.594C685.594 154.14 684.217 126.014 709.999 124.945C728.912 124.161 716.861 105.647 730.472 96.4671C741.072 89.3199 761.684 98.7733 762.706 90.8611C763.871 81.8534 767.572 78.0966 774.114 78.1003C779.025 78.1003 784.707 81.113 784.707 83.0339C784.707 83.0339 780.127 89.0233 771.946 88.0222L771.767 93.2146C771.767 93.2146 772.182 108.282 750.091 109.959L755.468 154.997Z" fill="#FF7500"/>
<path d="M715.825 115.954C717.498 113.873 717.76 111.307 716.41 110.221C715.06 109.135 712.609 109.941 710.936 112.021C709.263 114.101 709.001 116.668 710.351 117.754C711.701 118.84 714.152 118.034 715.825 115.954Z" fill="#FF7500"/>
<path d="M794.593 146.069V303.72C794.593 303.72 777.204 308.095 757.559 306.348C757.559 306.348 749.399 299.767 752.395 290.006C754.35 283.633 761.514 281.464 755.228 273.573C752.098 269.644 752.644 262.882 754.169 256.687L759.191 242.697C759.055 242.974 755.944 249.445 754.169 256.687L736.775 305.122C722.174 304.67 697.319 299.979 697.319 299.979C693.955 292.973 694.471 286.19 700.908 282.488C707.141 278.899 698.626 272.54 702.087 262.603C705.141 253.837 711.293 254.481 716.215 247.541C724.633 235.689 754.862 156.561 754.862 156.561L746.813 110.359L757.463 108.688L777.622 128.709L788.496 109.568L794.597 110.437V111.251L799.834 133.299C800.992 138.183 798.905 143.255 794.593 146.069Z" fill="#FFDB00"/>
<path d="M736.777 304.946L780.015 185.049H784.514" stroke="#423C52" stroke-width="1.0461" stroke-miterlimit="10" stroke-linecap="round"/>
<path d="M798.911 142.354C797.251 145.187 794.338 146.66 790.411 147.112" stroke="#423C52" stroke-width="1.0461" stroke-miterlimit="10" stroke-linecap="round"/>
<path d="M746.808 110.369C743.55 110.368 740.358 111.291 737.602 113.029C734.847 114.767 732.639 117.25 731.236 120.191L714.615 162.719C713.697 164.757 713.223 166.966 713.223 169.201C713.223 173.394 714.888 177.415 717.853 180.379C720.817 183.343 724.838 185.009 729.03 185.009H729.219C731.621 185.008 733.992 184.461 736.151 183.409L769.993 166.895V152.406L745.901 154.078L751.146 135.643L746.808 110.369Z" fill="#A0505A"/>
<path d="M783.458 150.037H767.53C765.626 150.037 764.083 151.581 764.083 153.484V163.68C764.083 165.584 765.626 167.127 767.53 167.127H783.458C785.362 167.127 786.905 165.584 786.905 163.68V153.484C786.905 151.581 785.362 150.037 783.458 150.037Z" fill="#A0505A"/>
<path d="M783.458 150.037H767.53C765.626 150.037 764.083 151.581 764.083 153.484V163.68C764.083 165.584 765.626 167.127 767.53 167.127H783.458C785.362 167.127 786.905 165.584 786.905 163.68V153.484C786.905 151.581 785.362 150.037 783.458 150.037Z" stroke="#423C52" stroke-width="1.0461" stroke-miterlimit="10" stroke-linecap="round"/>
<path d="M768.948 153.796V167.033" stroke="#423C52" stroke-width="1.0461" stroke-miterlimit="10" stroke-linecap="round"/>
<path d="M774.854 153.794V165.442C774.854 165.889 774.677 166.318 774.361 166.634C774.045 166.95 773.616 167.127 773.17 167.127H772.252" stroke="#423C52" stroke-width="1.0461" stroke-miterlimit="10" stroke-linecap="round"/>
<path d="M780.852 153.794V165.442C780.852 165.889 780.674 166.318 780.358 166.634C780.042 166.95 779.614 167.127 779.167 167.127H778.251" stroke="#423C52" stroke-width="1.0461" stroke-miterlimit="10" stroke-linecap="round"/>
<path d="M760.209 158.58H837.805" stroke="#423C52" stroke-width="1.0461" stroke-miterlimit="10" stroke-linecap="round"/>
<path d="M841.9 347.064C852.613 347.064 861.298 338.38 861.298 327.666C861.298 316.953 852.613 308.268 841.9 308.268C831.187 308.268 822.502 316.953 822.502 327.666C822.502 338.38 831.187 347.064 841.9 347.064Z" stroke="#423C52" stroke-width="1.0461" stroke-miterlimit="10" stroke-linecap="round"/>
<path d="M857.764 328.59C857.766 330.703 857.269 332.787 856.314 334.672C855.36 336.557 853.974 338.19 852.27 339.439" stroke="#423C52" stroke-width="1.0461" stroke-miterlimit="10" stroke-linecap="round"/>
<path d="M657.379 347.064C668.092 347.064 676.777 338.38 676.777 327.666C676.777 316.953 668.092 308.268 657.379 308.268C646.665 308.268 637.98 316.953 637.98 327.666C637.98 338.38 646.665 347.064 657.379 347.064Z" stroke="#423C52" stroke-width="1.0461" stroke-miterlimit="10" stroke-linecap="round"/>
<path d="M672.699 327.953C672.7 325.335 672.022 322.761 670.731 320.483C669.44 318.206 667.58 316.302 665.332 314.958" stroke="#423C52" stroke-width="1.0461" stroke-miterlimit="10" stroke-linecap="round"/>
<path d="M657.379 331.253C659.317 331.253 660.888 329.682 660.888 327.744C660.888 325.806 659.317 324.234 657.379 324.234C655.44 324.234 653.869 325.806 653.869 327.744C653.869 329.682 655.44 331.253 657.379 331.253Z" fill="white" stroke="#423C52" stroke-width="1.0461" stroke-miterlimit="10" stroke-linecap="round"/>
<path d="M841.798 303.318C838.12 303.318 834.478 304.042 831.081 305.449C827.683 306.857 824.596 308.92 821.995 311.52C819.394 314.121 817.332 317.208 815.924 320.606C814.517 324.004 813.792 327.645 813.792 331.323L813.817 333.238H686.34C685.951 333.238 685.567 333.162 685.208 333.013C684.849 332.865 684.523 332.647 684.248 332.372C683.973 332.097 683.755 331.771 683.607 331.412C683.458 331.053 683.382 330.669 683.382 330.28V326.813C683.382 320.363 680.82 314.178 676.26 309.618C671.699 305.058 665.514 302.496 659.065 302.496" stroke="#423C52" stroke-width="1.0461" stroke-miterlimit="10" stroke-linecap="round"/>
<path d="M786.971 158.58C790.901 158.58 794.717 159.9 797.807 162.328C800.897 164.756 803.081 168.152 804.01 171.97L841.9 327.666" stroke="#423C52" stroke-width="1.0461" stroke-miterlimit="10" stroke-linecap="round"/>
<path d="M804.315 172.958C803.906 171.243 803.891 169.458 804.27 167.737C804.65 166.016 805.415 164.403 806.507 163.019C807.6 161.636 808.991 160.517 810.577 159.749C812.164 158.98 813.904 158.58 815.666 158.58H815.995" stroke="#423C52" stroke-width="1.0461" stroke-miterlimit="10" stroke-linecap="round"/>
<path d="M841.975 331.253C843.914 331.253 845.485 329.682 845.485 327.744C845.485 325.806 843.914 324.234 841.975 324.234C840.037 324.234 838.466 325.806 838.466 327.744C838.466 329.682 840.037 331.253 841.975 331.253Z" fill="white" stroke="#423C52" stroke-width="1.0461" stroke-miterlimit="10" stroke-linecap="round"/>
<path d="M830.735 150.102H815.266C813.254 150.102 811.624 151.732 811.624 153.743V163.497C811.624 165.508 813.254 167.139 815.266 167.139H830.735C832.746 167.139 834.377 165.508 834.377 163.497V153.743C834.377 151.732 832.746 150.102 830.735 150.102Z" fill="#A0505A"/>
<path d="M834.161 162.984C834.161 164.086 833.724 165.143 832.944 165.922C832.165 166.701 831.108 167.139 830.006 167.139H815.568C814.466 167.139 813.409 166.701 812.63 165.922C811.85 165.143 811.413 164.086 811.413 162.984V154.259C811.413 153.157 811.85 152.1 812.63 151.321C813.409 150.542 814.466 150.104 815.568 150.104" stroke="#423C52" stroke-width="1.0461" stroke-miterlimit="10" stroke-linecap="round"/>
<path d="M823.535 153.849V165.46C823.535 165.68 823.492 165.899 823.408 166.103C823.323 166.307 823.2 166.492 823.044 166.648C822.888 166.804 822.703 166.928 822.499 167.013C822.295 167.097 822.076 167.141 821.856 167.141H820.942" stroke="#423C52" stroke-width="1.0461" stroke-miterlimit="10" stroke-linecap="round"/>
<path d="M817.906 153.849V165.46C817.907 165.68 817.863 165.899 817.779 166.103C817.695 166.307 817.571 166.492 817.415 166.648C817.259 166.804 817.074 166.928 816.87 167.013C816.666 167.097 816.448 167.141 816.227 167.141H815.313" stroke="#423C52" stroke-width="1.0461" stroke-miterlimit="10" stroke-linecap="round"/>
<path d="M828.809 153.849V165.46C828.809 165.68 828.766 165.899 828.681 166.103C828.597 166.307 828.474 166.492 828.318 166.648C828.162 166.804 827.976 166.928 827.772 167.013C827.569 167.097 827.35 167.141 827.129 167.141H826.215" stroke="#423C52" stroke-width="1.0461" stroke-miterlimit="10" stroke-linecap="round"/>
<path d="M716.683 203.179C717.097 203.468 717.445 203.842 717.703 204.276C717.962 204.71 718.124 205.194 718.18 205.696C718.236 206.198 718.184 206.706 718.028 207.186C717.872 207.667 717.615 208.108 717.274 208.481L702.083 225.123C701.977 225.237 701.833 225.309 701.678 225.325C701.524 225.341 701.369 225.301 701.241 225.212C701.114 225.122 701.023 224.99 700.986 224.839C700.949 224.688 700.967 224.529 701.038 224.39L711.513 204.441C711.747 203.995 712.073 203.604 712.47 203.294C712.867 202.983 713.325 202.761 713.814 202.642C714.303 202.522 714.812 202.509 715.307 202.601C715.802 202.694 716.272 202.891 716.685 203.179H716.683Z" fill="#FF7500"/>
<path d="M695.211 223.701C699.296 223.701 702.608 220.389 702.608 216.304C702.608 212.219 699.296 208.908 695.211 208.908C691.126 208.908 687.815 212.219 687.815 216.304C687.815 220.389 691.126 223.701 695.211 223.701Z" fill="#FFDB00"/>
<path d="M683.359 210.475C685.82 210.475 687.815 209.034 687.815 207.255C687.815 205.477 685.82 204.035 683.359 204.035C680.898 204.035 678.903 205.477 678.903 207.255C678.903 209.034 680.898 210.475 683.359 210.475Z" fill="#B59B00"/>
<path d="M694.712 206.578C696.253 205.689 696.504 203.24 695.274 201.109C694.043 198.978 691.797 197.971 690.257 198.86C688.716 199.75 688.465 202.198 689.696 204.329C690.926 206.461 693.172 207.467 694.712 206.578Z" fill="#B59B00"/>
<path d="M685.616 202.559C687.445 201.503 688.027 199.085 686.915 197.159C685.803 195.233 683.418 194.528 681.589 195.584C679.76 196.64 679.178 199.058 680.29 200.984C681.402 202.91 683.787 203.615 685.616 202.559Z" fill="#B59B00"/>
<path d="M736.926 183.736C730.64 197.25 723.311 210.946 720.049 216.261C716.775 221.298 711.664 224.857 705.804 226.181C699.944 227.504 693.799 226.486 688.678 223.345C683.557 220.203 679.866 215.186 678.39 209.363C676.915 203.539 677.772 197.37 680.779 192.169C687.433 181.325 738.799 149.227 746.102 153.705" stroke="#423C52" stroke-width="1.0461" stroke-miterlimit="10" stroke-linecap="round"/>
<path d="M681.41 191.31L686.572 188.968L691.84 186.58L697.006 184.236L702.273 181.849L710.697 178.026" stroke="#423C52" stroke-width="1.0461" stroke-miterlimit="10" stroke-linecap="round"/>
<path d="M678.465 198.623L683.323 196.419L688.489 194.077L693.755 191.689L698.919 189.347L704.187 186.958L711.298 183.734" stroke="#423C52" stroke-width="1.0461" stroke-miterlimit="10" stroke-linecap="round"/>
<path d="M677.842 204.582L683.1 202.199L688.264 199.857L693.53 197.467L698.696 195.125L703.964 192.738L711.738 189.209" stroke="#423C52" stroke-width="1.0461" stroke-miterlimit="10" stroke-linecap="round"/>
<path d="M678.38 209.924L682.879 207.865L688.045 205.525L693.311 203.134L698.475 200.794L703.743 198.402L708.907 196.062L714.177 193.673L719.339 191.329L737.095 183.418" stroke="#423C52" stroke-width="1.0461" stroke-miterlimit="10" stroke-linecap="round"/>
<path d="M679.982 214.859L687.82 211.303L693.088 208.915L698.252 206.573L703.518 204.182L708.684 201.842L713.952 199.451L719.116 197.108L724.76 194.549L733.524 190.577" stroke="#423C52" stroke-width="1.0461" stroke-miterlimit="10" stroke-linecap="round"/>
<path d="M730.133 197.681L682.879 219.062" stroke="#423C52" stroke-width="1.0461" stroke-miterlimit="10" stroke-linecap="round"/>
<path d="M726.282 205.104L687.218 222.772" stroke="#423C52" stroke-width="1.0461" stroke-miterlimit="10" stroke-linecap="round"/>
<path d="M722.017 212.657L693.065 225.788" stroke="#423C52" stroke-width="1.0461" stroke-miterlimit="10" stroke-linecap="round"/>
<path d="M681.223 191.508L684.284 220.667" stroke="#423C52" stroke-width="1.0461" stroke-miterlimit="10" stroke-linecap="round"/>
<path d="M685.81 186.658L689.801 224.661" stroke="#423C52" stroke-width="1.0461" stroke-miterlimit="10" stroke-linecap="round"/>
<path d="M690.589 182.644L695.213 226.683" stroke="#423C52" stroke-width="1.0461" stroke-miterlimit="10" stroke-linecap="round"/>
<path d="M695.313 179.076L700.369 227.254" stroke="#423C52" stroke-width="1.0461" stroke-miterlimit="10" stroke-linecap="round"/>
<path d="M700.148 175.619L705.509 226.68" stroke="#423C52" stroke-width="1.0461" stroke-miterlimit="10" stroke-linecap="round"/>
<path d="M704.91 172.414L710.427 224.965" stroke="#423C52" stroke-width="1.0461" stroke-miterlimit="10" stroke-linecap="round"/>
<path d="M709.781 169.292L715.295 221.806" stroke="#423C52" stroke-width="1.0461" stroke-miterlimit="10" stroke-linecap="round"/>
<path d="M719.845 216.586L719.429 212.638L718.838 206.998L718.234 201.245L717.291 192.258" stroke="#423C52" stroke-width="1.0461" stroke-miterlimit="10" stroke-linecap="round"/>
<path d="M724.559 208.247L724.059 203.659L723.454 197.906L722.612 189.871" stroke="#423C52" stroke-width="1.0461" stroke-miterlimit="10" stroke-linecap="round"/>
<path d="M729.404 198.689L728.879 194.434L728.165 187.619" stroke="#423C52" stroke-width="1.0461" stroke-miterlimit="10" stroke-linecap="round"/>
<path d="M734.022 189.617L733.524 185.621" stroke="#423C52" stroke-width="1.0461" stroke-miterlimit="10" stroke-linecap="round"/>
<path d="M785.946 109.214L788.492 109.577L777.622 128.718L757.463 108.697L757.525 108.687C760.462 107.726 765.348 105.75 767.249 102.222L771.311 93.9226L780.723 98.5955V103.191C780.722 104.656 781.25 106.071 782.21 107.178C783.169 108.285 784.496 109.008 785.946 109.214Z" fill="#A0505A"/>
<path d="M759.361 111.022L757.521 108.688C760.459 107.726 765.345 105.562 767.245 102.033L771.308 93.9304L780.724 98.5958V103.004L759.361 111.022Z" fill="#423C52"/>
<path d="M785.694 93.6847L785.317 93.7433C784.957 93.7996 784.628 93.9829 784.391 94.26C784.155 94.5371 784.024 94.8898 784.025 95.2543V97.0997C784.025 97.7509 783.766 98.3755 783.306 98.836C782.845 99.2965 782.221 99.5552 781.569 99.5552H777.68C776.243 99.5551 774.852 99.0479 773.753 98.1229C772.653 97.198 771.915 95.9146 771.668 94.4988C771.644 94.3553 771.625 94.2117 771.611 94.0663H769.657C768.855 94.0663 768.086 93.7479 767.52 93.1811C766.953 92.6144 766.635 91.8457 766.635 91.0442C766.635 90.2427 766.953 89.474 767.52 88.9072C768.086 88.3405 768.855 88.0221 769.657 88.0221H771.955C779.66 88.5547 784.714 83.0356 784.714 83.0356C785.013 87.4725 785.547 89.926 786.603 91.9036C786.693 92.0771 786.741 92.2697 786.742 92.4653C786.742 92.661 786.696 92.854 786.608 93.0282C786.519 93.2025 786.389 93.353 786.231 93.4672C786.072 93.5814 785.888 93.656 785.694 93.6847Z" fill="#A0505A"/>
<path d="M771.047 91.5506C771.047 90.9958 770.826 90.4638 770.434 90.0714C770.042 89.679 769.511 89.4583 768.956 89.4578" stroke="#423C52" stroke-width="0.836878" stroke-miterlimit="10" stroke-linecap="round"/>
<path d="M783.572 87.2251C783.572 87.2251 781.332 87.2251 780.128 88.8759" stroke="#423C52" stroke-width="0.836878" stroke-miterlimit="10" stroke-linecap="round"/>
<path d="M782.486 91.2859C782.744 91.2859 782.954 90.8834 782.954 90.3869C782.954 89.8903 782.744 89.4878 782.486 89.4878C782.227 89.4878 782.017 89.8903 782.017 90.3869C782.017 90.8834 782.227 91.2859 782.486 91.2859Z" fill="#423C52"/>
<path d="M509.184 196.257C509.184 196.257 506.489 211.792 532.951 208.371L534.23 191.391L509.184 196.257Z" fill="white" stroke="#FE552F" stroke-width="1.0461" stroke-miterlimit="10"/>
<path d="M591.744 379.378C606.04 379.378 617.628 362.744 617.628 342.224C617.628 321.704 606.04 305.069 591.744 305.069C577.449 305.069 565.86 321.704 565.86 342.224C565.86 362.744 577.449 379.378 591.744 379.378Z" fill="white" stroke="#423C52" stroke-width="1.0461" stroke-miterlimit="10" stroke-linecap="round"/>
<path d="M590.853 373.483C600.941 373.483 609.119 360.411 609.119 344.286C609.119 328.161 600.941 315.089 590.853 315.089C580.764 315.089 572.586 328.161 572.586 344.286C572.586 360.411 580.764 373.483 590.853 373.483Z" fill="#C8D9D2"/>
<path d="M587.963 371.421C598.051 371.421 606.229 358.349 606.229 342.224C606.229 326.099 598.051 313.027 587.963 313.027C577.874 313.027 569.696 326.099 569.696 342.224C569.696 358.349 577.874 371.421 587.963 371.421Z" stroke="#423C52" stroke-width="1.0461" stroke-miterlimit="10" stroke-linecap="round"/>
<path d="M533.852 192.528C526.042 297.118 508.78 345.746 508.78 345.746C508.78 345.746 548.844 347.824 574.545 343.258C574.545 343.258 598.383 280.535 601.077 182.543L533.852 192.528Z" fill="#907B00"/>
<path d="M515.255 322.372V345.995L514.636 345.976V324.93C514.82 324.183 515.008 323.415 515.202 322.627L515.255 322.372Z" fill="#B59B00"/>
<path d="M521.42 292.926V346.139H520.801V296.256C521.006 295.161 521.213 294.051 521.42 292.926Z" fill="#B59B00"/>
<path d="M527.585 253.71V346.218H526.966V258.266C527.124 257.133 527.279 255.982 527.436 254.819C527.463 254.615 527.491 254.407 527.521 254.201C527.544 254.045 527.561 253.873 527.585 253.71Z" fill="#B59B00"/>
<path d="M533.747 193.914V346.203H533.129V201.749C533.196 200.948 533.259 200.145 533.318 199.339L533.369 198.719C533.5 197.133 533.626 195.531 533.747 193.914Z" fill="#B59B00"/>
<path d="M539.912 191.629V346.114L539.294 346.128V191.714L539.912 191.629Z" fill="#B59B00"/>
<path d="M546.077 190.711V345.931L545.459 345.956V190.805L546.077 190.711Z" fill="#B59B00"/>
<path d="M552.24 189.797V345.652L551.62 345.686V189.891L552.24 189.797Z" fill="#B59B00"/>
<path d="M558.405 188.881V345.225L557.785 345.274V188.973L558.405 188.881Z" fill="#B59B00"/>
<path d="M564.564 187.967V344.651L563.945 344.717V188.057L564.564 187.967Z" fill="#B59B00"/>
<path d="M570.733 187.051V343.874L570.114 343.963V187.143L570.733 187.051Z" fill="#B59B00"/>
<path d="M576.898 186.136V336.41C576.679 337.086 576.473 337.716 576.279 338.299V186.236L576.898 186.136Z" fill="#B59B00"/>
<path d="M583.063 185.22V315.085L582.865 315.841C582.81 316.048 582.756 316.256 582.703 316.46C582.616 316.791 582.529 317.116 582.444 317.439V185.313L583.063 185.22Z" fill="#B59B00"/>
<path d="M589.226 184.306V288.315C589.03 289.283 588.833 290.24 588.635 291.186L588.607 291.326V184.397L589.226 184.306Z" fill="#B59B00"/>
<path d="M595.392 183.388V251.967C595.288 252.722 595.184 253.459 595.08 254.201C595.05 254.407 595.019 254.615 594.991 254.819C594.919 255.329 594.844 255.839 594.772 256.345V183.482L595.392 183.388Z" fill="#B59B00"/>
<path d="M601.077 182.544C601.043 183.832 601.003 185.114 600.958 186.389C600.958 186.595 600.945 186.803 600.939 187.009C600.94 187.022 600.94 187.035 600.939 187.049V182.564L601.077 182.544Z" fill="#B59B00"/>
<path d="M575.529 340.501C575.455 340.72 575.383 340.926 575.317 341.121H510.261L510.45 340.501H575.529Z" fill="#B59B00"/>
<path d="M577.561 334.338C577.495 334.547 577.431 334.755 577.372 334.957H512.035C512.089 334.753 512.146 334.547 512.205 334.338H577.561Z" fill="#B59B00"/>
<path d="M579.443 328.173C579.382 328.38 579.32 328.588 579.254 328.792H513.667C513.722 328.588 513.773 328.38 513.825 328.173H579.443Z" fill="#B59B00"/>
<path d="M581.205 322.007C581.148 322.215 581.09 322.423 581.033 322.627H515.193L515.255 322.372V322.007H581.205Z" fill="#B59B00"/>
<path d="M582.865 315.844C582.81 316.052 582.755 316.26 582.703 316.464H516.626C516.672 316.26 516.717 316.052 516.764 315.844H582.865Z" fill="#B59B00"/>
<path d="M584.431 309.679C584.38 309.887 584.331 310.095 584.28 310.299H517.983C518.026 310.095 518.071 309.887 518.115 309.679H584.431Z" fill="#B59B00"/>
<path d="M585.908 303.514C585.861 303.72 585.812 303.928 585.764 304.134H519.258C519.299 303.928 519.343 303.72 519.384 303.514H585.908Z" fill="#B59B00"/>
<path d="M587.313 297.349C587.268 297.559 587.223 297.765 587.177 297.969H520.472C520.512 297.765 520.551 297.559 520.589 297.349H587.313Z" fill="#B59B00"/>
<path d="M588.635 291.186L588.607 291.326L588.505 291.806H521.624C521.662 291.602 521.7 291.396 521.737 291.186H588.635Z" fill="#B59B00"/>
<path d="M589.874 285.021C589.837 285.229 589.795 285.437 589.754 285.641H522.72L522.827 285.021H589.874Z" fill="#B59B00"/>
<path d="M591.059 278.858C591.019 279.065 590.983 279.271 590.946 279.477H523.766C523.8 279.271 523.834 279.065 523.866 278.858H591.059Z" fill="#B59B00"/>
<path d="M592.165 272.693C592.128 272.9 592.094 273.106 592.058 273.312H524.748C524.782 273.106 524.814 272.902 524.845 272.693H592.165Z" fill="#B59B00"/>
<path d="M593.203 266.53C593.169 266.735 593.135 266.941 593.102 267.147H525.691C525.723 266.941 525.753 266.735 525.783 266.53H593.203Z" fill="#B59B00"/>
<path d="M594.173 260.365C594.143 260.57 594.111 260.776 594.079 260.982H526.586C526.615 260.776 526.643 260.57 526.675 260.365H594.173Z" fill="#B59B00"/>
<path d="M595.08 254.201C595.05 254.407 595.019 254.615 594.991 254.819H527.436C527.462 254.615 527.491 254.407 527.521 254.201H595.08Z" fill="#B59B00"/>
<path d="M595.919 248.036L595.837 248.656H528.243C528.269 248.448 528.297 248.244 528.322 248.036H595.919Z" fill="#B59B00"/>
<path d="M596.697 241.869C596.674 242.076 596.65 242.282 596.623 242.487H529.004C529.027 242.281 529.053 242.075 529.078 241.869H596.697Z" fill="#B59B00"/>
<path d="M597.416 235.706C597.392 235.912 597.369 236.118 597.347 236.326H529.727C529.752 236.118 529.774 235.912 529.799 235.706H597.416Z" fill="#B59B00"/>
<path d="M598.068 229.541C598.047 229.747 598.027 229.953 598.004 230.161H530.422L530.49 229.541H598.068Z" fill="#B59B00"/>
<path d="M598.661 223.376C598.642 223.582 598.623 223.788 598.603 223.996H531.072C531.095 223.788 531.115 223.582 531.136 223.376H598.661Z" fill="#B59B00"/>
<path d="M599.194 217.213L599.143 217.832H531.688L531.75 217.213H599.194Z" fill="#B59B00"/>
<path d="M599.666 211.048C599.651 211.253 599.634 211.461 599.621 211.667H532.266C532.285 211.461 532.304 211.253 532.321 211.048H599.666Z" fill="#B59B00"/>
<path d="M600.074 204.883C600.061 205.088 600.047 205.296 600.036 205.502H532.812C532.83 205.296 532.847 205.088 532.866 204.883H600.074Z" fill="#B59B00"/>
<path d="M600.429 198.719C600.42 198.925 600.408 199.133 600.397 199.339H533.323L533.374 198.719H600.429Z" fill="#B59B00"/>
<path d="M600.724 192.554C600.724 192.76 600.707 192.968 600.697 193.174H533.747V192.554H600.724Z" fill="#B59B00"/>
<path d="M600.958 186.389C600.958 186.595 600.945 186.803 600.939 187.009H571.017L575.185 186.389H600.958Z" fill="#B59B00"/>
<path d="M550.257 345.746C550.295 338.078 573.094 212.051 574.131 210.808C575.168 209.565 579.312 208.528 579.312 208.528" stroke="white" stroke-width="1.0461" stroke-miterlimit="10" stroke-linecap="round"/>
<path d="M601.079 182.544L533.645 192.528L532.466 208.84L601.079 184.691V182.544Z" fill="#423C52"/>
<path d="M510.374 379.378C524.67 379.378 536.259 362.744 536.259 342.224C536.259 321.704 524.67 305.069 510.374 305.069C496.079 305.069 484.49 321.704 484.49 342.224C484.49 362.744 496.079 379.378 510.374 379.378Z" fill="white" stroke="#423C52" stroke-width="1.0461" stroke-miterlimit="10" stroke-linecap="round"/>
<path d="M508.657 373.483C518.746 373.483 526.924 360.411 526.924 344.286C526.924 328.161 518.746 315.089 508.657 315.089C498.569 315.089 490.391 328.161 490.391 344.286C490.391 360.411 498.569 373.483 508.657 373.483Z" fill="#C8D9D2"/>
<path d="M506.181 371.421C516.269 371.421 524.448 358.349 524.448 342.224C524.448 326.099 516.269 313.027 506.181 313.027C496.093 313.027 487.914 326.099 487.914 342.224C487.914 358.349 496.093 371.421 506.181 371.421Z" stroke="#423C52" stroke-width="1.0461" stroke-miterlimit="10" stroke-linecap="round"/>
<path d="M601.077 182.544V169.048C601.077 169.048 604.981 194.789 625.329 193.301C650.05 191.491 650.503 140.282 599.632 108.261C596.562 106.332 593.108 105.096 589.511 104.64L571.539 103.174L531.187 109.362C526.86 110.113 522.765 111.854 519.223 114.45C515.68 117.045 512.786 120.425 510.767 124.325C502.645 140.048 491.267 166.965 497.545 184.739C502.23 198.011 517.888 202.048 533.85 196.449L601.077 182.544Z" fill="#FFDB00"/>
<path d="M601.077 169.041V155.334" stroke="#423C52" stroke-width="1.0461" stroke-miterlimit="10" stroke-linecap="round"/>
<path d="M537.553 153.377L516.3 162.186" stroke="#423C52" stroke-width="1.0461" stroke-miterlimit="10" stroke-linecap="round"/>
<path d="M533.818 196.625C539.171 194.88 558.503 180.934 564.483 164.177" stroke="#423C52" stroke-width="1.0461" stroke-miterlimit="10" stroke-linecap="round"/>
<path d="M565.966 151.562C566.445 126.346 550.767 106.772 545.357 106.861L528.292 106.846C527.708 106.845 527.131 106.96 526.592 107.183C526.053 107.406 525.563 107.732 525.151 108.145C524.738 108.557 524.411 109.046 524.187 109.585C523.964 110.124 523.849 110.701 523.849 111.285C528.286 110.138 545.98 104.766 553.139 154.841L565.966 151.562Z" fill="white" stroke="#FE552F" stroke-width="1.0461" stroke-miterlimit="10"/>
<path d="M571.54 103.38C571.54 103.38 595.376 107.6 601.077 154.846C601.077 154.846 609.28 127.857 594.088 106.714C593.399 105.751 592.492 104.965 591.442 104.418C590.392 103.871 589.228 103.579 588.044 103.565L571.54 103.38Z" fill="white" stroke="#FE552F" stroke-width="1.0461" stroke-miterlimit="10"/>
<path d="M618.005 161.068C625.877 159.796 631.633 154.893 630.861 150.118C630.09 145.343 623.083 142.503 615.211 143.775C607.339 145.048 601.583 149.95 602.355 154.725C603.127 159.5 610.134 162.34 618.005 161.068Z" fill="#423C52"/>
<path d="M627.354 157.2L626.663 157.721C624.407 159.323 621.402 160.554 618.001 161.1C613.207 161.875 608.734 161.125 605.795 159.342L604.118 155.05L601.081 155.334C600.349 155.401 599.613 155.245 598.973 154.885C598.332 154.525 597.815 153.979 597.492 153.318L590.063 138.129C589.782 137.542 589.643 136.897 589.659 136.247C589.674 135.596 589.844 134.958 590.153 134.386C590.462 133.814 590.903 133.322 591.438 132.953C591.974 132.583 592.59 132.346 593.235 132.26L606.592 130.485C608.343 130.251 610.122 130.556 611.695 131.36C613.267 132.163 614.558 133.427 615.394 134.982L627.354 157.2Z" fill="#A0505A"/>
<path d="M592.662 142.244C592.38 141.658 592.24 141.012 592.256 140.361C592.271 139.71 592.44 139.072 592.749 138.499C593.059 137.926 593.5 137.435 594.036 137.065C594.572 136.695 595.188 136.458 595.833 136.372L603.222 135.39" stroke="#423C52" stroke-width="1.0461" stroke-miterlimit="10" stroke-linecap="round"/>
<path d="M595.163 147.45C594.881 146.863 594.742 146.218 594.758 145.568C594.774 144.917 594.943 144.28 595.252 143.707C595.562 143.135 596.002 142.644 596.538 142.274C597.073 141.905 597.689 141.667 598.334 141.581L605.723 140.599" stroke="#423C52" stroke-width="1.0461" stroke-miterlimit="10" stroke-linecap="round"/>
<path d="M597.711 152.497C597.429 151.91 597.291 151.265 597.306 150.615C597.322 149.964 597.491 149.327 597.801 148.754C598.11 148.182 598.551 147.691 599.086 147.321C599.622 146.952 600.237 146.714 600.882 146.628L608.269 145.646" stroke="#423C52" stroke-width="1.0461" stroke-miterlimit="10" stroke-linecap="round"/>
<path d="M564.769 164.148C565.903 160.947 560.484 156.106 552.665 153.335C544.846 150.565 537.588 150.914 536.454 154.116C535.319 157.317 540.738 162.159 548.557 164.929C556.376 167.699 563.634 167.35 564.769 164.148Z" fill="#423C52"/>
<path d="M564.846 163.9C563.259 165.014 559.313 165.067 554.981 164.277C549.977 163.354 545.895 161.098 545.633 159.14L545.642 158.686L545.92 145.574C545.957 143.809 546.53 142.097 547.565 140.666C548.599 139.235 550.044 138.153 551.709 137.564L564.411 133.063C565.024 132.846 565.68 132.777 566.325 132.862C566.97 132.947 567.585 133.184 568.121 133.552C568.657 133.921 569.098 134.411 569.408 134.982C569.718 135.554 569.889 136.19 569.906 136.84L570.206 153.747C570.219 154.482 570.009 155.204 569.602 155.816C569.195 156.429 568.611 156.903 567.928 157.175L565.095 158.309L564.846 163.9Z" fill="#A0505A"/>
<path d="M570.021 141.863C570.004 141.213 569.834 140.575 569.524 140.004C569.214 139.432 568.773 138.942 568.237 138.573C567.701 138.205 567.085 137.968 566.44 137.884C565.795 137.799 565.139 137.868 564.526 138.085L557.5 140.573" stroke="#423C52" stroke-width="1.0461" stroke-miterlimit="10" stroke-linecap="round"/>
<path d="M570.07 147.45C570.054 146.8 569.883 146.163 569.573 145.591C569.263 145.019 568.822 144.529 568.286 144.16C567.75 143.792 567.134 143.556 566.489 143.471C565.845 143.386 565.189 143.455 564.576 143.672L557.551 146.16" stroke="#423C52" stroke-width="1.0461" stroke-miterlimit="10" stroke-linecap="round"/>
<path d="M570.189 152.827C570.173 152.177 570.002 151.54 569.692 150.968C569.382 150.397 568.941 149.906 568.405 149.538C567.869 149.169 567.253 148.933 566.608 148.848C565.963 148.763 565.308 148.832 564.695 149.05L557.668 151.537" stroke="#423C52" stroke-width="1.0461" stroke-miterlimit="10" stroke-linecap="round"/>
<path d="M554.62 93.073V105.292C554.62 105.292 562.741 116.551 573.319 113.557C581.252 111.313 571.541 102.349 571.541 102.349V93.073H554.62Z" fill="#A0505A"/>
<path d="M571.54 93.073V102.349L557.623 108.582C557.623 108.582 554.62 105.906 554.62 105.295V93.073H571.54Z" fill="#423C52"/>
<path d="M553.388 86.2129L557.885 86.0485C558.288 85.1509 558.919 84.3746 559.716 83.7971C560.673 83.0988 561.828 82.7237 563.014 82.7261H570.773C571.068 82.7257 571.363 82.7522 571.653 82.8055C571.823 82.834 571.99 82.8731 572.155 82.9226C572.318 82.9475 572.483 82.9601 572.648 82.9603C574.853 82.9603 576.639 80.7504 576.639 78.023C576.639 75.2956 574.853 73.0838 572.648 73.0838C572.133 73.094 571.626 73.2152 571.161 73.4391C570.697 73.663 570.286 73.9844 569.957 74.3814C569.201 72.7721 567.815 71.6936 566.23 71.6936C564.474 71.6936 562.961 73.0158 562.279 74.9272C561.905 74.5467 561.46 74.2437 560.969 74.0356C560.478 73.8276 559.951 73.7185 559.417 73.7146C557.562 73.7146 555.978 75.0217 555.358 76.8652C555.358 76.8652 551.82 75.3806 550.258 77.5319C548.696 79.6833 553.388 86.2129 553.388 86.2129Z" fill="#423C52"/>
<path d="M575.767 86.139V94.6387C575.766 95.9359 575.251 97.18 574.333 98.0973C573.416 99.0146 572.172 99.5302 570.875 99.5307H563.964C562.243 99.5305 560.592 98.8552 559.364 97.6501C558.136 96.4449 557.43 94.8061 557.398 93.0861H554.176C553.242 93.0861 552.346 92.7149 551.685 92.0543C551.024 91.3937 550.653 90.4977 550.653 89.5634C550.653 88.6292 551.024 87.7332 551.685 87.0726C552.346 86.4119 553.242 86.0408 554.176 86.0408H557.576C557.842 85.0882 558.413 84.249 559.202 83.6512C559.99 83.0534 560.952 82.7298 561.941 82.7297H572.354C573.258 82.7297 574.126 83.0888 574.766 83.7281C575.406 84.3673 575.766 85.2345 575.767 86.139Z" fill="#A0505A"/>
<path d="M556.541 90.4476C556.54 89.7616 556.267 89.1039 555.782 88.6191C555.297 88.1342 554.639 87.8618 553.953 87.8618" stroke="#423C52" stroke-width="1.0461" stroke-miterlimit="10" stroke-linecap="round"/>
<path d="M575.708 86.9739C575.708 86.9739 572.994 86.3147 571.536 88.3187C570.487 89.7599 570.916 94.0777 570.916 94.0777" stroke="#423C52" stroke-width="1.0461" stroke-miterlimit="10" stroke-linecap="round"/>
<path d="M566.672 87.0256C566.672 87.0256 564.011 86.697 561.933 87.3902" stroke="#423C52" stroke-width="1.0461" stroke-miterlimit="10" stroke-linecap="round"/>
<path d="M573.524 91.5999C573.817 91.5999 574.053 91.1458 574.053 90.5856C574.053 90.0254 573.817 89.5713 573.524 89.5713C573.232 89.5713 572.996 90.0254 572.996 90.5856C572.996 91.1458 573.232 91.5999 573.524 91.5999Z" fill="#423C52"/>
<path d="M564.791 91.5999C565.083 91.5999 565.32 91.1458 565.32 90.5856C565.32 90.0254 565.083 89.5713 564.791 89.5713C564.499 89.5713 564.262 90.0254 564.262 90.5856C564.262 91.1458 564.499 91.5999 564.791 91.5999Z" fill="#423C52"/>
<path d="M251.17 347.066C282.351 347.066 307.629 321.789 307.629 290.608C307.629 259.427 282.351 234.15 251.17 234.15C219.989 234.15 194.712 259.427 194.712 290.608C194.712 321.789 219.989 347.066 251.17 347.066Z" stroke="#423C52" stroke-width="1.0461" stroke-miterlimit="10" stroke-linecap="round"/>
<path d="M217.704 344.244C200.346 334.203 188.668 315.436 188.668 293.942" stroke="#423C52" stroke-width="1.0461" stroke-miterlimit="10" stroke-linecap="round"/>
<path d="M426.652 347.066C457.833 347.066 483.11 321.789 483.11 290.608C483.11 259.427 457.833 234.15 426.652 234.15C395.471 234.15 370.193 259.427 370.193 290.608C370.193 321.789 395.471 347.066 426.652 347.066Z" stroke="#423C52" stroke-width="1.0461" stroke-miterlimit="10" stroke-linecap="round"/>
<path d="M457.583 236.339C477.748 247.12 490.573 269.228 488.37 293.433" stroke="#423C52" stroke-width="1.0461" stroke-miterlimit="10" stroke-linecap="round"/>
<path d="M426.652 290.608L393.726 191.147C393.517 190.515 393.461 189.842 393.562 189.184C393.664 188.525 393.92 187.901 394.31 187.361C394.7 186.821 395.212 186.381 395.805 186.078C396.398 185.775 397.055 185.617 397.721 185.617H428.486C430.474 185.617 432.444 186.008 434.281 186.77C436.118 187.531 437.788 188.646 439.194 190.053C440.6 191.459 441.715 193.128 442.476 194.966C443.237 196.803 443.629 198.772 443.628 200.761C443.628 204.777 442.032 208.629 439.192 211.469C436.352 214.308 432.5 215.904 428.484 215.904H423.069C422.199 215.904 421.343 215.691 420.576 215.283C419.808 214.875 419.153 214.285 418.668 213.564" stroke="#423C52" stroke-width="1.0461" stroke-miterlimit="10" stroke-linecap="round"/>
<path d="M426.591 293.103C427.888 293.103 428.939 292.052 428.939 290.755C428.939 289.459 427.888 288.407 426.591 288.407C425.295 288.407 424.243 289.459 424.243 290.755C424.243 292.052 425.295 293.103 426.591 293.103Z" fill="white" stroke="#423C52" stroke-width="1.0461" stroke-miterlimit="10" stroke-linecap="round"/>
<path d="M289.819 228.096L251.032 290.598H351.186L381.543 241.678C384.121 237.525 387.716 234.097 391.988 231.721C396.26 229.344 401.067 228.096 405.956 228.096H289.819Z" stroke="#423C52" stroke-width="1.0461" stroke-miterlimit="10" stroke-linecap="round"/>
<path d="M396.561 199.209C399.139 195.055 402.734 191.627 407.006 189.25C411.278 186.874 416.085 185.626 420.974 185.626" stroke="#423C52" stroke-width="1.0461" stroke-miterlimit="10" stroke-linecap="round"/>
<path d="M337.462 312.189H308.688V316.453H337.462V312.189Z" stroke="#423C52" stroke-width="1.0461" stroke-miterlimit="10" stroke-linecap="round"/>
<path d="M305.371 211.176H274.049C272.478 211.176 271.205 212.45 271.205 214.021V214.565C271.205 216.136 272.478 217.409 274.049 217.409H305.371C306.942 217.409 308.216 216.136 308.216 214.565V214.021C308.216 212.45 306.942 211.176 305.371 211.176Z" stroke="#423C52" stroke-width="1.0461" stroke-miterlimit="10" stroke-linecap="round"/>
<path d="M289.709 228.096V217.409" stroke="#423C52" stroke-width="1.0461" stroke-miterlimit="10" stroke-linecap="round"/>
<path d="M251.032 292.946C252.329 292.946 253.38 291.895 253.38 290.598C253.38 289.302 252.329 288.25 251.032 288.25C249.736 288.25 248.684 289.302 248.684 290.598C248.684 291.895 249.736 292.946 251.032 292.946Z" fill="white" stroke="#423C52" stroke-width="1.0461" stroke-miterlimit="10" stroke-linecap="round"/>
<path d="M336.633 290.599H304.476C303.273 290.599 302.089 290.295 301.035 289.714C299.981 289.134 299.09 288.297 298.447 287.28C297.803 286.263 297.427 285.1 297.354 283.899C297.281 282.698 297.513 281.498 298.028 280.41L330.815 211.169H286.117C283.002 211.171 279.951 210.295 277.311 208.642C274.672 206.988 272.552 204.624 271.195 201.821L307.619 174.091H359.51C378 174.091 389.731 193.911 380.825 210.117L336.633 290.599Z" fill="#423C52"/>
<path d="M336.633 290.599C335.594 293.137 332.378 303.803 338.086 306.223C343.488 308.512 342.968 311.623 342.968 311.623H307.547C306.733 311.623 305.93 311.428 305.205 311.054C304.481 310.681 303.857 310.14 303.384 309.476C302.911 308.813 302.603 308.046 302.487 307.24C302.37 306.433 302.448 305.611 302.714 304.84L307.625 290.608L336.633 290.599Z" fill="#907B00"/>
<path d="M329.538 294.575H335.904C336.254 294.575 336.591 294.714 336.839 294.962C337.086 295.21 337.226 295.546 337.226 295.897V295.897C337.226 296.248 337.086 296.584 336.839 296.832C336.591 297.08 336.254 297.219 335.904 297.219H334.946" stroke="white" stroke-width="0.836878" stroke-miterlimit="10"/>
<path d="M329.538 297.219H335.904C336.254 297.219 336.591 297.359 336.839 297.606C337.086 297.854 337.226 298.191 337.226 298.541V298.541C337.226 298.892 337.086 299.228 336.839 299.476C336.591 299.724 336.254 299.864 335.904 299.864H334.946" stroke="white" stroke-width="0.836878" stroke-miterlimit="10"/>
<path d="M342.968 311.625H307.547C306.732 311.625 305.928 311.43 305.204 311.057C304.479 310.684 303.854 310.143 303.381 309.479C302.908 308.815 302.6 308.048 302.484 307.241C302.367 306.434 302.445 305.611 302.712 304.84L303.05 303.86C303.23 305.074 303.841 306.182 304.771 306.984C305.7 307.785 306.886 308.225 308.114 308.225H341.34C343.24 309.993 342.968 311.625 342.968 311.625Z" fill="white"/>
<path d="M429.264 189.915C429.264 189.915 440.927 190.954 442.657 184.929C444.388 178.904 442.078 170.385 438.691 168.308C437.969 167.866 424.672 167.552 424.672 167.552L415.893 186.992C426.697 187.118 430.83 185.934 430.83 185.934C430.83 185.934 428.267 186.453 429.264 189.915Z" fill="#FFDB00"/>
<path d="M437.937 188.967C438.617 188.341 439.113 187.54 439.371 186.652C440.017 184.402 440.1 181.996 439.773 179.516" stroke="#423C52" stroke-width="1.0461" stroke-linecap="round" stroke-linejoin="round"/>
<path d="M415.893 186.992L430.903 185.749C431.738 185.68 432.517 185.3 433.084 184.684C433.652 184.068 433.967 183.261 433.967 182.423V180.149" stroke="#423C52" stroke-width="1.0461" stroke-linecap="round" stroke-linejoin="round"/>
<path d="M362.117 109.791L359.221 117.54L354.373 117.461L335.275 117.176L348.433 99.8877L362.117 109.791Z" fill="#FFDB00"/>
<path d="M354.43 99.8878L355.878 108.478C356.073 109.64 356.674 110.695 357.573 111.455C358.472 112.216 359.611 112.634 360.789 112.633H368.073C368.476 112.633 368.876 112.548 369.245 112.384C369.615 112.221 369.946 111.982 370.218 111.683C370.49 111.384 370.696 111.032 370.824 110.649C370.953 110.266 371 109.861 370.962 109.458L370.63 105.843H371.741C371.905 105.843 372.066 105.805 372.213 105.732C372.36 105.659 372.488 105.553 372.587 105.423C372.686 105.292 372.753 105.14 372.783 104.979C372.814 104.818 372.807 104.652 372.762 104.495L370.428 96.1404L354.43 99.8878Z" fill="#FFDB00"/>
<path d="M351.683 99.8877H355.71V107.297H351.683C351.239 107.298 350.798 107.211 350.388 107.041C349.977 106.871 349.603 106.622 349.289 106.308C348.974 105.994 348.725 105.621 348.554 105.21C348.384 104.799 348.297 104.359 348.297 103.915V103.271C348.297 102.373 348.653 101.513 349.287 100.879C349.922 100.244 350.782 99.8877 351.679 99.8877H351.683Z" fill="#FFDB00"/>
<path d="M348.553 103.905C348.553 105.952 350.839 107.768 352.885 107.768H357.012" stroke="#423C52" stroke-width="1.0461" stroke-miterlimit="10" stroke-linecap="round"/>
<path d="M353.891 104.162C353.891 103.561 353.653 102.984 353.227 102.559C352.802 102.134 352.226 101.895 351.625 101.895" stroke="#423C52" stroke-width="1.0461" stroke-miterlimit="10" stroke-linecap="round"/>
<path d="M365.649 103.435C365.993 103.435 366.272 103.059 366.272 102.596C366.272 102.133 365.993 101.758 365.649 101.758C365.305 101.758 365.026 102.133 365.026 102.596C365.026 103.059 365.305 103.435 365.649 103.435Z" fill="#423C52"/>
<path d="M362.74 99.8877C362.74 99.8877 364.818 98.9867 366.272 98.9187" stroke="#423C52" stroke-width="1.0461" stroke-miterlimit="10" stroke-linecap="round"/>
<path d="M347.024 101.195L347.303 100.061C348.082 96.876 349.852 94.0202 352.359 91.9051C354.865 89.7901 357.977 88.5251 361.248 88.2922L364.718 88.0467C365.942 87.9358 367.162 88.2984 368.127 89.0598C369.092 89.8212 369.728 90.9234 369.905 92.1397L370.428 95.7398L347.024 101.195Z" fill="white" stroke="#423C52" stroke-width="1.0461" stroke-linecap="round" stroke-linejoin="round"/>
<path d="M347.023 101.195L379.707 93.6904" stroke="#423C52" stroke-width="1.0461" stroke-miterlimit="10" stroke-linecap="round"/>
<path d="M359.222 98.7297C357.238 103.248 359.505 106.081 360.189 106.595C362.138 108.055 369.023 106.287 370.636 105.839C370.636 105.839 372.016 115.242 370.447 115.485C367.551 115.935 357.287 112.75 355.903 110.119C355.442 109.25 356.043 106.183 355.952 104.052C355.886 102.434 355.71 99.8838 354.43 99.8838L359.222 98.7297Z" fill="#423C52"/>
<path d="M359.221 117.54L326.575 102.328C325.116 101.648 323.454 101.54 321.919 102.026C320.384 102.511 319.087 103.554 318.283 104.95L309.482 120.249C307.698 123.787 310.804 127.816 314.68 126.994L359.221 117.54Z" fill="#FE552F"/>
<path d="M335.641 117.176H355.328C359.202 117.181 362.999 118.252 366.304 120.272C369.609 122.292 372.294 125.183 374.065 128.628C380.631 141.351 395.409 160.69 425.76 165.065L415.893 187.164C415.893 187.164 383.392 200.497 347.035 174.112H329.612C315.351 174.112 301.484 178.79 290.136 187.428L271.205 201.842C271.205 201.842 258.722 175.729 286.089 146.734C295.665 136.587 303.6 129.887 309.763 125.481C317.311 120.081 326.36 117.177 335.641 117.176Z" fill="#FE552F"/>
<path d="M349.01 125.381C357.608 142.04 380.553 171.145 420.277 176.872" stroke="white" stroke-width="1.0461" stroke-miterlimit="10" stroke-linecap="round"/>
<path d="M346.2 126.295C354.475 143.349 378.867 173.559 419.04 179.348" stroke="white" stroke-width="1.0461" stroke-miterlimit="10" stroke-linecap="round"/>
<path d="M309.765 125.271C317.314 119.876 326.362 116.978 335.641 116.981H358.853" stroke="#423C52" stroke-width="1.0461" stroke-miterlimit="10" stroke-linecap="round"/>
<path d="M347.352 174.726C341.685 170.822 332.793 158.046 332.793 158.046" stroke="#423C52" stroke-width="1.0461" stroke-miterlimit="10" stroke-linecap="round"/>
<path d="M425.369 165.446L415.697 187.345C415.697 187.345 383.196 200.68 346.838 174.295" stroke="#423C52" stroke-width="1.0461" stroke-miterlimit="10" stroke-linecap="round"/>
<path d="M98.475 124.187L140.905 116.809C145.799 115.958 150.834 116.976 155.013 119.661C159.191 122.347 162.209 126.504 163.467 131.31C166.555 143.105 171.525 158.698 180.496 158.698C193.96 158.698 211.737 129.61 211.737 129.61L232.675 143.3C232.675 143.3 209.781 193.134 181.662 194.252C157.583 195.212 152.083 176.309 152.083 176.309V187.264L84.6188 200.559C84.6188 200.559 77.3129 228.81 67.9973 237.786L43.2426 227.979C51.9632 214.164 68.0709 169.309 75.7017 144.305C77.2658 139.173 80.2224 134.576 84.2428 131.025C88.2632 127.473 93.1899 125.106 98.475 124.187Z" fill="white" stroke="#FE552F" stroke-width="1.0461" stroke-miterlimit="10"/>
<path d="M152.085 187.154V197.513C145.153 199.747 135.514 201.98 124.641 203.068C113.737 204.156 103.737 204.513 96.418 204.106C89.0989 203.7 84.4449 202.527 84.2806 200.557C84.0653 197.966 89.1915 194.891 97.4739 192.29C104.243 190.165 113.126 188.35 122.941 187.379C134.24 186.236 144.662 186.236 152.085 187.154Z" fill="#FE552F"/>
<path d="M84.615 200.391L95.5361 168.332" stroke="#FE552F" stroke-width="1.0461" stroke-miterlimit="10"/>
<path d="M152.083 176.295V151.352" stroke="#FE552F" stroke-width="1.0461" stroke-miterlimit="10"/>
<path d="M68.6111 237.612C67.6082 240.328 60.8519 240.394 53.7273 237.763C46.6027 235.132 41.639 230.797 42.6457 228.081C43.6524 225.365 50.7373 224.798 57.8619 227.429C64.9865 230.06 69.6141 234.9 68.6111 237.612Z" fill="#FE552F"/>
<path d="M210.374 130.375C211.443 128.318 223.316 113.988 227.562 114.088C231.808 114.188 224.203 120.234 228.57 120.343C232.607 120.443 245.57 105.777 247.647 111.666C251.179 121.756 238.668 140.926 231.271 144.871C225.11 148.147 206.209 138.387 210.374 130.375Z" fill="#EB7500"/>
<path d="M245.859 110.741C245.859 110.741 245.343 115.62 234.067 122.323" stroke="#423C52" stroke-width="1.0461" stroke-miterlimit="10" stroke-linecap="round"/>
<path d="M247.434 112.62C247.434 112.62 247.232 119.065 235.956 125.768" stroke="#423C52" stroke-width="1.0461" stroke-miterlimit="10" stroke-linecap="round"/>
<path d="M247.434 112.62C247.434 112.62 251.041 121.839 238.148 129.37" stroke="#423C52" stroke-width="1.0461" stroke-miterlimit="10" stroke-linecap="round"/>
<path d="M223.571 128.25C223.571 128.25 224.515 133.986 221.99 138.45" stroke="#423C52" stroke-width="1.0461" stroke-miterlimit="10" stroke-linecap="round"/>
<path d="M65.9988 239.287C65.9988 239.287 52.9131 254.443 34.7126 252.656C18.907 251.105 19.8666 240.468 22.2313 240.396C31.9795 240.094 40.9947 234.835 44.5778 229.819C46.9672 226.468 65.9988 230.827 65.9988 239.287Z" fill="#EB7500"/>
<path d="M21.5062 244.412C21.5062 244.412 30.6802 247.114 37.6385 242.037" stroke="#423C52" stroke-width="1.0461" stroke-miterlimit="10" stroke-linecap="round"/>
<path d="M24.5112 248.582C24.5112 248.582 32.7899 250.594 39.5197 246.882" stroke="#423C52" stroke-width="1.0461" stroke-miterlimit="10" stroke-linecap="round"/>
<path d="M28.5911 250.851C28.5911 250.851 36.7356 254.182 43.0442 249.795" stroke="#423C52" stroke-width="1.0461" stroke-miterlimit="10" stroke-linecap="round"/>
<path d="M152.085 187.154V342.981H119.343V270.192C112.998 301.546 55.5671 330.088 55.5671 330.088L39.5122 301.548C39.5122 301.548 83.0492 283.431 91.9134 237.784C93.8721 227.694 95.402 214.399 96.4106 204.106C96.8791 199.303 97.2341 195.153 97.4665 192.29C104.236 190.165 113.119 188.35 122.933 187.379C134.24 186.236 144.662 186.236 152.085 187.154Z" fill="#EB7500"/>
<path d="M105.526 293.06C102.126 290.315 101.641 284.717 104.525 280.082C107.602 275.137 113.361 273.159 117.386 275.664" stroke="#423C52" stroke-width="1.0461" stroke-miterlimit="10" stroke-linecap="round"/>
<path d="M151.526 294.103C147.182 293.738 143.623 289.381 143.404 283.931C143.168 278.114 146.819 273.241 151.556 273.05" stroke="#423C52" stroke-width="1.0461" stroke-miterlimit="10" stroke-linecap="round"/>
<path d="M152.085 187.155V240.665C112.645 246.871 91.9209 237.784 91.9209 237.784C93.8796 227.694 95.4095 214.399 96.4181 204.107C96.8866 199.303 97.2417 195.154 97.474 192.29C104.243 190.165 113.127 188.35 122.941 187.379C134.24 186.237 144.662 186.237 152.085 187.155Z" fill="#907B00"/>
<path d="M119.343 271.862C129.147 244.44 130.486 217.018 130.486 217.018" stroke="white" stroke-width="1.0461" stroke-miterlimit="10" stroke-linecap="round"/>
<path d="M100.462 239.709C103.04 226.43 105.052 208.932 106.38 195.388" stroke="#423C52" stroke-width="1.25532" stroke-miterlimit="10" stroke-linecap="round"/>
<path d="M97.9139 239.208C100.492 225.928 102.504 208.432 103.832 194.887" stroke="#423C52" stroke-width="1.25532" stroke-miterlimit="10" stroke-linecap="round"/>
<path d="M152.085 187.154V197.513C145.153 199.747 135.515 201.98 124.641 203.068C113.737 204.156 103.737 204.513 96.4181 204.106C96.8865 199.303 97.2416 195.153 97.4739 192.29C104.243 190.165 113.126 188.35 122.941 187.379C134.24 186.236 144.662 186.236 152.085 187.154Z" fill="#423C52"/>
<path d="M152.086 336.583H119.343V342.981H152.086V336.583Z" fill="white"/>
<path d="M12.5458 324.208C14.4736 324.208 16.0363 322.645 16.0363 320.718C16.0363 318.79 14.4736 317.227 12.5458 317.227C10.6181 317.227 9.0553 318.79 9.0553 320.718C9.0553 322.645 10.6181 324.208 12.5458 324.208Z" fill="white" stroke="#423C52" stroke-width="1.0461" stroke-miterlimit="10" stroke-linecap="round"/>
<path d="M18.7373 335.216C20.6651 335.216 22.2279 333.653 22.2279 331.726C22.2279 329.798 20.6651 328.235 18.7373 328.235C16.8096 328.235 15.2468 329.798 15.2468 331.726C15.2468 333.653 16.8096 335.216 18.7373 335.216Z" fill="white" stroke="#423C52" stroke-width="1.0461" stroke-miterlimit="10" stroke-linecap="round"/>
<path d="M24.9269 346.226C26.8547 346.226 28.4174 344.663 28.4174 342.736C28.4174 340.808 26.8547 339.245 24.9269 339.245C22.9992 339.245 21.4364 340.808 21.4364 342.736C21.4364 344.663 22.9992 346.226 24.9269 346.226Z" fill="white" stroke="#423C52" stroke-width="1.0461" stroke-miterlimit="10" stroke-linecap="round"/>
<path d="M39.5917 352.984L37.4649 354.18L18.9224 321.207C18.0076 319.579 17.7768 317.654 18.2808 315.856C18.7848 314.057 19.9824 312.533 21.6102 311.617L39.5199 301.548L55.5747 330.086C51.7971 332.215 42.2643 337.401 42.0112 348.974C41.9915 349.795 41.7579 350.597 41.3336 351.3C40.9093 352.003 40.3089 352.584 39.5917 352.984Z" fill="#FE552F"/>
<path d="M51.9633 332.619C52.564 334.13 52.6433 335.316 52.1239 335.609C51.4288 335.998 49.7742 333.688 47.3376 329.353" stroke="#423C52" stroke-width="1.0461" stroke-miterlimit="10" stroke-linecap="round"/>
<path d="M47.9194 336.072C48.7373 337.841 48.8638 339.047 48.2689 339.379C47.5757 339.768 45.5112 336.735 43.0728 332.39" stroke="#423C52" stroke-width="1.0461" stroke-miterlimit="10" stroke-linecap="round"/>
<path d="M38.566 334.984C38.566 334.984 43.1105 344.405 44.9124 343.391C45.7133 342.941 45.1485 341.555 44.6102 340.45" stroke="#423C52" stroke-width="1.0461" stroke-miterlimit="10" stroke-linecap="round"/>
<path d="M39.5199 301.548L47.3377 297.497L63.8968 325.81L55.7353 330.254L39.5199 301.548Z" fill="white"/>
<path d="M132.05 99.1489C132.05 105.227 126.287 109.486 120.183 109.486C117.749 109.49 115.383 108.69 113.451 107.211C111.519 105.732 110.129 103.656 109.498 101.306C108.85 102.998 107.763 104.486 106.348 105.618C104.934 106.751 103.244 107.486 101.452 107.748C99.6593 108.011 97.8293 107.791 96.1499 107.112C94.4704 106.433 93.0022 105.319 91.896 103.884C91.4326 108.169 89.4336 112.14 86.2684 115.065C83.1033 117.99 78.9863 119.669 74.6786 119.793C70.371 119.917 66.1641 118.477 62.836 115.74C59.5078 113.002 57.2835 109.152 56.5743 104.901C55.8652 100.651 56.7192 96.2868 58.9784 92.617C61.2376 88.9473 64.7491 86.2196 68.8637 84.9386C72.9784 83.6575 77.4177 83.9096 81.3608 85.6483C85.3039 87.387 88.4841 90.4947 90.3132 94.3967C91.0085 92.3407 92.3415 90.5602 94.1183 89.3139C95.8951 88.0676 98.0232 87.4206 100.193 87.467C102.363 87.5133 104.461 88.2506 106.183 89.5716C107.905 90.8926 109.161 92.7285 109.768 94.8122C110.535 92.6619 111.948 90.8018 113.815 89.4875C115.682 88.1733 117.909 87.4693 120.192 87.4723C126.287 87.4761 132.05 93.0707 132.05 99.1489Z" fill="#FFDB00"/>
<path d="M46.6837 108.344C49.254 108.344 51.3377 106.26 51.3377 103.69C51.3377 101.119 49.254 99.0356 46.6837 99.0356C44.1133 99.0356 42.0297 101.119 42.0297 103.69C42.0297 106.26 44.1133 108.344 46.6837 108.344Z" fill="#FFDB00"/>
<path d="M109.551 102.598C109.4 102.598 109.256 102.538 109.15 102.432C109.044 102.326 108.984 102.181 108.984 102.031V94.0981C108.984 93.9479 109.044 93.8037 109.15 93.6975C109.256 93.5912 109.4 93.5315 109.551 93.5315C109.701 93.5315 109.845 93.5912 109.951 93.6975C110.058 93.8037 110.117 93.9479 110.117 94.0981V102.031C110.117 102.181 110.058 102.326 109.951 102.432C109.845 102.538 109.701 102.598 109.551 102.598Z" fill="#423C52"/>
<path d="M115.089 108.442L110.238 122.042C110.238 122.042 111.938 127.878 121.907 127.361C131.877 126.843 130.772 118.57 130.772 118.57V113.47L118.617 108.288L115.089 108.442Z" fill="#EB7500"/>
<path d="M130.771 115.245L110.724 123.055C110.522 122.738 110.359 122.399 110.238 122.043L115.091 108.444L118.617 108.285L130.76 113.413V113.477L130.771 115.245Z" fill="#423C52"/>
<path d="M127.086 115.323C123.39 115.485 119.799 112.597 118.373 108.446H114.934C114.469 108.446 114.01 108.354 113.581 108.176C113.152 107.999 112.762 107.738 112.434 107.41C112.105 107.082 111.845 106.692 111.667 106.263C111.489 105.834 111.398 105.374 111.398 104.91C111.398 104.445 111.489 103.986 111.667 103.557C111.845 103.128 112.105 102.738 112.434 102.409C112.762 102.081 113.152 101.821 113.581 101.643C114.01 101.465 114.469 101.374 114.934 101.374H118.145C118.145 101.374 118.145 101.374 118.145 101.363C118.247 101.37 118.354 101.374 118.468 101.374C122.937 101.374 127.874 96.5838 127.88 94.3853C131.552 95.3637 133.098 99.3188 133.321 104.369C133.582 110.212 131.712 115.119 127.086 115.323Z" fill="#EB7500"/>
<path d="M117.132 105.354C117.132 104.741 116.889 104.154 116.456 103.721C116.024 103.288 115.436 103.044 114.824 103.044" stroke="#423C52" stroke-width="1.0461" stroke-miterlimit="10" stroke-linecap="round"/>
<path d="M124.272 106.94C124.641 106.94 124.941 106.492 124.941 105.939C124.941 105.386 124.641 104.938 124.272 104.938C123.903 104.938 123.603 105.386 123.603 105.939C123.603 106.492 123.903 106.94 124.272 106.94Z" fill="#423C52"/>
<path d="M131.451 106.857C131.789 106.857 132.063 106.446 132.063 105.939C132.063 105.432 131.789 105.021 131.451 105.021C131.113 105.021 130.839 105.432 130.839 105.939C130.839 106.446 131.113 106.857 131.451 106.857Z" fill="#423C52"/>
<path d="M121.465 103.189C121.465 103.189 122.94 101.663 125.998 102.043" stroke="#423C52" stroke-width="1.0461" stroke-miterlimit="10" stroke-linecap="round"/>
<path d="M133.255 101.663C133.255 101.663 128.831 101.663 128.979 109.154" stroke="#423C52" stroke-width="1.0461" stroke-miterlimit="10" stroke-linecap="round"/>
</svg>
