<svg width="591" height="156" viewBox="0 0 591 156" fill="none" xmlns="http://www.w3.org/2000/svg">
<rect width="590.947" height="155.679" fill="#F5F5F5" fill-opacity="0.7"/>
<path d="M70.3383 23.1869C61.9582 23.139 53.612 26.4134 47.1804 33.0019C34.2909 46.1977 34.1678 67.732 46.9058 81.0742L95.1953 131.76C95.5857 132.174 96.0559 132.505 96.572 132.731C97.0919 132.957 97.6426 133.077 98.2053 133.081C98.768 133.084 99.3276 132.974 99.8425 132.75C100.365 132.53 100.835 132.204 101.234 131.794L150.167 81.6641C163.042 68.4796 163.24 47.0025 150.51 33.6603C150.307 33.4551 150.085 33.2686 149.848 33.1085C143.543 26.8327 135.4 23.6607 127.246 23.6141C118.87 23.5662 110.482 26.8177 104.058 33.3949L99.7239 37.8223L99.7352 37.8337L98.7856 38.7844L97.8431 37.8229L97.8545 37.8116L93.5747 33.335C87.2076 26.6658 78.7976 23.2503 70.3987 23.1872C70.3798 23.1871 70.361 23.187 70.3383 23.1869ZM149.564 34.6187L149.556 34.6111L150.506 33.6565L149.564 34.6187Z" fill="#DFD7C5"/>
<path fill-rule="evenodd" clip-rule="evenodd" d="M159.642 53.6932L37.6752 52.9964C36.5037 62.9367 39.572 73.3149 46.8981 80.9829L95.1466 131.589C95.5366 132.002 96.0064 132.333 96.5221 132.559C97.0415 132.784 97.5918 132.904 98.154 132.908C98.7162 132.911 99.2753 132.801 99.7898 132.577C100.312 132.358 100.782 132.032 101.18 131.623L150.072 81.5724C157.487 73.9835 160.694 63.643 159.642 53.6932Z" fill="#F5F5F5" fill-opacity="0.7"/>
<path d="M37.7083 62.2352C43.6637 60.7639 52.6242 59.0238 59.5405 57.765L37.4289 57.6387C37.4202 59.1703 37.5133 60.7062 37.7083 62.2352ZM44.0778 78.0922C52.1455 74.774 62.5693 70.5284 65.5145 69.5329C69.0382 68.3375 73.485 66.0636 76.346 64.6085C77.5381 64.0019 78.4539 63.533 78.9154 63.3362C80.0426 62.8647 88.1546 59.7123 92.6852 57.9544L75.8185 57.858C65.7901 60.2581 47.4236 65.1131 38.7843 67.4158C39.8835 71.1966 41.6476 74.8231 44.0778 78.0922ZM60.1384 95.1185C64.6392 91.9756 75.8326 83.1282 75.8326 83.1282C75.8326 83.1282 84.2613 76.0676 88.1587 74.8443C90.4192 74.1384 92.3505 72.2866 94.3766 70.3451C95.8374 68.9422 97.3551 67.487 99.0821 66.383C102.138 64.421 108.132 60.1388 111.027 58.0554L100.937 57.9978C89.9876 61.8452 80.472 66.954 74.0413 70.3983C70.7294 72.1782 68.2388 73.5149 66.7907 74.0147C64.439 74.8254 55.7751 78.8138 47.9318 82.4909L60.1384 95.1185ZM77.6567 113.252C79.0436 111.559 80.4251 109.512 81.9512 107.244C84.4553 103.537 87.3552 99.2367 91.3192 94.9429C95.659 90.2486 98.4028 86.8661 101.124 83.5173C102.355 81.9965 103.582 80.4831 104.958 78.854C108.472 74.6781 112.729 70.0172 116.746 65.6183L116.746 65.6146C119.161 62.9678 121.493 60.4183 123.524 58.1268L116.34 58.0858C112.045 61.4933 99.8242 71.2229 97.0132 73.8336C94.8926 75.801 86.4393 82.5415 79.0285 88.4526C74.4645 92.0919 70.2947 95.4174 68.2398 97.1217C67.1744 98.0037 66.0144 98.9492 64.7899 99.9319L77.6567 113.252ZM112.218 120.344C114.372 111.215 117.203 101.247 119.164 96.882C121.766 91.0827 123.557 86.0427 125.118 81.6486C125.782 79.7858 126.399 78.0357 127.024 76.3985C128.778 71.791 129.784 68.1728 130.739 64.7311C131.348 62.5444 131.934 60.4291 132.682 58.1792L127.407 58.149C124.88 63.1773 120.975 67.2005 117.851 70.4228C115.672 72.6682 113.876 74.5208 113.185 76.056C112.325 77.9779 109.042 81.8842 105.684 85.8879C102.222 90.0076 98.6777 94.2285 97.6044 96.4879C96.3365 99.1412 91.4426 105.703 88.0584 110.237L88.0546 110.241C86.4689 112.365 85.2179 114.044 84.8219 114.67C84.0488 115.9 83.2835 117.108 82.5296 118.292L95.1937 131.401C95.5876 131.809 96.0574 132.136 96.5731 132.357C97.0926 132.582 97.6466 132.702 98.2088 132.705C98.771 132.708 99.3264 132.598 99.8446 132.376C100.367 132.16 100.836 131.839 101.235 131.435L112.218 120.344ZM145.511 86.7062L121.415 111.052C123.272 102.934 125.828 94.7713 127.973 87.9119C129.41 83.3177 130.663 79.3094 131.401 76.2956C132.178 73.1389 133.423 68.5624 135.177 62.1072L135.177 62.1034C135.508 60.871 135.863 59.5747 136.233 58.2032L141.538 58.2335C141.842 61.7652 142.761 71.9951 143.214 73.9659C144.267 78.5254 144.956 82.8081 145.511 86.7062ZM157.733 70.2216C157.035 68.8817 156.468 67.7006 155.939 66.5911C154.596 63.7799 153.474 61.4365 151.043 58.2878L145.059 58.2536C145.871 62.6876 148.7 78.1405 149.599 82.5787L150.164 82.01C153.58 78.556 156.105 74.525 157.733 70.2216ZM159.937 58.3386L155.899 58.3156C157.159 59.7001 158.402 61.4044 159.578 63.0895C159.805 61.5141 159.928 59.9267 159.937 58.3386ZM159.395 52.0698C159.626 53.3506 159.781 54.6423 159.864 55.9335L37.5295 55.2346C37.6516 53.6735 37.8756 52.1168 38.2088 50.5833C41.6972 48.97 45.2525 47.5152 48.871 46.2225C57.0795 43.3566 66.4804 46.4435 73.0037 48.5882C74.0997 48.9482 75.1128 49.2814 76.0282 49.5576C80.3191 50.7976 84.7257 51.5792 89.1804 51.8756C90.1725 51.9377 92.5461 51.2588 95.2069 50.4988C98.601 49.5322 102.46 48.4253 104.52 48.5575C106.409 48.6737 108.654 49.3714 110.824 50.0424C112.869 50.675 114.843 51.2884 116.39 51.3762C123.202 51.7689 131.029 49.6121 133.491 47.9666C136.514 45.9405 144.654 43.8081 150.318 47.1295C154.685 49.6946 157.427 51.1215 159.395 52.0698Z" fill="url(#paint0_linear)"/>
<path d="M203.198 76.7504L208.244 76.348V37.559L203.198 37.1566V34.4014H237.003V44.3076H233.721L233.443 37.559H211.928V55.1735H230.75V58.362H211.928V76.348L216.974 76.7504V79.4746H203.198V76.7504ZM265.019 79.4746C264.771 78.3395 264.596 77.3592 264.493 76.5337C264.389 75.7082 264.338 74.8724 264.338 74.0262C263.099 75.7804 261.448 77.2354 259.385 78.3911C257.321 79.5468 254.999 80.1247 252.419 80.1247C249.138 80.1247 246.599 79.2785 244.804 77.5862C243.008 75.8939 242.111 73.6031 242.111 70.7138C242.111 67.6181 243.442 65.1622 246.104 63.3461C248.766 61.5299 252.378 60.6219 256.939 60.6219H264.338V56.195C264.338 53.801 263.564 51.923 262.016 50.5609C260.489 49.1988 258.342 48.5177 255.577 48.5177C253.72 48.5177 252.017 48.7757 250.469 49.2917C248.942 49.787 247.662 50.468 246.63 51.3348L246.321 55.8236H243.256L243.287 49.3845C244.835 48.1875 246.682 47.2176 248.828 46.4746C250.995 45.7316 253.296 45.3601 255.732 45.3601C259.426 45.3601 262.398 46.2992 264.647 48.1772C266.897 50.0553 268.022 52.7485 268.022 56.257V72.726C268.022 73.4071 268.032 74.0675 268.053 74.7073C268.094 75.3264 268.166 75.9352 268.269 76.5337L271.613 76.7504V79.4746H265.019ZM252.822 76.8433C255.505 76.8433 257.868 76.2241 259.911 74.9859C261.954 73.7476 263.43 72.1482 264.338 70.1875V63.4699H256.877C253.513 63.4699 250.82 64.1716 248.797 65.575C246.796 66.9577 245.795 68.7119 245.795 70.8376C245.795 72.6331 246.414 74.0881 247.652 75.2026C248.911 76.2964 250.634 76.8433 252.822 76.8433ZM284.893 45.9793L285.357 51.5515V51.954C286.307 49.8902 287.597 48.2804 289.227 47.1247C290.878 45.9483 292.828 45.3601 295.078 45.3601C295.553 45.3601 296.007 45.4014 296.44 45.484C296.894 45.5459 297.266 45.6181 297.554 45.7007L297.059 49.1678L294.304 48.9821C291.972 48.9821 290.053 49.6425 288.546 50.9633C287.06 52.2635 285.997 54.059 285.357 56.3498V76.348L290.403 76.7504V79.4746H276.628V76.7504L281.674 76.348V49.1369L276.628 48.7344V45.9793H281.674H284.893ZM301.579 48.7344V45.9793H309.906L310.247 51.5206C311.32 49.56 312.754 48.0431 314.55 46.9699C316.345 45.8967 318.481 45.3601 320.958 45.3601C323.517 45.3601 325.653 45.9896 327.366 47.2485C329.079 48.4868 330.307 50.3855 331.05 52.9446C332.061 50.5918 333.495 48.7448 335.353 47.4033C337.231 46.0412 339.511 45.3601 342.194 45.3601C345.765 45.3601 348.52 46.5468 350.46 48.9202C352.42 51.2935 353.401 54.9671 353.401 59.9408V76.317L358.447 76.7504V79.4746H344.609V76.7504L349.655 76.317V59.8789C349.655 55.7513 348.922 52.8414 347.457 51.1491C346.012 49.4361 343.99 48.5797 341.389 48.5797C338.5 48.5797 336.271 49.498 334.703 51.3348C333.155 53.1716 332.195 55.514 331.824 58.362C331.824 58.5271 331.824 58.6819 331.824 58.8264C331.844 58.9708 331.855 59.1566 331.855 59.3836V76.348L336.901 76.7504V79.4746H323.094V76.7504L328.14 76.348V59.8789C328.14 55.8339 327.397 52.9446 325.911 51.211C324.446 49.4568 322.423 48.5797 319.843 48.5797C317.202 48.5797 315.107 49.2504 313.559 50.5918C312.032 51.9127 310.959 53.6979 310.34 55.9474V76.348L315.386 76.7504V79.4746H301.579V76.7504L306.625 76.348V49.1369L301.579 48.7344ZM377.671 76.7504L382.717 76.348V37.559L377.671 37.1566V34.4014H411.476V44.3076H408.194L407.916 37.559H386.401V55.1735H405.222V58.362H386.401V76.348L391.447 76.7504V79.4746H377.671V76.7504ZM424.632 45.9793L425.097 51.5515V51.954C426.046 49.8902 427.336 48.2804 428.966 47.1247C430.617 45.9483 432.568 45.3601 434.817 45.3601C435.292 45.3601 435.746 45.4014 436.179 45.484C436.633 45.5459 437.005 45.6181 437.294 45.7007L436.798 49.1678L434.043 48.9821C431.711 48.9821 429.792 49.6425 428.285 50.9633C426.799 52.2635 425.737 54.059 425.097 56.3498V76.348L430.143 76.7504V79.4746H416.367V76.7504L421.413 76.348V49.1369L416.367 48.7344V45.9793H421.413H424.632ZM456.27 80.1247C452.06 80.1247 448.572 78.5872 445.807 75.5121C443.041 72.4164 441.659 68.4849 441.659 63.7176V62.0149C441.659 57.2269 443.031 53.2541 445.776 50.0965C448.541 46.9389 451.874 45.3601 455.775 45.3601C459.882 45.3601 463.112 46.6603 465.465 49.2607C467.817 51.8611 468.994 55.3283 468.994 59.6622V62.8198H445.343V63.7176C445.343 67.4737 446.344 70.6313 448.345 73.1904C450.368 75.7288 453.01 76.9981 456.27 76.9981C458.561 76.9981 460.522 76.6782 462.152 76.0384C463.783 75.3986 465.176 74.4802 466.331 73.2832L467.91 75.8217C466.651 77.1425 465.062 78.1951 463.143 78.9793C461.223 79.7429 458.933 80.1247 456.27 80.1247ZM455.775 48.5177C453.051 48.5177 450.75 49.5703 448.872 51.6753C447.014 53.7598 445.931 56.3808 445.621 59.5384L445.683 59.6932H465.31V58.7645C465.31 55.8545 464.453 53.4192 462.74 51.4586C461.027 49.498 458.706 48.5177 455.775 48.5177ZM499.92 56.3189H496.886L496.452 51.5825C495.524 50.6125 494.347 49.8592 492.923 49.3226C491.52 48.786 489.9 48.5177 488.063 48.5177C485.359 48.5177 483.327 49.1059 481.965 50.2823C480.623 51.438 479.952 52.8001 479.952 54.3686C479.952 55.9164 480.53 57.196 481.686 58.2072C482.862 59.2185 485.194 60.1059 488.682 60.8695C492.665 61.757 495.647 62.9746 497.629 64.5224C499.61 66.0496 500.601 68.1341 500.601 70.7757C500.601 73.5618 499.465 75.8217 497.195 77.5553C494.946 79.2682 491.964 80.1247 488.249 80.1247C485.772 80.1247 483.512 79.7842 481.469 79.1031C479.447 78.4014 477.692 77.4211 476.207 76.1622V69.4136H479.209L479.736 74.181C480.726 75.1716 481.975 75.8939 483.481 76.348C485.009 76.7814 486.598 76.9981 488.249 76.9981C490.932 76.9981 493.047 76.4099 494.595 75.2335C496.143 74.0572 496.917 72.6331 496.917 70.9615C496.917 69.393 496.267 68.0206 494.966 66.8442C493.687 65.6678 491.365 64.7082 488.001 63.9652C484.018 63.0984 481.056 61.953 479.117 60.529C477.197 59.0844 476.238 57.0722 476.238 54.4924C476.238 51.9333 477.321 49.7767 479.488 48.0224C481.655 46.2476 484.513 45.3601 488.063 45.3601C490.519 45.3601 492.758 45.7419 494.781 46.5055C496.824 47.2485 498.485 48.2598 499.765 49.5393L499.92 56.3189ZM506.297 33.9371V31.1819H515.026V51.7063C516.141 49.7044 517.627 48.1463 519.484 47.0318C521.342 45.9174 523.509 45.3601 525.985 45.3601C529.514 45.3601 532.218 46.4539 534.096 48.6416C535.995 50.8292 536.944 54.2241 536.944 58.8264V76.348L541.99 76.7504V79.4746H528.183V76.7504L533.229 76.348V58.7645C533.229 55.1322 532.507 52.5318 531.062 50.9633C529.638 49.3742 527.667 48.5797 525.149 48.5797C522.611 48.5797 520.485 49.2504 518.772 50.5918C517.08 51.9127 515.831 53.6772 515.026 55.8855V76.348L520.072 76.7504V79.4746H506.297V76.7504L511.343 76.348V34.3395L506.297 33.9371Z" fill="#38420E"/>
<path d="M201.97 122.443L204.655 121.923V103.821L201.97 103.301V100.252H222.048V107.164H218.167L217.942 104.15H209.714V111.096H218.548V114.994H209.714V121.923L212.416 122.443V125.475H201.97V122.443ZM223.641 115.93C223.641 113.135 224.421 110.848 225.98 109.07C227.551 107.279 229.716 106.384 232.476 106.384C235.248 106.384 237.413 107.274 238.973 109.052C240.543 110.831 241.328 113.123 241.328 115.93V116.293C241.328 119.111 240.543 121.409 238.973 123.188C237.413 124.955 235.26 125.838 232.511 125.838C229.728 125.838 227.551 124.955 225.98 123.188C224.421 121.409 223.641 119.111 223.641 116.293V115.93ZM228.7 116.293C228.7 118.003 229 119.377 229.601 120.416C230.201 121.444 231.171 121.958 232.511 121.958C233.816 121.958 234.769 121.438 235.369 120.399C235.981 119.36 236.287 117.991 236.287 116.293V115.93C236.287 114.266 235.981 112.909 235.369 111.859C234.757 110.808 233.793 110.282 232.476 110.282C231.16 110.282 230.201 110.808 229.601 111.859C229 112.909 228.7 114.266 228.7 115.93V116.293ZM243.529 115.93C243.529 113.135 244.308 110.848 245.867 109.07C247.438 107.279 249.603 106.384 252.363 106.384C255.135 106.384 257.3 107.274 258.86 109.052C260.43 110.831 261.216 113.123 261.216 115.93V116.293C261.216 119.111 260.43 121.409 258.86 123.188C257.3 124.955 255.147 125.838 252.398 125.838C249.615 125.838 247.438 124.955 245.867 123.188C244.308 121.409 243.529 119.111 243.529 116.293V115.93ZM248.587 116.293C248.587 118.003 248.887 119.377 249.488 120.416C250.088 121.444 251.058 121.958 252.398 121.958C253.703 121.958 254.656 121.438 255.256 120.399C255.868 119.36 256.174 117.991 256.174 116.293V115.93C256.174 114.266 255.868 112.909 255.256 111.859C254.644 110.808 253.68 110.282 252.363 110.282C251.047 110.282 250.088 110.808 249.488 111.859C248.887 112.909 248.587 114.266 248.587 115.93V116.293ZM275.611 123.188C275.022 124.054 274.323 124.712 273.515 125.163C272.718 125.613 271.806 125.838 270.778 125.838C268.468 125.838 266.672 124.995 265.39 123.309C264.12 121.623 263.485 119.394 263.485 116.622V116.259C263.485 113.302 264.126 110.917 265.408 109.104C266.69 107.291 268.491 106.384 270.813 106.384C271.748 106.384 272.591 106.592 273.342 107.008C274.092 107.412 274.751 107.99 275.317 108.74V102.019L272.614 101.499V98.4504H275.317H280.375V121.923L282.8 122.443V125.475H275.992L275.611 123.188ZM268.543 116.622C268.543 118.262 268.815 119.556 269.357 120.503C269.912 121.438 270.813 121.906 272.06 121.906C272.799 121.906 273.44 121.756 273.983 121.456C274.526 121.155 274.97 120.722 275.317 120.156V112.205C274.97 111.604 274.526 111.143 273.983 110.819C273.452 110.484 272.822 110.317 272.095 110.317C270.859 110.317 269.958 110.865 269.392 111.962C268.826 113.06 268.543 114.492 268.543 116.259V116.622ZM304.316 100.252C307.18 100.252 309.426 100.91 311.054 102.227C312.683 103.532 313.497 105.339 313.497 107.649C313.497 108.919 313.156 110.022 312.475 110.958C311.794 111.893 310.795 112.65 309.478 113.227C310.968 113.666 312.036 114.399 312.683 115.427C313.341 116.443 313.67 117.708 313.67 119.221V120.503C313.67 121.057 313.78 121.49 313.999 121.802C314.219 122.102 314.583 122.281 315.091 122.339L315.714 122.426V125.475H313.099C311.447 125.475 310.286 125.03 309.617 124.141C308.947 123.251 308.612 122.102 308.612 120.693V119.256C308.612 118.031 308.283 117.073 307.624 116.38C306.978 115.675 306.06 115.306 304.87 115.271H300.73V121.923L303.432 122.443V125.475H292.986V122.443L295.671 121.923V103.821L292.986 103.301V100.252H295.671H304.316ZM300.73 111.374H304.229C305.638 111.374 306.695 111.073 307.399 110.473C308.104 109.872 308.456 109.006 308.456 107.874C308.456 106.742 308.104 105.842 307.399 105.172C306.706 104.49 305.679 104.15 304.316 104.15H300.73V111.374ZM326.472 125.838C323.77 125.838 321.61 124.972 319.993 123.24C318.376 121.508 317.568 119.308 317.568 116.64V115.947C317.568 113.164 318.33 110.871 319.855 109.07C321.391 107.268 323.446 106.373 326.022 106.384C328.551 106.384 330.514 107.147 331.912 108.671C333.309 110.196 334.008 112.257 334.008 114.855V117.61H322.817L322.782 117.714C322.875 118.95 323.285 119.966 324.012 120.763C324.751 121.56 325.75 121.958 327.009 121.958C328.129 121.958 329.059 121.848 329.798 121.629C330.537 121.398 331.346 121.04 332.223 120.555L333.592 123.673C332.818 124.285 331.813 124.799 330.578 125.215C329.354 125.631 327.985 125.838 326.472 125.838ZM326.022 110.282C325.086 110.282 324.347 110.64 323.804 111.356C323.262 112.072 322.927 113.013 322.8 114.18L322.852 114.266H329.053V113.816C329.053 112.742 328.799 111.887 328.291 111.252C327.794 110.606 327.038 110.282 326.022 110.282ZM335.879 101.499V98.4504H343.639V121.923L346.082 122.443V125.475H336.139V122.443L338.581 121.923V102.019L335.879 101.499ZM347.589 122.443L350.032 121.923V110.299L347.329 109.78V106.731H355.09V121.923L357.515 122.443V125.475H347.589V122.443ZM355.09 102.244H350.032V98.4504H355.09V102.244ZM368.152 125.838C365.449 125.838 363.29 124.972 361.673 123.24C360.056 121.508 359.248 119.308 359.248 116.64V115.947C359.248 113.164 360.01 110.871 361.534 109.07C363.07 107.268 365.126 106.373 367.701 106.384C370.231 106.384 372.194 107.147 373.591 108.671C374.989 110.196 375.687 112.257 375.687 114.855V117.61H364.497L364.462 117.714C364.554 118.95 364.964 119.966 365.692 120.763C366.431 121.56 367.43 121.958 368.689 121.958C369.809 121.958 370.739 121.848 371.478 121.629C372.217 121.398 373.025 121.04 373.903 120.555L375.272 123.673C374.498 124.285 373.493 124.799 372.257 125.215C371.033 125.631 369.665 125.838 368.152 125.838ZM367.701 110.282C366.766 110.282 366.027 110.64 365.484 111.356C364.941 112.072 364.606 113.013 364.479 114.18L364.531 114.266H370.733V113.816C370.733 112.742 370.479 111.887 369.971 111.252C369.474 110.606 368.718 110.282 367.701 110.282ZM378.373 122.443L380.815 121.923V110.282H378.026V106.731H380.815V104.652C380.815 102.55 381.421 100.933 382.634 99.8016C383.847 98.6583 385.55 98.0866 387.744 98.0866C388.172 98.0866 388.605 98.1212 389.044 98.1905C389.494 98.2483 389.985 98.3349 390.516 98.4504L390.083 102.21C389.806 102.163 389.534 102.123 389.269 102.088C389.015 102.054 388.715 102.036 388.368 102.036C387.548 102.036 386.924 102.261 386.497 102.712C386.081 103.162 385.874 103.809 385.874 104.652V106.731H389.598V110.282H385.874V121.923L388.316 122.443V125.475H378.373V122.443ZM411.876 100.252C414.763 100.252 417.038 100.997 418.701 102.487C420.376 103.965 421.213 105.905 421.213 108.307C421.213 110.721 420.376 112.661 418.701 114.128C417.038 115.595 414.763 116.328 411.876 116.328H407.614V121.923L410.317 122.443V125.475H399.871V122.443L402.556 121.923V103.821L399.871 103.301V100.252H402.556H411.876ZM407.614 112.43H411.876C413.285 112.43 414.347 112.049 415.063 111.287C415.791 110.513 416.155 109.531 416.155 108.342C416.155 107.129 415.791 106.13 415.063 105.345C414.347 104.548 413.285 104.15 411.876 104.15H407.614V112.43ZM423.344 122.443L425.769 121.923V110.299L423.084 109.78V106.731H430.481L430.706 109.468C431.145 108.498 431.711 107.741 432.404 107.199C433.097 106.656 433.899 106.384 434.812 106.384C435.077 106.384 435.354 106.408 435.643 106.454C435.943 106.488 436.192 106.535 436.388 106.592L435.851 111.2L433.772 111.148C433.033 111.148 432.421 111.293 431.936 111.581C431.451 111.87 431.081 112.28 430.827 112.811V121.923L433.253 122.443V125.475H423.344V122.443ZM437.549 115.93C437.549 113.135 438.328 110.848 439.887 109.07C441.458 107.279 443.623 106.384 446.384 106.384C449.155 106.384 451.321 107.274 452.88 109.052C454.45 110.831 455.236 113.123 455.236 115.93V116.293C455.236 119.111 454.45 121.409 452.88 123.188C451.321 124.955 449.167 125.838 446.418 125.838C443.635 125.838 441.458 124.955 439.887 123.188C438.328 121.409 437.549 119.111 437.549 116.293V115.93ZM442.607 116.293C442.607 118.003 442.907 119.377 443.508 120.416C444.108 121.444 445.079 121.958 446.418 121.958C447.723 121.958 448.676 121.438 449.277 120.399C449.889 119.36 450.195 117.991 450.195 116.293V115.93C450.195 114.266 449.889 112.909 449.277 111.859C448.664 110.808 447.7 110.282 446.384 110.282C445.067 110.282 444.108 110.808 443.508 111.859C442.907 112.909 442.607 114.266 442.607 115.93V116.293ZM457.748 116.259C457.748 113.302 458.389 110.917 459.67 109.104C460.964 107.291 462.771 106.384 465.093 106.384C466.144 106.384 467.067 106.621 467.864 107.095C468.661 107.557 469.343 108.221 469.908 109.087L470.272 106.731H474.672V124.92C474.672 127.392 473.893 129.361 472.334 130.827C470.786 132.306 468.655 133.045 465.941 133.045C464.994 133.045 463.99 132.912 462.927 132.646C461.865 132.392 460.883 132.04 459.982 131.59L460.918 128.038C461.726 128.385 462.535 128.656 463.343 128.853C464.151 129.061 465.006 129.164 465.907 129.164C467.143 129.164 468.066 128.789 468.679 128.038C469.291 127.288 469.597 126.243 469.597 124.903V123.673C469.042 124.377 468.39 124.914 467.639 125.284C466.888 125.654 466.028 125.838 465.058 125.838C462.76 125.838 460.964 124.995 459.67 123.309C458.389 121.612 457.748 119.383 457.748 116.622V116.259ZM462.806 116.622C462.806 118.262 463.083 119.556 463.637 120.503C464.192 121.438 465.093 121.906 466.34 121.906C467.114 121.906 467.766 121.767 468.297 121.49C468.84 121.202 469.273 120.786 469.597 120.243V112.101C469.273 111.535 468.84 111.096 468.297 110.785C467.766 110.473 467.125 110.317 466.375 110.317C465.139 110.317 464.232 110.865 463.655 111.962C463.089 113.06 462.806 114.492 462.806 116.259V116.622ZM478.085 122.443L480.51 121.923V110.299L477.825 109.78V106.731H485.222L485.447 109.468C485.886 108.498 486.452 107.741 487.145 107.199C487.838 106.656 488.641 106.384 489.553 106.384C489.819 106.384 490.096 106.408 490.385 106.454C490.685 106.488 490.933 106.535 491.129 106.592L490.592 111.2L488.514 111.148C487.775 111.148 487.162 111.293 486.677 111.581C486.192 111.87 485.823 112.28 485.569 112.811V121.923L487.994 122.443V125.475H478.085V122.443ZM504.226 125.475C504.087 125.163 503.966 124.845 503.862 124.522C503.758 124.187 503.677 123.852 503.619 123.517C503.019 124.21 502.286 124.77 501.419 125.197C500.565 125.625 499.583 125.838 498.474 125.838C496.638 125.838 495.177 125.342 494.092 124.349C493.018 123.344 492.481 121.981 492.481 120.26C492.481 118.505 493.185 117.148 494.594 116.189C496.003 115.231 498.07 114.752 500.796 114.752H503.377V112.915C503.377 112.014 503.117 111.316 502.597 110.819C502.078 110.323 501.31 110.074 500.293 110.074C499.716 110.074 499.202 110.144 498.752 110.282C498.301 110.409 497.937 110.565 497.66 110.75L497.331 112.759H493.52L493.537 108.602C494.461 107.978 495.518 107.453 496.708 107.025C497.909 106.598 499.214 106.384 500.623 106.384C502.944 106.384 504.826 106.956 506.27 108.099C507.725 109.231 508.453 110.848 508.453 112.95V120.693C508.453 120.982 508.453 121.254 508.453 121.508C508.464 121.762 508.487 122.004 508.522 122.235L510.064 122.443V125.475H504.226ZM499.843 122.097C500.605 122.097 501.298 121.935 501.922 121.612C502.545 121.277 503.03 120.861 503.377 120.364V117.506H500.796C499.722 117.506 498.908 117.76 498.353 118.268C497.799 118.765 497.522 119.365 497.522 120.07C497.522 120.705 497.724 121.202 498.128 121.56C498.544 121.918 499.115 122.097 499.843 122.097ZM511.207 109.78V106.731H518.604L518.812 109.208C519.413 108.307 520.163 107.614 521.064 107.129C521.976 106.633 523.027 106.384 524.217 106.384C525.418 106.384 526.446 106.65 527.3 107.181C528.155 107.713 528.802 108.515 529.241 109.589C529.818 108.584 530.569 107.799 531.493 107.233C532.416 106.667 533.502 106.384 534.749 106.384C536.597 106.384 538.052 107.025 539.115 108.307C540.189 109.578 540.726 111.518 540.726 114.128V121.923L543.168 122.443V125.475H533.485V122.443L535.667 121.923V114.111C535.667 112.69 535.437 111.703 534.975 111.148C534.513 110.594 533.825 110.317 532.913 110.317C532.197 110.317 531.573 110.478 531.042 110.802C530.522 111.114 530.107 111.553 529.795 112.118C529.795 112.338 529.801 112.528 529.812 112.69C529.824 112.84 529.83 112.996 529.83 113.158V121.923L531.874 122.443V125.475H522.744V122.443L524.788 121.923V114.111C524.788 112.725 524.558 111.749 524.096 111.183C523.634 110.606 522.941 110.317 522.017 110.317C521.335 110.317 520.735 110.45 520.215 110.715C519.707 110.969 519.285 111.333 518.951 111.807V121.923L521.133 122.443V125.475H511.467V122.443L513.91 121.923V110.299L511.207 109.78Z" fill="#38420E"/>
<defs>
<linearGradient id="paint0_linear" x1="105.231" y1="69.8956" x2="148.479" y2="97.1206" gradientUnits="userSpaceOnUse">
<stop stop-color="#56660E"/>
<stop offset="1" stop-color="#9A541D"/>
</linearGradient>
</defs>
</svg>
