<svg width="591" height="156" viewBox="0 0 591 156" fill="none" xmlns="http://www.w3.org/2000/svg">
<rect width="590.947" height="155.679" fill="#2A2C26"/>
<path d="M70.3376 24.016C61.9575 23.9681 53.6112 27.2388 47.1798 33.82C34.2903 47.0011 34.1674 68.5115 46.9054 81.8389L95.1952 132.468C95.5857 132.882 96.0558 133.213 96.5719 133.439C97.0918 133.665 97.6425 133.785 98.2052 133.788C98.7679 133.791 99.3275 133.681 99.8424 133.458C100.365 133.238 100.835 132.912 101.234 132.503L150.167 82.4289C163.041 69.2591 163.239 47.8058 150.509 34.4783C150.306 34.2733 150.084 34.087 149.847 33.9271C143.542 27.6583 135.399 24.4896 127.245 24.4431C118.869 24.3952 110.482 27.643 104.058 34.2129L99.7233 38.6353L99.7345 38.6467L98.7849 39.5964L97.8425 38.6359L97.8539 38.6247L93.574 34.153C87.2069 27.4912 78.7969 24.0794 70.398 24.0163C70.3791 24.0162 70.3602 24.0161 70.3376 24.016ZM149.563 35.4356L149.556 35.428L150.505 34.4745L149.563 35.4356Z" fill="#DFD7C5"/>
<path fill-rule="evenodd" clip-rule="evenodd" d="M159.642 55.0511L37.6746 54.3543C36.5031 64.2946 39.5714 74.6728 46.8975 82.3408L95.1459 132.946C95.536 133.36 96.0058 133.691 96.5215 133.917C97.0409 134.142 97.5911 134.262 98.1534 134.265C98.7156 134.269 99.2747 134.159 99.7891 133.935C100.311 133.716 100.781 133.39 101.179 132.981L150.071 82.9303C157.487 75.3414 160.693 65.0009 159.642 55.0511Z" fill="#2A2C26"/>
<path d="M37.7077 63.5936C43.663 62.1223 52.6236 60.3822 59.5399 59.1234L37.4283 58.9971C37.4196 60.5287 37.5127 62.0646 37.7077 63.5936ZM44.0772 79.4506C52.1449 76.1324 62.5687 71.8868 65.5139 70.8913C69.0376 69.6959 73.4843 67.422 76.3454 65.9669C77.5375 65.3603 78.4533 64.8914 78.9148 64.6946C80.042 64.2231 88.154 61.0707 92.6846 59.3128L75.8179 59.2164C65.7895 61.6165 47.4229 66.4715 38.7837 68.7742C39.8828 72.555 41.647 76.1815 44.0772 79.4506ZM60.1378 96.4769C64.6385 93.334 75.832 84.4866 75.832 84.4866C75.832 84.4866 84.2607 77.426 88.1581 76.2027C90.4186 75.4968 92.3499 73.645 94.376 71.7035C95.8368 70.3006 97.3545 68.8454 99.0814 67.7414C102.138 65.7794 108.132 61.4972 111.027 59.4138L100.937 59.3562C89.987 63.2036 80.4714 68.3124 74.0407 71.7567C70.7288 73.5366 68.2382 74.8733 66.7901 75.3731C64.4384 76.1838 55.7745 80.1722 47.9312 83.8493L60.1378 96.4769ZM77.6561 114.61C79.043 112.917 80.4245 110.87 81.9506 108.602C84.4547 104.895 87.3546 100.595 91.3186 96.3013C95.6584 91.607 98.4022 88.2245 101.123 84.8757C102.354 83.3549 103.582 81.8415 104.957 80.2124C108.471 76.0365 112.728 71.3756 116.745 66.9767L116.745 66.973C119.16 64.3262 121.492 61.7767 123.524 59.4852L116.339 59.4442C112.045 62.8517 99.8236 72.5813 97.0125 75.192C94.892 77.1594 86.4387 83.8999 79.0279 89.811C74.4639 93.4503 70.2941 96.7758 68.2392 98.4801C67.1738 99.3621 66.0137 100.308 64.7893 101.29L77.6561 114.61ZM112.218 121.702C114.372 112.574 117.202 102.606 119.163 98.2404C121.766 92.4411 123.557 87.4011 125.118 83.007C125.781 81.1442 126.399 79.3941 127.023 77.7569C128.778 73.1494 129.783 69.5312 130.739 66.0895C131.347 63.9028 131.933 61.7875 132.682 59.5376L127.407 59.5074C124.88 64.5357 120.974 68.5589 117.85 71.7812C115.671 74.0266 113.876 75.8792 113.184 77.4144C112.324 79.3363 109.042 83.2425 105.683 87.2463C102.222 91.366 98.6771 95.5869 97.6038 97.8463C96.3359 100.5 91.442 107.061 88.0578 111.595L88.054 111.599C86.4683 113.724 85.2173 115.402 84.8212 116.029C84.0482 117.259 83.2828 118.466 82.5289 119.651L95.1931 132.759C95.587 133.168 96.0568 133.494 96.5725 133.715C97.092 133.94 97.646 134.06 98.2082 134.063C98.7704 134.066 99.3257 133.957 99.844 133.734C100.366 133.519 100.836 133.198 101.234 132.794L112.218 121.702ZM145.511 88.0646L121.414 112.411C123.272 104.293 125.828 96.1297 127.972 89.2703C129.41 84.6761 130.663 80.6678 131.401 77.654C132.177 74.4973 133.422 69.9208 135.176 63.4656L135.176 63.4618C135.508 62.2294 135.862 60.9331 136.232 59.5616L141.538 59.5919C141.842 63.1236 142.761 73.3535 143.214 75.3243C144.267 79.8838 144.955 84.1665 145.511 88.0646ZM157.733 71.58C157.035 70.2401 156.468 69.059 155.938 67.9495C154.596 65.1383 153.473 62.7949 151.042 59.6462L145.058 59.612C145.87 64.046 148.699 79.4989 149.598 83.9371L150.164 83.3684C153.579 79.9144 156.104 75.8834 157.733 71.58ZM159.936 59.697L155.899 59.674C157.159 61.0585 158.402 62.7628 159.577 64.4479C159.805 62.8725 159.927 61.2851 159.936 59.697ZM159.395 53.4282C159.625 54.709 159.78 56.0007 159.863 57.2919L37.5289 56.593C37.651 55.0319 37.875 53.4752 38.2082 51.9417C41.6966 50.3284 45.2519 48.8736 48.8704 47.5809C57.0789 44.715 66.4798 47.8019 73.0031 49.9466C74.0991 50.3066 75.1122 50.6398 76.0276 50.916C80.3184 52.156 84.7251 52.9376 89.1798 53.234C90.1719 53.2961 92.5455 52.6172 95.2063 51.8572C98.6004 50.8906 102.459 49.7837 104.519 49.9159C106.409 50.0321 108.654 50.7298 110.823 51.4008C112.869 52.0334 114.842 52.6468 116.389 52.7346C123.202 53.1273 131.029 50.9705 133.491 49.325C136.514 47.2989 144.654 45.1665 150.318 48.4879C154.684 51.053 157.427 52.4799 159.395 53.4282Z" fill="url(#paint0_linear)"/>
<path d="M203.198 78.1088L208.244 77.7064V38.9174L203.198 38.515V35.7598H237.003V45.666H233.721L233.443 38.9174H211.928V56.5319H230.75V59.7204H211.928V77.7064L216.974 78.1088V80.833H203.198V78.1088ZM265.019 80.833C264.771 79.6979 264.596 78.7176 264.493 77.8921C264.389 77.0666 264.338 76.2308 264.338 75.3846C263.099 77.1388 261.448 78.5938 259.385 79.7495C257.321 80.9052 254.999 81.4831 252.419 81.4831C249.138 81.4831 246.599 80.6369 244.804 78.9446C243.008 77.2523 242.111 74.9615 242.111 72.0722C242.111 68.9765 243.442 66.5206 246.104 64.7045C248.766 62.8883 252.378 61.9803 256.939 61.9803H264.338V57.5534C264.338 55.1594 263.564 53.2814 262.016 51.9193C260.489 50.5572 258.342 49.8761 255.577 49.8761C253.72 49.8761 252.017 50.1341 250.469 50.6501C248.942 51.1454 247.662 51.8264 246.63 52.6932L246.321 57.182H243.256L243.287 50.7429C244.835 49.5459 246.682 48.5759 248.828 47.833C250.995 47.09 253.296 46.7185 255.732 46.7185C259.426 46.7185 262.398 47.6576 264.647 49.5356C266.897 51.4137 268.022 54.1069 268.022 57.6154V74.0844C268.022 74.7655 268.032 75.4259 268.053 76.0656C268.094 76.6848 268.166 77.2936 268.269 77.8921L271.613 78.1088V80.833H265.019ZM252.822 78.2017C255.505 78.2017 257.868 77.5825 259.911 76.3443C261.954 75.106 263.43 73.5065 264.338 71.5459V64.8283H256.877C253.513 64.8283 250.82 65.53 248.797 66.9334C246.796 68.3161 245.795 70.0703 245.795 72.196C245.795 73.9915 246.414 75.4465 247.652 76.561C248.911 77.6548 250.634 78.2017 252.822 78.2017ZM284.893 47.3377L285.357 52.9099V53.3124C286.307 51.2486 287.597 49.6388 289.227 48.4831C290.878 47.3067 292.828 46.7185 295.078 46.7185C295.553 46.7185 296.007 46.7598 296.44 46.8424C296.894 46.9043 297.266 46.9765 297.554 47.0591L297.059 50.5262L294.304 50.3405C291.972 50.3405 290.053 51.0009 288.546 52.3217C287.06 53.6219 285.997 55.4174 285.357 57.7082V77.7064L290.403 78.1088V80.833H276.628V78.1088L281.674 77.7064V50.4953L276.628 50.0928V47.3377H281.674H284.893ZM301.579 50.0928V47.3377H309.906L310.247 52.879C311.32 50.9184 312.754 49.4015 314.55 48.3283C316.345 47.2551 318.481 46.7185 320.958 46.7185C323.517 46.7185 325.653 47.348 327.366 48.6069C329.079 49.8452 330.307 51.7439 331.05 54.303C332.061 51.9502 333.495 50.1032 335.353 48.7617C337.231 47.3996 339.511 46.7185 342.194 46.7185C345.765 46.7185 348.52 47.9052 350.46 50.2786C352.42 52.6519 353.401 56.3255 353.401 61.2992V77.6754L358.447 78.1088V80.833H344.609V78.1088L349.655 77.6754V61.2373C349.655 57.1097 348.922 54.1998 347.457 52.5075C346.012 50.7945 343.99 49.9381 341.389 49.9381C338.5 49.9381 336.271 50.8564 334.703 52.6932C333.155 54.53 332.195 56.8724 331.824 59.7204C331.824 59.8855 331.824 60.0403 331.824 60.1848C331.844 60.3292 331.855 60.515 331.855 60.742V77.7064L336.901 78.1088V80.833H323.094V78.1088L328.14 77.7064V61.2373C328.14 57.1923 327.397 54.303 325.911 52.5694C324.446 50.8152 322.423 49.9381 319.843 49.9381C317.202 49.9381 315.107 50.6088 313.559 51.9502C312.032 53.2711 310.959 55.0563 310.34 57.3058V77.7064L315.386 78.1088V80.833H301.579V78.1088L306.625 77.7064V50.4953L301.579 50.0928ZM377.671 78.1088L382.717 77.7064V38.9174L377.671 38.515V35.7598H411.476V45.666H408.194L407.916 38.9174H386.401V56.5319H405.222V59.7204H386.401V77.7064L391.447 78.1088V80.833H377.671V78.1088ZM424.632 47.3377L425.097 52.9099V53.3124C426.046 51.2486 427.336 49.6388 428.966 48.4831C430.617 47.3067 432.568 46.7185 434.817 46.7185C435.292 46.7185 435.746 46.7598 436.179 46.8424C436.633 46.9043 437.005 46.9765 437.294 47.0591L436.798 50.5262L434.043 50.3405C431.711 50.3405 429.792 51.0009 428.285 52.3217C426.799 53.6219 425.737 55.4174 425.097 57.7082V77.7064L430.143 78.1088V80.833H416.367V78.1088L421.413 77.7064V50.4953L416.367 50.0928V47.3377H421.413H424.632ZM456.27 81.4831C452.06 81.4831 448.572 79.9456 445.807 76.8705C443.041 73.7748 441.659 69.8433 441.659 65.076V63.3733C441.659 58.5853 443.031 54.6125 445.776 51.4549C448.541 48.2973 451.874 46.7185 455.775 46.7185C459.882 46.7185 463.112 48.0187 465.465 50.6191C467.817 53.2195 468.994 56.6866 468.994 61.0206V64.1782H445.343V65.076C445.343 68.8321 446.344 71.9897 448.345 74.5488C450.368 77.0872 453.01 78.3565 456.27 78.3565C458.561 78.3565 460.522 78.0366 462.152 77.3968C463.783 76.757 465.176 75.8386 466.331 74.6416L467.91 77.1801C466.651 78.5009 465.062 79.5535 463.143 80.3377C461.223 81.1013 458.933 81.4831 456.27 81.4831ZM455.775 49.8761C453.051 49.8761 450.75 50.9287 448.872 53.0337C447.014 55.1182 445.931 57.7392 445.621 60.8968L445.683 61.0516H465.31V60.1229C465.31 57.2129 464.453 54.7776 462.74 52.817C461.027 50.8564 458.706 49.8761 455.775 49.8761ZM499.92 57.6773H496.886L496.452 52.9409C495.524 51.9709 494.347 51.2176 492.923 50.681C491.52 50.1444 489.9 49.8761 488.063 49.8761C485.359 49.8761 483.327 50.4643 481.965 51.6407C480.623 52.7964 479.952 54.1585 479.952 55.727C479.952 57.2748 480.53 58.5544 481.686 59.5656C482.862 60.5769 485.194 61.4643 488.682 62.2279C492.665 63.1154 495.647 64.333 497.629 65.8808C499.61 67.408 500.601 69.4925 500.601 72.1341C500.601 74.9202 499.465 77.1801 497.195 78.9137C494.946 80.6266 491.964 81.4831 488.249 81.4831C485.772 81.4831 483.512 81.1426 481.469 80.4615C479.447 79.7598 477.692 78.7795 476.207 77.5206V70.772H479.209L479.736 75.5394C480.726 76.53 481.975 77.2523 483.481 77.7064C485.009 78.1398 486.598 78.3565 488.249 78.3565C490.932 78.3565 493.047 77.7683 494.595 76.5919C496.143 75.4156 496.917 73.9915 496.917 72.3199C496.917 70.7514 496.267 69.379 494.966 68.2026C493.687 67.0262 491.365 66.0666 488.001 65.3236C484.018 64.4568 481.056 63.3114 479.117 61.8874C477.197 60.4427 476.238 58.4306 476.238 55.8508C476.238 53.2917 477.321 51.1351 479.488 49.3808C481.655 47.606 484.513 46.7185 488.063 46.7185C490.519 46.7185 492.758 47.1003 494.781 47.8639C496.824 48.6069 498.485 49.6182 499.765 50.8977L499.92 57.6773ZM506.297 35.2955V32.5403H515.026V53.0647C516.141 51.0628 517.627 49.5047 519.484 48.3902C521.342 47.2758 523.509 46.7185 525.985 46.7185C529.514 46.7185 532.218 47.8123 534.096 50C535.995 52.1876 536.944 55.5825 536.944 60.1848V77.7064L541.99 78.1088V80.833H528.183V78.1088L533.229 77.7064V60.1229C533.229 56.4906 532.507 53.8902 531.062 52.3217C529.638 50.7326 527.667 49.9381 525.149 49.9381C522.611 49.9381 520.485 50.6088 518.772 51.9502C517.08 53.2711 515.831 55.0356 515.026 57.2439V77.7064L520.072 78.1088V80.833H506.297V78.1088L511.343 77.7064V35.6979L506.297 35.2955ZM201.97 123.801L204.655 123.282V105.179L201.97 104.659V101.61H222.048V108.522H218.167L217.942 105.508H209.714V112.455H218.548V116.352H209.714V123.282L212.416 123.801V126.833H201.97V123.801ZM223.641 117.288C223.641 114.493 224.421 112.206 225.98 110.428C227.551 108.638 229.716 107.743 232.476 107.743C235.248 107.743 237.413 108.632 238.973 110.411C240.543 112.189 241.328 114.482 241.328 117.288V117.652C241.328 120.47 240.543 122.768 238.973 124.546C237.413 126.313 235.26 127.197 232.511 127.197C229.728 127.197 227.551 126.313 225.98 124.546C224.421 122.768 223.641 120.47 223.641 117.652V117.288ZM228.7 117.652C228.7 119.361 229 120.735 229.601 121.775C230.201 122.802 231.171 123.316 232.511 123.316C233.816 123.316 234.769 122.797 235.369 121.757C235.981 120.718 236.287 119.349 236.287 117.652V117.288C236.287 115.625 235.981 114.268 235.369 113.217C234.757 112.166 233.793 111.641 232.476 111.641C231.16 111.641 230.201 112.166 229.601 113.217C229 114.268 228.7 115.625 228.7 117.288V117.652ZM243.529 117.288C243.529 114.493 244.308 112.206 245.867 110.428C247.438 108.638 249.603 107.743 252.363 107.743C255.135 107.743 257.3 108.632 258.86 110.411C260.43 112.189 261.216 114.482 261.216 117.288V117.652C261.216 120.47 260.43 122.768 258.86 124.546C257.3 126.313 255.147 127.197 252.398 127.197C249.615 127.197 247.438 126.313 245.867 124.546C244.308 122.768 243.529 120.47 243.529 117.652V117.288ZM248.587 117.652C248.587 119.361 248.887 120.735 249.488 121.775C250.088 122.802 251.058 123.316 252.398 123.316C253.703 123.316 254.656 122.797 255.256 121.757C255.868 120.718 256.174 119.349 256.174 117.652V117.288C256.174 115.625 255.868 114.268 255.256 113.217C254.644 112.166 253.68 111.641 252.363 111.641C251.047 111.641 250.088 112.166 249.488 113.217C248.887 114.268 248.587 115.625 248.587 117.288V117.652ZM275.611 124.546C275.022 125.413 274.323 126.071 273.515 126.521C272.718 126.972 271.806 127.197 270.778 127.197C268.468 127.197 266.672 126.354 265.39 124.668C264.12 122.981 263.485 120.753 263.485 117.981V117.617C263.485 114.661 264.126 112.276 265.408 110.463C266.69 108.649 268.491 107.743 270.813 107.743C271.748 107.743 272.591 107.951 273.342 108.366C274.092 108.771 274.751 109.348 275.317 110.099V103.377L272.614 102.858V99.8088H275.317H280.375V123.282L282.8 123.801V126.833H275.992L275.611 124.546ZM268.543 117.981C268.543 119.621 268.815 120.914 269.357 121.861C269.912 122.797 270.813 123.264 272.06 123.264C272.799 123.264 273.44 123.114 273.983 122.814C274.526 122.514 274.97 122.081 275.317 121.515V113.563C274.97 112.963 274.526 112.501 273.983 112.178C273.452 111.843 272.822 111.675 272.095 111.675C270.859 111.675 269.958 112.224 269.392 113.321C268.826 114.418 268.543 115.85 268.543 117.617V117.981ZM304.316 101.61C307.18 101.61 309.426 102.269 311.054 103.585C312.683 104.89 313.497 106.698 313.497 109.007C313.497 110.278 313.156 111.381 312.475 112.316C311.794 113.252 310.795 114.008 309.478 114.585C310.968 115.024 312.036 115.758 312.683 116.786C313.341 117.802 313.67 119.066 313.67 120.579V121.861C313.67 122.416 313.78 122.849 313.999 123.16C314.219 123.461 314.583 123.64 315.091 123.698L315.714 123.784V126.833H313.099C311.447 126.833 310.286 126.388 309.617 125.499C308.947 124.61 308.612 123.461 308.612 122.052V120.614C308.612 119.39 308.283 118.431 307.624 117.738C306.978 117.034 306.06 116.664 304.87 116.63H300.73V123.282L303.432 123.801V126.833H292.986V123.801L295.671 123.282V105.179L292.986 104.659V101.61H295.671H304.316ZM300.73 112.732H304.229C305.638 112.732 306.695 112.432 307.399 111.831C308.104 111.231 308.456 110.364 308.456 109.233C308.456 108.101 308.104 107.2 307.399 106.53C306.706 105.849 305.679 105.508 304.316 105.508H300.73V112.732ZM326.472 127.197C323.77 127.197 321.61 126.331 319.993 124.598C318.376 122.866 317.568 120.666 317.568 117.998V117.305C317.568 114.522 318.33 112.23 319.855 110.428C321.391 108.626 323.446 107.731 326.022 107.743C328.551 107.743 330.514 108.505 331.912 110.029C333.309 111.554 334.008 113.615 334.008 116.214V118.968H322.817L322.782 119.072C322.875 120.308 323.285 121.324 324.012 122.121C324.751 122.918 325.75 123.316 327.009 123.316C328.129 123.316 329.059 123.207 329.798 122.987C330.537 122.756 331.346 122.398 332.223 121.913L333.592 125.031C332.818 125.643 331.813 126.157 330.578 126.573C329.354 126.989 327.985 127.197 326.472 127.197ZM326.022 111.641C325.086 111.641 324.347 111.999 323.804 112.715C323.262 113.431 322.927 114.372 322.8 115.538L322.852 115.625H329.053V115.174C329.053 114.1 328.799 113.246 328.291 112.611C327.794 111.964 327.038 111.641 326.022 111.641ZM335.879 102.858V99.8088H343.639V123.282L346.082 123.801V126.833H336.139V123.801L338.581 123.282V103.377L335.879 102.858ZM347.589 123.801L350.032 123.282V111.658L347.329 111.138V108.089H355.09V123.282L357.515 123.801V126.833H347.589V123.801ZM355.09 103.603H350.032V99.8088H355.09V103.603ZM368.152 127.197C365.449 127.197 363.29 126.331 361.673 124.598C360.056 122.866 359.248 120.666 359.248 117.998V117.305C359.248 114.522 360.01 112.23 361.534 110.428C363.07 108.626 365.126 107.731 367.701 107.743C370.231 107.743 372.194 108.505 373.591 110.029C374.989 111.554 375.687 113.615 375.687 116.214V118.968H364.497L364.462 119.072C364.554 120.308 364.964 121.324 365.692 122.121C366.431 122.918 367.43 123.316 368.689 123.316C369.809 123.316 370.739 123.207 371.478 122.987C372.217 122.756 373.025 122.398 373.903 121.913L375.272 125.031C374.498 125.643 373.493 126.157 372.257 126.573C371.033 126.989 369.665 127.197 368.152 127.197ZM367.701 111.641C366.766 111.641 366.027 111.999 365.484 112.715C364.941 113.431 364.606 114.372 364.479 115.538L364.531 115.625H370.733V115.174C370.733 114.1 370.479 113.246 369.971 112.611C369.474 111.964 368.718 111.641 367.701 111.641ZM378.373 123.801L380.815 123.282V111.641H378.026V108.089H380.815V106.01C380.815 103.909 381.421 102.292 382.634 101.16C383.847 100.017 385.55 99.445 387.744 99.445C388.172 99.445 388.605 99.4796 389.044 99.5489C389.494 99.6067 389.985 99.6933 390.516 99.8088L390.083 103.568C389.806 103.522 389.534 103.481 389.269 103.447C389.015 103.412 388.715 103.395 388.368 103.395C387.548 103.395 386.924 103.62 386.497 104.07C386.081 104.521 385.874 105.167 385.874 106.01V108.089H389.598V111.641H385.874V123.282L388.316 123.801V126.833H378.373V123.801ZM411.876 101.61C414.763 101.61 417.038 102.355 418.701 103.845C420.376 105.323 421.213 107.264 421.213 109.666C421.213 112.079 420.376 114.02 418.701 115.486C417.038 116.953 414.763 117.686 411.876 117.686H407.614V123.282L410.317 123.801V126.833H399.871V123.801L402.556 123.282V105.179L399.871 104.659V101.61H402.556H411.876ZM407.614 113.789H411.876C413.285 113.789 414.347 113.408 415.063 112.645C415.791 111.872 416.155 110.89 416.155 109.7C416.155 108.488 415.791 107.489 415.063 106.703C414.347 105.907 413.285 105.508 411.876 105.508H407.614V113.789ZM423.344 123.801L425.769 123.282V111.658L423.084 111.138V108.089H430.481L430.706 110.826C431.145 109.856 431.711 109.1 432.404 108.557C433.097 108.014 433.899 107.743 434.812 107.743C435.077 107.743 435.354 107.766 435.643 107.812C435.943 107.847 436.192 107.893 436.388 107.951L435.851 112.559L433.772 112.507C433.033 112.507 432.421 112.651 431.936 112.94C431.451 113.228 431.081 113.638 430.827 114.17V123.282L433.253 123.801V126.833H423.344V123.801ZM437.549 117.288C437.549 114.493 438.328 112.206 439.887 110.428C441.458 108.638 443.623 107.743 446.384 107.743C449.155 107.743 451.321 108.632 452.88 110.411C454.45 112.189 455.236 114.482 455.236 117.288V117.652C455.236 120.47 454.45 122.768 452.88 124.546C451.321 126.313 449.167 127.197 446.418 127.197C443.635 127.197 441.458 126.313 439.887 124.546C438.328 122.768 437.549 120.47 437.549 117.652V117.288ZM442.607 117.652C442.607 119.361 442.907 120.735 443.508 121.775C444.108 122.802 445.079 123.316 446.418 123.316C447.723 123.316 448.676 122.797 449.277 121.757C449.889 120.718 450.195 119.349 450.195 117.652V117.288C450.195 115.625 449.889 114.268 449.277 113.217C448.664 112.166 447.7 111.641 446.384 111.641C445.067 111.641 444.108 112.166 443.508 113.217C442.907 114.268 442.607 115.625 442.607 117.288V117.652ZM457.748 117.617C457.748 114.661 458.389 112.276 459.67 110.463C460.964 108.649 462.771 107.743 465.093 107.743C466.144 107.743 467.067 107.98 467.864 108.453C468.661 108.915 469.343 109.579 469.908 110.445L470.272 108.089H474.672V126.279C474.672 128.75 473.893 130.719 472.334 132.186C470.786 133.664 468.655 134.403 465.941 134.403C464.994 134.403 463.99 134.27 462.927 134.005C461.865 133.751 460.883 133.399 459.982 132.948L460.918 129.397C461.726 129.743 462.535 130.015 463.343 130.211C464.151 130.419 465.006 130.523 465.907 130.523C467.143 130.523 468.066 130.148 468.679 129.397C469.291 128.646 469.597 127.601 469.597 126.261V125.031C469.042 125.736 468.39 126.273 467.639 126.642C466.888 127.012 466.028 127.197 465.058 127.197C462.76 127.197 460.964 126.354 459.67 124.668C458.389 122.97 457.748 120.741 457.748 117.981V117.617ZM462.806 117.981C462.806 119.621 463.083 120.914 463.637 121.861C464.192 122.797 465.093 123.264 466.34 123.264C467.114 123.264 467.766 123.126 468.297 122.849C468.84 122.56 469.273 122.144 469.597 121.601V113.459C469.273 112.894 468.84 112.455 468.297 112.143C467.766 111.831 467.125 111.675 466.375 111.675C465.139 111.675 464.232 112.224 463.655 113.321C463.089 114.418 462.806 115.85 462.806 117.617V117.981ZM478.085 123.801L480.51 123.282V111.658L477.825 111.138V108.089H485.222L485.447 110.826C485.886 109.856 486.452 109.1 487.145 108.557C487.838 108.014 488.641 107.743 489.553 107.743C489.819 107.743 490.096 107.766 490.385 107.812C490.685 107.847 490.933 107.893 491.129 107.951L490.592 112.559L488.514 112.507C487.775 112.507 487.162 112.651 486.677 112.94C486.192 113.228 485.823 113.638 485.569 114.17V123.282L487.994 123.801V126.833H478.085V123.801ZM504.226 126.833C504.087 126.521 503.966 126.204 503.862 125.88C503.758 125.545 503.677 125.21 503.619 124.875C503.019 125.568 502.286 126.129 501.419 126.556C500.565 126.983 499.583 127.197 498.474 127.197C496.638 127.197 495.177 126.7 494.092 125.707C493.018 124.702 492.481 123.339 492.481 121.619C492.481 119.863 493.185 118.506 494.594 117.548C496.003 116.589 498.07 116.11 500.796 116.11H503.377V114.274C503.377 113.373 503.117 112.674 502.597 112.178C502.078 111.681 501.31 111.433 500.293 111.433C499.716 111.433 499.202 111.502 498.752 111.641C498.301 111.768 497.937 111.923 497.66 112.108L497.331 114.118H493.52L493.537 109.96C494.461 109.337 495.518 108.811 496.708 108.384C497.909 107.956 499.214 107.743 500.623 107.743C502.944 107.743 504.826 108.314 506.27 109.458C507.725 110.59 508.453 112.206 508.453 114.308V122.052C508.453 122.341 508.453 122.612 508.453 122.866C508.464 123.12 508.487 123.363 508.522 123.594L510.064 123.801V126.833H504.226ZM499.843 123.455C500.605 123.455 501.298 123.293 501.922 122.97C502.545 122.635 503.03 122.219 503.377 121.723V118.864H500.796C499.722 118.864 498.908 119.118 498.353 119.627C497.799 120.123 497.522 120.724 497.522 121.428C497.522 122.063 497.724 122.56 498.128 122.918C498.544 123.276 499.115 123.455 499.843 123.455ZM511.207 111.138V108.089H518.604L518.812 110.566C519.413 109.666 520.163 108.973 521.064 108.488C521.976 107.991 523.027 107.743 524.217 107.743C525.418 107.743 526.446 108.008 527.3 108.54C528.155 109.071 528.802 109.874 529.241 110.948C529.818 109.943 530.569 109.158 531.493 108.592C532.416 108.026 533.502 107.743 534.749 107.743C536.597 107.743 538.052 108.384 539.115 109.666C540.189 110.936 540.726 112.876 540.726 115.486V123.282L543.168 123.801V126.833H533.485V123.801L535.667 123.282V115.469C535.667 114.048 535.437 113.061 534.975 112.507C534.513 111.952 533.825 111.675 532.913 111.675C532.197 111.675 531.573 111.837 531.042 112.16C530.522 112.472 530.107 112.911 529.795 113.477C529.795 113.696 529.801 113.887 529.812 114.048C529.824 114.199 529.83 114.355 529.83 114.516V123.282L531.874 123.801V126.833H522.744V123.801L524.788 123.282V115.469C524.788 114.083 524.558 113.107 524.096 112.541C523.634 111.964 522.941 111.675 522.017 111.675C521.335 111.675 520.735 111.808 520.215 112.074C519.707 112.328 519.285 112.691 518.951 113.165V123.282L521.133 123.801V126.833H511.467V123.801L513.91 123.282V111.658L511.207 111.138Z" fill="white"/>
<defs>
<linearGradient id="paint0_linear" x1="105.23" y1="71.254" x2="148.478" y2="98.479" gradientUnits="userSpaceOnUse">
<stop stop-color="#56660E"/>
<stop offset="1" stop-color="#9A541D"/>
</linearGradient>
</defs>
</svg>
