<svg width="602" height="580" viewBox="0 0 602 580" fill="none" xmlns="http://www.w3.org/2000/svg">
<path d="M197.057 499.615C305.889 499.615 394.115 496.05 394.115 491.652C394.115 487.254 305.889 483.689 197.057 483.689C88.2256 483.689 0 487.254 0 491.652C0 496.05 88.2256 499.615 197.057 499.615Z" fill="#E5F1EF"/>
<path d="M187.269 280.374H203.319C211.863 280.372 220.135 283.372 226.692 288.851C233.248 294.329 237.67 301.937 239.186 310.345L273.013 481.263C273.318 482.951 274.207 484.478 275.523 485.578C276.84 486.677 278.501 487.28 280.216 487.28V487.28C281.782 487.28 283.306 486.777 284.565 485.847C285.824 484.916 286.752 483.607 287.211 482.11L305.314 421.164" stroke="#423C52" stroke-width="1.24055" stroke-miterlimit="10" stroke-linecap="round"/>
<path d="M177.578 347.965H279.464C281.231 347.966 282.984 348.288 284.636 348.916L403.9 394.271H305.61C300.653 394.27 295.738 393.359 291.111 391.582L177.578 347.965Z" fill="#423C52"/>
<path d="M329.459 342.515L328.566 341.969C328.628 341.848 331.32 336.838 334.034 334.332C337.669 330.982 341.76 329.866 345.863 331.116L345.567 332.213C336.443 329.452 329.515 342.41 329.459 342.515Z" fill="#423C52"/>
<path d="M333.698 335.145C333.698 335.145 337.556 334.698 336.748 336.841C336.237 338.192 331.407 337.535 331.407 337.535C331.407 337.535 331.486 331.685 333.61 331.639C335.295 331.609 333.698 335.145 333.698 335.145Z" fill="#423C52"/>
<path d="M336.579 332.758C336.579 332.758 340.115 333.031 338.854 334.334C338.213 334.998 334.226 334.658 334.226 334.658C334.226 334.658 335.952 329.38 337.662 329.141C339.372 328.903 336.579 332.758 336.579 332.758Z" fill="#423C52"/>
<path d="M341.152 331.185C341.152 331.185 343.929 332.111 342.978 333.145C342.515 333.652 338.761 331.877 338.761 331.877C338.761 331.877 340.4 328.447 342.047 328.915C343.128 329.22 341.152 331.185 341.152 331.185Z" fill="#423C52"/>
<path d="M342.376 331.095C342.376 331.095 348.413 329.013 348.133 331.808C347.922 333.921 342.376 331.095 342.376 331.095Z" fill="#423C52"/>
<path d="M329.677 345.562L328.649 345.506C328.725 343.319 328.463 341.134 327.874 339.027C326.597 334.614 324 331.881 320.155 330.902L320.409 329.794C324.574 330.854 327.499 333.929 328.867 338.691C329.496 340.925 329.769 343.243 329.677 345.562Z" fill="#423C52"/>
<path d="M327.522 336C327.522 336 324.359 334.404 324.757 336.172C324.961 337.07 328.554 338.847 328.554 338.847C328.554 338.847 329.825 333.441 328.485 332.351C327.145 331.261 327.522 336 327.522 336Z" fill="#423C52"/>
<path d="M324.44 332.295C324.44 332.295 321.598 331.643 321.86 333.024C321.985 333.693 326.125 334.121 326.125 334.121C326.125 334.121 326.509 330.342 324.856 329.891C323.762 329.593 324.44 332.295 324.44 332.295Z" fill="#423C52"/>
<path d="M323.433 331.579C323.433 331.579 319.358 326.671 318.139 329.209C317.22 331.125 323.433 331.579 323.433 331.579Z" fill="#423C52"/>
<path d="M328.978 339.742L328.052 339.245C328.986 337.073 329.609 334.78 329.903 332.435C330.486 327.49 329.244 323.665 326.201 321.066L326.847 320.161C330.142 322.984 331.546 327.279 330.912 332.585C330.613 335.051 329.961 337.461 328.978 339.742Z" fill="#423C52"/>
<path d="M330.405 328.757C330.405 328.757 328.517 326.159 328.152 327.954C327.966 328.866 330.449 332.087 330.449 332.087C330.449 332.087 333.724 328.341 332.532 325.971C331.755 324.386 330.405 328.757 330.405 328.757Z" fill="#423C52"/>
<path d="M329.454 324.251C329.454 324.251 327.18 322.4 326.849 323.774C326.687 324.443 330.211 326.671 330.211 326.671C330.211 326.671 332.099 323.381 330.806 322.233C329.952 321.474 329.454 324.251 329.454 324.251Z" fill="#423C52"/>
<path d="M328.846 323.146C328.846 323.146 327.21 316.843 325.083 318.629C323.48 319.976 328.846 323.146 328.846 323.146Z" fill="#423C52"/>
<path d="M311.979 399.252C311.459 399.131 311.006 398.815 310.712 398.368C310.419 397.922 310.308 397.381 310.403 396.855L320.879 345.836C321.529 342.804 324.762 340.925 327.918 341.742L329.512 342.156C332.669 342.973 334.427 346.146 333.34 349.061L314.635 397.947C314.428 398.451 314.043 398.862 313.554 399.103C313.065 399.343 312.505 399.396 311.979 399.252Z" fill="#FFDB00"/>
<path d="M357.019 352.074C356.637 353.377 354.513 352.275 353.023 351.303C352.944 351.287 352.865 351.271 352.791 351.259C353.3 351.722 353.684 352.322 353.117 352.754C352.736 353.046 350.942 351.88 349.933 351.176C349.32 351.251 348.715 351.379 348.124 351.558C348.938 351.935 349.744 352.516 348.881 353.125C348.376 353.481 346.469 353.088 345.278 352.796C345.111 352.888 344.94 352.988 344.769 353.094C345.807 353.347 347.122 353.925 346.358 355.177C345.838 356.043 343.424 355.52 342.026 355.133C341.215 355.842 340.463 356.616 339.777 357.447L339.002 356.716C339.641 355.936 340.337 355.204 341.085 354.527C341.358 353.349 342.473 349.119 344.259 349.436C345.405 349.637 344.692 351.225 344.151 352.18H344.169C344.338 352.076 344.507 351.972 344.678 351.877C345.477 350.549 347.353 347.687 348.67 347.765C349.952 347.842 348.351 349.688 347.464 350.609C348.197 350.363 348.952 350.186 349.718 350.082C350.461 349.235 351.905 347.842 352.99 348.399C353.661 348.749 352.858 349.556 352.25 350.049C352.456 350.07 352.657 350.095 352.858 350.13C354.649 350.047 357.581 350.172 357.019 352.074Z" fill="#423C52"/>
<path d="M337.838 361.08L336.848 360.796C337.329 358.644 337.479 356.432 337.294 354.235C336.864 349.635 334.839 346.433 331.278 344.716L331.708 343.672C335.587 345.537 337.875 349.151 338.329 354.127C338.529 356.456 338.363 358.802 337.838 361.08Z" fill="#423C52"/>
<path d="M337.507 351.204C337.507 351.204 334.714 349.008 334.777 350.831C334.809 351.757 337.986 354.216 337.986 354.216C337.986 354.216 340.229 349.126 339.123 347.79C338.016 346.455 337.507 351.204 337.507 351.204Z" fill="#423C52"/>
<path d="M335.184 346.939C335.184 346.939 332.532 345.74 332.53 347.154C332.53 347.848 336.489 349.073 336.489 349.073C336.489 349.073 337.565 345.416 336.026 344.646C335.024 344.137 335.184 346.939 335.184 346.939Z" fill="#423C52"/>
<path d="M334.333 346.035C334.333 346.035 331.264 340.391 329.605 342.658C328.355 344.371 334.333 346.035 334.333 346.035Z" fill="#423C52"/>
<path d="M338.236 355.191L337.431 354.497C338.747 352.53 339.778 350.387 340.495 348.131C341.978 343.364 341.476 339.338 338.997 336.191L339.784 335.432C342.48 338.87 343.059 343.39 341.457 348.506C340.709 350.877 339.625 353.128 338.236 355.191Z" fill="#423C52"/>
<path d="M341.663 344.602C341.663 344.602 340.3 341.668 339.613 343.369C339.261 344.234 341.089 347.902 341.089 347.902C341.089 347.902 344.979 344.843 344.262 342.269C343.787 340.559 341.663 344.602 341.663 344.602Z" fill="#423C52"/>
<path d="M341.566 339.978C341.566 339.978 339.692 337.699 339.111 338.997C338.831 339.626 341.858 342.517 341.858 342.517C341.858 342.517 344.308 339.636 343.26 338.25C342.568 337.333 341.566 339.978 341.566 339.978Z" fill="#423C52"/>
<path d="M341.177 338.77C341.177 338.77 340.747 332.223 338.343 333.57C336.524 334.586 341.177 338.77 341.177 338.77Z" fill="#423C52"/>
<path d="M311.007 407.549C310.536 407.344 310.165 406.962 309.974 406.486C309.783 406.009 309.788 405.476 309.987 405.003L329.968 358.376C331.183 355.613 334.615 354.384 337.442 355.701L338.873 356.367C341.7 357.684 342.742 360.995 341.136 363.575L313.779 406.769C313.488 407.21 313.047 407.531 312.538 407.674C312.029 407.818 311.486 407.773 311.007 407.549Z" fill="#FFDB00"/>
<path d="M320.666 349.704C319.779 349.634 318.888 349.675 318.012 349.827C318.495 350.012 318.854 350.29 318.569 350.727C318.363 351.042 316.651 350.801 315.561 350.614C315.071 350.847 314.602 351.121 314.159 351.433C314.918 351.465 315.656 351.664 315.177 352.319C314.888 352.722 313.27 353.03 312.169 353.194C312.058 353.316 311.937 353.441 311.84 353.571C312.777 353.446 313.969 353.492 313.768 354.598C313.627 355.374 311.516 355.755 310.218 355.913C309.773 356.683 309.398 357.493 309.1 358.331L308.131 357.975C308.406 357.195 308.747 356.439 309.149 355.716C308.968 354.7 308.51 351.431 310.074 351.107C311.058 350.903 311.044 352.171 310.924 353.036C311.033 352.902 311.144 352.773 311.259 352.641C311.491 351.393 312.078 348.857 313.173 348.51C314.217 348.179 313.617 349.836 313.191 350.81C313.723 350.399 314.289 350.036 314.885 349.725C315.235 348.871 315.945 347.557 316.982 347.619C317.6 347.656 317.32 348.36 317.01 348.899C317.726 348.708 318.461 348.592 319.201 348.552C320.67 347.978 322.691 347.457 322.855 348.85C322.954 349.628 321.867 349.771 320.666 349.704Z" fill="#423C52"/>
<path d="M308.172 361.546C308.11 361.159 306.59 352.037 298.113 351.739L298.171 350.603C307.478 350.929 309.172 361.224 309.188 361.328L308.172 361.546L308.679 361.437L308.172 361.546Z" fill="#423C52"/>
<path d="M305.516 354.351C305.516 354.351 302.447 353.638 303.119 354.936C303.459 355.596 306.932 356.378 306.932 356.378C306.932 356.378 307.076 352 305.703 351.38C304.331 350.759 305.516 354.351 305.516 354.351Z" fill="#423C52"/>
<path d="M302.147 351.998C302.147 351.998 299.534 351.961 300.011 352.984C300.242 353.479 303.945 353.132 303.945 353.132C303.945 353.132 303.6 350.154 302.066 350.075C301.066 350.024 302.147 351.998 302.147 351.998Z" fill="#423C52"/>
<path d="M301.133 351.611C301.133 351.611 296.669 348.492 296.058 350.651C295.598 352.278 301.133 351.611 301.133 351.611Z" fill="#423C52"/>
<path d="M307.522 357.031L306.534 356.733C306.952 354.933 307.082 353.078 306.918 351.237C306.541 347.38 304.773 344.663 301.665 343.168L302.098 342.122C310.352 346.098 307.55 356.923 307.522 357.031Z" fill="#423C52"/>
<path d="M306.745 348.284C306.745 348.284 304.618 346.588 304.623 348.032C304.623 348.768 307.386 350.846 307.386 350.846C307.386 350.846 309.584 347.418 308.117 345.785C307.136 344.699 306.745 348.284 306.745 348.284Z" fill="#423C52"/>
<path d="M305.099 344.972C305.099 344.972 302.769 343.91 302.725 345.03C302.704 345.574 306.196 346.714 306.196 346.714C306.196 346.714 307.261 343.866 305.919 343.192C305.037 342.748 305.099 344.972 305.099 344.972Z" fill="#423C52"/>
<path d="M304.359 344.22C304.359 344.22 301.788 339.624 300.242 341.351C299.083 342.654 304.359 344.22 304.359 344.22Z" fill="#423C52"/>
<path d="M306.523 406.473C305.447 406.473 304.558 405.778 304.482 404.876L300.918 361.946C300.731 359.401 303.179 357.23 306.24 357.244H307.791C310.859 357.258 313.261 359.436 313.023 361.99L308.596 404.89C308.503 405.79 307.599 406.477 306.523 406.473Z" fill="#FFDB00"/>
<path d="M350.549 364.55C351.548 361.857 358.22 359.607 361.732 360.517L365.071 361.891C361.6 362.22 357.747 363.463 357.134 367.278L350.549 364.55Z" fill="#423C52"/>
<path d="M374.55 406.913C380.861 392.87 378.732 378.23 369.795 374.213C360.857 370.197 348.496 378.325 342.185 392.368C335.874 406.411 338.003 421.051 346.94 425.068C355.877 429.084 368.239 420.956 374.55 406.913Z" fill="#FF7500"/>
<path d="M340.835 391.765C347.146 377.722 345.017 363.081 336.08 359.065C327.142 355.048 314.781 363.176 308.47 377.219C302.159 391.262 304.287 405.903 313.225 409.919C322.162 413.936 334.524 405.808 340.835 391.765Z" fill="#FF7500"/>
<path d="M357.297 399.008C364.079 383.92 362.498 368.507 353.767 364.583C345.036 360.659 332.461 369.71 325.68 384.799C318.899 399.887 320.479 415.3 329.21 419.224C337.941 423.148 350.516 414.097 357.297 399.008Z" fill="#FF7500"/>
<path d="M320.952 405.531C320.42 399.387 321.737 391.948 325.046 384.587C329.181 375.382 335.459 368.426 341.73 365.288" stroke="white" stroke-width="1.24055" stroke-miterlimit="10" stroke-linecap="round"/>
<path d="M361.225 374.138C362.998 380.892 361.755 390.104 357.641 399.268C353.554 408.364 347.36 415.269 341.172 418.456" stroke="white" stroke-width="1.24055" stroke-miterlimit="10" stroke-linecap="round"/>
<path d="M219.951 402.654C223.881 401.289 225.482 395.621 223.528 389.995C221.574 384.369 216.803 380.915 212.873 382.28C208.943 383.645 207.342 389.313 209.296 394.939C211.25 400.565 216.021 404.019 219.951 402.654Z" fill="#FFDB00"/>
<path d="M229.763 415.415C233.675 414.067 235.633 409.455 234.136 405.112C232.64 400.769 228.257 398.341 224.346 399.689C220.434 401.037 218.476 405.649 219.973 409.992C221.469 414.335 225.852 416.763 229.763 415.415Z" fill="#FFDB00"/>
<path d="M232.675 368.699C232.777 363.565 227.292 359.292 220.425 359.156C213.557 359.019 207.906 363.07 207.804 368.204C207.702 373.338 213.187 377.611 220.055 377.747C226.922 377.884 232.573 373.833 232.675 368.699Z" fill="#FFDB00"/>
<path d="M264.57 410.625C264.672 405.491 259.188 401.218 252.32 401.081C245.452 400.945 239.802 404.996 239.7 410.13C239.597 415.264 245.082 419.537 251.95 419.673C258.818 419.81 264.468 415.759 264.57 410.625Z" fill="#FFDB00"/>
<path d="M243.994 352.846C245.82 347.936 243.77 342.643 239.416 341.024C235.062 339.404 230.052 342.072 228.226 346.982C226.4 351.892 228.45 357.185 232.804 358.804C237.158 360.423 242.168 357.756 243.994 352.846Z" fill="#FFDB00"/>
<path d="M284.251 357.627C286.041 352.814 283.211 347.32 277.929 345.356C272.648 343.392 266.916 345.701 265.126 350.514C263.336 355.327 266.166 360.821 271.448 362.785C276.729 364.749 282.461 362.439 284.251 357.627Z" fill="#FFDB00"/>
<path d="M254.254 374.073C260.391 369.828 263.05 363.038 260.192 358.906C257.334 354.774 250.042 354.866 243.905 359.111C237.768 363.356 235.109 370.146 237.967 374.278C240.825 378.41 248.117 378.318 254.254 374.073Z" fill="#FFDB00"/>
<path d="M258.954 352.147C263.704 350.51 265.584 343.464 263.153 336.409C260.723 329.354 254.902 324.961 250.152 326.598C245.402 328.234 243.522 335.28 245.953 342.335C248.383 349.39 254.204 353.783 258.954 352.147Z" fill="#FFDB00"/>
<path d="M286.143 395.796C291.046 394.703 293.705 387.912 292.081 380.629C290.457 373.345 285.165 368.327 280.262 369.421C275.358 370.514 272.7 377.305 274.324 384.588C275.948 391.871 281.24 396.889 286.143 395.796Z" fill="#FFDB00"/>
<path d="M232.274 397.801C237.298 397.801 241.371 393.729 241.371 388.705C241.371 383.681 237.298 379.608 232.274 379.608C227.25 379.608 223.178 383.681 223.178 388.705C223.178 393.729 227.25 397.801 232.274 397.801Z" fill="#FFDB00"/>
<path d="M267.484 376.227C270.755 376.227 273.406 373.576 273.406 370.305C273.406 367.035 270.755 364.384 267.484 364.384C264.214 364.384 261.563 367.035 261.563 370.305C261.563 373.576 264.214 376.227 267.484 376.227Z" fill="#FFDB00"/>
<path d="M218.027 356.023C220.893 356.023 223.217 353.699 223.217 350.833C223.217 347.966 220.893 345.643 218.027 345.643C215.16 345.643 212.837 347.966 212.837 350.833C212.837 353.699 215.16 356.023 218.027 356.023Z" fill="#FFDB00"/>
<path d="M235.423 338.425C239.6 336.665 242.115 333.17 241.04 330.619C239.965 328.068 235.707 327.427 231.53 329.188C227.353 330.948 224.838 334.443 225.913 336.994C226.988 339.545 231.245 340.186 235.423 338.425Z" fill="#FFDB00"/>
<path d="M259.017 397.992C264.846 396.942 268.882 392.265 268.031 387.544C267.181 382.824 261.767 379.848 255.939 380.898C250.11 381.948 246.074 386.625 246.925 391.346C247.775 396.066 253.189 399.042 259.017 397.992Z" fill="#FFDB00"/>
<path d="M275.279 412.781C278.97 412.116 281.241 407.581 280.353 402.65C279.465 397.72 275.754 394.262 272.064 394.926C268.373 395.591 266.102 400.127 266.99 405.057C267.878 409.988 271.589 413.446 275.279 412.781Z" fill="#FFDB00"/>
<path d="M296.997 382.643C296.331 416.222 274.669 424.504 248.172 423.979C221.674 423.454 200.352 414.313 201.019 380.737C201.685 347.16 227.79 320.447 250.21 320.889C270.777 321.303 297.664 349.067 296.997 382.643Z" stroke="white" stroke-width="0.992438" stroke-miterlimit="10" stroke-linecap="round"/>
<path d="M253.818 321.429L251.782 423.82" stroke="white" stroke-width="0.992438" stroke-miterlimit="10" stroke-linecap="round"/>
<path d="M261.137 323.425L259.154 423.27" stroke="white" stroke-width="0.992438" stroke-miterlimit="10" stroke-linecap="round"/>
<path d="M268.417 327.506L266.533 422.26" stroke="white" stroke-width="0.992438" stroke-miterlimit="10" stroke-linecap="round"/>
<path d="M275.66 333.437L273.938 420.094" stroke="white" stroke-width="0.992438" stroke-miterlimit="10" stroke-linecap="round"/>
<path d="M282.866 341.216L281.369 416.537" stroke="white" stroke-width="0.992438" stroke-miterlimit="10" stroke-linecap="round"/>
<path d="M290.005 352.466L288.864 409.847" stroke="white" stroke-width="0.992438" stroke-miterlimit="10" stroke-linecap="round"/>
<path d="M209.081 350.165L207.938 407.673" stroke="white" stroke-width="0.992438" stroke-miterlimit="10" stroke-linecap="round"/>
<path d="M216.659 339.205L215.153 414.992" stroke="white" stroke-width="0.992438" stroke-miterlimit="10" stroke-linecap="round"/>
<path d="M224.175 331.485L222.433 419.069" stroke="white" stroke-width="0.992438" stroke-miterlimit="10" stroke-linecap="round"/>
<path d="M231.638 326.312L229.745 421.529" stroke="white" stroke-width="0.992438" stroke-miterlimit="10" stroke-linecap="round"/>
<path d="M239.064 322.986L237.076 423.065" stroke="white" stroke-width="0.992438" stroke-miterlimit="10" stroke-linecap="round"/>
<path d="M246.459 321.283L244.425 423.674" stroke="white" stroke-width="0.992438" stroke-miterlimit="10" stroke-linecap="round"/>
<path d="M212.073 345.171L293.251 402.36" stroke="white" stroke-width="0.992438" stroke-miterlimit="10" stroke-linecap="round"/>
<path d="M216.428 339.536L295.537 395.265" stroke="white" stroke-width="0.992438" stroke-miterlimit="10" stroke-linecap="round"/>
<path d="M221.327 334.359L296.442 387.281" stroke="white" stroke-width="0.992438" stroke-miterlimit="10" stroke-linecap="round"/>
<path d="M226.748 329.398L296.879 378.803" stroke="white" stroke-width="0.992438" stroke-miterlimit="10" stroke-linecap="round"/>
<path d="M233.376 325.362L295.834 369.361" stroke="white" stroke-width="0.992438" stroke-miterlimit="10" stroke-linecap="round"/>
<path d="M241.123 322.113L292.543 358.42" stroke="white" stroke-width="0.992438" stroke-miterlimit="10" stroke-linecap="round"/>
<path d="M251.879 320.987L285.601 344.745" stroke="white" stroke-width="0.992438" stroke-miterlimit="10" stroke-linecap="round"/>
<path d="M204.062 400.457L236.868 423.026" stroke="white" stroke-width="0.992438" stroke-miterlimit="10" stroke-linecap="round"/>
<path d="M201.431 389.901L249.852 424.012" stroke="white" stroke-width="0.992438" stroke-miterlimit="10" stroke-linecap="round"/>
<path d="M200.933 380.846L261.318 423.387" stroke="white" stroke-width="0.992438" stroke-miterlimit="10" stroke-linecap="round"/>
<path d="M201.667 372.658L270.916 421.442" stroke="white" stroke-width="0.992438" stroke-miterlimit="10" stroke-linecap="round"/>
<path d="M203.215 365.043L278.758 418.263" stroke="white" stroke-width="0.992438" stroke-miterlimit="10" stroke-linecap="round"/>
<path d="M205.513 357.957L284.995 413.952" stroke="white" stroke-width="0.992438" stroke-miterlimit="10" stroke-linecap="round"/>
<path d="M208.479 351.344L289.778 408.618" stroke="white" stroke-width="0.992438" stroke-miterlimit="10" stroke-linecap="round"/>
<path d="M239.175 322.313L232.205 311.886C232.008 311.592 231.909 311.244 231.923 310.891C231.936 310.537 232.06 310.197 232.278 309.919C232.496 309.641 232.796 309.438 233.135 309.341C233.475 309.243 233.837 309.255 234.169 309.375L239.397 311.261C240.336 311.6 241.351 311.669 242.327 311.46C243.303 311.252 244.202 310.774 244.92 310.081L246.901 308.172C247.411 307.68 248.014 307.294 248.675 307.037C249.336 306.78 250.041 306.657 250.75 306.676C251.459 306.694 252.157 306.853 252.803 307.144C253.45 307.434 254.032 307.851 254.517 308.369L255.863 309.808C256.589 310.584 257.53 311.126 258.565 311.365C259.6 311.604 260.683 311.529 261.676 311.15L265.425 309.718C265.873 309.546 266.364 309.521 266.827 309.648C267.29 309.774 267.7 310.045 267.999 310.421C268.297 310.796 268.468 311.257 268.487 311.737C268.505 312.216 268.371 312.689 268.102 313.087L261.137 323.426" stroke="white" stroke-width="0.992438" stroke-miterlimit="10" stroke-linecap="round"/>
<path d="M356.503 406.708L355.212 405.769C367.203 388.677 394.032 365.785 394.3 365.556L395.323 366.787C395.054 367.013 368.378 389.779 356.503 406.708Z" fill="#907B00"/>
<path d="M358.113 409.071L356.725 408.293C360.152 401.897 367.504 391.565 383.056 378.658C388.572 374.066 394.345 369.792 400.347 365.856L401.193 367.217C395.24 371.119 389.515 375.358 384.047 379.914C375.577 386.946 364.202 397.716 358.113 409.071Z" fill="#907B00"/>
<path d="M355.478 406.115L354.404 404.931C354.462 404.875 360.36 399.354 367.275 390.121C373.645 381.605 382.207 368.098 386.821 352.108L388.337 352.571C383.651 368.806 374.971 382.496 368.513 391.123C361.515 400.462 355.535 406.06 355.478 406.115Z" fill="#907B00"/>
<path d="M358.095 406.768L356.854 405.764L396.29 355.395L397.53 356.396L358.095 406.768Z" fill="#907B00"/>
<path d="M362.38 418.521L361.013 417.709C375.848 399.269 407.77 373.463 408.091 373.206L409.133 374.34C408.816 374.597 377.072 400.262 362.38 418.521Z" fill="#907B00"/>
<path d="M363.989 420.738L362.498 420.097C366.865 413.305 375.945 402.145 394.432 387.553C405.454 378.845 414.754 372.947 414.846 372.889L415.682 374.171C415.591 374.228 406.377 380.071 395.438 388.714C385.363 396.665 371.741 408.675 363.989 420.738Z" fill="#907B00"/>
<path d="M361.283 418.03L360.18 416.947C360.249 416.887 367.307 410.722 375.811 400.705C383.646 391.477 394.346 376.998 400.835 360.418L402.489 360.733C395.904 377.565 385.055 392.243 377.114 401.591C368.51 411.72 361.353 417.968 361.283 418.03Z" fill="#907B00"/>
<path d="M364.158 418.419L362.852 417.535L415.955 356.91L417.262 357.792L364.158 418.419Z" fill="#907B00"/>
<path d="M364.301 410.138L362.809 406.007L415.779 348.029L417.084 348.913L364.301 410.138Z" fill="#907B00"/>
<path d="M366.46 397.115C366.46 397.115 362.526 400.984 359.597 407.695C359.536 407.926 359.472 408.176 359.405 408.424C358.68 411.05 356.285 412.837 353.62 412.312C352.338 412.059 351.208 411.308 350.479 410.223C349.751 409.138 349.482 407.809 349.732 406.526C350.086 404.726 351.916 403.419 354.323 402.444C354.323 402.444 354.323 402.444 354.337 402.444C354.624 402.313 359.266 400.117 363.565 394.848C363.556 394.831 366.062 394.69 366.46 397.115Z" fill="white"/>
<path d="M373.927 399.012C373.927 399.012 369.322 404.311 367.911 409.391C367.189 412.017 364.792 413.806 362.126 413.278C360.844 413.025 359.715 412.274 358.986 411.19C358.257 410.105 357.988 408.776 358.238 407.493C358.511 406.105 359.879 404.994 361.624 404.022H361.64C361.723 403.983 362.149 403.779 362.811 403.411C364.604 402.416 368.117 400.232 371.093 396.976C371.079 396.957 373.687 396.61 373.927 399.012Z" fill="white"/>
<path d="M362.797 403.393C362.135 403.761 361.709 403.964 361.626 404.003C361.999 403.793 362.394 403.592 362.797 403.393Z" fill="white"/>
<path d="M374.318 407.84C374.318 407.84 368.427 414.99 366.319 421.613C365.597 424.239 363.031 425.996 360.358 425.468C359.076 425.216 357.946 424.465 357.216 423.38C356.487 422.296 356.218 420.966 356.468 419.683C356.982 417.082 361.328 415.055 364.428 412.891C366.458 410.899 368.913 408.414 371.257 405.845C371.257 405.836 374.075 405.44 374.318 407.84Z" fill="white"/>
<path d="M400.372 394.274L385.643 424.125C382.64 430.211 377.995 435.336 372.231 438.92C366.467 442.503 359.816 444.403 353.029 444.403H249.537C240.678 444.402 232.024 441.732 224.705 436.741C217.385 431.75 211.739 424.669 208.503 416.422L182.53 349.861L291.111 391.585C295.739 393.363 300.653 394.274 305.611 394.274H400.372Z" fill="#C8D9D2"/>
<path d="M400.372 394.273L385.643 424.124C382.64 430.211 377.995 435.335 372.231 438.919C366.467 442.502 359.816 444.402 353.029 444.402H347.707C338.848 444.402 330.195 441.732 322.875 436.742C315.556 431.752 309.91 424.672 306.673 416.426L297.676 393.484C300.29 394.01 302.949 394.274 305.615 394.273H400.372Z" fill="#E5F1EF"/>
<path d="M185.805 348.427H175.551C175.278 348.423 175.013 348.516 174.802 348.689C174.591 348.862 174.448 349.104 174.398 349.372C174.348 349.641 174.395 349.918 174.529 350.155C174.664 350.393 174.879 350.575 175.135 350.669L291.331 395.318C296.305 397.229 301.587 398.209 306.916 398.208H407.726C407.934 398.208 408.135 398.135 408.295 398.002C408.454 397.869 408.562 397.684 408.599 397.48C408.637 397.275 408.601 397.064 408.499 396.883C408.397 396.702 408.235 396.563 408.041 396.489L396.279 391.963" stroke="#423C52" stroke-width="1.24055" stroke-miterlimit="10"/>
<path d="M364.044 490.415C378.305 490.415 389.866 475.344 389.866 456.753C389.866 438.162 378.305 423.091 364.044 423.091C349.783 423.091 338.222 438.162 338.222 456.753C338.222 475.344 349.783 490.415 364.044 490.415Z" fill="#423C52"/>
<path d="M356.246 487.281C366.2 487.281 374.27 473.613 374.27 456.752C374.27 439.892 366.2 426.224 356.246 426.224C346.292 426.224 338.222 439.892 338.222 456.752C338.222 473.613 346.292 487.281 356.246 487.281Z" fill="white" stroke="#423C52" stroke-width="1.24055" stroke-miterlimit="10" stroke-linecap="round"/>
<path d="M355.653 463.073C357.715 463.073 359.386 460.243 359.386 456.753C359.386 453.263 357.715 450.434 355.653 450.434C353.592 450.434 351.921 453.263 351.921 456.753C351.921 460.243 353.592 463.073 355.653 463.073Z" fill="white" stroke="#423C52" stroke-width="1.24055" stroke-miterlimit="10" stroke-linecap="round"/>
<path d="M106.757 280.373H122.805C131.349 280.371 139.621 283.371 146.178 288.85C152.734 294.328 157.156 301.936 158.672 310.344L192.499 481.262C192.804 482.95 193.693 484.477 195.01 485.577C196.326 486.676 197.987 487.279 199.702 487.279V487.279C201.268 487.278 202.792 486.776 204.051 485.845C205.311 484.915 206.239 483.606 206.7 482.109L226.443 410.375C226.826 408.982 227.507 407.69 228.438 406.586C229.369 405.482 230.529 404.593 231.837 403.981C233.145 403.369 234.571 403.049 236.015 403.041C237.459 403.033 238.888 403.339 240.202 403.937L356.253 456.748" stroke="#423C52" stroke-width="1.24055" stroke-miterlimit="10" stroke-linecap="round"/>
<path d="M165.561 215.452C164.117 215.304 155.957 214.968 146.394 224.544C137.177 233.774 135.749 241.168 135.55 242.885C112.526 204.745 112.625 151.3 107.867 136.15L115.83 136.167C126.012 136.187 136.045 142.303 138.468 152.182C144.723 177.689 155.425 199.224 165.561 215.452Z" fill="#E5F1EF"/>
<path d="M165.56 215.453C164.116 215.305 155.957 214.969 146.393 224.545C137.177 233.775 135.749 241.169 135.55 242.886C132.874 238.423 130.489 233.792 128.409 229.022C129.036 226.245 131.299 219.711 139.34 211.898C146.405 205.04 154.074 203.415 158.162 203.105C158.9 203.05 159.636 203.234 160.262 203.63C160.887 204.026 161.368 204.613 161.634 205.304L165.56 215.453Z" fill="#C8D9D2"/>
<path d="M220.505 286.234L200.141 286.806C199.255 286.831 198.381 286.586 197.637 286.103C196.893 285.621 196.314 284.923 195.976 284.103L194.588 280.704L181.256 280.498C162.05 271.98 147.935 261.331 135.513 243.263C135.513 243.263 135.846 235.108 146.389 224.545C156.932 213.981 165.542 215.481 165.542 215.481C179.657 238.887 193.31 252.142 199.308 257.334L209.689 257.448C211.815 257.472 213.884 258.143 215.62 259.372C217.356 260.6 218.677 262.328 219.408 264.325L224.985 279.572C225.253 280.307 225.345 281.096 225.25 281.873C225.156 282.651 224.879 283.395 224.442 284.045C224.005 284.694 223.421 285.231 222.736 285.612C222.052 285.993 221.287 286.206 220.505 286.234Z" fill="#EB7500"/>
<path d="M214.447 286.436C215.23 286.408 215.996 286.196 216.681 285.816C217.367 285.435 217.953 284.898 218.39 284.248C218.828 283.598 219.106 282.853 219.201 282.075C219.296 281.297 219.205 280.507 218.936 279.771L215.851 271.339" stroke="#423C52" stroke-width="1.24055" stroke-miterlimit="10" stroke-linecap="round"/>
<path d="M207.717 286.565C208.501 286.537 209.267 286.325 209.952 285.944C210.638 285.564 211.223 285.026 211.661 284.376C212.099 283.725 212.376 282.98 212.47 282.202C212.565 281.424 212.474 280.634 212.204 279.898L209.122 271.466" stroke="#423C52" stroke-width="1.24055" stroke-miterlimit="10" stroke-linecap="round"/>
<path d="M201.24 286.773C202.024 286.745 202.79 286.532 203.475 286.152C204.161 285.771 204.746 285.234 205.184 284.584C205.622 283.933 205.9 283.189 205.995 282.41C206.089 281.632 205.999 280.843 205.73 280.106L202.645 271.674" stroke="#423C52" stroke-width="1.24055" stroke-miterlimit="10" stroke-linecap="round"/>
<path d="M181.252 280.498H194.581V278.452C194.58 276.776 193.914 275.168 192.728 273.983C191.543 272.798 189.935 272.132 188.259 272.132H187.037L182.319 268.842" stroke="#423C52" stroke-width="1.24055" stroke-miterlimit="10" stroke-linecap="round"/>
<path d="M149.386 469.68C145.768 469.243 142.127 469.026 138.482 469.03C120.257 469.03 104.564 474.308 97.5243 481.893C97.4988 481.694 97.4803 481.495 97.4734 481.292L91.1005 321.101L65.1581 469.245C61.4058 468.779 57.6282 468.547 53.8471 468.551C35.0318 468.551 18.9193 474.176 12.2295 482.155C12.0061 481.247 11.9535 480.305 12.0744 479.378L47.0161 242.765L45.1256 162.609C46.6852 147.531 52.2528 136.072 67.4142 136.072H117.663C120.796 136.072 123.811 137.266 126.096 139.41C128.38 141.554 129.762 144.488 129.96 147.615L149.386 469.68Z" fill="#FE552F"/>
<path d="M102.575 481.898C102.548 481.699 102.531 481.498 102.525 481.297L102.478 479.934" stroke="#423C52" stroke-width="1.24055" stroke-miterlimit="10" stroke-linecap="round"/>
<path d="M102.353 475.975L96.2927 295.872" stroke="#423C52" stroke-width="1.24055" stroke-miterlimit="10" stroke-linecap="round" stroke-dasharray="4.25 4.25"/>
<path d="M96.2255 293.894L96.1584 291.927" stroke="#423C52" stroke-width="1.24055" stroke-miterlimit="10" stroke-linecap="round"/>
<path d="M17.8567 479.384L18.1413 477.438" stroke="#423C52" stroke-width="1.24055" stroke-miterlimit="10" stroke-linecap="round"/>
<path d="M18.7059 473.583L52.1111 245.083L48.7651 166.524" stroke="#423C52" stroke-width="1.24055" stroke-miterlimit="10" stroke-linecap="round" stroke-dasharray="4.18 4.18"/>
<path d="M48.6816 164.581L48.5983 162.614" stroke="#423C52" stroke-width="1.24055" stroke-miterlimit="10" stroke-linecap="round"/>
<path d="M65.1461 469.276L97.6465 282.25" stroke="#423C52" stroke-width="1.24055" stroke-miterlimit="10" stroke-linecap="round"/>
<path d="M69.9198 259.366C69.9198 271.302 59.6734 280.977 47.0342 280.977" stroke="#423C52" stroke-width="1.24055" stroke-miterlimit="10" stroke-linecap="round"/>
<path d="M85.6829 272.648C72.9443 262.954 55.4063 248.582 46.9161 235.147L46.2358 210.956L85.6829 272.648Z" fill="#423C52"/>
<path d="M114.435 282.117H95.3971" stroke="#423C52" stroke-width="1.24055" stroke-miterlimit="10" stroke-linecap="round"/>
<path d="M118.94 145.023V178.808H92.6852L87.1315 155.578C84.3987 144.149 76.5912 136.089 64.8406 136.089H109.98C112.353 136.087 114.629 137.027 116.309 138.702C117.989 140.377 118.935 142.651 118.94 145.023Z" fill="#E5F1EF"/>
<path d="M158.952 487.924H104.367C102.69 487.924 101.069 487.314 99.8092 486.207C98.5491 485.099 97.7353 483.571 97.5199 481.908C104.564 474.322 120.257 469.044 138.478 469.044C142.122 469.04 145.764 469.258 149.382 469.694V469.729L161.139 482.202C163.391 484.203 161.968 487.924 158.952 487.924Z" fill="#423C52"/>
<path d="M74.9118 487.923H19.5882C17.8929 487.924 16.2464 487.356 14.9117 486.311C13.577 485.265 12.6311 483.803 12.225 482.157C18.9148 474.178 35.0273 468.553 53.8426 468.553C57.6237 468.549 61.4013 468.781 65.1536 469.247V469.272L77.3207 482.407C77.7542 482.876 78.0417 483.461 78.148 484.09C78.2544 484.72 78.1749 485.367 77.9193 485.953C77.6638 486.538 77.2432 487.036 76.7091 487.386C76.1749 487.736 75.5504 487.923 74.9118 487.923Z" fill="#423C52"/>
<path d="M90.0216 212.4C89.9892 212.344 89.9522 212.291 89.9152 212.238C87.4207 208.831 78.5186 211.18 70.0308 217.486C62.0104 223.442 57.2273 230.796 58.824 234.464C43.1095 215.405 39.5089 192.828 36.3456 171.844C33.5688 153.468 42.7716 141.024 56.6372 139.7C63.8824 139.006 75.8089 143.171 78.0998 158.962C81.2307 180.529 85.4977 198.175 90.0216 212.4Z" fill="#E5F1EF"/>
<path d="M89.9125 212.238C87.4203 208.831 78.5182 211.18 70.0281 217.486C61.5379 223.791 56.6785 231.664 59.1707 235.072L52.2957 225.414C49.8729 221.63 54.1076 211.657 63.5372 205.513C72.9669 199.369 85.4279 197.21 86.932 201.968L89.9125 212.238Z" fill="#C8D9D2"/>
<path d="M108.73 282.83C100.392 282.736 92.3995 279.486 86.3629 273.733C74.7928 262.668 65.8699 249.036 58.9464 234.719C58.9094 234.638 58.8677 234.559 58.8284 234.487C57.2317 230.82 62.0148 223.466 70.0352 217.51C78.6433 211.114 87.6796 208.788 90.0214 212.419V212.43C90.1972 212.986 90.3476 213.541 90.5513 214.078C97.8867 233.428 110.167 253.553 114.538 259.481L127.224 259.648C129.35 259.672 131.419 260.343 133.155 261.572C134.891 262.8 136.212 264.528 136.943 266.525L142.52 281.772C142.789 282.508 142.88 283.297 142.785 284.075C142.69 284.853 142.413 285.597 141.975 286.247C141.537 286.897 140.952 287.434 140.267 287.815C139.581 288.195 138.816 288.407 138.033 288.434L117.669 289.006C116.783 289.031 115.909 288.786 115.165 288.304C114.421 287.821 113.842 287.123 113.504 286.303L112.116 282.901L108.73 282.83Z" fill="#EB7500"/>
<path d="M131.977 288.606C132.76 288.578 133.526 288.365 134.211 287.985C134.897 287.604 135.483 287.067 135.921 286.417C136.358 285.766 136.636 285.022 136.731 284.243C136.826 283.465 136.735 282.676 136.466 281.939L133.381 273.507" stroke="#423C52" stroke-width="1.24055" stroke-miterlimit="10" stroke-linecap="round"/>
<path d="M125.252 288.735C126.036 288.707 126.802 288.494 127.487 288.114C128.173 287.733 128.758 287.196 129.196 286.546C129.634 285.895 129.912 285.151 130.007 284.372C130.101 283.594 130.011 282.804 129.742 282.068L126.657 273.636" stroke="#423C52" stroke-width="1.24055" stroke-miterlimit="10" stroke-linecap="round"/>
<path d="M118.773 288.941C119.556 288.914 120.322 288.702 121.008 288.321C121.693 287.941 122.279 287.404 122.717 286.754C123.155 286.104 123.433 285.359 123.527 284.581C123.622 283.803 123.531 283.013 123.262 282.277L120.178 273.845" stroke="#423C52" stroke-width="1.24055" stroke-miterlimit="10" stroke-linecap="round"/>
<path d="M111.063 278.828L114.131 287.163" stroke="#423C52" stroke-width="1.24055" stroke-miterlimit="10" stroke-linecap="round"/>
<path d="M107.867 259.484H114.538" stroke="#423C52" stroke-width="1.24055" stroke-miterlimit="10" stroke-linecap="round"/>
<path d="M101.092 116.867C117.631 109.003 129.649 99.7035 127.933 96.0955C126.218 92.4876 111.419 95.9378 94.8798 103.802C78.3405 111.666 66.3234 120.966 68.0389 124.574C69.7544 128.182 84.5529 124.731 101.092 116.867Z" fill="#423C52"/>
<path d="M66.4487 124.335C68.2999 128.158 83.7552 124.733 100.983 116.424C118.211 108.114 130.679 98.0642 128.835 94.2414C126.99 90.4187 111.53 94.0563 94.3025 102.366C77.0747 110.676 64.6044 120.512 66.4487 124.335Z" stroke="#423C52" stroke-width="0.744329" stroke-miterlimit="10"/>
<path d="M87.3767 105.866L87.2749 102.842C87.1569 99.3154 89.5589 96.1313 93.1803 95.0021L98.7779 93.2712C100.185 92.83 101.679 92.7375 103.13 93.0015C104.581 93.2656 105.947 93.8782 107.108 94.7868L108.839 96.1753" stroke="#423C52" stroke-width="0.744329" stroke-miterlimit="10" stroke-linecap="round"/>
<path d="M106.072 136.498V124.89L89.5702 116.282L79.7634 136.488C79.7634 136.488 93.2773 147.022 106.072 136.498Z" fill="#EB7500"/>
<path d="M106.071 136.498V124.9L89.5702 116.292L87.8138 119.909L106.071 136.498Z" fill="#423C52"/>
<path d="M107.103 100.172C110.466 98.8688 118.815 98.7832 115.332 104.212C111.794 109.724 102.716 107.384 97.977 105.966L96.3919 105.485C95.5421 106.079 94.9557 106.98 94.7559 107.998L94.1427 111.103H89.9774L89.9196 110.64C89.6442 108.389 91.1367 106.706 93.2656 105.92L107.103 100.172Z" fill="#FFDB00"/>
<path d="M104.588 126.66H101.3C99.8116 126.661 98.3541 126.236 97.0995 125.435C95.8449 124.634 94.8454 123.491 94.2191 122.141L92.6849 118.844H90.0076C88.9532 118.844 87.942 118.425 87.1965 117.679C86.451 116.934 86.0321 115.922 86.0321 114.868C86.0321 113.814 86.451 112.803 87.1965 112.057C87.942 111.311 88.9532 110.893 90.0076 110.893H94.1867L94.756 107.998C94.9558 106.979 95.5431 106.077 96.3943 105.482C99.1711 106.311 105.514 108.449 110.399 107.408C110.244 111.532 110.374 115.663 110.787 119.769C110.881 120.639 110.79 121.518 110.521 122.35C110.252 123.182 109.811 123.949 109.226 124.599C108.641 125.249 107.926 125.769 107.127 126.124C106.328 126.479 105.463 126.662 104.588 126.66Z" fill="#EB7500"/>
<path d="M110.443 110.858C110.443 110.858 107.643 110.131 106.206 112.542C105.257 114.134 105.961 120.056 105.961 120.056" stroke="#423C52" stroke-width="0.992438" stroke-miterlimit="10" stroke-linecap="round"/>
<path d="M102.112 110.874C102.112 110.874 99.2291 110.446 96.7716 112.031" stroke="#423C52" stroke-width="0.992438" stroke-miterlimit="10" stroke-linecap="round"/>
<path d="M108.803 115.653C109.125 115.631 109.353 115.112 109.312 114.494C109.271 113.875 108.976 113.392 108.653 113.413C108.33 113.435 108.102 113.953 108.144 114.572C108.185 115.19 108.48 115.674 108.803 115.653Z" fill="#423C52"/>
<path d="M100.492 115.882C100.835 115.859 101.077 115.306 101.033 114.647C100.989 113.988 100.676 113.472 100.333 113.495C99.9896 113.518 99.7472 114.071 99.7913 114.73C99.8353 115.389 100.149 115.905 100.492 115.882Z" fill="#423C52"/>
<path d="M92.5206 115.709C92.5302 115.303 92.4585 114.899 92.3097 114.521C92.161 114.144 91.9382 113.799 91.6544 113.509C91.3707 113.219 91.0317 112.988 90.6575 112.83C90.2833 112.673 89.8814 112.592 89.4753 112.592" stroke="#423C52" stroke-width="0.992438" stroke-miterlimit="10" stroke-linecap="round"/>
<g filter="url(#filter0_d)">
<path d="M416.031 553.751C506.589 553.751 580 550.62 580 546.758C580 542.896 506.589 539.765 416.031 539.765C325.473 539.765 252.062 542.896 252.062 546.758C252.062 550.62 325.473 553.751 416.031 553.751Z" fill="#E5F1EF"/>
<path d="M328.737 442.775C335.258 443.825 343.526 444.457 352.148 444.457C362.291 444.457 373.9 443.575 381.319 442.229L375.043 479.292C368.717 480.28 360.058 480.893 350.515 480.893C340.22 480.893 330.959 480.183 324.542 479.054L328.737 442.775Z" fill="#A0505A"/>
<path d="M385.26 476.05L379.162 546.746H363.6C363.209 542.949 358.787 539.959 353.393 539.959C347.999 539.959 343.577 542.949 343.186 546.746H289.67V546.725C289.671 545.451 290.027 544.201 290.697 543.117C291.367 542.032 292.325 541.155 293.465 540.584C299.271 537.664 309.964 531.52 312.609 524.742C317.457 512.323 315.541 477.397 315.423 475.37C315.726 478.427 331.315 480.891 350.501 480.891C368.252 480.891 382.911 478.786 385.26 476.05Z" fill="#FE552F"/>
<path d="M350.503 480.893C369.88 480.893 385.588 478.379 385.588 475.279C385.588 472.178 369.88 469.665 350.503 469.665C331.126 469.665 315.418 472.178 315.418 475.279C315.418 478.379 331.126 480.893 350.503 480.893Z" fill="#907B00"/>
<path d="M324.533 479.053C330.95 480.182 340.21 480.89 350.503 480.89C360.055 480.89 368.717 480.279 375.032 479.289L376.42 471.363C370.031 470.292 360.481 469.665 350.503 469.665C340.678 469.665 331.794 470.313 325.424 471.352L324.533 479.053Z" fill="#423C52"/>
<path d="M289.344 543.216H339.444C339.706 543.215 339.961 543.133 340.173 542.979C340.385 542.826 340.544 542.61 340.627 542.362C341.784 538.982 347.041 536.432 353.354 536.432C359.667 536.432 364.924 538.977 366.081 542.362C366.164 542.61 366.322 542.826 366.534 542.98C366.745 543.133 367 543.216 367.261 543.216H379.641" stroke="white" stroke-width="1.24055" stroke-miterlimit="10"/>
<path d="M315.423 480.309C315.726 483.365 331.315 485.83 350.501 485.83C368.247 485.83 382.911 483.724 385.26 480.989" stroke="white" stroke-width="1.24055" stroke-miterlimit="10" stroke-linecap="round"/>
<path d="M548.074 546.726V546.747H494.558C494.166 542.95 489.747 539.96 484.35 539.96C478.954 539.96 474.534 542.95 474.143 546.747H458.581L452.482 476.051C454.828 478.787 469.494 480.892 487.236 480.892C506.426 480.892 522.016 478.428 522.319 475.371C522.201 477.398 520.285 512.324 525.133 524.743C527.775 531.521 538.471 537.665 544.277 540.585C545.416 541.156 546.375 542.033 547.046 543.117C547.716 544.202 548.072 545.451 548.074 546.726Z" fill="#FE552F"/>
<path d="M452.482 480.992C454.828 483.727 469.494 485.833 487.236 485.833C506.426 485.833 522.485 483.368 522.789 480.312" stroke="white" stroke-width="1.24055" stroke-miterlimit="10" stroke-linecap="round"/>
<path d="M548.24 543.218H498.139C497.878 543.217 497.623 543.134 497.411 542.981C497.199 542.828 497.04 542.612 496.957 542.364C495.8 538.984 490.543 536.434 484.23 536.434C477.917 536.434 472.66 538.979 471.503 542.364C471.42 542.612 471.262 542.828 471.05 542.982C470.839 543.135 470.584 543.218 470.323 543.218H457.943" stroke="white" stroke-width="1.24055" stroke-miterlimit="10"/>
<path d="M487.24 480.895C506.617 480.895 522.326 478.381 522.326 475.281C522.326 472.18 506.617 469.667 487.24 469.667C467.863 469.667 452.155 472.18 452.155 475.281C452.155 478.381 467.863 480.895 487.24 480.895Z" fill="#907B00"/>
<path d="M513.213 479.055C506.794 480.184 497.536 480.895 487.241 480.895C477.688 480.895 469.029 480.281 462.712 479.293L458.729 442.579C465.521 443.322 472.349 443.685 479.181 443.667C490.982 443.667 501.872 442.741 508.569 441.302H508.844L513.213 479.055Z" fill="#A0505A"/>
<path d="M513.211 479.055C506.794 480.184 497.533 480.892 487.238 480.892C477.688 480.892 469.027 480.281 462.709 479.291L461.853 471.407C468.242 470.336 477.258 469.667 487.245 469.667C497.073 469.667 505.956 470.315 512.327 471.354L513.211 479.055Z" fill="#423C52"/>
<path d="M517.079 96.9151C517.079 115.15 501.927 129.932 483.235 129.932C464.542 129.932 449.39 115.145 449.39 96.9151C449.385 92.6192 450.24 88.3658 451.905 84.4055C450.592 84.6926 449.251 84.8369 447.906 84.836C437.361 84.836 428.811 76.0427 428.811 65.1853C428.811 55.7209 435.314 47.8301 443.97 45.9535L414.962 44.9191C414.962 44.9191 406.129 44.8381 407.027 38.6157C407.388 36.112 409.209 35.0568 411.118 34.7814C407.272 31.7547 403.778 26.0737 411.662 24.3845C421.011 22.3829 438.065 28.6006 442.61 33.6915C445.68 37.1371 445.882 43.9611 445.884 45.6341C446.556 45.5616 447.231 45.5253 447.906 45.5254C458.451 45.5254 466.999 54.3187 466.999 65.176C466.999 66.133 466.932 67.0887 466.798 68.0362C471.842 65.3037 477.491 63.8781 483.228 63.8894C501.927 63.8987 517.079 78.6807 517.079 96.9151Z" fill="#FFDB00"/>
<path d="M531.144 123.821C535.365 123.821 538.787 120.399 538.787 116.177C538.787 111.956 535.365 108.534 531.144 108.534C526.923 108.534 523.501 111.956 523.501 116.177C523.501 120.399 526.923 123.821 531.144 123.821Z" fill="#FFDB00"/>
<path d="M448.938 440.959C455.175 442.486 466.416 443.674 479.173 443.674C490.975 443.674 501.862 442.748 508.562 441.311L508.83 441.253L508.087 434.623L468.649 83.457H379.703L315.181 437.322C315.181 441.255 332.768 444.458 352.148 444.458C365.023 444.458 380.249 443.035 386.31 441.047C388.59 440.523 390.658 439.32 392.24 437.595C393.822 435.87 394.843 433.706 395.168 431.388L415.054 256.217C415.362 254.023 418.548 254.072 418.787 256.275L437.489 428.149C437.715 431.215 439.509 438.645 448.938 440.959Z" fill="#C8D9D2"/>
<path d="M400.499 83.8525C400.499 83.8525 398.373 103.214 427.775 103.214C453.812 103.214 457.531 83.8525 457.531 83.8525" stroke="white" stroke-width="1.24055" stroke-miterlimit="10" stroke-linecap="round"/>
<path d="M396.432 154.715C396.756 151.566 403.251 147.324 407.25 147.324L411.184 147.87C407.576 149.178 403.804 151.573 404.205 155.807L396.432 154.715Z" fill="#423C52"/>
<path d="M433.739 193.261C436.594 176.539 430.281 161.51 419.639 159.692C408.996 157.875 398.054 169.958 395.199 186.68C392.343 203.402 398.656 218.431 409.298 220.248C419.941 222.066 430.883 209.983 433.739 193.261Z" fill="#FF7500"/>
<path d="M393.594 186.406C396.449 169.684 390.136 154.655 379.494 152.838C368.851 151.021 357.909 163.103 355.054 179.825C352.199 196.548 358.511 211.577 369.154 213.394C379.796 215.211 390.738 203.128 393.594 186.406Z" fill="#FF7500"/>
<path d="M413.153 189.589C416.221 171.621 410.28 155.616 399.883 153.841C389.487 152.066 378.571 165.192 375.503 183.16C372.435 201.128 378.376 217.133 388.773 218.909C399.17 220.684 410.085 207.557 413.153 189.589Z" fill="#FF7500"/>
<path d="M376.173 206.61C373.909 200.202 373.262 191.902 374.759 183.136C376.628 172.177 381.418 163.018 387.229 157.943" stroke="white" stroke-width="1.24055" stroke-miterlimit="10" stroke-linecap="round"/>
<path d="M410.468 162C414.222 168.711 415.441 178.892 413.581 189.798C411.73 200.63 407.032 209.699 401.317 214.813" stroke="white" stroke-width="1.24055" stroke-miterlimit="10" stroke-linecap="round"/>
<path d="M380.807 245.286L350.526 243.493L352.823 230.884L380.807 245.286Z" fill="#423C52"/>
<path d="M368.267 147.08L350.665 166.664C349.923 167.488 349.379 168.47 349.071 169.535C348.764 170.6 348.702 171.721 348.89 172.813C349.078 173.906 349.511 174.941 350.157 175.842C350.802 176.744 351.644 177.487 352.618 178.016L399.423 203.47L380.819 244.586L318.109 214.325C289.827 200.673 284.157 162.843 307.196 141.505L361.309 91.3746C366.313 86.7399 372.882 84.1647 379.703 84.1641L368.267 147.08Z" fill="white"/>
<path d="M293.478 166.847V181.365C293.367 180.698 293.274 180.032 293.196 179.361C293.149 178.97 293.108 178.579 293.073 178.185C292.862 175.852 292.833 173.505 292.985 171.167C293.011 170.774 293.041 170.382 293.078 169.991C293.173 168.939 293.307 167.891 293.478 166.847Z" fill="#E5F1EF"/>
<path d="M301.67 147.609V200.811C301.265 200.265 300.874 199.71 300.494 199.147V149.255C300.871 148.699 301.265 148.149 301.67 147.609Z" fill="#E5F1EF"/>
<path d="M309.866 139.015V209.213C309.466 208.898 309.075 208.581 308.69 208.257V140.102L309.866 139.015Z" fill="#E5F1EF"/>
<path d="M318.058 131.426V214.305C317.66 214.113 317.271 213.916 316.882 213.715V132.516L318.058 131.426Z" fill="#E5F1EF"/>
<path d="M326.254 123.838V218.259L325.078 217.692V124.925L326.254 123.838Z" fill="#E5F1EF"/>
<path d="M334.448 116.248V222.212L333.272 221.645V117.336L334.448 116.248Z" fill="#E5F1EF"/>
<path d="M342.639 108.662V226.163L341.464 225.597V109.75L342.639 108.662Z" fill="#E5F1EF"/>
<path d="M350.836 101.072V166.46L350.653 166.663C350.268 167.09 349.935 167.561 349.66 168.065V102.162L350.836 101.072Z" fill="#E5F1EF"/>
<path d="M350.836 176.678V230.12L349.66 229.553V175.079C349.976 175.664 350.372 176.202 350.836 176.678Z" fill="#E5F1EF"/>
<path d="M359.029 93.4824V157.347L357.854 158.654V94.5723L359.029 93.4824Z" fill="#E5F1EF"/>
<path d="M359.029 181.51V234.073L357.854 233.506V180.871L359.029 181.51Z" fill="#E5F1EF"/>
<path d="M367.224 87.2158V148.237L366.046 149.544V87.8406H366.069C366.448 87.6277 366.833 87.4148 367.224 87.2158Z" fill="#E5F1EF"/>
<path d="M367.221 185.967V238.028L366.046 237.459V185.326L367.221 185.967Z" fill="#E5F1EF"/>
<path d="M375.424 84.5068V107.742L374.57 112.435L374.358 113.61L374.249 114.21V84.722C374.633 84.641 375.022 84.5693 375.424 84.5068Z" fill="#E5F1EF"/>
<path d="M375.418 190.419V241.98L374.242 241.413V189.78L375.418 190.419Z" fill="#E5F1EF"/>
<path d="M383.609 194.874V238.386L382.434 240.985V194.237L383.054 194.573L383.609 194.874Z" fill="#E5F1EF"/>
<path d="M391.806 199.33V220.33H391.78L390.63 222.876V198.689L391.806 199.33Z" fill="#E5F1EF"/>
<path d="M399.412 203.465L399.199 203.939L398.824 204.763V203.146L399.412 203.465Z" fill="#E5F1EF"/>
<path d="M384.896 235.542L384.366 236.718H364.512L362.073 235.542H384.896Z" fill="#E5F1EF"/>
<path d="M388.605 227.346L388.073 228.521H347.527L345.09 227.346H388.605Z" fill="#E5F1EF"/>
<path d="M392.312 219.153L391.805 220.276V220.329H330.546L328.11 219.153H392.312Z" fill="#E5F1EF"/>
<path d="M396.019 210.96L395.487 212.135H314.087C313.47 211.756 312.861 211.364 312.261 210.96H396.019Z" fill="#E5F1EF"/>
<path d="M399.412 203.466L399.199 203.928H304.229C303.88 203.544 303.535 203.151 303.211 202.753H398.123L398.817 203.135L399.412 203.466Z" fill="#E5F1EF"/>
<path d="M385.215 195.749H298.425C298.211 195.36 298.003 194.968 297.801 194.573H383.061L383.616 194.874L385.215 195.749Z" fill="#E5F1EF"/>
<path d="M370.144 187.555H294.938C294.816 187.163 294.701 186.77 294.591 186.377H367.983L370.144 187.555Z" fill="#E5F1EF"/>
<path d="M355.075 179.36H293.196C293.15 178.969 293.108 178.578 293.073 178.185H352.914L355.075 179.36Z" fill="#E5F1EF"/>
<path d="M348.943 169.988C348.855 170.375 348.802 170.768 348.783 171.164H292.985C293.011 170.77 293.041 170.379 293.078 169.988H348.943Z" fill="#E5F1EF"/>
<path d="M355.031 161.794L353.971 162.969H294.295C294.394 162.578 294.501 162.185 294.614 161.794H355.031Z" fill="#E5F1EF"/>
<path d="M362.394 153.603L361.337 154.778H297.299C297.493 154.382 297.69 153.994 297.891 153.603H362.394Z" fill="#E5F1EF"/>
<path d="M368.57 145.409L368.355 146.585H302.461C302.77 146.187 303.092 145.795 303.428 145.409H368.57Z" fill="#E5F1EF"/>
<path d="M370.093 137.016L369.882 138.191H310.752L312.023 137.016H370.093Z" fill="#E5F1EF"/>
<path d="M371.586 128.819L371.37 129.995H319.603L320.874 128.819H371.586Z" fill="#E5F1EF"/>
<path d="M373.076 120.628L372.86 121.803H328.45L329.718 120.628H373.076Z" fill="#E5F1EF"/>
<path d="M374.564 112.435L374.351 113.61H337.299L338.567 112.435H374.564Z" fill="#E5F1EF"/>
<path d="M376.054 104.238L375.841 105.414H346.145L347.416 104.238H376.054Z" fill="#E5F1EF"/>
<path d="M377.544 96.0459L377.329 97.2214H354.992L356.262 96.0459H377.544Z" fill="#E5F1EF"/>
<path d="M379.034 87.8408L378.819 89.0163H364.225C364.817 88.6045 365.424 88.2188 366.046 87.8593V87.8408H379.034Z" fill="#E5F1EF"/>
<path d="M380.808 244.58L318.098 214.32C289.816 200.667 284.146 162.837 307.185 141.5L361.31 91.3736C366.314 86.7389 372.883 84.1638 379.704 84.1631" stroke="#FE552F" stroke-width="1.24055" stroke-miterlimit="10"/>
<path d="M368.267 147.079L350.664 166.663C349.923 167.487 349.379 168.469 349.071 169.534C348.764 170.599 348.702 171.72 348.89 172.812C349.078 173.905 349.511 174.94 350.157 175.842C350.802 176.743 351.643 177.486 352.617 178.015L399.423 203.469" stroke="#FE552F" stroke-width="1.24055" stroke-miterlimit="10"/>
<path d="M483.982 219.987L485.03 229.327L450.859 220.427L483.982 219.987Z" fill="#423C52"/>
<path d="M475.288 143.293L494.365 168.565C494.803 169.144 495.07 169.835 495.137 170.558C495.204 171.281 495.068 172.009 494.744 172.659C494.42 173.309 493.922 173.856 493.304 174.239C492.687 174.621 491.975 174.824 491.248 174.824H450.862V219.947H513.9C542.606 219.947 559.188 187.382 542.305 164.179L493.208 96.6656C490.392 92.7942 486.699 89.6439 482.433 87.4722C478.166 85.3005 473.446 84.1689 468.659 84.1699L475.288 143.293Z" fill="white"/>
<path d="M451.495 174.824H450.859V219.955H451.495V174.824Z" fill="#E5F1EF"/>
<path d="M459.689 174.824H458.514V219.955H459.689V174.824Z" fill="#E5F1EF"/>
<path d="M467.884 174.824H466.708V219.955H467.884V174.824Z" fill="#E5F1EF"/>
<path d="M476.084 85.0869V144.337L475.295 143.294L474.909 139.839V84.8115C475.295 84.8971 475.686 84.9874 476.084 85.0869Z" fill="#E5F1EF"/>
<path d="M476.077 174.824H474.902V219.955H476.077V174.824Z" fill="#E5F1EF"/>
<path d="M484.271 88.4924V155.194L483.959 154.777L483.096 153.634V87.8213L483.149 87.8491C483.529 88.055 483.904 88.2679 484.271 88.4924Z" fill="#E5F1EF"/>
<path d="M484.271 174.824H483.096V219.955H484.271V174.824Z" fill="#E5F1EF"/>
<path d="M492.465 95.7077V166.054L491.29 164.494V94.3008C491.697 94.7528 492.089 95.2218 492.465 95.7077Z" fill="#E5F1EF"/>
<path d="M492.465 174.64V219.955H491.29V174.832C491.689 174.825 492.085 174.761 492.465 174.64Z" fill="#E5F1EF"/>
<path d="M500.659 106.919V219.952H499.484V105.304L499.562 105.412L500.659 106.919Z" fill="#E5F1EF"/>
<path d="M508.853 118.186V219.952H507.678V116.568L508.853 118.186Z" fill="#E5F1EF"/>
<path d="M517.042 129.455V219.82C516.651 219.855 516.26 219.88 515.867 219.901V127.838L516.58 128.819L517.042 129.455Z" fill="#E5F1EF"/>
<path d="M525.241 140.717V218.133C524.852 218.265 524.461 218.387 524.065 218.505V139.1L525.241 140.717Z" fill="#E5F1EF"/>
<path d="M533.435 151.984V214.097C533.051 214.356 532.657 214.609 532.259 214.852V150.369L533.435 151.984Z" fill="#E5F1EF"/>
<path d="M541.629 162.968V206.405C541.249 206.897 540.858 207.379 540.453 207.851V161.631L540.571 161.793L541.425 162.968H541.629Z" fill="#E5F1EF"/>
<path d="M549.041 186.375C549.022 186.769 548.997 187.162 548.962 187.553C548.891 188.429 548.786 189.301 548.647 190.168V179.273L548.661 179.359C549.029 181.678 549.156 184.03 549.041 186.375Z" fill="#E5F1EF"/>
<path d="M537.436 210.959C536.994 211.359 536.54 211.753 536.077 212.134H450.861V210.959H537.436Z" fill="#E5F1EF"/>
<path d="M544.095 202.763C543.863 203.161 543.621 203.553 543.371 203.938H450.861V202.763H544.095Z" fill="#E5F1EF"/>
<path d="M547.654 194.572C547.539 194.968 547.423 195.357 547.289 195.748H450.861V194.572H547.654Z" fill="#E5F1EF"/>
<path d="M549.041 186.376C549.022 186.769 548.997 187.163 548.962 187.554H450.861V186.376H549.041Z" fill="#E5F1EF"/>
<path d="M548.661 179.36H450.861V178.185H548.457C548.527 178.548 548.594 178.909 548.65 179.274L548.661 179.36Z" fill="#E5F1EF"/>
<path d="M546.292 171.165H495.152C495.18 170.77 495.145 170.373 495.048 169.989H545.759C545.947 170.378 546.125 170.771 546.292 171.165Z" fill="#E5F1EF"/>
<path d="M541.425 162.969H490.14L489.253 161.794H540.571L541.425 162.969Z" fill="#E5F1EF"/>
<path d="M535.467 154.778H483.959L483.096 153.635L483.07 153.603H534.613L535.467 154.778Z" fill="#E5F1EF"/>
<path d="M529.506 146.584H477.771L476.885 145.408H528.649L529.506 146.584Z" fill="#E5F1EF"/>
<path d="M523.401 138.19H474.714L474.582 137.015H522.55L523.401 138.19Z" fill="#E5F1EF"/>
<path d="M517.443 129.994H473.796L473.664 128.818H516.587L517.049 129.455L517.443 129.994Z" fill="#E5F1EF"/>
<path d="M511.484 121.802H472.877L472.745 120.627H510.628L511.484 121.802Z" fill="#E5F1EF"/>
<path d="M505.523 113.609H471.954L471.822 112.434H504.667L505.523 113.609Z" fill="#E5F1EF"/>
<path d="M499.562 105.413H471.035L470.903 104.237H498.708L499.484 105.304L499.562 105.413Z" fill="#E5F1EF"/>
<path d="M493.604 97.2204H470.116L469.982 96.0449H492.745C492.903 96.2486 493.055 96.4545 493.208 96.6628L493.604 97.2204Z" fill="#E5F1EF"/>
<path d="M485.13 89.0242H469.193L469.061 87.8486H483.149C483.529 88.0546 483.903 88.2675 484.271 88.4919C484.561 88.6632 484.845 88.8414 485.13 89.0242Z" fill="#E5F1EF"/>
<path d="M468.649 84.1631C473.437 84.163 478.157 85.295 482.424 87.4666C486.69 89.6383 490.383 92.788 493.201 96.6588L542.3 164.17C559.192 187.382 542.603 219.938 513.898 219.938H452.229C459.689 194.556 452.162 174.815 452.162 174.815H491.25C491.975 174.814 492.685 174.611 493.301 174.23C493.918 173.848 494.415 173.302 494.739 172.654C495.062 172.005 495.199 171.279 495.133 170.558C495.068 169.836 494.802 169.147 494.367 168.567L475.288 143.293" stroke="#FE552F" stroke-width="1.24055" stroke-miterlimit="10"/>
<path d="M444.722 151.737C444.722 151.737 446.312 106.382 460.536 110.353C479.965 115.784 444.722 151.737 444.722 151.737Z" fill="#907B00"/>
<path d="M446.576 151.828C446.576 151.828 448.547 117.761 433.777 119.218C419.007 120.676 444.722 151.737 444.722 151.737L446.576 151.828Z" fill="#907B00"/>
<path d="M444.722 151.736C444.722 151.736 450.45 129.307 464.48 135.029C478.509 140.752 446.576 151.827 446.576 151.827L444.722 151.736Z" fill="#B59B00"/>
<path d="M445.664 152.209C445.664 152.209 438.514 137.603 429.2 144.704C426.101 147.078 445.664 152.209 445.664 152.209Z" fill="#B59B00"/>
<path d="M460.536 162.583C460.536 168.037 456.565 172.72 450.901 174.724C443.658 176.902 444.19 202.492 444.19 202.492C444.19 202.492 443.746 197.094 443.334 186.864C442.98 178.098 441.989 176.492 437.963 174.514C437.5 174.338 437.074 174.141 436.649 173.931C432.021 171.63 428.908 167.412 428.908 162.592C428.908 155.312 435.987 150.582 444.72 150.582C453.453 150.582 460.536 155.291 460.536 162.583Z" fill="#FE552F"/>
<path d="M472.928 165.692C472.928 165.692 506.481 137.484 487.064 132.424C472.701 128.68 471.505 164.505 471.505 164.505L472.928 165.692Z" fill="#907B00"/>
<path d="M471.505 164.506C471.505 164.506 486.28 137.015 494.782 144.741C509.712 158.309 471.505 164.506 471.505 164.506Z" fill="#B59B00"/>
<path d="M471.505 164.506C471.505 164.506 489.883 160.373 491.424 169.553C492.812 177.869 472.928 165.693 472.928 165.693L471.505 164.506Z" fill="#B59B00"/>
<path d="M471.97 165.448C471.97 165.448 470.484 143.643 463.353 147.188C459.861 148.93 471.97 165.448 471.97 165.448Z" fill="#B59B00"/>
<path d="M479.509 174.354H450.561C449.54 170.568 450.061 166.662 452.354 163.624C456.751 157.814 465.241 158.302 472.213 163.566C476.188 166.567 478.806 170.474 479.509 174.354Z" fill="#FE552F"/>
<path d="M450.463 174.615C449.262 170.682 449.727 166.567 452.12 163.399C456.517 157.589 465.007 158.077 471.977 163.342" stroke="white" stroke-width="1.24055" stroke-miterlimit="10" stroke-linecap="round"/>
<path d="M385.893 221.407C380.756 232.761 378.243 244.23 380.571 245.283C382.898 246.336 389.188 236.577 394.325 225.225C399.462 213.872 401.73 203.813 399.416 202.758C397.102 201.703 391.03 210.054 385.893 221.407Z" fill="#FE552F"/>
<path d="M428.711 224.148C428.218 228.311 426.196 232.144 423.037 234.901C417.548 239.7 407.515 245.52 393.853 241.223L386.86 239.098C384.083 238.258 381.346 237.421 380.425 237.134C381.399 232.77 383.315 227.105 385.893 221.398C388.878 214.801 392.171 209.22 394.866 205.895C396.676 206.434 398.622 207.012 400.161 207.466C401.764 207.929 402.938 208.276 403.035 208.294C406.954 208.958 410.984 208.351 414.533 206.561C414.533 206.561 418.023 207.572 412.849 213.889C407.674 220.207 420.543 220.369 427.131 210.229C427.131 210.252 430.079 212.61 428.711 224.148Z" fill="#A0505A"/>
<path d="M428.142 222.359C428.142 222.359 423.822 229.005 414.489 232.606" stroke="#423C52" stroke-width="1.24055" stroke-miterlimit="10" stroke-linecap="round"/>
<path d="M428.195 215.962C428.195 215.962 424.347 222.138 415.005 225.739" stroke="#423C52" stroke-width="1.24055" stroke-miterlimit="10" stroke-linecap="round"/>
<path d="M400.161 207.488C399.582 211.697 397.5 218.216 394.327 225.225C391.914 230.547 389.25 235.478 386.86 239.109C384.083 238.269 381.346 237.431 380.425 237.145C381.399 232.78 383.315 227.116 385.893 221.409C388.878 214.812 392.171 209.231 394.866 205.905C396.676 206.456 398.622 207.035 400.161 207.488Z" fill="#423C52"/>
<path d="M444.613 196.919C444.613 209.38 447.621 220.658 450.861 220.658C454.101 220.658 456.375 209.38 456.375 196.919C456.375 184.458 453.742 174.354 450.495 174.354C447.249 174.354 444.613 184.458 444.613 196.919Z" fill="#FE552F"/>
<path d="M450.725 174.385C453.865 174.847 456.373 184.765 456.373 196.93C456.391 200.946 456.131 204.958 455.596 208.938L441.249 208.82C433.317 207.348 420.779 204.131 406.77 189.497C403.181 185.753 403.66 172.482 404.199 165.432C404.228 165.051 404.367 164.687 404.599 164.385C404.832 164.082 405.148 163.854 405.508 163.729C405.869 163.603 406.258 163.586 406.628 163.679C406.998 163.772 407.333 163.971 407.592 164.252C412.541 169.606 420.087 176.247 424.28 175.528C431.836 174.243 419.421 166.32 424.139 162.363C424.139 162.363 442.901 174.248 446.192 174.378L450.725 174.385Z" fill="#A0505A"/>
<path d="M418.779 193.279C414.003 190.516 410.067 186.799 404.664 181.186" stroke="#423C52" stroke-width="1.24055" stroke-miterlimit="10" stroke-linecap="round"/>
<path d="M419.05 187.319C414.276 184.556 409.72 180.647 404.328 175.02" stroke="#423C52" stroke-width="1.24055" stroke-miterlimit="10" stroke-linecap="round"/>
<path d="M419.321 181.363C414.547 178.586 409.991 174.689 404.601 169.062" stroke="#423C52" stroke-width="1.24055" stroke-miterlimit="10" stroke-linecap="round"/>
<path d="M445.587 208.863C444.926 204.914 444.6 200.915 444.613 196.911C444.613 184.742 447.122 174.824 450.264 174.363H450.727C453.867 174.826 456.375 184.744 456.375 196.909C456.393 200.924 456.133 204.936 455.598 208.916L445.587 208.863Z" fill="#423C52"/>
<path d="M454.136 83.4567C454.136 83.4567 450.861 99.6872 427.923 99.6872C405.291 99.6872 403.857 87.2979 403.857 84.1671C403.854 83.9299 403.864 83.6928 403.887 83.4567C406.867 83.458 409.756 82.4363 412.073 80.5623C414.39 78.6884 415.993 76.0758 416.614 73.1616L420.365 55.5635H442.117V76.8779C442.117 77.742 442.287 78.5977 442.618 79.396C442.948 80.1944 443.433 80.9197 444.044 81.5306C444.656 82.1415 445.381 82.6261 446.18 82.9566C446.978 83.287 447.834 83.457 448.698 83.4567H454.136Z" fill="#A0505A"/>
<path d="M442.121 55.5645V79.2299L417.343 69.761L420.557 55.5645H442.121Z" fill="#423C52"/>
<path d="M442.219 44.2367C442.976 44.2214 443.73 44.3575 444.434 44.6368C445.138 44.9162 445.78 45.3334 446.321 45.8638C446.863 46.3942 447.292 47.0273 447.586 47.726C447.88 48.4246 448.031 49.1748 448.031 49.9326C448.031 50.6905 447.88 51.4407 447.586 52.1393C447.292 52.838 446.863 53.4711 446.321 54.0015C445.78 54.5319 445.138 54.9491 444.434 55.2285C443.73 55.5078 442.976 55.6439 442.219 55.6286H438.324L437.746 57.0402C436.506 60.0757 434.39 62.6733 431.668 64.5018C428.946 66.3303 425.741 67.3071 422.462 67.3075H420.266C419.151 67.306 418.051 67.0639 417.039 66.5977C416.027 66.1314 415.127 65.4521 414.402 64.6061C413.677 63.7601 413.143 62.7675 412.837 61.6961C412.531 60.6247 412.46 59.4998 412.629 58.3985L414.978 43.0774C415.321 40.8398 416.311 38.7513 417.826 37.0689C419.34 35.3866 421.314 34.1837 423.503 33.6084C424.262 35.4411 428.277 44.0516 436.924 44.276L442.219 44.2367Z" fill="#A0505A"/>
<path d="M439.291 51.3045C439.291 50.738 439.402 50.177 439.619 49.6535C439.835 49.1301 440.153 48.6545 440.554 48.2539C440.954 47.8533 441.43 47.5356 441.953 47.3189C442.477 47.1023 443.038 46.9909 443.604 46.9912" stroke="#423C52" stroke-width="1.24055" stroke-miterlimit="10" stroke-linecap="round"/>
<path d="M415.311 44.6084C415.311 44.6084 419.064 43.9142 420.726 47.2278C421.823 49.4123 420.337 57.1342 420.337 57.1342" stroke="#423C52" stroke-width="1.24055" stroke-miterlimit="10" stroke-linecap="round"/>
<path d="M426.252 45.7003C426.252 45.7003 430.086 45.4087 433.168 47.725" stroke="#423C52" stroke-width="1.24055" stroke-miterlimit="10" stroke-linecap="round"/>
<path d="M418.017 50.0264C418.13 49.2176 417.879 48.5143 417.458 48.4556C417.036 48.3969 416.603 49.0049 416.491 49.8138C416.378 50.6226 416.628 51.3259 417.05 51.3846C417.471 51.4433 417.904 50.8352 418.017 50.0264Z" fill="#423C52"/>
<path d="M428.995 51.0239C429.115 50.1607 428.849 49.4101 428.399 49.3475C427.95 49.2849 427.488 49.934 427.368 50.7973C427.248 51.6605 427.514 52.4111 427.964 52.4737C428.413 52.5363 428.875 51.8872 428.995 51.0239Z" fill="#423C52"/>
<path d="M437.009 44.2723C424.215 44.4852 420.633 38.6006 421.08 34.5418C421.846 34.1425 422.656 33.8319 423.493 33.6162C424.25 35.4397 428.459 43.9599 437.009 44.2723Z" fill="#423C52"/>
</g>
<defs>
<filter id="filter0_d" x="223.529" y="0.181487" width="377.56" height="579.372" filterUnits="userSpaceOnUse" color-interpolation-filters="sRGB">
<feFlood flood-opacity="0" result="BackgroundImageFix"/>
<feColorMatrix in="SourceAlpha" type="matrix" values="0 0 0 0 0 0 0 0 0 0 0 0 0 0 0 0 0 0 127 0"/>
<feOffset dx="-3.72164" dy="0.992438"/>
<feGaussianBlur stdDeviation="12.4055"/>
<feColorMatrix type="matrix" values="0 0 0 0 0 0 0 0 0 0 0 0 0 0 0 0 0 0 0.25 0"/>
<feBlend mode="normal" in2="BackgroundImageFix" result="effect1_dropShadow"/>
<feBlend mode="normal" in="SourceGraphic" in2="effect1_dropShadow" result="shape"/>
</filter>
</defs>
</svg>
