<svg width="450" height="449" viewBox="0 0 450 449" fill="none" xmlns="http://www.w3.org/2000/svg">
<path d="M288.571 232.297L254.004 225.813C250.017 225.065 245.915 225.96 242.511 228.32C239.106 230.68 236.648 234.333 235.623 238.556C233.107 248.921 229.059 262.623 221.75 262.623C210.781 262.623 196.298 237.062 196.298 237.062L179.241 249.092C179.241 249.092 197.892 292.885 220.8 293.868C240.416 294.711 244.897 278.099 244.897 278.099V287.726L299.859 299.41C299.859 299.41 305.811 324.236 313.401 332.123L333.568 323.505C326.463 311.366 313.341 271.948 307.124 249.975C305.85 245.466 303.441 241.426 300.166 238.305C296.89 235.184 292.877 233.104 288.571 232.297Z" fill="white" stroke="#FE552F" stroke-width="1.64956" stroke-miterlimit="10"/>
<path d="M244.896 287.63V296.733C250.543 298.696 258.395 300.658 267.254 301.614C276.137 302.57 284.284 302.884 290.246 302.527C296.209 302.17 300.001 301.139 300.135 299.408C300.31 297.131 296.134 294.429 289.386 292.143C283.871 290.276 276.634 288.681 268.639 287.828C259.434 286.824 250.943 286.824 244.896 287.63Z" fill="#FE552F"/>
<path d="M299.862 299.262L290.965 271.09" stroke="#FE552F" stroke-width="1.64956" stroke-miterlimit="10"/>
<path d="M244.897 278.088V256.168" stroke="#FE552F" stroke-width="1.64956" stroke-miterlimit="10"/>
<path d="M312.9 331.972C313.718 334.359 319.222 334.417 325.026 332.105C330.83 329.793 334.874 325.983 334.054 323.597C333.234 321.21 327.462 320.712 321.658 323.024C315.853 325.336 312.083 329.588 312.9 331.972Z" fill="#FE552F"/>
<path d="M197.409 237.735C196.539 235.927 186.866 223.334 183.407 223.422C179.947 223.51 186.143 228.823 182.585 228.92C179.297 229.008 168.736 216.119 167.043 221.294C164.166 230.161 174.359 247.007 180.384 250.474C185.404 253.352 200.802 244.776 197.409 237.735Z" fill="#EB7500"/>
<path d="M168.5 220.481C168.5 220.481 168.92 224.769 178.107 230.659" stroke="#423C52" stroke-width="1.64956" stroke-miterlimit="10" stroke-linecap="round"/>
<path d="M167.217 222.133C167.217 222.133 167.382 227.796 176.568 233.687" stroke="#423C52" stroke-width="1.64956" stroke-miterlimit="10" stroke-linecap="round"/>
<path d="M167.217 222.133C167.217 222.133 164.278 230.234 174.782 236.852" stroke="#423C52" stroke-width="1.64956" stroke-miterlimit="10" stroke-linecap="round"/>
<path d="M186.658 235.868C186.658 235.868 185.889 240.909 187.946 244.831" stroke="#423C52" stroke-width="1.64956" stroke-miterlimit="10" stroke-linecap="round"/>
<path d="M331.895 324.937C331.895 324.937 335.576 342.079 325.653 354.067C317.037 364.478 310.5 358.282 311.589 356.567C316.076 349.494 316.949 340.371 315.371 335.228C314.315 331.795 326.33 320.551 331.895 324.937Z" fill="#EB7500"/>
<path d="M313.882 359.163C313.882 359.163 320.069 354.055 320.074 346.486" stroke="#423C52" stroke-width="1.64956" stroke-miterlimit="10" stroke-linecap="round"/>
<path d="M318.07 359.194C318.07 359.194 323.372 354.362 324.165 347.663" stroke="#423C52" stroke-width="1.64956" stroke-miterlimit="10" stroke-linecap="round"/>
<path d="M321.523 357.474C321.523 357.474 327.629 353.422 327.775 346.671" stroke="#423C52" stroke-width="1.64956" stroke-miterlimit="10" stroke-linecap="round"/>
<path d="M244.896 287.63V424.565H271.571V360.601C276.739 388.154 323.527 413.235 323.527 413.235L336.607 388.156C336.607 388.156 301.138 372.235 293.917 332.122C292.321 323.255 291.075 311.571 290.253 302.527C289.871 298.306 289.582 294.66 289.393 292.143C283.878 290.276 276.641 288.681 268.645 287.828C259.434 286.824 250.943 286.824 244.896 287.63Z" fill="#EB7500"/>
<path d="M282.827 380.696C285.597 378.284 285.992 373.364 283.643 369.291C281.136 364.946 276.444 363.208 273.165 365.409" stroke="#423C52" stroke-width="1.64956" stroke-miterlimit="10" stroke-linecap="round"/>
<path d="M245.351 381.612C248.891 381.291 251.79 377.462 251.968 372.674C252.161 367.561 249.186 363.279 245.327 363.111" stroke="#423C52" stroke-width="1.64956" stroke-miterlimit="10" stroke-linecap="round"/>
<path d="M244.896 287.631V334.654C277.027 340.108 293.91 332.123 293.91 332.123C292.314 323.256 291.068 311.572 290.246 302.528C289.865 298.307 289.575 294.661 289.386 292.144C283.871 290.277 276.634 288.682 268.639 287.829C259.434 286.824 250.943 286.824 244.896 287.631Z" fill="#900000"/>
<path d="M271.57 362.069C263.582 337.971 262.491 313.874 262.491 313.874" stroke="white" stroke-width="1.64956" stroke-miterlimit="10" stroke-linecap="round"/>
<path d="M286.952 333.812C284.851 322.143 283.213 306.767 282.131 294.864" stroke="#423C52" stroke-width="1.97947" stroke-miterlimit="10" stroke-linecap="round"/>
<path d="M289.028 333.372C286.927 321.702 285.289 306.327 284.207 294.425" stroke="#423C52" stroke-width="1.97947" stroke-miterlimit="10" stroke-linecap="round"/>
<path d="M244.895 287.63V296.733C250.543 298.696 258.395 300.658 267.254 301.614C276.137 302.57 284.283 302.884 290.246 302.527C289.864 298.306 289.575 294.66 289.386 292.143C283.871 290.276 276.634 288.681 268.639 287.828C259.434 286.824 250.943 286.824 244.895 287.63Z" fill="#423C52"/>
<path d="M235.015 446.664V448.809H265.836C267.357 448.808 268.815 448.156 269.891 446.996C270.966 445.835 271.571 444.262 271.571 442.621V424.565H244.896C244.896 428.383 245.017 437.912 236.903 443.087C236.328 443.455 235.85 443.978 235.519 444.606C235.188 445.233 235.014 445.942 235.015 446.664Z" fill="#FE552F"/>
<path d="M244.474 428.214C243.16 428.406 242.423 428.712 242.423 429.233C242.423 429.932 244.731 430.206 248.775 430.206" stroke="#423C52" stroke-width="1.64956" stroke-miterlimit="10" stroke-linecap="round"/>
<path d="M243.834 432.446C242.468 432.624 241.743 433.089 241.743 433.635C241.743 434.334 244.725 434.465 248.775 434.465" stroke="#423C52" stroke-width="1.64956" stroke-miterlimit="10" stroke-linecap="round"/>
<path d="M248.772 438.795C248.772 438.795 240.155 439.444 240.155 437.633C240.155 436.861 241.407 436.586 242.421 436.489" stroke="#423C52" stroke-width="1.64956" stroke-miterlimit="10" stroke-linecap="round"/>
<path d="M244.896 418.943H271.571V424.565H244.896V418.943Z" fill="white"/>
<path d="M336.542 433.355L338.275 434.406L353.381 405.431C354.126 404 354.314 402.308 353.904 400.728C353.493 399.148 352.517 397.808 351.191 397.004L336.601 388.155L323.521 413.233C326.599 415.104 334.365 419.662 334.571 429.832C334.587 430.553 334.777 431.258 335.123 431.876C335.469 432.494 335.958 433.004 336.542 433.355Z" fill="#FE552F"/>
<path d="M326.463 415.459C325.974 416.787 325.909 417.829 326.332 418.086C326.899 418.428 328.247 416.398 330.232 412.589" stroke="#423C52" stroke-width="1.64956" stroke-miterlimit="10" stroke-linecap="round"/>
<path d="M329.758 418.494C329.091 420.049 328.988 421.108 329.473 421.4C330.038 421.742 331.719 419.076 333.706 415.259" stroke="#423C52" stroke-width="1.64956" stroke-miterlimit="10" stroke-linecap="round"/>
<path d="M337.378 417.538C337.378 417.538 333.675 425.817 332.207 424.926C331.555 424.531 332.015 423.313 332.454 422.342" stroke="#423C52" stroke-width="1.64956" stroke-miterlimit="10" stroke-linecap="round"/>
<path d="M336.601 388.155L330.232 384.595L316.741 409.475L323.39 413.381L336.601 388.155Z" fill="white"/>
<path d="M256.383 194.408C252.949 203.318 258.681 212.942 267.301 216.521C270.735 217.954 274.528 218.169 278.092 217.134C281.655 216.098 284.79 213.87 287.009 210.795C286.969 213.655 287.663 216.474 289.02 218.964C290.377 221.453 292.349 223.522 294.731 224.958C297.114 226.394 299.822 227.145 302.577 227.134C305.332 227.123 308.035 226.351 310.407 224.896C308.641 231.449 309.221 238.444 312.038 244.587C314.855 250.731 319.72 255.607 325.732 258.315C331.745 261.023 338.498 261.379 344.744 259.317C350.99 257.256 356.305 252.916 359.708 247.1C363.11 241.285 364.369 234.387 363.251 227.682C362.134 220.977 358.716 214.92 353.63 210.629C348.544 206.338 342.133 204.104 335.583 204.341C329.033 204.577 322.787 207.268 318.001 211.916C318.18 208.494 317.304 205.102 315.499 202.233C313.694 199.364 311.054 197.168 307.964 195.963C304.874 194.759 301.494 194.609 298.317 195.536C295.139 196.463 292.329 198.418 290.295 201.117C290.427 197.515 289.482 193.959 287.588 190.938C285.695 187.916 282.947 185.578 279.722 184.244C271.113 180.675 259.816 185.497 256.383 194.408Z" fill="#F2C94C"/>
<path d="M371.729 257.948C368.1 256.44 366.334 252.164 367.786 248.396C369.238 244.628 373.357 242.795 376.986 244.302C380.616 245.809 382.381 250.086 380.929 253.854C379.478 257.622 375.358 259.455 371.729 257.948Z" fill="#F2C94C"/>
<path d="M286.205 212.658C286.417 212.746 286.654 212.743 286.864 212.65C287.074 212.556 287.24 212.38 287.325 212.16L291.805 200.53C291.89 200.31 291.887 200.063 291.797 199.845C291.707 199.627 291.538 199.455 291.325 199.367C291.113 199.279 290.876 199.282 290.666 199.375C290.456 199.469 290.29 199.645 290.205 199.865L285.724 211.495C285.64 211.715 285.642 211.962 285.732 212.18C285.823 212.398 285.992 212.57 286.205 212.658Z" fill="#423C52"/>
<path d="M270.284 211.301L275.985 230.219C275.985 230.219 273.987 238.338 262.271 237.618C250.555 236.898 251.853 225.39 251.853 225.39V218.296L266.138 211.086L270.284 211.301Z" fill="#EB7500"/>
<path d="M251.853 220.765L275.414 231.63C275.651 231.189 275.842 230.716 275.985 230.222L270.282 211.304L266.138 211.083L251.867 218.217V218.306L251.853 220.765Z" fill="#423C52"/>
<path d="M254.256 221.029C259.384 223.435 266.085 221.307 270.444 216.057L275.3 218.074C275.956 218.346 276.657 218.482 277.363 218.473C278.069 218.464 278.767 218.311 279.416 218.022C280.065 217.733 280.653 217.314 281.146 216.79C281.639 216.265 282.028 215.645 282.29 214.964C282.552 214.283 282.683 213.555 282.674 212.822C282.666 212.089 282.518 211.365 282.24 210.691C281.962 210.017 281.559 209.407 281.053 208.895C280.548 208.383 279.95 207.979 279.295 207.707L274.761 205.824C274.761 205.824 274.761 205.824 274.767 205.807C274.619 205.759 274.465 205.701 274.305 205.635C267.994 203.014 263.728 193.097 264.962 189.87C259.225 189.151 254.806 194.042 251.639 201.316C247.971 209.727 247.84 218.018 254.256 221.029Z" fill="#EB7500"/>
<path d="M273.942 212.251C274.288 211.353 274.963 210.635 275.819 210.253C276.674 209.872 277.641 209.859 278.506 210.218" stroke="#423C52" stroke-width="1.64956" stroke-miterlimit="10" stroke-linecap="round"/>
<path d="M262.964 210.39C262.443 210.173 262.273 209.341 262.586 208.53C262.898 207.72 263.574 207.238 264.095 207.455C264.617 207.671 264.786 208.504 264.474 209.314C264.162 210.125 263.486 210.606 262.964 210.39Z" fill="#423C52"/>
<path d="M252.874 206.059C252.397 205.861 252.242 205.098 252.528 204.355C252.815 203.611 253.434 203.17 253.911 203.368C254.388 203.566 254.543 204.329 254.256 205.072C253.97 205.815 253.351 206.257 252.874 206.059Z" fill="#423C52"/>
<path d="M269.046 206.537C269.046 206.537 267.825 203.435 263.293 202.198" stroke="#423C52" stroke-width="1.64956" stroke-miterlimit="10" stroke-linecap="round"/>
<path d="M253.261 197.386C253.261 197.386 259.507 199.98 255.068 210.875" stroke="#423C52" stroke-width="1.64956" stroke-miterlimit="10" stroke-linecap="round"/>
<path d="M139.785 443.232H80.3248C80.3248 443.232 65.1897 438.789 66.5173 416.257C66.9661 408.705 68.5858 399.9 70.9729 388.907L71.0313 388.079C88.7951 388.825 107.868 388.22 125.701 384.863C122.714 400.29 121.288 412.327 122.663 418.198C125.425 429.99 139.785 443.232 139.785 443.232Z" fill="white" stroke="#423C52" stroke-width="1.64956" stroke-miterlimit="10"/>
<path d="M125.677 385.02L122.273 408.447C122.273 408.447 86.0659 405.67 69.8022 394.539L70.9732 388.073H71.1325C88.907 388.819 107.972 388.267 125.677 385.02Z" fill="#423C52"/>
<path d="M141.967 445.621C141.967 445.934 141.905 446.244 141.785 446.533C141.665 446.822 141.489 447.085 141.267 447.306C141.044 447.527 140.781 447.701 140.491 447.82C140.201 447.939 139.891 447.999 139.578 447.997H80.5107C81.141 447.997 81.7455 447.747 82.1912 447.301C82.6368 446.855 82.8872 446.251 82.8872 445.621C82.8872 444.99 82.6368 444.386 82.1912 443.94C81.7455 443.495 81.141 443.244 80.5107 443.244H139.591C140.22 443.248 140.822 443.499 141.267 443.944C141.712 444.389 141.964 444.991 141.967 445.621Z" fill="white" stroke="#423C52" stroke-width="1.64956" stroke-miterlimit="10"/>
<path d="M80.3247 443.233H16.4068C15.1481 443.232 13.9061 442.944 12.7758 442.39C11.6454 441.837 10.6564 441.032 9.88439 440.038C9.11235 439.044 8.57761 437.887 8.321 436.654C8.06439 435.422 8.09269 434.147 8.40372 432.928L20.5729 382.57C33.544 384.798 51.4937 387.254 71.0233 388.077L70.9649 388.906C68.5751 399.901 66.958 408.706 66.5093 416.255C65.1843 438.793 80.3247 443.233 80.3247 443.233Z" fill="white" stroke="#423C52" stroke-width="1.64956" stroke-miterlimit="10"/>
<path d="M70.9733 388.074L67.2878 408.448C67.2878 408.448 38.701 403.09 19.5989 386.611L20.5734 382.572C33.3718 384.771 51.2445 387.19 70.6971 388.045L70.9733 388.074Z" fill="#423C52"/>
<path d="M82.8819 445.623C82.8819 445.935 82.8205 446.244 82.701 446.533C82.5816 446.821 82.4065 447.083 82.1859 447.304C81.9652 447.524 81.7032 447.699 81.4149 447.819C81.1266 447.938 80.8175 448 80.5054 448H10.5361C10.2029 448.035 9.86602 448 9.54731 447.896C9.2286 447.793 8.9352 447.624 8.68613 447.4C8.43705 447.176 8.23789 446.902 8.10155 446.596C7.96522 446.289 7.89478 445.958 7.89478 445.623C7.89478 445.288 7.96522 444.957 8.10155 444.651C8.23789 444.345 8.43705 444.071 8.68613 443.847C8.9352 443.623 9.2286 443.453 9.54731 443.35C9.86602 443.247 10.2029 443.211 10.5361 443.247H80.5108C81.139 443.252 81.7401 443.504 82.1839 443.948C82.6277 444.393 82.8785 444.995 82.8819 445.623Z" fill="white" stroke="#423C52" stroke-width="1.64956" stroke-miterlimit="10"/>
<path d="M137.991 140.106L135.083 69.9092C140.6 72.4105 158.324 79.9204 164.521 134.336C165.696 144.671 179.436 238.601 179.436 238.601C179.436 238.601 177.986 255.962 163.174 251.544C155.228 249.152 135.916 169.857 137.991 140.106Z" fill="#A0505A"/>
<path d="M161.322 229.147C158.064 261.228 135.531 338.404 126.538 384.863C89.098 391.911 45.3443 386.823 20.5917 382.572C8.1358 380.432 0.270839 378.504 0 378.438C1.74718 327.326 33.2096 290.715 44.7336 209.453C51.1594 164.138 50.5752 116.024 50.3946 84.8828C50.3813 82.294 50.8798 79.728 51.8613 77.3324C52.8428 74.9368 54.288 72.7588 56.1139 70.9235C57.9398 69.0882 60.1104 67.6319 62.501 66.6381C64.8915 65.6443 67.4549 65.1328 70.0437 65.1328H118.662C123.856 65.1349 128.921 66.7487 133.158 69.7517C137.396 72.7547 140.597 76.9987 142.321 81.8983C151.08 106.807 168.502 158.461 161.322 229.147Z" fill="#F2C94C"/>
<path d="M113.078 220.589C109.241 256.81 79.0132 336.404 71.4138 390.261" stroke="#423C52" stroke-width="1.64956" stroke-miterlimit="10" stroke-linecap="round"/>
<path d="M58.4188 276.293C51.7488 268.357 36.2084 234.63 32.4128 189.346C31.4768 178.24 31.2245 167.086 31.6572 155.948C32.5786 132.456 36.7427 107.433 46.0261 82.6335C50.2906 71.2397 57.586 67.2923 64.6034 66.6966C78.6478 65.5045 89.8626 78.263 87.2884 92.1125C80.7704 127.197 68.2095 210.955 88.3597 248.53C92.4578 256.163 74.587 244.244 72.4583 244.995C68.4717 246.394 73.9469 256.277 92.483 275.144C96.7685 279.504 62.148 280.735 58.4188 276.293Z" fill="#A0505A"/>
<path d="M70.3628 259.616C73.8033 264.412 78.0774 269.728 87.0686 277.725" stroke="#423C52" stroke-width="1.64956" stroke-miterlimit="10" stroke-linecap="round"/>
<path d="M63.562 260.719C67.0011 265.517 71.1791 270.45 80.1611 278.442" stroke="#423C52" stroke-width="1.64956" stroke-miterlimit="10" stroke-linecap="round"/>
<path d="M55.9026 261.632C59.344 266.431 61.2276 270.317 70.2202 278.313" stroke="#423C52" stroke-width="1.64956" stroke-miterlimit="10" stroke-linecap="round"/>
<path d="M32.5052 156.134C33.4911 156.117 34.4751 156.224 35.4347 156.45C43.0029 158.244 47.3792 167.114 45.2121 176.263C43.594 183.108 38.7666 188.169 33.2549 189.532" stroke="#423C52" stroke-width="1.64956" stroke-miterlimit="10" stroke-linecap="round"/>
<path d="M119.741 68.4508C119.698 68.7711 119.622 69.086 119.512 69.39C118.797 71.5001 115.911 76.2841 104.692 74.2629C90.4686 71.7042 92.5382 63.9483 92.5382 63.9483L103.577 48.8195L125.878 52.5107L119.741 68.4508Z" fill="#A0505A"/>
<path d="M119.741 68.4508L125.878 52.5108L108.85 49.6924C108.85 49.6924 106.733 62.2877 119.741 68.4508Z" fill="#423C52"/>
<path d="M137.358 32.1474C136.725 28.5708 133.593 27.2477 133.478 27.1828C133.51 27.2958 134.264 30.0582 128.09 34.8686C121.787 39.7813 111.238 35.379 111.238 35.379L105.326 34.4003C103.924 34.1705 102.486 34.3762 101.206 34.9897C99.9249 35.6031 98.8632 36.5948 98.164 37.8307C97.7617 38.5399 97.4885 39.3148 97.3572 40.1195L97.306 40.4286C97.3034 40.4443 97.3004 40.4626 97.2978 40.4783C94.5813 46.3212 87.118 50.9559 77.9793 51.7929C65.9543 52.8976 55.5924 47.0109 54.8253 38.6697C54.0581 30.3286 63.1773 22.6495 75.1998 21.5443C84.2978 20.7086 92.453 23.8617 96.2073 29.0827C97.439 17.9827 105.716 10.1723 117.291 12.2739C136.582 15.7738 137.731 34.2519 137.358 32.1474Z" fill="#FE552F"/>
<path d="M42.0262 45.0352C45.4276 45.5982 48.6414 43.2972 49.2044 39.8958C49.7674 36.4944 47.4664 33.2806 44.065 32.7176C40.6636 32.1546 37.4499 34.4556 36.8869 37.857C36.3239 41.2584 38.6248 44.4722 42.0262 45.0352Z" fill="#FE552F"/>
<path d="M125.647 61.4356C115.768 61.9159 108.87 49.6856 108.87 49.6856L102.958 48.7069C101.144 48.4068 99.5238 47.3991 98.4525 45.9052C97.3812 44.4113 96.9465 42.5534 97.2439 40.7393L97.345 40.1289C97.4934 39.2297 97.8176 38.3686 98.299 37.5947C98.7803 36.8208 99.4094 36.1494 100.15 35.6187C100.891 35.088 101.729 34.7085 102.617 34.5018C103.505 34.2951 104.424 34.2654 105.324 34.4142L111.236 35.3928C111.236 35.3928 121.784 39.7952 128.088 34.8824C134.267 30.0729 133.508 27.3096 133.475 27.1966C133.928 27.4143 134.363 27.6663 134.777 27.9503C136.079 28.8468 136.947 30.3846 137.442 32.3235C139.886 41.8332 133.369 61.0611 125.647 61.4356Z" fill="#A0505A"/>
<path d="M108.017 43.5742C108.127 42.9054 108.105 42.2214 107.951 41.5612C107.798 40.901 107.516 40.2774 107.121 39.7263C106.726 39.1751 106.227 38.7071 105.652 38.3489C105.076 37.9907 104.436 37.7494 103.767 37.6387" stroke="#423C52" stroke-width="1.64956" stroke-miterlimit="10" stroke-linecap="round"/>
<path d="M137.686 41.1988C137.686 41.1988 130.23 39.6955 128.118 52.4557" stroke="#423C52" stroke-width="1.64956" stroke-miterlimit="10" stroke-linecap="round"/>
<path d="M134.64 47.3995C135.011 46.5387 134.911 45.6689 134.418 45.4569C133.925 45.2449 133.225 45.7708 132.855 46.6317C132.485 47.4926 132.584 48.3623 133.077 48.5743C133.57 48.7864 134.27 48.2604 134.64 47.3995Z" fill="#423C52"/>
<path d="M122.933 45.0959C123.334 44.1636 123.227 43.2219 122.693 42.9925C122.16 42.7631 121.402 43.3329 121.001 44.2651C120.601 45.1974 120.708 46.1391 121.242 46.3685C121.775 46.5979 122.533 46.0282 122.933 45.0959Z" fill="#423C52"/>
<path fill-rule="evenodd" clip-rule="evenodd" d="M332.22 143.976C338.034 145.498 344.136 146.308 350.427 146.308C378.58 146.308 402.943 130.081 414.672 106.47C414.941 106.476 415.211 106.479 415.482 106.479C434.546 106.479 450 91.0247 450 71.9606C450 52.8964 434.546 37.4419 415.482 37.4419C414.257 37.4419 413.047 37.5057 411.856 37.6301C399.306 16.8308 376.491 2.92285 350.427 2.92285C337.771 2.92285 325.881 6.20227 315.56 11.9577C309.422 6.34608 301.249 2.92285 292.277 2.92285C273.213 2.92285 257.758 18.3774 257.758 37.4415C257.758 42.5448 258.866 47.3895 260.853 51.7482C251.025 62.2991 245.013 76.4512 245.013 92.0077C245.013 124.637 271.464 151.088 304.093 151.088C314.275 151.088 323.856 148.512 332.22 143.976Z" fill="#C4C4C4"/>
<circle cx="177.901" cy="31.4922" r="13.2764" fill="#C4C4C4"/>
<circle cx="224.582" cy="16.1993" r="13.2764" fill="#C4C4C4"/>
<path d="M323.036 103.997C322.891 103.997 322.748 104.025 322.614 104.081C322.48 104.136 322.358 104.217 322.256 104.32C322.153 104.422 322.072 104.544 322.016 104.678C321.961 104.812 321.933 104.955 321.933 105.1V106.204H318.896C318.627 103.916 317.728 101.747 316.298 99.9399L318.448 97.7906L319.313 98.5231C319.415 98.6257 319.537 98.7072 319.671 98.7628C319.805 98.8185 319.948 98.8471 320.093 98.8472C320.238 98.8473 320.382 98.8188 320.516 98.7634C320.65 98.7079 320.772 98.6266 320.874 98.524C320.977 98.4215 321.058 98.2998 321.114 98.1658C321.169 98.0318 321.198 97.8881 321.198 97.7431C321.198 97.5981 321.169 97.4545 321.113 97.3206C321.058 97.1866 320.976 97.0649 320.874 96.9625L317.195 93.2838C316.988 93.0769 316.707 92.9606 316.415 92.9606C316.122 92.9606 315.841 93.0768 315.634 93.2838C315.427 93.4907 315.311 93.7714 315.311 94.0641C315.311 94.3568 315.427 94.6374 315.634 94.8444L316.367 95.7095L314.217 97.8588C312.41 96.4296 310.242 95.5305 307.954 95.2618V92.2248H309.057C309.35 92.2248 309.631 92.1085 309.838 91.9015C310.044 91.6946 310.161 91.4139 310.161 91.1212C310.161 90.8285 310.044 90.5478 309.838 90.3408C309.631 90.1339 309.35 90.0176 309.057 90.0176H303.907C303.614 90.0176 303.334 90.1339 303.127 90.3408C302.92 90.5478 302.803 90.8285 302.803 91.1212C302.803 91.4139 302.92 91.6946 303.127 91.9015C303.334 92.1085 303.614 92.2248 303.907 92.2248H305.011V95.2618C302.722 95.5305 300.554 96.4296 298.747 97.8588L296.597 95.7095L297.33 94.8444C297.432 94.7419 297.514 94.6203 297.569 94.4864C297.625 94.3525 297.653 94.209 297.653 94.0641C297.653 93.9192 297.625 93.7757 297.569 93.6418C297.514 93.5079 297.432 93.3862 297.33 93.2838C297.227 93.1813 297.106 93.1 296.972 93.0446C296.838 92.9891 296.695 92.9606 296.55 92.9606C296.257 92.9606 295.976 93.0769 295.769 93.2838L292.175 96.9625C291.969 97.1697 291.854 97.4501 291.854 97.7423C291.855 98.0345 291.971 98.3146 292.177 98.5213C292.384 98.7279 292.664 98.8441 292.956 98.8444C293.249 98.8448 293.529 98.7292 293.736 98.5231L294.517 97.7906L296.666 99.9399C295.236 101.747 294.337 103.916 294.069 106.204H291.032V105.1C291.032 104.807 290.915 104.527 290.708 104.32C290.501 104.113 290.221 103.997 289.928 103.997C289.635 103.997 289.355 104.113 289.148 104.32C288.941 104.527 288.824 104.807 288.824 105.1V110.25C288.824 110.543 288.941 110.824 289.148 111.031C289.355 111.238 289.635 111.354 289.928 111.354C290.221 111.354 290.501 111.238 290.708 111.031C290.915 110.824 291.032 110.543 291.032 110.25V109.147H294.069C294.337 111.435 295.236 113.603 296.666 115.41L294.517 117.56L293.651 116.827C293.444 116.621 293.164 116.505 292.871 116.505C292.579 116.505 292.298 116.621 292.092 116.828C291.885 117.035 291.769 117.315 291.768 117.608C291.768 117.9 291.884 118.181 292.091 118.388L295.769 122.067C295.872 122.169 295.993 122.25 296.127 122.306C296.261 122.361 296.405 122.39 296.55 122.39C296.695 122.39 296.838 122.361 296.972 122.306C297.106 122.25 297.227 122.169 297.33 122.067C297.432 121.964 297.514 121.843 297.569 121.709C297.625 121.575 297.653 121.431 297.653 121.286C297.653 121.141 297.625 120.998 297.569 120.864C297.514 120.73 297.432 120.608 297.33 120.506L296.597 119.641L298.747 117.492C300.554 118.921 302.722 119.82 305.011 120.089V123.126H303.907C303.614 123.126 303.334 123.242 303.127 123.449C302.92 123.656 302.803 123.937 302.803 124.229C302.803 124.522 302.92 124.803 303.127 125.01C303.334 125.217 303.614 125.333 303.907 125.333H309.057C309.35 125.333 309.631 125.217 309.838 125.01C310.044 124.803 310.161 124.522 310.161 124.229C310.161 123.937 310.044 123.656 309.838 123.449C309.631 123.242 309.35 123.126 309.057 123.126H307.954V120.089C310.242 119.82 312.41 118.921 314.217 117.492L316.367 119.641L315.634 120.506C315.427 120.713 315.311 120.994 315.311 121.286C315.311 121.579 315.427 121.86 315.634 122.067C315.841 122.274 316.122 122.39 316.415 122.39C316.707 122.39 316.988 122.274 317.195 122.067L320.874 118.388C320.976 118.285 321.058 118.164 321.113 118.03C321.169 117.896 321.197 117.752 321.198 117.607C321.198 117.462 321.169 117.319 321.114 117.185C321.058 117.051 320.977 116.929 320.874 116.826C320.772 116.724 320.65 116.643 320.516 116.587C320.382 116.532 320.238 116.503 320.093 116.503C319.948 116.503 319.805 116.532 319.671 116.588C319.537 116.643 319.415 116.725 319.313 116.827L318.448 117.56L316.298 115.41C317.728 113.603 318.627 111.435 318.896 109.147H321.933V110.25C321.933 110.543 322.049 110.824 322.256 111.031C322.463 111.238 322.743 111.354 323.036 111.354C323.329 111.354 323.61 111.238 323.816 111.031C324.023 110.824 324.14 110.543 324.14 110.25V105.1C324.14 104.955 324.111 104.812 324.056 104.678C324 104.544 323.919 104.422 323.817 104.32C323.714 104.217 323.592 104.136 323.458 104.081C323.325 104.025 323.181 103.997 323.036 103.997ZM302.436 104.732C301.926 104.732 301.428 104.581 301.005 104.298C300.581 104.015 300.251 103.613 300.057 103.143C299.862 102.672 299.811 102.154 299.91 101.655C300.009 101.155 300.255 100.696 300.615 100.336C300.975 99.9762 301.434 99.731 301.933 99.6316C302.433 99.5322 302.95 99.5832 303.421 99.7781C303.892 99.973 304.294 100.303 304.577 100.727C304.86 101.15 305.011 101.648 305.011 102.157C305.011 102.495 304.944 102.83 304.815 103.143C304.685 103.455 304.496 103.739 304.256 103.978C304.017 104.217 303.733 104.407 303.421 104.536C303.109 104.666 302.774 104.732 302.436 104.732ZM310.897 114.297C310.605 114.297 310.321 114.211 310.079 114.049C309.837 113.887 309.648 113.657 309.537 113.388C309.426 113.12 309.397 112.824 309.453 112.538C309.51 112.253 309.65 111.991 309.856 111.785C310.062 111.579 310.324 111.439 310.609 111.382C310.895 111.325 311.191 111.355 311.46 111.466C311.728 111.577 311.958 111.766 312.12 112.008C312.282 112.25 312.368 112.534 312.368 112.825C312.368 113.216 312.213 113.59 311.937 113.866C311.661 114.142 311.287 114.297 310.897 114.297Z" fill="#423C52"/>
<path d="M300.588 47.887L295.424 46.8793C294.826 46.7654 294.371 46.2579 294.315 45.6526C294.245 44.8936 294.803 44.2223 295.562 44.1523L298.649 43.8676C299.217 43.8152 299.792 43.9359 300.287 44.2096C300.588 44.3744 300.966 44.2926 301.186 44.0328L302.661 42.3001C302.962 41.9484 302.866 41.4172 302.472 41.167C301.248 40.3782 299.777 40.0114 298.315 40.1415L298.109 37.9064C298.071 37.4967 297.705 37.1923 297.295 37.2301L295.805 37.3675C295.395 37.4053 295.091 37.7715 295.129 38.1812L295.335 40.4164L295.218 40.4271C292.252 40.7006 290.103 43.4676 290.656 46.4643C291.05 48.5929 292.85 50.1879 294.973 50.6026L299.875 51.5594C300.473 51.678 300.928 52.1808 300.984 52.7861C301.054 53.5451 300.496 54.2165 299.737 54.2864L296.65 54.5711C296.081 54.6235 295.507 54.5028 295.012 54.2291C294.71 54.0644 294.333 54.1461 294.112 54.4059L292.638 56.1386C292.337 56.4904 292.433 57.0216 292.827 57.2717C294.05 58.0605 295.521 58.4274 296.984 58.2972L297.19 60.5323C297.228 60.9421 297.594 61.2464 298.004 61.2086L299.494 61.0712C299.903 61.0334 300.208 60.6672 300.17 60.2575L299.963 58.013C302.129 57.771 304.045 56.2935 304.573 54.1739C305.309 51.2132 303.357 48.4253 300.588 47.887Z" fill="#423C52"/>
<path d="M396.717 71.6589C397.237 66.7649 396.807 61.9716 394.275 57.5762C392.416 54.3475 388.85 52.4055 385.14 52.4599C382.2 52.5037 378.513 52.8227 375.579 53.1157C374.345 53.241 373.122 53.4218 371.758 53.5917C372.333 50.1578 372.506 52.0663 374.425 49.5269C376.905 46.2379 377.196 42.6169 376.721 38.7745C376.58 37.641 376.003 37.4106 375.097 38.1456C374.671 38.4911 374.314 38.9575 374.024 39.4273C372.973 41.1448 371.961 42.8881 370.874 44.7202C370.745 44.493 370.624 44.3417 370.569 44.1715C367.132 33.3529 358.702 28.277 347.859 31.1007C345.836 31.6283 345.569 32.0121 346.116 33.989C347.493 38.9681 350.52 42.773 354.606 45.8195C357.666 48.0986 360.984 49.0922 364.813 48.2085C366.233 47.8824 367.742 47.7854 369.203 47.8231C370.76 47.8641 368.582 49.3474 368.417 50.7198C368.131 53.0777 368.497 50.4933 368.025 53.0825C366.722 52.3869 365.416 51.7358 364.156 51.0067C361.962 49.738 359.692 48.7673 357.088 48.8514C350.284 49.0699 345.196 52.2665 342.268 58.2791C336.192 70.758 337.688 83.0789 344.136 94.9202C346.962 100.11 350.949 101.404 356.765 99.6992C358.918 99.0695 360.595 99.2304 362.134 100.943C363.442 102.396 365.054 102.698 366.84 101.743C368.24 100.994 369.583 101.155 370.865 102.076C373.589 104.033 377.185 103.98 379.742 102.129C381.821 100.621 384.537 98.9674 386.174 96.9911C392.259 89.6455 395.711 81.1303 396.717 71.6589Z" fill="#423C52"/>
</svg>
