<svg width="525" height="233" viewBox="0 0 525 233" fill="none" xmlns="http://www.w3.org/2000/svg">
<g filter="url(#filter0_d)">
<rect x="8" y="4" width="218" height="218" rx="7.26667" fill="white"/>
<rect x="8.90833" y="4.90833" width="216.183" height="216.183" rx="6.35833" stroke="#F0F5F9" stroke-width="1.81667"/>
</g>
<path d="M78.7482 187.774H77.2402V174.806H84.4696V176.145H78.7482V180.891H84.1237V182.23H78.7482V187.774ZM85.2236 192.139C84.6618 192.139 84.2065 192.065 83.8576 191.917V190.719C84.2656 190.838 84.6677 190.897 85.064 190.897C85.5252 190.897 85.8623 190.77 86.0752 190.515C86.294 190.267 86.4034 189.886 86.4034 189.371V178.052H87.8759V189.265C87.8759 191.181 86.9918 192.139 85.2236 192.139ZM86.2792 175.418C86.2792 175.081 86.362 174.835 86.5276 174.682C86.6932 174.522 86.9001 174.442 87.1485 174.442C87.3851 174.442 87.5891 174.522 87.7606 174.682C87.9321 174.841 88.0178 175.087 88.0178 175.418C88.0178 175.749 87.9321 175.997 87.7606 176.163C87.5891 176.323 87.3851 176.403 87.1485 176.403C86.9001 176.403 86.6932 176.323 86.5276 176.163C86.362 175.997 86.2792 175.749 86.2792 175.418ZM96.977 187.774L96.6842 186.391H96.6133C96.1283 187 95.6434 187.414 95.1585 187.632C94.6795 187.845 94.0793 187.952 93.3578 187.952C92.3939 187.952 91.6369 187.703 91.087 187.207C90.5429 186.71 90.2709 186.003 90.2709 185.087C90.2709 183.123 91.841 182.094 94.9811 182L96.631 181.947V181.343C96.631 180.58 96.4654 180.019 96.1343 179.658C95.809 179.291 95.2857 179.108 94.5642 179.108C93.754 179.108 92.8374 179.356 91.8144 179.853L91.362 178.727C91.841 178.466 92.3643 178.262 92.932 178.115C93.5057 177.967 94.0793 177.893 94.6529 177.893C95.812 177.893 96.6694 178.15 97.2253 178.664C97.7871 179.179 98.068 180.004 98.068 181.139V187.774H96.977ZM93.6505 186.737C94.5672 186.737 95.2857 186.485 95.8061 185.983C96.3324 185.48 96.5955 184.776 96.5955 183.871V182.993L95.123 183.055C93.9521 183.097 93.1065 183.28 92.5861 183.605C92.0716 183.925 91.8144 184.424 91.8144 185.104C91.8144 185.637 91.974 186.042 92.2934 186.32C92.6186 186.598 93.071 186.737 93.6505 186.737ZM102.583 187.774H101.111V173.972H102.583V187.774ZM107.178 187.774H105.705V173.972H107.178V187.774ZM116.279 187.774L115.986 186.391H115.915C115.43 187 114.946 187.414 114.461 187.632C113.982 187.845 113.381 187.952 112.66 187.952C111.696 187.952 110.939 187.703 110.389 187.207C109.845 186.71 109.573 186.003 109.573 185.087C109.573 183.123 111.143 182.094 114.283 182L115.933 181.947V181.343C115.933 180.58 115.768 180.019 115.436 179.658C115.111 179.291 114.588 179.108 113.866 179.108C113.056 179.108 112.139 179.356 111.116 179.853L110.664 178.727C111.143 178.466 111.666 178.262 112.234 178.115C112.808 177.967 113.381 177.893 113.955 177.893C115.114 177.893 115.972 178.15 116.527 178.664C117.089 179.179 117.37 180.004 117.37 181.139V187.774H116.279ZM112.953 186.737C113.869 186.737 114.588 186.485 115.108 185.983C115.634 185.48 115.898 184.776 115.898 183.871V182.993L114.425 183.055C113.254 183.097 112.409 183.28 111.888 183.605C111.374 183.925 111.116 184.424 111.116 185.104C111.116 185.637 111.276 186.042 111.595 186.32C111.921 186.598 112.373 186.737 112.953 186.737ZM136.61 181.272C136.61 183.348 136.084 184.98 135.031 186.169C133.984 187.358 132.527 187.952 130.658 187.952C128.748 187.952 127.272 187.369 126.232 186.204C125.197 185.033 124.679 183.384 124.679 181.255C124.679 179.143 125.2 177.508 126.241 176.349C127.281 175.184 128.76 174.602 130.676 174.602C132.539 174.602 133.993 175.193 135.04 176.376C136.087 177.559 136.61 179.191 136.61 181.272ZM126.276 181.272C126.276 183.029 126.649 184.362 127.394 185.273C128.145 186.178 129.233 186.63 130.658 186.63C132.095 186.63 133.18 186.178 133.913 185.273C134.647 184.368 135.013 183.035 135.013 181.272C135.013 179.528 134.647 178.206 133.913 177.307C133.186 176.403 132.107 175.95 130.676 175.95C129.239 175.95 128.145 176.405 127.394 177.316C126.649 178.221 126.276 179.54 126.276 181.272ZM145.942 187.774V181.485C145.942 180.693 145.761 180.101 145.401 179.711C145.04 179.321 144.475 179.126 143.706 179.126C142.689 179.126 141.944 179.401 141.471 179.951C140.998 180.501 140.761 181.408 140.761 182.674V187.774H139.289V178.052H140.486L140.726 179.383H140.797C141.099 178.904 141.521 178.534 142.065 178.274C142.609 178.008 143.216 177.875 143.884 177.875C145.055 177.875 145.936 178.159 146.527 178.727C147.119 179.288 147.414 180.19 147.414 181.432V187.774H145.942ZM154.555 187.952C153.118 187.952 151.983 187.514 151.149 186.639C150.321 185.764 149.907 184.549 149.907 182.993C149.907 181.426 150.291 180.181 151.06 179.259C151.835 178.336 152.873 177.875 154.174 177.875C155.392 177.875 156.356 178.277 157.065 179.081C157.775 179.88 158.13 180.935 158.13 182.248V183.18H151.433C151.462 184.321 151.749 185.187 152.293 185.779C152.843 186.37 153.615 186.666 154.608 186.666C155.655 186.666 156.69 186.447 157.713 186.009V187.322C157.192 187.547 156.699 187.706 156.232 187.801C155.77 187.902 155.211 187.952 154.555 187.952ZM154.156 179.108C153.375 179.108 152.751 179.362 152.284 179.871C151.823 180.379 151.551 181.083 151.468 181.982H156.551C156.551 181.054 156.344 180.344 155.93 179.853C155.516 179.356 154.925 179.108 154.156 179.108Z" fill="black"/>
<path d="M83.9747 56.763H99.9672L116.926 148.425H102.865L100.343 132.003H83.599L81.1841 148.425H67.0698L83.9747 56.763ZM98.7329 121.538L92.293 75.8681H91.7026L85.209 121.538H98.7329ZM135.172 149.23C132.882 149.23 130.843 148.783 129.054 147.888C127.301 146.958 125.816 145.706 124.6 144.132C123.384 142.557 122.453 140.697 121.809 138.55C121.201 136.368 120.897 134.006 120.897 131.466C120.897 128.425 121.273 125.724 122.024 123.363C122.775 121.001 123.867 118.873 125.298 116.976C126.765 115.08 128.571 113.363 130.718 111.824C132.865 110.25 135.351 108.765 138.178 107.37C139.537 106.69 141.058 106.011 142.739 105.331C144.456 104.615 145.977 104.007 147.301 103.506V93.739C147.301 92.3079 147.247 90.9841 147.14 89.7677C147.032 88.5155 146.764 87.4421 146.335 86.5477C145.941 85.6175 145.333 84.9019 144.51 84.401C143.687 83.8644 142.56 83.5961 141.129 83.5961C140.163 83.5961 139.215 83.7749 138.285 84.1327C137.39 84.4905 136.585 85.0987 135.87 85.9574C135.19 86.816 134.636 87.9609 134.206 89.392C133.813 90.8231 133.616 92.5941 133.616 94.705V97.9249H123.258C122.936 96.5296 122.686 95.2595 122.507 94.1146C122.364 92.934 122.292 91.7712 122.292 90.6263C122.292 87.8715 122.757 85.4386 123.688 83.3277C124.654 81.2169 125.977 79.4459 127.659 78.0148C129.376 76.5837 131.416 75.5104 133.777 74.7948C136.138 74.0435 138.732 73.6678 141.559 73.6678C145.244 73.6678 148.303 74.0793 150.735 74.9021C153.168 75.6892 155.1 76.8878 156.531 78.4978C157.998 80.1078 159.018 82.1292 159.59 84.562C160.199 86.9949 160.503 89.8392 160.503 93.095V148.425H150.413L149.447 142.092C147.981 144.203 146.013 145.92 143.544 147.244C141.111 148.568 138.321 149.23 135.172 149.23ZM141.183 138.765C142.328 138.765 143.437 138.479 144.51 137.906C145.619 137.298 146.549 136.565 147.301 135.706V112.576C146.585 112.862 145.78 113.202 144.886 113.595C143.991 113.989 143.025 114.508 141.988 115.152C141.022 115.76 140.074 116.493 139.144 117.352C138.213 118.211 137.373 119.23 136.621 120.411C135.906 121.592 135.315 122.933 134.85 124.436C134.421 125.903 134.206 127.549 134.206 129.373C134.206 132.2 134.761 134.472 135.87 136.189C136.979 137.906 138.75 138.765 141.183 138.765Z" fill="black"/>
<path d="M276.035 147.264C275.566 147.264 275.057 147.223 274.506 147.141C273.967 147.07 273.422 146.912 272.871 146.666C272.332 146.42 271.811 146.074 271.307 145.629C270.814 145.172 270.375 144.574 269.988 143.836C269.613 143.098 269.309 142.189 269.074 141.111C268.852 140.021 268.74 138.727 268.74 137.227V126.592C268.74 125.08 268.857 123.791 269.092 122.725C269.326 121.646 269.637 120.744 270.023 120.018C270.41 119.279 270.855 118.693 271.359 118.26C271.863 117.826 272.385 117.498 272.924 117.275C273.463 117.041 273.996 116.889 274.523 116.818C275.062 116.748 275.561 116.713 276.018 116.713C277.213 116.713 278.209 116.883 279.006 117.223C279.814 117.551 280.459 118.008 280.939 118.594C281.432 119.168 281.777 119.842 281.977 120.615C282.188 121.389 282.293 122.209 282.293 123.076C282.293 123.721 282.258 124.318 282.188 124.869C282.129 125.408 282.035 126.006 281.906 126.662H278.215V125.133C278.215 123.48 278.033 122.244 277.67 121.424C277.307 120.604 276.773 120.193 276.07 120.193C275.648 120.193 275.279 120.275 274.963 120.439C274.646 120.604 274.383 120.885 274.172 121.283C273.961 121.67 273.797 122.186 273.68 122.83C273.574 123.475 273.521 124.277 273.521 125.238V138.949C273.521 139.887 273.562 140.666 273.645 141.287C273.738 141.908 273.885 142.406 274.084 142.781C274.283 143.156 274.541 143.426 274.857 143.59C275.186 143.742 275.578 143.818 276.035 143.818C276.328 143.818 276.609 143.754 276.879 143.625C277.148 143.484 277.383 143.273 277.582 142.992C277.793 142.699 277.957 142.336 278.074 141.902C278.203 141.457 278.268 140.936 278.268 140.338V137.402H282.434V140.18C282.434 142.594 281.883 144.375 280.781 145.523C279.68 146.672 278.098 147.252 276.035 147.264ZM289.078 147.264C288.328 147.264 287.66 147.117 287.074 146.824C286.5 146.52 286.014 146.109 285.615 145.594C285.217 145.078 284.912 144.469 284.701 143.766C284.502 143.051 284.402 142.277 284.402 141.445C284.402 140.449 284.525 139.564 284.771 138.791C285.018 138.018 285.375 137.32 285.844 136.699C286.324 136.078 286.916 135.516 287.619 135.012C288.322 134.496 289.137 134.01 290.062 133.553C290.508 133.33 291.006 133.107 291.557 132.885C292.119 132.65 292.617 132.451 293.051 132.287V129.088C293.051 128.619 293.033 128.186 292.998 127.787C292.963 127.377 292.875 127.025 292.734 126.732C292.605 126.428 292.406 126.193 292.137 126.029C291.867 125.854 291.498 125.766 291.029 125.766C290.713 125.766 290.402 125.824 290.098 125.941C289.805 126.059 289.541 126.258 289.307 126.539C289.084 126.82 288.902 127.195 288.762 127.664C288.633 128.133 288.568 128.713 288.568 129.404V130.459H285.176C285.07 130.002 284.988 129.586 284.93 129.211C284.883 128.824 284.859 128.443 284.859 128.068C284.859 127.166 285.012 126.369 285.316 125.678C285.633 124.986 286.066 124.406 286.617 123.938C287.18 123.469 287.848 123.117 288.621 122.883C289.395 122.637 290.244 122.514 291.17 122.514C292.377 122.514 293.379 122.648 294.176 122.918C294.973 123.176 295.605 123.568 296.074 124.096C296.555 124.623 296.889 125.285 297.076 126.082C297.275 126.879 297.375 127.811 297.375 128.877V147H294.07L293.754 144.926C293.273 145.617 292.629 146.18 291.82 146.613C291.023 147.047 290.109 147.264 289.078 147.264ZM291.047 143.836C291.422 143.836 291.785 143.742 292.137 143.555C292.5 143.355 292.805 143.115 293.051 142.834V135.258C292.816 135.352 292.553 135.463 292.26 135.592C291.967 135.721 291.65 135.891 291.311 136.102C290.994 136.301 290.684 136.541 290.379 136.822C290.074 137.104 289.799 137.438 289.553 137.824C289.318 138.211 289.125 138.65 288.973 139.143C288.832 139.623 288.762 140.162 288.762 140.76C288.762 141.686 288.943 142.43 289.307 142.992C289.67 143.555 290.25 143.836 291.047 143.836ZM301.98 122.795H305.232L305.619 125.256C306.111 124.342 306.674 123.656 307.307 123.199C307.951 122.742 308.607 122.514 309.275 122.514C310.553 122.514 311.496 122.906 312.105 123.691C312.715 124.477 313.02 125.654 313.02 127.225C313.02 127.424 313.002 127.664 312.967 127.945C312.943 128.215 312.902 128.502 312.844 128.807C312.797 129.1 312.732 129.398 312.65 129.703C312.58 129.996 312.504 130.266 312.422 130.512H309.328V128.262C309.328 127.77 309.293 127.365 309.223 127.049C309.164 126.732 309.082 126.48 308.977 126.293C308.871 126.094 308.748 125.959 308.607 125.889C308.467 125.807 308.314 125.766 308.15 125.766C307.799 125.766 307.471 125.883 307.166 126.117C306.873 126.34 306.627 126.656 306.428 127.066V147H301.98V122.795ZM315.832 122.795H319.084L319.471 125.256C319.963 124.342 320.525 123.656 321.158 123.199C321.803 122.742 322.459 122.514 323.127 122.514C324.404 122.514 325.348 122.906 325.957 123.691C326.566 124.477 326.871 125.654 326.871 127.225C326.871 127.424 326.854 127.664 326.818 127.945C326.795 128.215 326.754 128.502 326.695 128.807C326.648 129.1 326.584 129.398 326.502 129.703C326.432 129.996 326.355 130.266 326.273 130.512H323.18V128.262C323.18 127.77 323.145 127.365 323.074 127.049C323.016 126.732 322.934 126.48 322.828 126.293C322.723 126.094 322.6 125.959 322.459 125.889C322.318 125.807 322.166 125.766 322.002 125.766C321.65 125.766 321.322 125.883 321.018 126.117C320.725 126.34 320.479 126.656 320.279 127.066V147H315.832V122.795ZM335.783 147.264C335.268 147.264 334.74 147.223 334.201 147.141C333.674 147.059 333.158 146.889 332.654 146.631C332.162 146.373 331.693 146.004 331.248 145.523C330.814 145.043 330.434 144.41 330.105 143.625C329.777 142.84 329.52 141.873 329.332 140.725C329.145 139.576 329.051 138.205 329.051 136.611V132.814C329.051 131.244 329.145 129.902 329.332 128.789C329.531 127.664 329.795 126.721 330.123 125.959C330.463 125.197 330.855 124.594 331.301 124.148C331.746 123.691 332.215 123.346 332.707 123.111C333.211 122.865 333.727 122.707 334.254 122.637C334.781 122.555 335.297 122.514 335.801 122.514C336.281 122.514 336.779 122.549 337.295 122.619C337.811 122.689 338.314 122.842 338.807 123.076C339.299 123.299 339.762 123.639 340.195 124.096C340.641 124.541 341.027 125.145 341.355 125.906C341.695 126.668 341.959 127.617 342.146 128.754C342.346 129.879 342.445 131.232 342.445 132.814V136.611C342.445 138.182 342.346 139.535 342.146 140.672C341.947 141.809 341.678 142.77 341.338 143.555C340.998 144.34 340.605 144.979 340.16 145.471C339.715 145.951 339.246 146.326 338.754 146.596C338.262 146.865 337.758 147.041 337.242 147.123C336.738 147.217 336.252 147.264 335.783 147.264ZM335.818 143.836C336.217 143.836 336.551 143.736 336.82 143.537C337.102 143.326 337.324 142.986 337.488 142.518C337.664 142.049 337.787 141.434 337.857 140.672C337.939 139.898 337.98 138.943 337.98 137.807V131.848C337.98 130.711 337.939 129.756 337.857 128.982C337.787 128.209 337.664 127.588 337.488 127.119C337.324 126.639 337.102 126.293 336.82 126.082C336.551 125.871 336.217 125.766 335.818 125.766C335.396 125.766 335.039 125.871 334.746 126.082C334.465 126.293 334.23 126.639 334.043 127.119C333.855 127.588 333.721 128.209 333.639 128.982C333.557 129.756 333.516 130.711 333.516 131.848V137.807C333.516 138.943 333.557 139.898 333.639 140.672C333.721 141.434 333.855 142.049 334.043 142.518C334.23 142.986 334.465 143.326 334.746 143.537C335.039 143.736 335.396 143.836 335.818 143.836ZM346.893 125.959H345.012V122.795H347.279L348.176 116.52H351.34V122.795H355.207V125.959H351.34V141.357C351.34 141.885 351.387 142.312 351.48 142.641C351.586 142.957 351.727 143.209 351.902 143.396C352.078 143.572 352.283 143.689 352.518 143.748C352.752 143.807 352.998 143.836 353.256 143.836C353.689 143.836 354.07 143.783 354.398 143.678C354.738 143.572 355.061 143.426 355.365 143.238V145.699C355.107 146.016 354.826 146.273 354.521 146.473C354.229 146.672 353.924 146.836 353.607 146.965C353.291 147.082 352.969 147.164 352.641 147.211C352.312 147.258 351.99 147.281 351.674 147.281C351.053 147.281 350.455 147.199 349.881 147.035C349.307 146.871 348.797 146.561 348.352 146.104C347.906 145.635 347.549 144.99 347.279 144.17C347.021 143.35 346.893 142.283 346.893 140.971V125.959ZM357.316 141.938C357.316 141.41 357.363 140.9 357.457 140.408C357.562 139.916 357.662 139.523 357.756 139.23H360.885C360.885 140.109 360.926 140.848 361.008 141.445C361.102 142.031 361.248 142.5 361.447 142.852C361.646 143.203 361.91 143.455 362.238 143.607C362.578 143.76 362.988 143.836 363.469 143.836C364.137 143.836 364.623 143.648 364.928 143.273C365.232 142.898 365.385 142.465 365.385 141.973C365.385 141.715 365.35 141.469 365.279 141.234C365.209 141 365.109 140.766 364.98 140.531C364.852 140.285 364.693 140.039 364.506 139.793C364.318 139.547 364.107 139.277 363.873 138.984L360.621 135.152C360.199 134.625 359.789 134.092 359.391 133.553C359.004 133.002 358.658 132.439 358.354 131.865C358.061 131.279 357.82 130.67 357.633 130.037C357.457 129.404 357.369 128.736 357.369 128.033C357.369 127.096 357.527 126.281 357.844 125.59C358.172 124.898 358.605 124.324 359.145 123.867C359.695 123.41 360.328 123.07 361.043 122.848C361.758 122.625 362.514 122.514 363.311 122.514C364.189 122.514 364.98 122.619 365.684 122.83C366.387 123.041 366.99 123.357 367.494 123.779C367.998 124.201 368.385 124.729 368.654 125.361C368.924 125.982 369.059 126.709 369.059 127.541C369.059 128.104 369.006 128.648 368.9 129.176C368.807 129.703 368.713 130.154 368.619 130.529H365.543C365.531 129.732 365.496 129.035 365.438 128.438C365.379 127.84 365.268 127.348 365.104 126.961C364.951 126.562 364.734 126.264 364.453 126.064C364.184 125.865 363.826 125.766 363.381 125.766C362.994 125.766 362.672 125.83 362.414 125.959C362.156 126.076 361.945 126.234 361.781 126.434C361.629 126.633 361.518 126.855 361.447 127.102C361.389 127.348 361.359 127.6 361.359 127.857C361.359 128.42 361.494 128.941 361.764 129.422C362.033 129.902 362.391 130.424 362.836 130.986L366.387 135.152C366.645 135.469 366.943 135.855 367.283 136.312C367.623 136.758 367.945 137.256 368.25 137.807C368.555 138.346 368.812 138.938 369.023 139.582C369.234 140.227 369.34 140.9 369.34 141.604C369.34 142.459 369.205 143.238 368.936 143.941C368.666 144.633 368.268 145.225 367.74 145.717C367.213 146.209 366.562 146.59 365.789 146.859C365.027 147.129 364.154 147.264 363.17 147.264C362.361 147.264 361.6 147.176 360.885 147C360.17 146.812 359.549 146.514 359.021 146.104C358.494 145.682 358.078 145.131 357.773 144.451C357.469 143.771 357.316 142.934 357.316 141.938ZM373.295 140.848H377.812L375.246 152.748H371.537L373.295 140.848ZM388.676 140.918C388.676 140.273 388.711 139.682 388.781 139.143C388.863 138.592 388.98 138 389.133 137.367H392.666V138.826C392.666 139.635 392.713 140.35 392.807 140.971C392.912 141.592 393.076 142.119 393.299 142.553C393.533 142.975 393.838 143.297 394.213 143.52C394.6 143.73 395.068 143.836 395.619 143.836C396.486 143.836 397.148 143.602 397.605 143.133C398.062 142.652 398.291 141.955 398.291 141.041C398.291 140.572 398.256 140.145 398.186 139.758C398.127 139.359 398.016 138.967 397.852 138.58C397.699 138.193 397.488 137.789 397.219 137.367C396.949 136.934 396.604 136.453 396.182 135.926L391.436 130.283C390.592 129.205 389.941 128.121 389.484 127.031C389.027 125.93 388.799 124.758 388.799 123.516C388.799 122.52 388.951 121.605 389.256 120.773C389.572 119.941 390.023 119.227 390.609 118.629C391.195 118.02 391.916 117.551 392.771 117.223C393.639 116.883 394.617 116.713 395.707 116.713C397.031 116.713 398.133 116.9 399.012 117.275C399.902 117.65 400.611 118.143 401.139 118.752C401.666 119.361 402.035 120.047 402.246 120.809C402.469 121.559 402.58 122.314 402.58 123.076C402.58 123.721 402.527 124.318 402.422 124.869C402.328 125.408 402.217 126.006 402.088 126.662H398.572V125.238C398.572 123.645 398.344 122.426 397.887 121.582C397.43 120.727 396.686 120.299 395.654 120.299C394.799 120.299 394.16 120.539 393.738 121.02C393.316 121.488 393.105 122.121 393.105 122.918C393.105 123.34 393.135 123.721 393.193 124.061C393.264 124.4 393.357 124.717 393.475 125.01C393.604 125.291 393.756 125.566 393.932 125.836C394.107 126.105 394.307 126.387 394.529 126.68L399.82 133.078C400.781 134.332 401.52 135.539 402.035 136.699C402.551 137.848 402.809 139.066 402.809 140.355C402.809 141.422 402.639 142.383 402.299 143.238C401.971 144.094 401.496 144.82 400.875 145.418C400.254 146.016 399.504 146.479 398.625 146.807C397.746 147.123 396.756 147.281 395.654 147.281C394.295 147.281 393.164 147.1 392.262 146.736C391.371 146.373 390.656 145.893 390.117 145.295C389.59 144.697 389.215 144.018 388.992 143.256C388.781 142.494 388.676 141.715 388.676 140.918ZM410.807 148.371V154.822H406.359V122.795H409.84L410.244 125.344C410.443 125.016 410.678 124.682 410.947 124.342C411.229 124.002 411.551 123.703 411.914 123.445C412.289 123.176 412.705 122.959 413.162 122.795C413.631 122.619 414.152 122.531 414.727 122.531C414.973 122.531 415.266 122.555 415.605 122.602C415.957 122.648 416.314 122.766 416.678 122.953C417.053 123.141 417.422 123.422 417.785 123.797C418.16 124.16 418.488 124.664 418.77 125.309C419.062 125.953 419.297 126.756 419.473 127.717C419.66 128.678 419.754 129.844 419.754 131.215V138.545C419.754 139.916 419.66 141.082 419.473 142.043C419.297 143.004 419.062 143.807 418.77 144.451C418.477 145.096 418.143 145.605 417.768 145.98C417.393 146.355 417.012 146.637 416.625 146.824C416.238 147.012 415.863 147.129 415.5 147.176C415.137 147.234 414.82 147.264 414.551 147.264C413.613 147.264 412.828 147.082 412.195 146.719C411.574 146.355 411.064 145.916 410.666 145.4L410.807 148.371ZM410.807 142.061C410.9 142.295 411.012 142.518 411.141 142.729C411.281 142.939 411.439 143.127 411.615 143.291C411.803 143.455 412.008 143.59 412.23 143.695C412.465 143.789 412.734 143.836 413.039 143.836C413.367 143.836 413.666 143.777 413.936 143.66C414.205 143.531 414.439 143.309 414.639 142.992C414.838 142.664 414.99 142.213 415.096 141.639C415.213 141.064 415.271 140.326 415.271 139.424V130.16C415.271 129.258 415.213 128.525 415.096 127.963C414.99 127.389 414.838 126.938 414.639 126.609C414.451 126.281 414.223 126.059 413.953 125.941C413.684 125.824 413.385 125.766 413.057 125.766C412.494 125.766 412.031 125.936 411.668 126.275C411.316 126.604 411.029 126.99 410.807 127.436V142.061ZM426.135 119.332C425.314 119.332 424.664 119.086 424.184 118.594C423.715 118.102 423.48 117.381 423.48 116.432C423.48 115.904 423.539 115.465 423.656 115.113C423.785 114.75 423.961 114.463 424.184 114.252C424.418 114.029 424.699 113.871 425.027 113.777C425.355 113.672 425.73 113.619 426.152 113.619C427.031 113.619 427.699 113.842 428.156 114.287C428.613 114.732 428.842 115.447 428.842 116.432C428.842 117.346 428.607 118.061 428.139 118.576C427.682 119.08 427.014 119.332 426.135 119.332ZM423.832 122.795H428.279V147H423.832V122.795ZM432.938 122.795H436.365L436.77 125.379V125.396C437.121 124.846 437.496 124.389 437.895 124.025C438.305 123.65 438.727 123.352 439.16 123.129C439.594 122.906 440.033 122.748 440.479 122.654C440.936 122.561 441.387 122.514 441.832 122.514C443.25 122.514 444.34 123.012 445.102 124.008C445.875 124.992 446.262 126.475 446.262 128.455V147H441.814V128.613C441.814 127.547 441.65 126.809 441.322 126.398C440.994 125.977 440.514 125.766 439.881 125.766C439.436 125.766 438.99 125.912 438.545 126.205C438.111 126.498 437.725 126.902 437.385 127.418V147H432.938V122.795ZM454.207 147.264C453.457 147.264 452.789 147.117 452.203 146.824C451.629 146.52 451.143 146.109 450.744 145.594C450.346 145.078 450.041 144.469 449.83 143.766C449.631 143.051 449.531 142.277 449.531 141.445C449.531 140.449 449.654 139.564 449.9 138.791C450.146 138.018 450.504 137.32 450.973 136.699C451.453 136.078 452.045 135.516 452.748 135.012C453.451 134.496 454.266 134.01 455.191 133.553C455.637 133.33 456.135 133.107 456.686 132.885C457.248 132.65 457.746 132.451 458.18 132.287V129.088C458.18 128.619 458.162 128.186 458.127 127.787C458.092 127.377 458.004 127.025 457.863 126.732C457.734 126.428 457.535 126.193 457.266 126.029C456.996 125.854 456.627 125.766 456.158 125.766C455.842 125.766 455.531 125.824 455.227 125.941C454.934 126.059 454.67 126.258 454.436 126.539C454.213 126.82 454.031 127.195 453.891 127.664C453.762 128.133 453.697 128.713 453.697 129.404V130.459H450.305C450.199 130.002 450.117 129.586 450.059 129.211C450.012 128.824 449.988 128.443 449.988 128.068C449.988 127.166 450.141 126.369 450.445 125.678C450.762 124.986 451.195 124.406 451.746 123.938C452.309 123.469 452.977 123.117 453.75 122.883C454.523 122.637 455.373 122.514 456.299 122.514C457.506 122.514 458.508 122.648 459.305 122.918C460.102 123.176 460.734 123.568 461.203 124.096C461.684 124.623 462.018 125.285 462.205 126.082C462.404 126.879 462.504 127.811 462.504 128.877V147H459.199L458.883 144.926C458.402 145.617 457.758 146.18 456.949 146.613C456.152 147.047 455.238 147.264 454.207 147.264ZM456.176 143.836C456.551 143.836 456.914 143.742 457.266 143.555C457.629 143.355 457.934 143.115 458.18 142.834V135.258C457.945 135.352 457.682 135.463 457.389 135.592C457.096 135.721 456.779 135.891 456.439 136.102C456.123 136.301 455.812 136.541 455.508 136.822C455.203 137.104 454.928 137.438 454.682 137.824C454.447 138.211 454.254 138.65 454.102 139.143C453.961 139.623 453.891 140.162 453.891 140.76C453.891 141.686 454.072 142.43 454.436 142.992C454.799 143.555 455.379 143.836 456.176 143.836ZM472.752 147.264C470.713 147.264 469.154 146.426 468.076 144.75C467.01 143.074 466.477 140.52 466.477 137.086V132.516C466.477 130.98 466.588 129.668 466.811 128.578C467.033 127.477 467.326 126.557 467.689 125.818C468.064 125.068 468.486 124.477 468.955 124.043C469.436 123.609 469.928 123.281 470.432 123.059C470.936 122.824 471.434 122.678 471.926 122.619C472.418 122.549 472.869 122.514 473.279 122.514C474.1 122.514 474.85 122.625 475.529 122.848C476.209 123.059 476.795 123.387 477.287 123.832C477.779 124.266 478.16 124.816 478.43 125.484C478.699 126.152 478.834 126.938 478.834 127.84C478.834 128.402 478.805 128.889 478.746 129.299C478.699 129.697 478.629 130.084 478.535 130.459H474.984V129.65C474.984 128.432 474.838 127.482 474.545 126.803C474.264 126.111 473.795 125.766 473.139 125.766C472.775 125.766 472.459 125.854 472.189 126.029C471.92 126.193 471.691 126.48 471.504 126.891C471.328 127.301 471.193 127.852 471.1 128.543C471.018 129.234 470.977 130.102 470.977 131.145V138.018C470.977 139.072 471.012 139.969 471.082 140.707C471.152 141.445 471.275 142.049 471.451 142.518C471.627 142.975 471.861 143.309 472.154 143.52C472.447 143.73 472.811 143.836 473.244 143.836C473.467 143.836 473.684 143.783 473.895 143.678C474.105 143.561 474.287 143.373 474.439 143.115C474.604 142.857 474.732 142.518 474.826 142.096C474.932 141.662 474.984 141.129 474.984 140.496V139.74H478.816V140.672C478.816 142.969 478.307 144.645 477.287 145.699C476.279 146.742 474.768 147.264 472.752 147.264ZM482.438 115.025H486.885V120.721L486.656 124.869C486.984 124.412 487.336 124.037 487.711 123.744C488.098 123.439 488.49 123.199 488.889 123.023C489.299 122.836 489.709 122.707 490.119 122.637C490.541 122.555 490.957 122.514 491.367 122.514C492.785 122.514 493.875 123.012 494.637 124.008C495.41 124.992 495.797 126.475 495.797 128.455V147H491.35V128.613C491.35 127.547 491.186 126.809 490.857 126.398C490.529 125.977 490.049 125.766 489.416 125.766C488.971 125.766 488.52 125.918 488.062 126.223C487.617 126.516 487.225 126.926 486.885 127.453V147H482.438V115.025ZM500.842 140.848H505.359L502.793 152.748H499.084L500.842 140.848ZM272.625 198.264C271.875 198.264 271.207 198.117 270.621 197.824C270.047 197.52 269.561 197.109 269.162 196.594C268.764 196.078 268.459 195.469 268.248 194.766C268.049 194.051 267.949 193.277 267.949 192.445C267.949 191.449 268.072 190.564 268.318 189.791C268.564 189.018 268.922 188.32 269.391 187.699C269.871 187.078 270.463 186.516 271.166 186.012C271.869 185.496 272.684 185.01 273.609 184.553C274.055 184.33 274.553 184.107 275.104 183.885C275.666 183.65 276.164 183.451 276.598 183.287V180.088C276.598 179.619 276.58 179.186 276.545 178.787C276.51 178.377 276.422 178.025 276.281 177.732C276.152 177.428 275.953 177.193 275.684 177.029C275.414 176.854 275.045 176.766 274.576 176.766C274.26 176.766 273.949 176.824 273.645 176.941C273.352 177.059 273.088 177.258 272.854 177.539C272.631 177.82 272.449 178.195 272.309 178.664C272.18 179.133 272.115 179.713 272.115 180.404V181.459H268.723C268.617 181.002 268.535 180.586 268.477 180.211C268.43 179.824 268.406 179.443 268.406 179.068C268.406 178.166 268.559 177.369 268.863 176.678C269.18 175.986 269.613 175.406 270.164 174.938C270.727 174.469 271.395 174.117 272.168 173.883C272.941 173.637 273.791 173.514 274.717 173.514C275.924 173.514 276.926 173.648 277.723 173.918C278.52 174.176 279.152 174.568 279.621 175.096C280.102 175.623 280.436 176.285 280.623 177.082C280.822 177.879 280.922 178.811 280.922 179.877V198H277.617L277.301 195.926C276.82 196.617 276.176 197.18 275.367 197.613C274.57 198.047 273.656 198.264 272.625 198.264ZM274.594 194.836C274.969 194.836 275.332 194.742 275.684 194.555C276.047 194.355 276.352 194.115 276.598 193.834V186.258C276.363 186.352 276.1 186.463 275.807 186.592C275.514 186.721 275.197 186.891 274.857 187.102C274.541 187.301 274.23 187.541 273.926 187.822C273.621 188.104 273.346 188.438 273.1 188.824C272.865 189.211 272.672 189.65 272.52 190.143C272.379 190.623 272.309 191.162 272.309 191.76C272.309 192.686 272.49 193.43 272.854 193.992C273.217 194.555 273.797 194.836 274.594 194.836ZM285.527 173.795H288.955L289.359 176.379V176.396C289.711 175.846 290.086 175.389 290.484 175.025C290.895 174.65 291.316 174.352 291.75 174.129C292.184 173.906 292.623 173.748 293.068 173.654C293.525 173.561 293.977 173.514 294.422 173.514C295.84 173.514 296.93 174.012 297.691 175.008C298.465 175.992 298.852 177.475 298.852 179.455V198H294.404V179.613C294.404 178.547 294.24 177.809 293.912 177.398C293.584 176.977 293.104 176.766 292.471 176.766C292.025 176.766 291.58 176.912 291.135 177.205C290.701 177.498 290.314 177.902 289.975 178.418V198H285.527V173.795ZM308.098 198.281C307.828 198.281 307.512 198.252 307.148 198.193C306.785 198.146 306.41 198.029 306.023 197.842C305.637 197.654 305.256 197.373 304.881 196.998C304.506 196.623 304.172 196.113 303.879 195.469C303.586 194.812 303.346 194.004 303.158 193.043C302.982 192.082 302.895 190.916 302.895 189.545V181.863C302.895 180.504 302.988 179.355 303.176 178.418C303.375 177.48 303.633 176.707 303.949 176.098C304.266 175.477 304.617 174.996 305.004 174.656C305.402 174.305 305.795 174.047 306.182 173.883C306.58 173.719 306.955 173.619 307.307 173.584C307.67 173.549 307.969 173.531 308.203 173.531C308.637 173.531 309.047 173.59 309.434 173.707C309.82 173.824 310.172 173.982 310.488 174.182C310.805 174.369 311.086 174.586 311.332 174.832C311.578 175.066 311.783 175.307 311.947 175.553L311.965 175.535L311.824 172.477V166.025H316.254V198H312.791L312.404 195.75C312.205 196.066 311.977 196.377 311.719 196.682C311.461 196.986 311.156 197.262 310.805 197.508C310.453 197.742 310.055 197.93 309.609 198.07C309.164 198.211 308.66 198.281 308.098 198.281ZM309.609 194.836C309.902 194.836 310.16 194.789 310.383 194.695C310.617 194.59 310.822 194.461 310.998 194.309C311.186 194.145 311.344 193.957 311.473 193.746C311.613 193.535 311.73 193.318 311.824 193.096V178.541C311.602 178.049 311.303 177.633 310.928 177.293C310.564 176.941 310.119 176.766 309.592 176.766C309.264 176.766 308.965 176.824 308.695 176.941C308.426 177.059 308.191 177.281 307.992 177.609C307.793 177.926 307.635 178.371 307.518 178.945C307.412 179.508 307.359 180.24 307.359 181.143V190.424C307.359 191.326 307.412 192.064 307.518 192.639C307.635 193.213 307.793 193.664 307.992 193.992C308.191 194.309 308.426 194.531 308.695 194.66C308.977 194.777 309.281 194.836 309.609 194.836ZM328.805 167.977H340.283V171.562H333.357V180.545H338.789V184.131H333.357V198H328.805V167.977ZM343.043 173.795H346.295L346.682 176.256C347.174 175.342 347.736 174.656 348.369 174.199C349.014 173.742 349.67 173.514 350.338 173.514C351.615 173.514 352.559 173.906 353.168 174.691C353.777 175.477 354.082 176.654 354.082 178.225C354.082 178.424 354.064 178.664 354.029 178.945C354.006 179.215 353.965 179.502 353.906 179.807C353.859 180.1 353.795 180.398 353.713 180.703C353.643 180.996 353.566 181.266 353.484 181.512H350.391V179.262C350.391 178.77 350.355 178.365 350.285 178.049C350.227 177.732 350.145 177.48 350.039 177.293C349.934 177.094 349.811 176.959 349.67 176.889C349.529 176.807 349.377 176.766 349.213 176.766C348.861 176.766 348.533 176.883 348.229 177.117C347.936 177.34 347.689 177.656 347.49 178.066V198H343.043V173.795ZM362.73 198.264C361.688 198.264 360.762 198.07 359.953 197.684C359.156 197.297 358.482 196.693 357.932 195.873C357.381 195.053 356.965 194.004 356.684 192.727C356.402 191.438 356.262 189.891 356.262 188.086V183.516C356.262 181.98 356.373 180.668 356.596 179.578C356.83 178.477 357.129 177.557 357.492 176.818C357.867 176.068 358.295 175.477 358.775 175.043C359.268 174.609 359.771 174.281 360.287 174.059C360.803 173.824 361.312 173.678 361.816 173.619C362.332 173.549 362.807 173.514 363.24 173.514C364.037 173.514 364.805 173.637 365.543 173.883C366.281 174.117 366.932 174.527 367.494 175.113C368.057 175.688 368.502 176.461 368.83 177.434C369.17 178.406 369.34 179.619 369.34 181.072C369.34 181.564 369.322 182.062 369.287 182.566C369.264 183.07 369.229 183.568 369.182 184.061C369.135 184.541 369.07 185.01 368.988 185.467C368.918 185.924 368.842 186.346 368.76 186.732H360.727V189.193C360.727 190.248 360.768 191.139 360.85 191.865C360.932 192.58 361.066 193.16 361.254 193.605C361.453 194.039 361.717 194.355 362.045 194.555C362.385 194.742 362.807 194.836 363.311 194.836C363.58 194.836 363.844 194.783 364.102 194.678C364.359 194.561 364.582 194.373 364.77 194.115C364.969 193.857 365.127 193.518 365.244 193.096C365.361 192.662 365.42 192.129 365.42 191.496V190.74H369.129V191.672C369.129 193.969 368.578 195.645 367.477 196.699C366.387 197.742 364.805 198.264 362.73 198.264ZM365.191 183.744C365.203 183.615 365.215 183.445 365.227 183.234C365.238 183.012 365.244 182.783 365.244 182.549C365.256 182.314 365.262 182.086 365.262 181.863C365.262 181.629 365.262 181.43 365.262 181.266C365.262 179.672 365.074 178.523 364.699 177.82C364.324 177.117 363.768 176.766 363.029 176.766C362.643 176.766 362.303 176.859 362.01 177.047C361.717 177.223 361.477 177.527 361.289 177.961C361.102 178.383 360.961 178.945 360.867 179.648C360.773 180.352 360.727 181.225 360.727 182.268V183.744H365.191ZM372.152 192.938C372.152 192.41 372.199 191.9 372.293 191.408C372.398 190.916 372.498 190.523 372.592 190.23H375.721C375.721 191.109 375.762 191.848 375.844 192.445C375.938 193.031 376.084 193.5 376.283 193.852C376.482 194.203 376.746 194.455 377.074 194.607C377.414 194.76 377.824 194.836 378.305 194.836C378.973 194.836 379.459 194.648 379.764 194.273C380.068 193.898 380.221 193.465 380.221 192.973C380.221 192.715 380.186 192.469 380.115 192.234C380.045 192 379.945 191.766 379.816 191.531C379.688 191.285 379.529 191.039 379.342 190.793C379.154 190.547 378.943 190.277 378.709 189.984L375.457 186.152C375.035 185.625 374.625 185.092 374.227 184.553C373.84 184.002 373.494 183.439 373.189 182.865C372.896 182.279 372.656 181.67 372.469 181.037C372.293 180.404 372.205 179.736 372.205 179.033C372.205 178.096 372.363 177.281 372.68 176.59C373.008 175.898 373.441 175.324 373.98 174.867C374.531 174.41 375.164 174.07 375.879 173.848C376.594 173.625 377.35 173.514 378.146 173.514C379.025 173.514 379.816 173.619 380.52 173.83C381.223 174.041 381.826 174.357 382.33 174.779C382.834 175.201 383.221 175.729 383.49 176.361C383.76 176.982 383.895 177.709 383.895 178.541C383.895 179.104 383.842 179.648 383.736 180.176C383.643 180.703 383.549 181.154 383.455 181.529H380.379C380.367 180.732 380.332 180.035 380.273 179.438C380.215 178.84 380.104 178.348 379.939 177.961C379.787 177.562 379.57 177.264 379.289 177.064C379.02 176.865 378.662 176.766 378.217 176.766C377.83 176.766 377.508 176.83 377.25 176.959C376.992 177.076 376.781 177.234 376.617 177.434C376.465 177.633 376.354 177.855 376.283 178.102C376.225 178.348 376.195 178.6 376.195 178.857C376.195 179.42 376.33 179.941 376.6 180.422C376.869 180.902 377.227 181.424 377.672 181.986L381.223 186.152C381.48 186.469 381.779 186.855 382.119 187.312C382.459 187.758 382.781 188.256 383.086 188.807C383.391 189.346 383.648 189.938 383.859 190.582C384.07 191.227 384.176 191.9 384.176 192.604C384.176 193.459 384.041 194.238 383.771 194.941C383.502 195.633 383.104 196.225 382.576 196.717C382.049 197.209 381.398 197.59 380.625 197.859C379.863 198.129 378.99 198.264 378.006 198.264C377.197 198.264 376.436 198.176 375.721 198C375.006 197.812 374.385 197.514 373.857 197.104C373.33 196.682 372.914 196.131 372.609 195.451C372.305 194.771 372.152 193.934 372.152 192.938ZM387.691 166.025H392.139V171.721L391.91 175.869C392.238 175.412 392.59 175.037 392.965 174.744C393.352 174.439 393.744 174.199 394.143 174.023C394.553 173.836 394.963 173.707 395.373 173.637C395.795 173.555 396.211 173.514 396.621 173.514C398.039 173.514 399.129 174.012 399.891 175.008C400.664 175.992 401.051 177.475 401.051 179.455V198H396.604V179.613C396.604 178.547 396.439 177.809 396.111 177.398C395.783 176.977 395.303 176.766 394.67 176.766C394.225 176.766 393.773 176.918 393.316 177.223C392.871 177.516 392.479 177.926 392.139 178.453V198H387.691V166.025ZM413.637 167.977H418.242C418.922 167.977 419.625 168 420.352 168.047C421.078 168.094 421.787 168.193 422.479 168.346C423.17 168.498 423.826 168.727 424.447 169.031C425.068 169.324 425.607 169.723 426.064 170.227C426.533 170.73 426.902 171.357 427.172 172.107C427.453 172.846 427.594 173.736 427.594 174.779V176.238C427.594 177.035 427.477 177.768 427.242 178.436C427.02 179.104 426.721 179.695 426.346 180.211C425.971 180.715 425.543 181.137 425.062 181.477C424.582 181.805 424.09 182.027 423.586 182.145V182.285C425.074 182.555 426.193 183.264 426.943 184.412C427.705 185.549 428.086 187.008 428.086 188.789V190.318C428.086 191.408 427.963 192.357 427.717 193.166C427.482 193.963 427.148 194.648 426.715 195.223C426.281 195.785 425.766 196.248 425.168 196.611C424.57 196.975 423.914 197.262 423.199 197.473C422.484 197.672 421.723 197.812 420.914 197.895C420.105 197.965 419.273 198 418.418 198H413.637V167.977ZM418.98 180.826C419.59 180.826 420.146 180.756 420.65 180.615C421.154 180.463 421.582 180.234 421.934 179.93C422.297 179.613 422.572 179.209 422.76 178.717C422.959 178.213 423.059 177.609 423.059 176.906V175.676C423.059 174.973 422.988 174.352 422.848 173.812C422.707 173.273 422.473 172.816 422.145 172.441C421.828 172.066 421.406 171.785 420.879 171.598C420.363 171.398 419.73 171.299 418.98 171.299H418.102V180.826H418.98ZM419.402 194.836C420.012 194.836 420.562 194.76 421.055 194.607C421.559 194.443 421.986 194.197 422.338 193.869C422.701 193.529 422.977 193.102 423.164 192.586C423.363 192.07 423.463 191.461 423.463 190.758V188.42C423.463 187.717 423.393 187.096 423.252 186.557C423.111 186.006 422.877 185.549 422.549 185.186C422.232 184.811 421.816 184.529 421.301 184.342C420.785 184.143 420.152 184.043 419.402 184.043H418.102V194.836H419.402ZM437.613 198.264C436.57 198.264 435.645 198.07 434.836 197.684C434.039 197.297 433.365 196.693 432.814 195.873C432.264 195.053 431.848 194.004 431.566 192.727C431.285 191.438 431.145 189.891 431.145 188.086V183.516C431.145 181.98 431.256 180.668 431.479 179.578C431.713 178.477 432.012 177.557 432.375 176.818C432.75 176.068 433.178 175.477 433.658 175.043C434.15 174.609 434.654 174.281 435.17 174.059C435.686 173.824 436.195 173.678 436.699 173.619C437.215 173.549 437.689 173.514 438.123 173.514C438.92 173.514 439.688 173.637 440.426 173.883C441.164 174.117 441.814 174.527 442.377 175.113C442.939 175.688 443.385 176.461 443.713 177.434C444.053 178.406 444.223 179.619 444.223 181.072C444.223 181.564 444.205 182.062 444.17 182.566C444.146 183.07 444.111 183.568 444.064 184.061C444.018 184.541 443.953 185.01 443.871 185.467C443.801 185.924 443.725 186.346 443.643 186.732H435.609V189.193C435.609 190.248 435.65 191.139 435.732 191.865C435.814 192.58 435.949 193.16 436.137 193.605C436.336 194.039 436.6 194.355 436.928 194.555C437.268 194.742 437.689 194.836 438.193 194.836C438.463 194.836 438.727 194.783 438.984 194.678C439.242 194.561 439.465 194.373 439.652 194.115C439.852 193.857 440.01 193.518 440.127 193.096C440.244 192.662 440.303 192.129 440.303 191.496V190.74H444.012V191.672C444.012 193.969 443.461 195.645 442.359 196.699C441.27 197.742 439.688 198.264 437.613 198.264ZM440.074 183.744C440.086 183.615 440.098 183.445 440.109 183.234C440.121 183.012 440.127 182.783 440.127 182.549C440.139 182.314 440.145 182.086 440.145 181.863C440.145 181.629 440.145 181.43 440.145 181.266C440.145 179.672 439.957 178.523 439.582 177.82C439.207 177.117 438.65 176.766 437.912 176.766C437.525 176.766 437.186 176.859 436.893 177.047C436.6 177.223 436.359 177.527 436.172 177.961C435.984 178.383 435.844 178.945 435.75 179.648C435.656 180.352 435.609 181.225 435.609 182.268V183.744H440.074ZM447.984 173.795H451.236L451.623 176.256C452.115 175.342 452.678 174.656 453.311 174.199C453.955 173.742 454.611 173.514 455.279 173.514C456.557 173.514 457.5 173.906 458.109 174.691C458.719 175.477 459.023 176.654 459.023 178.225C459.023 178.424 459.006 178.664 458.971 178.945C458.947 179.215 458.906 179.502 458.848 179.807C458.801 180.1 458.736 180.398 458.654 180.703C458.584 180.996 458.508 181.266 458.426 181.512H455.332V179.262C455.332 178.77 455.297 178.365 455.227 178.049C455.168 177.732 455.086 177.48 454.98 177.293C454.875 177.094 454.752 176.959 454.611 176.889C454.471 176.807 454.318 176.766 454.154 176.766C453.803 176.766 453.475 176.883 453.17 177.117C452.877 177.34 452.631 177.656 452.432 178.066V198H447.984V173.795ZM461.836 173.795H465.088L465.475 176.256C465.967 175.342 466.529 174.656 467.162 174.199C467.807 173.742 468.463 173.514 469.131 173.514C470.408 173.514 471.352 173.906 471.961 174.691C472.57 175.477 472.875 176.654 472.875 178.225C472.875 178.424 472.857 178.664 472.822 178.945C472.799 179.215 472.758 179.502 472.699 179.807C472.652 180.1 472.588 180.398 472.506 180.703C472.436 180.996 472.359 181.266 472.277 181.512H469.184V179.262C469.184 178.77 469.148 178.365 469.078 178.049C469.02 177.732 468.938 177.48 468.832 177.293C468.727 177.094 468.604 176.959 468.463 176.889C468.322 176.807 468.17 176.766 468.006 176.766C467.654 176.766 467.326 176.883 467.021 177.117C466.729 177.34 466.482 177.656 466.283 178.066V198H461.836V173.795ZM478.061 170.332C477.24 170.332 476.59 170.086 476.109 169.594C475.641 169.102 475.406 168.381 475.406 167.432C475.406 166.904 475.465 166.465 475.582 166.113C475.711 165.75 475.887 165.463 476.109 165.252C476.344 165.029 476.625 164.871 476.953 164.777C477.281 164.672 477.656 164.619 478.078 164.619C478.957 164.619 479.625 164.842 480.082 165.287C480.539 165.732 480.768 166.447 480.768 167.432C480.768 168.346 480.533 169.061 480.064 169.576C479.607 170.08 478.939 170.332 478.061 170.332ZM475.758 173.795H480.205V198H475.758V173.795ZM490.699 198.264C489.656 198.264 488.73 198.07 487.922 197.684C487.125 197.297 486.451 196.693 485.9 195.873C485.35 195.053 484.934 194.004 484.652 192.727C484.371 191.438 484.23 189.891 484.23 188.086V183.516C484.23 181.98 484.342 180.668 484.564 179.578C484.799 178.477 485.098 177.557 485.461 176.818C485.836 176.068 486.264 175.477 486.744 175.043C487.236 174.609 487.74 174.281 488.256 174.059C488.771 173.824 489.281 173.678 489.785 173.619C490.301 173.549 490.775 173.514 491.209 173.514C492.006 173.514 492.773 173.637 493.512 173.883C494.25 174.117 494.9 174.527 495.463 175.113C496.025 175.688 496.471 176.461 496.799 177.434C497.139 178.406 497.309 179.619 497.309 181.072C497.309 181.564 497.291 182.062 497.256 182.566C497.232 183.07 497.197 183.568 497.15 184.061C497.104 184.541 497.039 185.01 496.957 185.467C496.887 185.924 496.811 186.346 496.729 186.732H488.695V189.193C488.695 190.248 488.736 191.139 488.818 191.865C488.9 192.58 489.035 193.16 489.223 193.605C489.422 194.039 489.686 194.355 490.014 194.555C490.354 194.742 490.775 194.836 491.279 194.836C491.549 194.836 491.812 194.783 492.07 194.678C492.328 194.561 492.551 194.373 492.738 194.115C492.938 193.857 493.096 193.518 493.213 193.096C493.33 192.662 493.389 192.129 493.389 191.496V190.74H497.098V191.672C497.098 193.969 496.547 195.645 495.445 196.699C494.355 197.742 492.773 198.264 490.699 198.264ZM493.16 183.744C493.172 183.615 493.184 183.445 493.195 183.234C493.207 183.012 493.213 182.783 493.213 182.549C493.225 182.314 493.23 182.086 493.23 181.863C493.23 181.629 493.23 181.43 493.23 181.266C493.23 179.672 493.043 178.523 492.668 177.82C492.293 177.117 491.736 176.766 490.998 176.766C490.611 176.766 490.271 176.859 489.979 177.047C489.686 177.223 489.445 177.527 489.258 177.961C489.07 178.383 488.93 178.945 488.836 179.648C488.742 180.352 488.695 181.225 488.695 182.268V183.744H493.16ZM500.121 192.938C500.121 192.41 500.168 191.9 500.262 191.408C500.367 190.916 500.467 190.523 500.561 190.23H503.689C503.689 191.109 503.73 191.848 503.812 192.445C503.906 193.031 504.053 193.5 504.252 193.852C504.451 194.203 504.715 194.455 505.043 194.607C505.383 194.76 505.793 194.836 506.273 194.836C506.941 194.836 507.428 194.648 507.732 194.273C508.037 193.898 508.189 193.465 508.189 192.973C508.189 192.715 508.154 192.469 508.084 192.234C508.014 192 507.914 191.766 507.785 191.531C507.656 191.285 507.498 191.039 507.311 190.793C507.123 190.547 506.912 190.277 506.678 189.984L503.426 186.152C503.004 185.625 502.594 185.092 502.195 184.553C501.809 184.002 501.463 183.439 501.158 182.865C500.865 182.279 500.625 181.67 500.438 181.037C500.262 180.404 500.174 179.736 500.174 179.033C500.174 178.096 500.332 177.281 500.648 176.59C500.977 175.898 501.41 175.324 501.949 174.867C502.5 174.41 503.133 174.07 503.848 173.848C504.562 173.625 505.318 173.514 506.115 173.514C506.994 173.514 507.785 173.619 508.488 173.83C509.191 174.041 509.795 174.357 510.299 174.779C510.803 175.201 511.189 175.729 511.459 176.361C511.729 176.982 511.863 177.709 511.863 178.541C511.863 179.104 511.811 179.648 511.705 180.176C511.611 180.703 511.518 181.154 511.424 181.529H508.348C508.336 180.732 508.301 180.035 508.242 179.438C508.184 178.84 508.072 178.348 507.908 177.961C507.756 177.562 507.539 177.264 507.258 177.064C506.988 176.865 506.631 176.766 506.186 176.766C505.799 176.766 505.477 176.83 505.219 176.959C504.961 177.076 504.75 177.234 504.586 177.434C504.434 177.633 504.322 177.855 504.252 178.102C504.193 178.348 504.164 178.6 504.164 178.857C504.164 179.42 504.299 179.941 504.568 180.422C504.838 180.902 505.195 181.424 505.641 181.986L509.191 186.152C509.449 186.469 509.748 186.855 510.088 187.312C510.428 187.758 510.75 188.256 511.055 188.807C511.359 189.346 511.617 189.938 511.828 190.582C512.039 191.227 512.145 191.9 512.145 192.604C512.145 193.459 512.01 194.238 511.74 194.941C511.471 195.633 511.072 196.225 510.545 196.717C510.018 197.209 509.367 197.59 508.594 197.859C507.832 198.129 506.959 198.264 505.975 198.264C505.166 198.264 504.404 198.176 503.689 198C502.975 197.812 502.354 197.514 501.826 197.104C501.299 196.682 500.883 196.131 500.578 195.451C500.273 194.771 500.121 193.934 500.121 192.938ZM514.975 194.854C514.975 193.611 515.221 192.721 515.713 192.182C516.205 191.643 516.873 191.373 517.717 191.373C518.596 191.373 519.275 191.66 519.756 192.234C520.236 192.809 520.477 193.682 520.477 194.854C520.477 195.932 520.23 196.77 519.738 197.367C519.258 197.953 518.578 198.246 517.699 198.246C516.867 198.246 516.205 197.959 515.713 197.385C515.221 196.811 514.975 195.967 514.975 194.854Z" fill="#232735"/>
<path d="M274.807 22.9648H282.664L290.996 68H284.088L282.849 59.9316H274.622L273.436 68H266.501L274.807 22.9648ZM282.058 54.79L278.894 32.3516H278.604L275.413 54.79H282.058ZM299.961 68.3955C298.836 68.3955 297.834 68.1758 296.955 67.7363C296.094 67.2793 295.364 66.6641 294.767 65.8906C294.169 65.1172 293.712 64.2031 293.396 63.1484C293.097 62.0762 292.947 60.916 292.947 59.668C292.947 58.1738 293.132 56.8467 293.501 55.6865C293.87 54.5264 294.406 53.4805 295.109 52.5488C295.83 51.6172 296.718 50.7734 297.772 50.0176C298.827 49.2441 300.049 48.5146 301.438 47.8291C302.105 47.4951 302.853 47.1611 303.679 46.8271C304.522 46.4756 305.27 46.1768 305.92 45.9307V41.1318C305.92 40.4287 305.894 39.7783 305.841 39.1807C305.788 38.5654 305.656 38.0381 305.445 37.5986C305.252 37.1416 304.953 36.79 304.549 36.5439C304.145 36.2803 303.591 36.1484 302.888 36.1484C302.413 36.1484 301.947 36.2363 301.49 36.4121C301.051 36.5879 300.655 36.8867 300.304 37.3086C299.97 37.7305 299.697 38.293 299.486 38.9961C299.293 39.6992 299.196 40.5693 299.196 41.6064V43.1885H294.107C293.949 42.5029 293.826 41.8789 293.738 41.3164C293.668 40.7363 293.633 40.165 293.633 39.6025C293.633 38.249 293.861 37.0537 294.318 36.0166C294.793 34.9795 295.443 34.1094 296.27 33.4062C297.113 32.7031 298.115 32.1758 299.275 31.8242C300.436 31.4551 301.71 31.2705 303.099 31.2705C304.909 31.2705 306.412 31.4727 307.607 31.877C308.803 32.2637 309.752 32.8525 310.455 33.6436C311.176 34.4346 311.677 35.4277 311.958 36.623C312.257 37.8184 312.406 39.2158 312.406 40.8154V68H307.449L306.975 64.8887C306.254 65.9258 305.287 66.7695 304.074 67.4199C302.879 68.0703 301.508 68.3955 299.961 68.3955ZM302.914 63.2539C303.477 63.2539 304.021 63.1133 304.549 62.832C305.094 62.5332 305.551 62.1729 305.92 61.751V50.3867C305.568 50.5273 305.173 50.6943 304.733 50.8877C304.294 51.0811 303.819 51.3359 303.31 51.6523C302.835 51.9512 302.369 52.3115 301.912 52.7334C301.455 53.1553 301.042 53.6562 300.673 54.2363C300.321 54.8164 300.031 55.4756 299.803 56.2139C299.592 56.9346 299.486 57.7432 299.486 58.6396C299.486 60.0283 299.759 61.1445 300.304 61.9883C300.849 62.832 301.719 63.2539 302.914 63.2539Z" fill="black"/>
<path d="M335.623 35.0625V41H333.963V26.7227H337.879C339.63 26.7227 340.923 27.0579 341.756 27.7285C342.596 28.3991 343.016 29.4082 343.016 30.7559C343.016 32.6439 342.059 33.9199 340.145 34.584L344.021 41H342.059L338.602 35.0625H335.623ZM335.623 33.6367H337.898C339.07 33.6367 339.93 33.4056 340.477 32.9434C341.023 32.4746 341.297 31.7747 341.297 30.8438C341.297 29.8997 341.017 29.2194 340.457 28.8027C339.904 28.3861 339.012 28.1777 337.781 28.1777H335.623V33.6367ZM350.604 41.1953C349.021 41.1953 347.771 40.7135 346.854 39.75C345.942 38.7865 345.486 37.4486 345.486 35.7363C345.486 34.0111 345.91 32.6406 346.756 31.625C347.609 30.6094 348.751 30.1016 350.184 30.1016C351.525 30.1016 352.586 30.5443 353.367 31.4297C354.148 32.3086 354.539 33.4707 354.539 34.916V35.9414H347.166C347.199 37.1979 347.514 38.1517 348.113 38.8027C348.719 39.4538 349.568 39.7793 350.662 39.7793C351.814 39.7793 352.954 39.5384 354.08 39.0566V40.502C353.507 40.7493 352.964 40.9251 352.449 41.0293C351.941 41.14 351.326 41.1953 350.604 41.1953ZM350.164 31.459C349.305 31.459 348.618 31.7389 348.104 32.2988C347.596 32.8587 347.296 33.6335 347.205 34.623H352.801C352.801 33.6009 352.573 32.8197 352.117 32.2793C351.661 31.7324 351.01 31.459 350.164 31.459ZM366.072 30.2969V31.3223L364.09 31.5566C364.272 31.7845 364.435 32.084 364.578 32.4551C364.721 32.8197 364.793 33.2331 364.793 33.6953C364.793 34.7435 364.435 35.5801 363.719 36.2051C363.003 36.8301 362.02 37.1426 360.77 37.1426C360.451 37.1426 360.151 37.1165 359.871 37.0645C359.181 37.429 358.836 37.888 358.836 38.4414C358.836 38.7344 358.956 38.9525 359.197 39.0957C359.438 39.2324 359.852 39.3008 360.438 39.3008H362.332C363.491 39.3008 364.38 39.5449 364.998 40.0332C365.623 40.5215 365.936 41.2311 365.936 42.1621C365.936 43.347 365.46 44.2487 364.51 44.8672C363.559 45.4922 362.173 45.8047 360.35 45.8047C358.95 45.8047 357.869 45.5443 357.107 45.0234C356.352 44.5026 355.975 43.7669 355.975 42.8164C355.975 42.1654 356.183 41.6022 356.6 41.127C357.016 40.6517 357.602 40.3294 358.357 40.1602C358.084 40.0365 357.853 39.8444 357.664 39.584C357.482 39.3236 357.391 39.0208 357.391 38.6758C357.391 38.2852 357.495 37.9434 357.703 37.6504C357.911 37.3574 358.24 37.0742 358.689 36.8008C358.136 36.5729 357.684 36.1855 357.332 35.6387C356.987 35.0918 356.814 34.4668 356.814 33.7637C356.814 32.5918 357.166 31.6901 357.869 31.0586C358.572 30.4206 359.568 30.1016 360.857 30.1016C361.417 30.1016 361.922 30.1667 362.371 30.2969H366.072ZM357.537 42.7969C357.537 43.3763 357.781 43.8158 358.27 44.1152C358.758 44.4147 359.458 44.5645 360.369 44.5645C361.73 44.5645 362.736 44.3594 363.387 43.9492C364.044 43.5456 364.373 42.9954 364.373 42.2988C364.373 41.7194 364.194 41.3158 363.836 41.0879C363.478 40.8665 362.804 40.7559 361.814 40.7559H359.871C359.135 40.7559 358.562 40.9316 358.152 41.2832C357.742 41.6348 357.537 42.1393 357.537 42.7969ZM358.416 33.7246C358.416 34.4733 358.628 35.0397 359.051 35.4238C359.474 35.8079 360.063 36 360.818 36C362.4 36 363.191 35.2318 363.191 33.6953C363.191 32.0872 362.391 31.2832 360.789 31.2832C360.027 31.2832 359.441 31.4883 359.031 31.8984C358.621 32.3086 358.416 32.9173 358.416 33.7246ZM369.793 30.2969V37.2402C369.793 38.1126 369.992 38.7637 370.389 39.1934C370.786 39.623 371.408 39.8379 372.254 39.8379C373.374 39.8379 374.191 39.5319 374.705 38.9199C375.226 38.3079 375.486 37.3086 375.486 35.9219V30.2969H377.107V41H375.77L375.535 39.5645H375.447C375.115 40.0918 374.653 40.4954 374.061 40.7754C373.475 41.0553 372.804 41.1953 372.049 41.1953C370.747 41.1953 369.77 40.8861 369.119 40.2676C368.475 39.6491 368.152 38.6595 368.152 37.2988V30.2969H369.793ZM382.176 41H380.555V25.8047H382.176V41ZM392.195 41L391.873 39.4766H391.795C391.261 40.1471 390.727 40.6029 390.193 40.8438C389.666 41.0781 389.005 41.1953 388.211 41.1953C387.15 41.1953 386.316 40.9219 385.711 40.375C385.112 39.8281 384.812 39.0501 384.812 38.041C384.812 35.8796 386.541 34.7467 389.998 34.6426L391.814 34.584V33.9199C391.814 33.0801 391.632 32.4616 391.268 32.0645C390.91 31.6608 390.333 31.459 389.539 31.459C388.647 31.459 387.638 31.7324 386.512 32.2793L386.014 31.0391C386.541 30.7526 387.117 30.528 387.742 30.3652C388.374 30.2025 389.005 30.1211 389.637 30.1211C390.913 30.1211 391.857 30.4043 392.469 30.9707C393.087 31.5371 393.396 32.4453 393.396 33.6953V41H392.195ZM388.533 39.8574C389.542 39.8574 390.333 39.5807 390.906 39.0273C391.486 38.474 391.775 37.6992 391.775 36.7031V35.7363L390.154 35.8047C388.865 35.8503 387.934 36.0521 387.361 36.4102C386.795 36.7617 386.512 37.3118 386.512 38.0605C386.512 38.6465 386.688 39.0924 387.039 39.3984C387.397 39.7044 387.895 39.8574 388.533 39.8574ZM401.629 30.1016C402.104 30.1016 402.531 30.1406 402.908 30.2188L402.684 31.7227C402.241 31.625 401.85 31.5762 401.512 31.5762C400.646 31.5762 399.904 31.9277 399.285 32.6309C398.673 33.334 398.367 34.2096 398.367 35.2578V41H396.746V30.2969H398.084L398.27 32.2793H398.348C398.745 31.5827 399.223 31.0456 399.783 30.668C400.343 30.2904 400.958 30.1016 401.629 30.1016Z" fill="black"/>
<path d="M340.828 68.375H339.133V71H337.891V68.375H332.336V67.2422L337.758 59.5156H339.133V67.1953H340.828V68.375ZM337.891 67.1953V63.3984C337.891 62.6536 337.917 61.8125 337.969 60.875H337.906C337.656 61.375 337.422 61.7891 337.203 62.1172L333.633 67.1953H337.891ZM349.508 65.2734C349.508 67.2474 349.195 68.7214 348.57 69.6953C347.951 70.6693 347 71.1562 345.719 71.1562C344.49 71.1562 343.555 70.6589 342.914 69.6641C342.273 68.6641 341.953 67.2005 341.953 65.2734C341.953 63.2839 342.263 61.8073 342.883 60.8438C343.503 59.8802 344.448 59.3984 345.719 59.3984C346.958 59.3984 347.898 59.901 348.539 60.9062C349.185 61.9115 349.508 63.3672 349.508 65.2734ZM343.266 65.2734C343.266 66.9349 343.461 68.1458 343.852 68.9062C344.242 69.6615 344.865 70.0391 345.719 70.0391C346.583 70.0391 347.208 69.6562 347.594 68.8906C347.984 68.1198 348.18 66.9141 348.18 65.2734C348.18 63.6328 347.984 62.4323 347.594 61.6719C347.208 60.9062 346.583 60.5234 345.719 60.5234C344.865 60.5234 344.242 60.901 343.852 61.6562C343.461 62.4062 343.266 63.612 343.266 65.2734ZM358.664 65.2734C358.664 67.2474 358.352 68.7214 357.727 69.6953C357.107 70.6693 356.156 71.1562 354.875 71.1562C353.646 71.1562 352.711 70.6589 352.07 69.6641C351.43 68.6641 351.109 67.2005 351.109 65.2734C351.109 63.2839 351.419 61.8073 352.039 60.8438C352.659 59.8802 353.604 59.3984 354.875 59.3984C356.115 59.3984 357.055 59.901 357.695 60.9062C358.341 61.9115 358.664 63.3672 358.664 65.2734ZM352.422 65.2734C352.422 66.9349 352.617 68.1458 353.008 68.9062C353.398 69.6615 354.021 70.0391 354.875 70.0391C355.74 70.0391 356.365 69.6562 356.75 68.8906C357.141 68.1198 357.336 66.9141 357.336 65.2734C357.336 63.6328 357.141 62.4323 356.75 61.6719C356.365 60.9062 355.74 60.5234 354.875 60.5234C354.021 60.5234 353.398 60.901 353.008 61.6562C352.617 62.4062 352.422 63.612 352.422 65.2734Z" fill="black"/>
<defs>
<filter id="filter0_d" x="0.733333" y="0.366666" width="232.533" height="232.533" filterUnits="userSpaceOnUse" color-interpolation-filters="sRGB">
<feFlood flood-opacity="0" result="BackgroundImageFix"/>
<feColorMatrix in="SourceAlpha" type="matrix" values="0 0 0 0 0 0 0 0 0 0 0 0 0 0 0 0 0 0 127 0"/>
<feOffset dy="3.63333"/>
<feGaussianBlur stdDeviation="3.63333"/>
<feColorMatrix type="matrix" values="0 0 0 0 0 0 0 0 0 0 0 0 0 0 0 0 0 0 0.08 0"/>
<feBlend mode="normal" in2="BackgroundImageFix" result="effect1_dropShadow"/>
<feBlend mode="normal" in="SourceGraphic" in2="effect1_dropShadow" result="shape"/>
</filter>
</defs>
</svg>
