<svg width="1086" height="307" viewBox="0 0 1086 307" fill="none" xmlns="http://www.w3.org/2000/svg">
<g filter="url(#filter0_d)">
<rect x="10" y="5" width="287" height="287" rx="9.56667" fill="white"/>
<rect x="11.1958" y="6.19583" width="284.608" height="284.608" rx="8.37083" stroke="#F0F5F9" stroke-width="2.39167"/>
</g>
<path d="M103.141 246.662H101.156V229.589H110.673V231.352H103.141V237.6H110.218V239.363H103.141V246.662ZM111.666 252.408C110.926 252.408 110.327 252.31 109.868 252.116V250.539C110.405 250.695 110.934 250.773 111.456 250.773C112.063 250.773 112.507 250.605 112.787 250.271C113.075 249.944 113.219 249.441 113.219 248.764V233.863H115.158V248.624C115.158 251.146 113.994 252.408 111.666 252.408ZM113.056 230.395C113.056 229.951 113.165 229.628 113.383 229.425C113.601 229.215 113.873 229.11 114.2 229.11C114.511 229.11 114.78 229.215 115.006 229.425C115.232 229.635 115.345 229.959 115.345 230.395C115.345 230.831 115.232 231.158 115.006 231.376C114.78 231.586 114.511 231.691 114.2 231.691C113.873 231.691 113.601 231.586 113.383 231.376C113.165 231.158 113.056 230.831 113.056 230.395ZM127.139 246.662L126.754 244.84H126.661C126.022 245.642 125.384 246.187 124.745 246.475C124.115 246.756 123.325 246.896 122.375 246.896C121.106 246.896 120.109 246.569 119.385 245.915C118.669 245.261 118.311 244.33 118.311 243.124C118.311 240.539 120.378 239.184 124.512 239.06L126.684 238.99V238.196C126.684 237.191 126.466 236.452 126.03 235.977C125.602 235.494 124.913 235.253 123.963 235.253C122.896 235.253 121.69 235.58 120.343 236.234L119.747 234.75C120.378 234.408 121.067 234.139 121.814 233.945C122.569 233.75 123.325 233.653 124.08 233.653C125.606 233.653 126.735 233.991 127.466 234.669C128.206 235.346 128.576 236.432 128.576 237.927V246.662H127.139ZM122.76 245.296C123.967 245.296 124.913 244.965 125.598 244.303C126.291 243.641 126.637 242.715 126.637 241.524V240.368L124.699 240.449C123.157 240.504 122.044 240.745 121.359 241.173C120.681 241.594 120.343 242.252 120.343 243.147C120.343 243.848 120.553 244.381 120.973 244.747C121.402 245.113 121.997 245.296 122.76 245.296ZM134.52 246.662H132.581V228.491H134.52V246.662ZM140.569 246.662H138.631V228.491H140.569V246.662ZM152.551 246.662L152.165 244.84H152.072C151.434 245.642 150.795 246.187 150.157 246.475C149.526 246.756 148.736 246.896 147.786 246.896C146.517 246.896 145.521 246.569 144.797 245.915C144.08 245.261 143.722 244.33 143.722 243.124C143.722 240.539 145.789 239.184 149.923 239.06L152.095 238.99V238.196C152.095 237.191 151.877 236.452 151.441 235.977C151.013 235.494 150.324 235.253 149.374 235.253C148.308 235.253 147.101 235.58 145.754 236.234L145.159 234.75C145.789 234.408 146.478 234.139 147.226 233.945C147.981 233.75 148.736 233.653 149.491 233.653C151.017 233.653 152.146 233.991 152.878 234.669C153.617 235.346 153.987 236.432 153.987 237.927V246.662H152.551ZM148.172 245.296C149.378 245.296 150.324 244.965 151.009 244.303C151.702 243.641 152.049 242.715 152.049 241.524V240.368L150.11 240.449C148.569 240.504 147.455 240.745 146.77 241.173C146.093 241.594 145.754 242.252 145.754 243.147C145.754 243.848 145.964 244.381 146.385 244.747C146.813 245.113 147.409 245.296 148.172 245.296ZM179.317 238.102C179.317 240.835 178.624 242.984 177.238 244.548C175.86 246.113 173.941 246.896 171.481 246.896C168.966 246.896 167.024 246.129 165.654 244.595C164.291 243.054 163.61 240.881 163.61 238.079C163.61 235.299 164.295 233.147 165.665 231.621C167.036 230.087 168.982 229.32 171.504 229.32C173.957 229.32 175.872 230.099 177.25 231.656C178.628 233.213 179.317 235.362 179.317 238.102ZM165.712 238.102C165.712 240.414 166.202 242.17 167.183 243.369C168.172 244.56 169.605 245.156 171.481 245.156C173.373 245.156 174.801 244.56 175.767 243.369C176.732 242.178 177.215 240.422 177.215 238.102C177.215 235.805 176.732 234.065 175.767 232.882C174.809 231.691 173.388 231.095 171.504 231.095C169.612 231.095 168.172 231.695 167.183 232.894C166.202 234.085 165.712 235.821 165.712 238.102ZM191.602 246.662V238.382C191.602 237.339 191.365 236.561 190.89 236.047C190.415 235.533 189.671 235.276 188.659 235.276C187.32 235.276 186.339 235.638 185.717 236.362C185.094 237.086 184.782 238.281 184.782 239.947V246.662H182.844V233.863H184.42L184.736 235.615H184.829C185.226 234.984 185.783 234.497 186.499 234.155C187.215 233.805 188.013 233.629 188.893 233.629C190.434 233.629 191.594 234.003 192.373 234.75C193.152 235.49 193.541 236.677 193.541 238.312V246.662H191.602ZM202.942 246.896C201.05 246.896 199.555 246.32 198.457 245.167C197.367 244.015 196.822 242.415 196.822 240.368C196.822 238.305 197.328 236.666 198.341 235.451C199.36 234.237 200.727 233.629 202.44 233.629C204.043 233.629 205.312 234.159 206.247 235.218C207.181 236.269 207.648 237.658 207.648 239.387V240.613H198.831C198.87 242.115 199.248 243.256 199.964 244.035C200.688 244.813 201.704 245.202 203.012 245.202C204.39 245.202 205.752 244.914 207.099 244.338V246.067C206.414 246.362 205.764 246.573 205.149 246.697C204.542 246.829 203.806 246.896 202.942 246.896ZM202.416 235.253C201.388 235.253 200.567 235.587 199.952 236.257C199.345 236.926 198.987 237.853 198.878 239.036H205.569C205.569 237.814 205.297 236.88 204.752 236.234C204.207 235.58 203.428 235.253 202.416 235.253Z" fill="black"/>
<path d="M110.022 73.9636H131.076L153.402 194.638H134.891L131.571 173.018H109.527L106.348 194.638H87.7662L110.022 73.9636ZM129.451 159.241L120.973 99.1158H120.196L111.647 159.241H129.451ZM177.424 195.697C174.409 195.697 171.725 195.109 169.37 193.931C167.062 192.707 165.107 191.058 163.505 188.986C161.904 186.913 160.679 184.464 159.832 181.638C159.031 178.764 158.63 175.656 158.63 172.312C158.63 168.308 159.125 164.752 160.114 161.643C161.103 158.534 162.54 155.732 164.424 153.235C166.355 150.739 168.734 148.478 171.56 146.453C174.386 144.38 177.659 142.426 181.38 140.589C183.17 139.694 185.172 138.799 187.386 137.904C189.647 136.962 191.649 136.161 193.391 135.502V122.643C193.391 120.759 193.321 119.016 193.179 117.415C193.038 115.766 192.685 114.353 192.12 113.176C191.602 111.951 190.801 111.009 189.717 110.35C188.634 109.643 187.15 109.29 185.266 109.29C183.995 109.29 182.746 109.525 181.522 109.996C180.344 110.467 179.284 111.268 178.342 112.398C177.448 113.529 176.717 115.036 176.152 116.92C175.634 118.804 175.375 121.136 175.375 123.915V128.154H161.739C161.315 126.317 160.986 124.645 160.75 123.138C160.562 121.583 160.467 120.052 160.467 118.545C160.467 114.918 161.08 111.715 162.304 108.936C163.576 106.158 165.319 103.826 167.533 101.942C169.794 100.058 172.478 98.6448 175.587 97.7028C178.696 96.7137 182.111 96.2191 185.832 96.2191C190.683 96.2191 194.71 96.7608 197.913 97.8441C201.116 98.8803 203.659 100.458 205.544 102.578C207.475 104.697 208.817 107.359 209.571 110.561C210.371 113.764 210.772 117.509 210.772 121.795V194.638H197.489L196.217 186.301C194.286 189.08 191.696 191.341 188.446 193.083C185.243 194.826 181.569 195.697 177.424 195.697ZM185.337 181.92C186.844 181.92 188.304 181.543 189.717 180.79C191.178 179.989 192.402 179.024 193.391 177.893V147.442C192.449 147.819 191.39 148.266 190.212 148.784C189.034 149.302 187.763 149.985 186.397 150.833C185.125 151.634 183.877 152.6 182.652 153.73C181.428 154.86 180.321 156.203 179.332 157.757C178.39 159.312 177.612 161.078 177 163.056C176.435 164.987 176.152 167.154 176.152 169.556C176.152 173.277 176.882 176.268 178.342 178.529C179.803 180.79 182.134 181.92 185.337 181.92Z" fill="black"/>
<path d="M373.484 42.9062H394.438L416.656 163H398.234L394.93 141.484H372.992L369.828 163H351.336L373.484 42.9062ZM392.82 127.773L384.383 67.9375H383.609L375.102 127.773H392.82ZM427.484 35.1016H445.273V163H427.484V35.1016ZM457.227 66.1797H474.172L481.133 118.633L482.82 138.25H483.383L485.492 118.633L494.773 66.1797H509.75L519.312 118.633L521.914 138.25H522.477L523.672 118.633L529.789 66.1797H546.383L530.703 163H514.32L504.266 109.141L502.016 94.3047H501.453L499.414 109.141L490.273 163H473.188L457.227 66.1797ZM571.344 164.055C568.344 164.055 565.672 163.469 563.328 162.297C561.031 161.078 559.086 159.438 557.492 157.375C555.898 155.312 554.68 152.875 553.836 150.062C553.039 147.203 552.641 144.109 552.641 140.781C552.641 136.797 553.133 133.258 554.117 130.164C555.102 127.07 556.531 124.281 558.406 121.797C560.328 119.312 562.695 117.062 565.508 115.047C568.32 112.984 571.578 111.039 575.281 109.211C577.062 108.32 579.055 107.43 581.258 106.539C583.508 105.602 585.5 104.805 587.234 104.148V91.3516C587.234 89.4766 587.164 87.7422 587.023 86.1484C586.883 84.5078 586.531 83.1016 585.969 81.9297C585.453 80.7109 584.656 79.7734 583.578 79.1172C582.5 78.4141 581.023 78.0625 579.148 78.0625C577.883 78.0625 576.641 78.2969 575.422 78.7656C574.25 79.2344 573.195 80.0312 572.258 81.1562C571.367 82.2812 570.641 83.7812 570.078 85.6562C569.562 87.5312 569.305 89.8516 569.305 92.6172V96.8359H555.734C555.312 95.0078 554.984 93.3438 554.75 91.8438C554.562 90.2969 554.469 88.7734 554.469 87.2734C554.469 83.6641 555.078 80.4766 556.297 77.7109C557.562 74.9453 559.297 72.625 561.5 70.75C563.75 68.875 566.422 67.4688 569.516 66.5312C572.609 65.5469 576.008 65.0547 579.711 65.0547C584.539 65.0547 588.547 65.5938 591.734 66.6719C594.922 67.7031 597.453 69.2734 599.328 71.3828C601.25 73.4922 602.586 76.1406 603.336 79.3281C604.133 82.5156 604.531 86.2422 604.531 90.5078V163H591.312L590.047 154.703C588.125 157.469 585.547 159.719 582.312 161.453C579.125 163.188 575.469 164.055 571.344 164.055ZM579.219 150.344C580.719 150.344 582.172 149.969 583.578 149.219C585.031 148.422 586.25 147.461 587.234 146.336V116.031C586.297 116.406 585.242 116.852 584.07 117.367C582.898 117.883 581.633 118.562 580.273 119.406C579.008 120.203 577.766 121.164 576.547 122.289C575.328 123.414 574.227 124.75 573.242 126.297C572.305 127.844 571.531 129.602 570.922 131.57C570.359 133.492 570.078 135.648 570.078 138.039C570.078 141.742 570.805 144.719 572.258 146.969C573.711 149.219 576.031 150.344 579.219 150.344ZM619.297 181.633C621.969 182.008 624.43 181.914 626.68 181.352C628.93 180.836 630.852 179.828 632.445 178.328C634.086 176.828 635.375 174.836 636.312 172.352C637.297 169.914 637.859 166.984 638 163.562L615.078 66.1797H633.148L643.344 119.758L646.297 138.25H646.859L648.898 119.758L657.125 66.1797H674.633L654.242 166.586C653.352 171.227 652.203 175.281 650.797 178.75C649.438 182.219 647.727 185.102 645.664 187.398C643.648 189.695 641.234 191.406 638.422 192.531C635.609 193.703 632.328 194.289 628.578 194.289C625.531 194.289 622.414 193.703 619.227 192.531L619.297 181.633ZM682.297 142.75C682.297 140.641 682.484 138.602 682.859 136.633C683.281 134.664 683.68 133.094 684.055 131.922H696.57C696.57 135.438 696.734 138.391 697.062 140.781C697.438 143.125 698.023 145 698.82 146.406C699.617 147.812 700.672 148.82 701.984 149.43C703.344 150.039 704.984 150.344 706.906 150.344C709.578 150.344 711.523 149.594 712.742 148.094C713.961 146.594 714.57 144.859 714.57 142.891C714.57 141.859 714.43 140.875 714.148 139.938C713.867 139 713.469 138.062 712.953 137.125C712.438 136.141 711.805 135.156 711.055 134.172C710.305 133.188 709.461 132.109 708.523 130.938L695.516 115.609C693.828 113.5 692.188 111.367 690.594 109.211C689.047 107.008 687.664 104.758 686.445 102.461C685.273 100.117 684.312 97.6797 683.562 95.1484C682.859 92.6172 682.508 89.9453 682.508 87.1328C682.508 83.3828 683.141 80.125 684.406 77.3594C685.719 74.5938 687.453 72.2969 689.609 70.4688C691.812 68.6406 694.344 67.2812 697.203 66.3906C700.062 65.5 703.086 65.0547 706.273 65.0547C709.789 65.0547 712.953 65.4766 715.766 66.3203C718.578 67.1641 720.992 68.4297 723.008 70.1172C725.023 71.8047 726.57 73.9141 727.648 76.4453C728.727 78.9297 729.266 81.8359 729.266 85.1641C729.266 87.4141 729.055 89.5938 728.633 91.7031C728.258 93.8125 727.883 95.6172 727.508 97.1172H715.203C715.156 93.9297 715.016 91.1406 714.781 88.75C714.547 86.3594 714.102 84.3906 713.445 82.8438C712.836 81.25 711.969 80.0547 710.844 79.2578C709.766 78.4609 708.336 78.0625 706.555 78.0625C705.008 78.0625 703.719 78.3203 702.688 78.8359C701.656 79.3047 700.812 79.9375 700.156 80.7344C699.547 81.5312 699.102 82.4219 698.82 83.4062C698.586 84.3906 698.469 85.3984 698.469 86.4297C698.469 88.6797 699.008 90.7656 700.086 92.6875C701.164 94.6094 702.594 96.6953 704.375 98.9453L718.578 115.609C719.609 116.875 720.805 118.422 722.164 120.25C723.523 122.031 724.812 124.023 726.031 126.227C727.25 128.383 728.281 130.75 729.125 133.328C729.969 135.906 730.391 138.602 730.391 141.414C730.391 144.836 729.852 147.953 728.773 150.766C727.695 153.531 726.102 155.898 723.992 157.867C721.883 159.836 719.281 161.359 716.188 162.438C713.141 163.516 709.648 164.055 705.711 164.055C702.477 164.055 699.43 163.703 696.57 163C693.711 162.25 691.227 161.055 689.117 159.414C687.008 157.727 685.344 155.523 684.125 152.805C682.906 150.086 682.297 146.734 682.297 142.75ZM776.375 42.9062H794.586V148.656H819.406V163H776.375V42.9062ZM854.211 164.055C852.148 164.055 850.039 163.891 847.883 163.562C845.773 163.234 843.711 162.555 841.695 161.523C839.727 160.492 837.852 159.016 836.07 157.094C834.336 155.172 832.812 152.641 831.5 149.5C830.188 146.359 829.156 142.492 828.406 137.898C827.656 133.305 827.281 127.82 827.281 121.445V106.258C827.281 99.9766 827.656 94.6094 828.406 90.1562C829.203 85.6562 830.258 81.8828 831.57 78.8359C832.93 75.7891 834.5 73.375 836.281 71.5938C838.062 69.7656 839.938 68.3828 841.906 67.4453C843.922 66.4609 845.984 65.8281 848.094 65.5469C850.203 65.2188 852.266 65.0547 854.281 65.0547C856.203 65.0547 858.195 65.1953 860.258 65.4766C862.32 65.7578 864.336 66.3672 866.305 67.3047C868.273 68.1953 870.125 69.5547 871.859 71.3828C873.641 73.1641 875.188 75.5781 876.5 78.625C877.859 81.6719 878.914 85.4688 879.664 90.0156C880.461 94.5156 880.859 99.9297 880.859 106.258V121.445C880.859 127.727 880.461 133.141 879.664 137.688C878.867 142.234 877.789 146.078 876.43 149.219C875.07 152.359 873.5 154.914 871.719 156.883C869.938 158.805 868.062 160.305 866.094 161.383C864.125 162.461 862.109 163.164 860.047 163.492C858.031 163.867 856.086 164.055 854.211 164.055ZM854.352 150.344C855.945 150.344 857.281 149.945 858.359 149.148C859.484 148.305 860.375 146.945 861.031 145.07C861.734 143.195 862.227 140.734 862.508 137.688C862.836 134.594 863 130.773 863 126.227V102.391C863 97.8438 862.836 94.0234 862.508 90.9297C862.227 87.8359 861.734 85.3516 861.031 83.4766C860.375 81.5547 859.484 80.1719 858.359 79.3281C857.281 78.4844 855.945 78.0625 854.352 78.0625C852.664 78.0625 851.234 78.4844 850.062 79.3281C848.938 80.1719 848 81.5547 847.25 83.4766C846.5 85.3516 845.961 87.8359 845.633 90.9297C845.305 94.0234 845.141 97.8438 845.141 102.391V126.227C845.141 130.773 845.305 134.594 845.633 137.688C845.961 140.734 846.5 143.195 847.25 145.07C848 146.945 848.938 148.305 850.062 149.148C851.234 149.945 852.664 150.344 854.352 150.344ZM919.18 164.055C911.023 164.055 904.789 160.703 900.477 154C896.211 147.297 894.078 137.078 894.078 123.344V105.062C894.078 98.9219 894.523 93.6719 895.414 89.3125C896.305 84.9062 897.477 81.2266 898.93 78.2734C900.43 75.2734 902.117 72.9062 903.992 71.1719C905.914 69.4375 907.883 68.125 909.898 67.2344C911.914 66.2969 913.906 65.7109 915.875 65.4766C917.844 65.1953 919.648 65.0547 921.289 65.0547C924.57 65.0547 927.57 65.5 930.289 66.3906C933.008 67.2344 935.352 68.5469 937.32 70.3281C939.289 72.0625 940.812 74.2656 941.891 76.9375C942.969 79.6094 943.508 82.75 943.508 86.3594C943.508 88.6094 943.391 90.5547 943.156 92.1953C942.969 93.7891 942.688 95.3359 942.312 96.8359H928.109V93.6016C928.109 88.7266 927.523 84.9297 926.352 82.2109C925.227 79.4453 923.352 78.0625 920.727 78.0625C919.273 78.0625 918.008 78.4141 916.93 79.1172C915.852 79.7734 914.938 80.9219 914.188 82.5625C913.484 84.2031 912.945 86.4062 912.57 89.1719C912.242 91.9375 912.078 95.4062 912.078 99.5781V127.07C912.078 131.289 912.219 134.875 912.5 137.828C912.781 140.781 913.273 143.195 913.977 145.07C914.68 146.898 915.617 148.234 916.789 149.078C917.961 149.922 919.414 150.344 921.148 150.344C922.039 150.344 922.906 150.133 923.75 149.711C924.594 149.242 925.32 148.492 925.93 147.461C926.586 146.43 927.102 145.07 927.477 143.383C927.898 141.648 928.109 139.516 928.109 136.984V133.961H943.438V137.688C943.438 146.875 941.398 153.578 937.32 157.797C933.289 161.969 927.242 164.055 919.18 164.055ZM971.281 164.055C968.281 164.055 965.609 163.469 963.266 162.297C960.969 161.078 959.023 159.438 957.43 157.375C955.836 155.312 954.617 152.875 953.773 150.062C952.977 147.203 952.578 144.109 952.578 140.781C952.578 136.797 953.07 133.258 954.055 130.164C955.039 127.07 956.469 124.281 958.344 121.797C960.266 119.312 962.633 117.062 965.445 115.047C968.258 112.984 971.516 111.039 975.219 109.211C977 108.32 978.992 107.43 981.195 106.539C983.445 105.602 985.438 104.805 987.172 104.148V91.3516C987.172 89.4766 987.102 87.7422 986.961 86.1484C986.82 84.5078 986.469 83.1016 985.906 81.9297C985.391 80.7109 984.594 79.7734 983.516 79.1172C982.438 78.4141 980.961 78.0625 979.086 78.0625C977.82 78.0625 976.578 78.2969 975.359 78.7656C974.188 79.2344 973.133 80.0312 972.195 81.1562C971.305 82.2812 970.578 83.7812 970.016 85.6562C969.5 87.5312 969.242 89.8516 969.242 92.6172V96.8359H955.672C955.25 95.0078 954.922 93.3438 954.688 91.8438C954.5 90.2969 954.406 88.7734 954.406 87.2734C954.406 83.6641 955.016 80.4766 956.234 77.7109C957.5 74.9453 959.234 72.625 961.438 70.75C963.688 68.875 966.359 67.4688 969.453 66.5312C972.547 65.5469 975.945 65.0547 979.648 65.0547C984.477 65.0547 988.484 65.5938 991.672 66.6719C994.859 67.7031 997.391 69.2734 999.266 71.3828C1001.19 73.4922 1002.52 76.1406 1003.27 79.3281C1004.07 82.5156 1004.47 86.2422 1004.47 90.5078V163H991.25L989.984 154.703C988.062 157.469 985.484 159.719 982.25 161.453C979.062 163.188 975.406 164.055 971.281 164.055ZM979.156 150.344C980.656 150.344 982.109 149.969 983.516 149.219C984.969 148.422 986.188 147.461 987.172 146.336V116.031C986.234 116.406 985.18 116.852 984.008 117.367C982.836 117.883 981.57 118.562 980.211 119.406C978.945 120.203 977.703 121.164 976.484 122.289C975.266 123.414 974.164 124.75 973.18 126.297C972.242 127.844 971.469 129.602 970.859 131.57C970.297 133.492 970.016 135.648 970.016 138.039C970.016 141.742 970.742 144.719 972.195 146.969C973.648 149.219 975.969 150.344 979.156 150.344ZM1023.17 35.1016H1040.96V163H1023.17V35.1016ZM1056.85 150.414C1056.85 145.445 1057.84 141.883 1059.8 139.727C1061.77 137.57 1064.45 136.492 1067.82 136.492C1071.34 136.492 1074.05 137.641 1075.98 139.938C1077.9 142.234 1078.86 145.727 1078.86 150.414C1078.86 154.727 1077.88 158.078 1075.91 160.469C1073.98 162.812 1071.27 163.984 1067.75 163.984C1064.42 163.984 1061.77 162.836 1059.8 160.539C1057.84 158.242 1056.85 154.867 1056.85 150.414Z" fill="#232735"/>
<path d="M365.062 268.469C364.229 268.469 363.323 268.396 362.344 268.25C361.385 268.125 360.417 267.844 359.438 267.406C358.479 266.969 357.552 266.354 356.656 265.562C355.781 264.75 355 263.688 354.312 262.375C353.646 261.062 353.104 259.448 352.688 257.531C352.292 255.594 352.094 253.292 352.094 250.625V231.719C352.094 229.031 352.302 226.74 352.719 224.844C353.135 222.927 353.688 221.323 354.375 220.031C355.062 218.719 355.854 217.677 356.75 216.906C357.646 216.135 358.573 215.552 359.531 215.156C360.49 214.74 361.438 214.469 362.375 214.344C363.333 214.219 364.219 214.156 365.031 214.156C367.156 214.156 368.927 214.458 370.344 215.062C371.781 215.646 372.927 216.458 373.781 217.5C374.656 218.521 375.271 219.719 375.625 221.094C376 222.469 376.188 223.927 376.188 225.469C376.188 226.615 376.125 227.677 376 228.656C375.896 229.615 375.729 230.677 375.5 231.844H368.938V229.125C368.938 226.188 368.615 223.99 367.969 222.531C367.323 221.073 366.375 220.344 365.125 220.344C364.375 220.344 363.719 220.49 363.156 220.781C362.594 221.073 362.125 221.573 361.75 222.281C361.375 222.969 361.083 223.885 360.875 225.031C360.688 226.177 360.594 227.604 360.594 229.312V253.688C360.594 255.354 360.667 256.74 360.812 257.844C360.979 258.948 361.24 259.833 361.594 260.5C361.948 261.167 362.406 261.646 362.969 261.938C363.552 262.208 364.25 262.344 365.062 262.344C365.583 262.344 366.083 262.229 366.562 262C367.042 261.75 367.458 261.375 367.812 260.875C368.188 260.354 368.479 259.708 368.688 258.938C368.917 258.146 369.031 257.219 369.031 256.156V250.938H376.438V255.875C376.438 260.167 375.458 263.333 373.5 265.375C371.542 267.417 368.729 268.448 365.062 268.469ZM388.25 268.469C386.917 268.469 385.729 268.208 384.688 267.688C383.667 267.146 382.802 266.417 382.094 265.5C381.385 264.583 380.844 263.5 380.469 262.25C380.115 260.979 379.938 259.604 379.938 258.125C379.938 256.354 380.156 254.781 380.594 253.406C381.031 252.031 381.667 250.792 382.5 249.688C383.354 248.583 384.406 247.583 385.656 246.688C386.906 245.771 388.354 244.906 390 244.094C390.792 243.698 391.677 243.302 392.656 242.906C393.656 242.49 394.542 242.135 395.312 241.844V236.156C395.312 235.323 395.281 234.552 395.219 233.844C395.156 233.115 395 232.49 394.75 231.969C394.521 231.427 394.167 231.01 393.688 230.719C393.208 230.406 392.552 230.25 391.719 230.25C391.156 230.25 390.604 230.354 390.062 230.562C389.542 230.771 389.073 231.125 388.656 231.625C388.26 232.125 387.938 232.792 387.688 233.625C387.458 234.458 387.344 235.49 387.344 236.719V238.594H381.312C381.125 237.781 380.979 237.042 380.875 236.375C380.792 235.688 380.75 235.01 380.75 234.344C380.75 232.74 381.021 231.323 381.562 230.094C382.125 228.865 382.896 227.833 383.875 227C384.875 226.167 386.062 225.542 387.438 225.125C388.812 224.688 390.323 224.469 391.969 224.469C394.115 224.469 395.896 224.708 397.312 225.188C398.729 225.646 399.854 226.344 400.688 227.281C401.542 228.219 402.135 229.396 402.469 230.812C402.823 232.229 403 233.885 403 235.781V268H397.125L396.562 264.312C395.708 265.542 394.562 266.542 393.125 267.312C391.708 268.083 390.083 268.469 388.25 268.469ZM391.75 262.375C392.417 262.375 393.062 262.208 393.688 261.875C394.333 261.521 394.875 261.094 395.312 260.594V247.125C394.896 247.292 394.427 247.49 393.906 247.719C393.385 247.948 392.823 248.25 392.219 248.625C391.656 248.979 391.104 249.406 390.562 249.906C390.021 250.406 389.531 251 389.094 251.688C388.677 252.375 388.333 253.156 388.062 254.031C387.812 254.885 387.688 255.844 387.688 256.906C387.688 258.552 388.01 259.875 388.656 260.875C389.302 261.875 390.333 262.375 391.75 262.375ZM411.188 224.969H416.969L417.656 229.344C418.531 227.719 419.531 226.5 420.656 225.688C421.802 224.875 422.969 224.469 424.156 224.469C426.427 224.469 428.104 225.167 429.188 226.562C430.271 227.958 430.812 230.052 430.812 232.844C430.812 233.198 430.781 233.625 430.719 234.125C430.677 234.604 430.604 235.115 430.5 235.656C430.417 236.177 430.302 236.708 430.156 237.25C430.031 237.771 429.896 238.25 429.75 238.688H424.25V234.688C424.25 233.812 424.188 233.094 424.062 232.531C423.958 231.969 423.812 231.521 423.625 231.188C423.438 230.833 423.219 230.594 422.969 230.469C422.719 230.323 422.448 230.25 422.156 230.25C421.531 230.25 420.948 230.458 420.406 230.875C419.885 231.271 419.448 231.833 419.094 232.562V268H411.188V224.969ZM435.812 224.969H441.594L442.281 229.344C443.156 227.719 444.156 226.5 445.281 225.688C446.427 224.875 447.594 224.469 448.781 224.469C451.052 224.469 452.729 225.167 453.812 226.562C454.896 227.958 455.438 230.052 455.438 232.844C455.438 233.198 455.406 233.625 455.344 234.125C455.302 234.604 455.229 235.115 455.125 235.656C455.042 236.177 454.927 236.708 454.781 237.25C454.656 237.771 454.521 238.25 454.375 238.688H448.875V234.688C448.875 233.812 448.812 233.094 448.688 232.531C448.583 231.969 448.438 231.521 448.25 231.188C448.062 230.833 447.844 230.594 447.594 230.469C447.344 230.323 447.073 230.25 446.781 230.25C446.156 230.25 445.573 230.458 445.031 230.875C444.51 231.271 444.073 231.833 443.719 232.562V268H435.812V224.969ZM471.281 268.469C470.365 268.469 469.427 268.396 468.469 268.25C467.531 268.104 466.615 267.802 465.719 267.344C464.844 266.885 464.01 266.229 463.219 265.375C462.448 264.521 461.771 263.396 461.188 262C460.604 260.604 460.146 258.885 459.812 256.844C459.479 254.802 459.312 252.365 459.312 249.531V242.781C459.312 239.99 459.479 237.604 459.812 235.625C460.167 233.625 460.635 231.948 461.219 230.594C461.823 229.24 462.521 228.167 463.312 227.375C464.104 226.562 464.938 225.948 465.812 225.531C466.708 225.094 467.625 224.812 468.562 224.688C469.5 224.542 470.417 224.469 471.312 224.469C472.167 224.469 473.052 224.531 473.969 224.656C474.885 224.781 475.781 225.052 476.656 225.469C477.531 225.865 478.354 226.469 479.125 227.281C479.917 228.073 480.604 229.146 481.188 230.5C481.792 231.854 482.26 233.542 482.594 235.562C482.948 237.562 483.125 239.969 483.125 242.781V249.531C483.125 252.323 482.948 254.729 482.594 256.75C482.24 258.771 481.76 260.479 481.156 261.875C480.552 263.271 479.854 264.406 479.062 265.281C478.271 266.135 477.438 266.802 476.562 267.281C475.688 267.76 474.792 268.073 473.875 268.219C472.979 268.385 472.115 268.469 471.281 268.469ZM471.344 262.375C472.052 262.375 472.646 262.198 473.125 261.844C473.625 261.469 474.021 260.865 474.312 260.031C474.625 259.198 474.844 258.104 474.969 256.75C475.115 255.375 475.188 253.677 475.188 251.656V241.062C475.188 239.042 475.115 237.344 474.969 235.969C474.844 234.594 474.625 233.49 474.312 232.656C474.021 231.802 473.625 231.188 473.125 230.812C472.646 230.438 472.052 230.25 471.344 230.25C470.594 230.25 469.958 230.438 469.438 230.812C468.938 231.188 468.521 231.802 468.188 232.656C467.854 233.49 467.615 234.594 467.469 235.969C467.323 237.344 467.25 239.042 467.25 241.062V251.656C467.25 253.677 467.323 255.375 467.469 256.75C467.615 258.104 467.854 259.198 468.188 260.031C468.521 260.865 468.938 261.469 469.438 261.844C469.958 262.198 470.594 262.375 471.344 262.375ZM491.031 230.594H487.688V224.969H491.719L493.312 213.812H498.938V224.969H505.812V230.594H498.938V257.969C498.938 258.906 499.021 259.667 499.188 260.25C499.375 260.812 499.625 261.26 499.938 261.594C500.25 261.906 500.615 262.115 501.031 262.219C501.448 262.323 501.885 262.375 502.344 262.375C503.115 262.375 503.792 262.281 504.375 262.094C504.979 261.906 505.552 261.646 506.094 261.312V265.688C505.635 266.25 505.135 266.708 504.594 267.062C504.073 267.417 503.531 267.708 502.969 267.938C502.406 268.146 501.833 268.292 501.25 268.375C500.667 268.458 500.094 268.5 499.531 268.5C498.427 268.5 497.365 268.354 496.344 268.062C495.323 267.771 494.417 267.219 493.625 266.406C492.833 265.573 492.198 264.427 491.719 262.969C491.26 261.51 491.031 259.615 491.031 257.281V230.594ZM509.562 259C509.562 258.062 509.646 257.156 509.812 256.281C510 255.406 510.177 254.708 510.344 254.188H515.906C515.906 255.75 515.979 257.062 516.125 258.125C516.292 259.167 516.552 260 516.906 260.625C517.26 261.25 517.729 261.698 518.312 261.969C518.917 262.24 519.646 262.375 520.5 262.375C521.688 262.375 522.552 262.042 523.094 261.375C523.635 260.708 523.906 259.938 523.906 259.062C523.906 258.604 523.844 258.167 523.719 257.75C523.594 257.333 523.417 256.917 523.188 256.5C522.958 256.062 522.677 255.625 522.344 255.188C522.01 254.75 521.635 254.271 521.219 253.75L515.438 246.938C514.688 246 513.958 245.052 513.25 244.094C512.562 243.115 511.948 242.115 511.406 241.094C510.885 240.052 510.458 238.969 510.125 237.844C509.812 236.719 509.656 235.531 509.656 234.281C509.656 232.615 509.938 231.167 510.5 229.938C511.083 228.708 511.854 227.688 512.812 226.875C513.792 226.062 514.917 225.458 516.188 225.062C517.458 224.667 518.802 224.469 520.219 224.469C521.781 224.469 523.188 224.656 524.438 225.031C525.688 225.406 526.76 225.969 527.656 226.719C528.552 227.469 529.24 228.406 529.719 229.531C530.198 230.635 530.438 231.927 530.438 233.406C530.438 234.406 530.344 235.375 530.156 236.312C529.99 237.25 529.823 238.052 529.656 238.719H524.188C524.167 237.302 524.104 236.062 524 235C523.896 233.938 523.698 233.062 523.406 232.375C523.135 231.667 522.75 231.135 522.25 230.781C521.771 230.427 521.135 230.25 520.344 230.25C519.656 230.25 519.083 230.365 518.625 230.594C518.167 230.802 517.792 231.083 517.5 231.438C517.229 231.792 517.031 232.188 516.906 232.625C516.802 233.062 516.75 233.51 516.75 233.969C516.75 234.969 516.99 235.896 517.469 236.75C517.948 237.604 518.583 238.531 519.375 239.531L525.688 246.938C526.146 247.5 526.677 248.188 527.281 249C527.885 249.792 528.458 250.677 529 251.656C529.542 252.615 530 253.667 530.375 254.812C530.75 255.958 530.938 257.156 530.938 258.406C530.938 259.927 530.698 261.312 530.219 262.562C529.74 263.792 529.031 264.844 528.094 265.719C527.156 266.594 526 267.271 524.625 267.75C523.271 268.229 521.719 268.469 519.969 268.469C518.531 268.469 517.177 268.312 515.906 268C514.635 267.667 513.531 267.135 512.594 266.406C511.656 265.656 510.917 264.677 510.375 263.469C509.833 262.26 509.562 260.771 509.562 259ZM537.969 257.062H546L541.438 278.219H534.844L537.969 257.062ZM565.312 257.188C565.312 256.042 565.375 254.99 565.5 254.031C565.646 253.052 565.854 252 566.125 250.875H572.406V253.469C572.406 254.906 572.49 256.177 572.656 257.281C572.844 258.385 573.135 259.323 573.531 260.094C573.948 260.844 574.49 261.417 575.156 261.812C575.844 262.188 576.677 262.375 577.656 262.375C579.198 262.375 580.375 261.958 581.188 261.125C582 260.271 582.406 259.031 582.406 257.406C582.406 256.573 582.344 255.812 582.219 255.125C582.115 254.417 581.917 253.719 581.625 253.031C581.354 252.344 580.979 251.625 580.5 250.875C580.021 250.104 579.406 249.25 578.656 248.312L570.219 238.281C568.719 236.365 567.562 234.438 566.75 232.5C565.938 230.542 565.531 228.458 565.531 226.25C565.531 224.479 565.802 222.854 566.344 221.375C566.906 219.896 567.708 218.625 568.75 217.562C569.792 216.479 571.073 215.646 572.594 215.062C574.135 214.458 575.875 214.156 577.812 214.156C580.167 214.156 582.125 214.49 583.688 215.156C585.271 215.823 586.531 216.698 587.469 217.781C588.406 218.865 589.062 220.083 589.438 221.438C589.833 222.771 590.031 224.115 590.031 225.469C590.031 226.615 589.938 227.677 589.75 228.656C589.583 229.615 589.385 230.677 589.156 231.844H582.906V229.312C582.906 226.479 582.5 224.312 581.688 222.812C580.875 221.292 579.552 220.531 577.719 220.531C576.198 220.531 575.062 220.958 574.312 221.812C573.562 222.646 573.188 223.771 573.188 225.188C573.188 225.938 573.24 226.615 573.344 227.219C573.469 227.823 573.635 228.385 573.844 228.906C574.073 229.406 574.344 229.896 574.656 230.375C574.969 230.854 575.323 231.354 575.719 231.875L585.125 243.25C586.833 245.479 588.146 247.625 589.062 249.688C589.979 251.729 590.438 253.896 590.438 256.188C590.438 258.083 590.135 259.792 589.531 261.312C588.948 262.833 588.104 264.125 587 265.188C585.896 266.25 584.562 267.073 583 267.656C581.438 268.219 579.677 268.5 577.719 268.5C575.302 268.5 573.292 268.177 571.688 267.531C570.104 266.885 568.833 266.031 567.875 264.969C566.938 263.906 566.271 262.698 565.875 261.344C565.5 259.99 565.312 258.604 565.312 257.188ZM604.656 270.438V281.906H596.75V224.969H602.938L603.656 229.5C604.01 228.917 604.427 228.323 604.906 227.719C605.406 227.115 605.979 226.583 606.625 226.125C607.292 225.646 608.031 225.26 608.844 224.969C609.677 224.656 610.604 224.5 611.625 224.5C612.062 224.5 612.583 224.542 613.188 224.625C613.812 224.708 614.448 224.917 615.094 225.25C615.76 225.583 616.417 226.083 617.062 226.75C617.729 227.396 618.312 228.292 618.812 229.438C619.333 230.583 619.75 232.01 620.062 233.719C620.396 235.427 620.562 237.5 620.562 239.938V252.969C620.562 255.406 620.396 257.479 620.062 259.188C619.75 260.896 619.333 262.323 618.812 263.469C618.292 264.615 617.698 265.521 617.031 266.188C616.365 266.854 615.688 267.354 615 267.688C614.312 268.021 613.646 268.229 613 268.312C612.354 268.417 611.792 268.469 611.312 268.469C609.646 268.469 608.25 268.146 607.125 267.5C606.021 266.854 605.115 266.073 604.406 265.156L604.656 270.438ZM604.656 259.219C604.823 259.635 605.021 260.031 605.25 260.406C605.5 260.781 605.781 261.115 606.094 261.406C606.427 261.698 606.792 261.938 607.188 262.125C607.604 262.292 608.083 262.375 608.625 262.375C609.208 262.375 609.74 262.271 610.219 262.062C610.698 261.833 611.115 261.438 611.469 260.875C611.823 260.292 612.094 259.49 612.281 258.469C612.49 257.448 612.594 256.135 612.594 254.531V238.062C612.594 236.458 612.49 235.156 612.281 234.156C612.094 233.135 611.823 232.333 611.469 231.75C611.135 231.167 610.729 230.771 610.25 230.562C609.771 230.354 609.24 230.25 608.656 230.25C607.656 230.25 606.833 230.552 606.188 231.156C605.562 231.74 605.052 232.427 604.656 233.219V259.219ZM631.906 218.812C630.448 218.812 629.292 218.375 628.438 217.5C627.604 216.625 627.188 215.344 627.188 213.656C627.188 212.719 627.292 211.938 627.5 211.312C627.729 210.667 628.042 210.156 628.438 209.781C628.854 209.385 629.354 209.104 629.938 208.938C630.521 208.75 631.188 208.656 631.938 208.656C633.5 208.656 634.688 209.052 635.5 209.844C636.312 210.635 636.719 211.906 636.719 213.656C636.719 215.281 636.302 216.552 635.469 217.469C634.656 218.365 633.469 218.812 631.906 218.812ZM627.812 224.969H635.719V268H627.812V224.969ZM644 224.969H650.094L650.812 229.562V229.594C651.438 228.615 652.104 227.802 652.812 227.156C653.542 226.49 654.292 225.958 655.062 225.562C655.833 225.167 656.615 224.885 657.406 224.719C658.219 224.552 659.021 224.469 659.812 224.469C662.333 224.469 664.271 225.354 665.625 227.125C667 228.875 667.688 231.51 667.688 235.031V268H659.781V235.312C659.781 233.417 659.49 232.104 658.906 231.375C658.323 230.625 657.469 230.25 656.344 230.25C655.552 230.25 654.76 230.51 653.969 231.031C653.198 231.552 652.51 232.271 651.906 233.188V268H644V224.969ZM681.812 268.469C680.479 268.469 679.292 268.208 678.25 267.688C677.229 267.146 676.365 266.417 675.656 265.5C674.948 264.583 674.406 263.5 674.031 262.25C673.677 260.979 673.5 259.604 673.5 258.125C673.5 256.354 673.719 254.781 674.156 253.406C674.594 252.031 675.229 250.792 676.062 249.688C676.917 248.583 677.969 247.583 679.219 246.688C680.469 245.771 681.917 244.906 683.562 244.094C684.354 243.698 685.24 243.302 686.219 242.906C687.219 242.49 688.104 242.135 688.875 241.844V236.156C688.875 235.323 688.844 234.552 688.781 233.844C688.719 233.115 688.562 232.49 688.312 231.969C688.083 231.427 687.729 231.01 687.25 230.719C686.771 230.406 686.115 230.25 685.281 230.25C684.719 230.25 684.167 230.354 683.625 230.562C683.104 230.771 682.635 231.125 682.219 231.625C681.823 232.125 681.5 232.792 681.25 233.625C681.021 234.458 680.906 235.49 680.906 236.719V238.594H674.875C674.688 237.781 674.542 237.042 674.438 236.375C674.354 235.688 674.312 235.01 674.312 234.344C674.312 232.74 674.583 231.323 675.125 230.094C675.688 228.865 676.458 227.833 677.438 227C678.438 226.167 679.625 225.542 681 225.125C682.375 224.688 683.885 224.469 685.531 224.469C687.677 224.469 689.458 224.708 690.875 225.188C692.292 225.646 693.417 226.344 694.25 227.281C695.104 228.219 695.698 229.396 696.031 230.812C696.385 232.229 696.562 233.885 696.562 235.781V268H690.688L690.125 264.312C689.271 265.542 688.125 266.542 686.688 267.312C685.271 268.083 683.646 268.469 681.812 268.469ZM685.312 262.375C685.979 262.375 686.625 262.208 687.25 261.875C687.896 261.521 688.438 261.094 688.875 260.594V247.125C688.458 247.292 687.99 247.49 687.469 247.719C686.948 247.948 686.385 248.25 685.781 248.625C685.219 248.979 684.667 249.406 684.125 249.906C683.583 250.406 683.094 251 682.656 251.688C682.24 252.375 681.896 253.156 681.625 254.031C681.375 254.885 681.25 255.844 681.25 256.906C681.25 258.552 681.573 259.875 682.219 260.875C682.865 261.875 683.896 262.375 685.312 262.375ZM714.781 268.469C711.156 268.469 708.385 266.979 706.469 264C704.573 261.021 703.625 256.479 703.625 250.375V242.25C703.625 239.521 703.823 237.188 704.219 235.25C704.615 233.292 705.135 231.656 705.781 230.344C706.448 229.01 707.198 227.958 708.031 227.188C708.885 226.417 709.76 225.833 710.656 225.438C711.552 225.021 712.438 224.76 713.312 224.656C714.188 224.531 714.99 224.469 715.719 224.469C717.177 224.469 718.51 224.667 719.719 225.062C720.927 225.438 721.969 226.021 722.844 226.812C723.719 227.583 724.396 228.562 724.875 229.75C725.354 230.938 725.594 232.333 725.594 233.938C725.594 234.938 725.542 235.802 725.438 236.531C725.354 237.24 725.229 237.927 725.062 238.594H718.75V237.156C718.75 234.99 718.49 233.302 717.969 232.094C717.469 230.865 716.635 230.25 715.469 230.25C714.823 230.25 714.26 230.406 713.781 230.719C713.302 231.01 712.896 231.521 712.562 232.25C712.25 232.979 712.01 233.958 711.844 235.188C711.698 236.417 711.625 237.958 711.625 239.812V252.031C711.625 253.906 711.688 255.5 711.812 256.812C711.938 258.125 712.156 259.198 712.469 260.031C712.781 260.844 713.198 261.438 713.719 261.812C714.24 262.188 714.885 262.375 715.656 262.375C716.052 262.375 716.438 262.281 716.812 262.094C717.188 261.885 717.51 261.552 717.781 261.094C718.073 260.635 718.302 260.031 718.469 259.281C718.656 258.51 718.75 257.562 718.75 256.438V255.094H725.562V256.75C725.562 260.833 724.656 263.812 722.844 265.688C721.052 267.542 718.365 268.469 714.781 268.469ZM732 211.156H739.906V221.281L739.5 228.656C740.083 227.844 740.708 227.177 741.375 226.656C742.062 226.115 742.76 225.688 743.469 225.375C744.198 225.042 744.927 224.812 745.656 224.688C746.406 224.542 747.146 224.469 747.875 224.469C750.396 224.469 752.333 225.354 753.688 227.125C755.062 228.875 755.75 231.51 755.75 235.031V268H747.844V235.312C747.844 233.417 747.552 232.104 746.969 231.375C746.385 230.625 745.531 230.25 744.406 230.25C743.615 230.25 742.812 230.521 742 231.062C741.208 231.583 740.51 232.312 739.906 233.25V268H732V211.156ZM764.719 257.062H772.75L768.188 278.219H761.594L764.719 257.062ZM799.562 268.469C798.229 268.469 797.042 268.208 796 267.688C794.979 267.146 794.115 266.417 793.406 265.5C792.698 264.583 792.156 263.5 791.781 262.25C791.427 260.979 791.25 259.604 791.25 258.125C791.25 256.354 791.469 254.781 791.906 253.406C792.344 252.031 792.979 250.792 793.812 249.688C794.667 248.583 795.719 247.583 796.969 246.688C798.219 245.771 799.667 244.906 801.312 244.094C802.104 243.698 802.99 243.302 803.969 242.906C804.969 242.49 805.854 242.135 806.625 241.844V236.156C806.625 235.323 806.594 234.552 806.531 233.844C806.469 233.115 806.312 232.49 806.062 231.969C805.833 231.427 805.479 231.01 805 230.719C804.521 230.406 803.865 230.25 803.031 230.25C802.469 230.25 801.917 230.354 801.375 230.562C800.854 230.771 800.385 231.125 799.969 231.625C799.573 232.125 799.25 232.792 799 233.625C798.771 234.458 798.656 235.49 798.656 236.719V238.594H792.625C792.438 237.781 792.292 237.042 792.188 236.375C792.104 235.688 792.062 235.01 792.062 234.344C792.062 232.74 792.333 231.323 792.875 230.094C793.438 228.865 794.208 227.833 795.188 227C796.188 226.167 797.375 225.542 798.75 225.125C800.125 224.688 801.635 224.469 803.281 224.469C805.427 224.469 807.208 224.708 808.625 225.188C810.042 225.646 811.167 226.344 812 227.281C812.854 228.219 813.448 229.396 813.781 230.812C814.135 232.229 814.312 233.885 814.312 235.781V268H808.438L807.875 264.312C807.021 265.542 805.875 266.542 804.438 267.312C803.021 268.083 801.396 268.469 799.562 268.469ZM803.062 262.375C803.729 262.375 804.375 262.208 805 261.875C805.646 261.521 806.188 261.094 806.625 260.594V247.125C806.208 247.292 805.74 247.49 805.219 247.719C804.698 247.948 804.135 248.25 803.531 248.625C802.969 248.979 802.417 249.406 801.875 249.906C801.333 250.406 800.844 251 800.406 251.688C799.99 252.375 799.646 253.156 799.375 254.031C799.125 254.885 799 255.844 799 256.906C799 258.552 799.323 259.875 799.969 260.875C800.615 261.875 801.646 262.375 803.062 262.375ZM822.5 224.969H828.594L829.312 229.562V229.594C829.938 228.615 830.604 227.802 831.312 227.156C832.042 226.49 832.792 225.958 833.562 225.562C834.333 225.167 835.115 224.885 835.906 224.719C836.719 224.552 837.521 224.469 838.312 224.469C840.833 224.469 842.771 225.354 844.125 227.125C845.5 228.875 846.188 231.51 846.188 235.031V268H838.281V235.312C838.281 233.417 837.99 232.104 837.406 231.375C836.823 230.625 835.969 230.25 834.844 230.25C834.052 230.25 833.26 230.51 832.469 231.031C831.698 231.552 831.01 232.271 830.406 233.188V268H822.5V224.969ZM862.625 268.5C862.146 268.5 861.583 268.448 860.938 268.344C860.292 268.26 859.625 268.052 858.938 267.719C858.25 267.385 857.573 266.885 856.906 266.219C856.24 265.552 855.646 264.646 855.125 263.5C854.604 262.333 854.177 260.896 853.844 259.188C853.531 257.479 853.375 255.406 853.375 252.969V239.312C853.375 236.896 853.542 234.854 853.875 233.188C854.229 231.521 854.688 230.146 855.25 229.062C855.812 227.958 856.438 227.104 857.125 226.5C857.833 225.875 858.531 225.417 859.219 225.125C859.927 224.833 860.594 224.656 861.219 224.594C861.865 224.531 862.396 224.5 862.812 224.5C863.583 224.5 864.312 224.604 865 224.812C865.688 225.021 866.312 225.302 866.875 225.656C867.438 225.99 867.938 226.375 868.375 226.812C868.812 227.229 869.177 227.656 869.469 228.094L869.5 228.062L869.25 222.625V211.156H877.125V268H870.969L870.281 264C869.927 264.562 869.521 265.115 869.062 265.656C868.604 266.198 868.062 266.688 867.438 267.125C866.812 267.542 866.104 267.875 865.312 268.125C864.521 268.375 863.625 268.5 862.625 268.5ZM865.312 262.375C865.833 262.375 866.292 262.292 866.688 262.125C867.104 261.938 867.469 261.708 867.781 261.438C868.115 261.146 868.396 260.812 868.625 260.438C868.875 260.062 869.083 259.677 869.25 259.281V233.406C868.854 232.531 868.323 231.792 867.656 231.188C867.01 230.562 866.219 230.25 865.281 230.25C864.698 230.25 864.167 230.354 863.688 230.562C863.208 230.771 862.792 231.167 862.438 231.75C862.083 232.312 861.802 233.104 861.594 234.125C861.406 235.125 861.312 236.427 861.312 238.031V254.531C861.312 256.135 861.406 257.448 861.594 258.469C861.802 259.49 862.083 260.292 862.438 260.875C862.792 261.438 863.208 261.833 863.688 262.062C864.188 262.271 864.729 262.375 865.312 262.375ZM899.438 214.625H907.625C908.833 214.625 910.083 214.667 911.375 214.75C912.667 214.833 913.927 215.01 915.156 215.281C916.385 215.552 917.552 215.958 918.656 216.5C919.76 217.021 920.719 217.729 921.531 218.625C922.365 219.521 923.021 220.635 923.5 221.969C924 223.281 924.25 224.865 924.25 226.719V229.312C924.25 230.729 924.042 232.031 923.625 233.219C923.229 234.406 922.698 235.458 922.031 236.375C921.365 237.271 920.604 238.021 919.75 238.625C918.896 239.208 918.021 239.604 917.125 239.812V240.062C919.771 240.542 921.76 241.802 923.094 243.844C924.448 245.865 925.125 248.458 925.125 251.625V254.344C925.125 256.281 924.906 257.969 924.469 259.406C924.052 260.823 923.458 262.042 922.688 263.062C921.917 264.062 921 264.885 919.938 265.531C918.875 266.177 917.708 266.688 916.438 267.062C915.167 267.417 913.812 267.667 912.375 267.812C910.938 267.938 909.458 268 907.938 268H899.438V214.625ZM908.938 237.469C910.021 237.469 911.01 237.344 911.906 237.094C912.802 236.823 913.562 236.417 914.188 235.875C914.833 235.312 915.323 234.594 915.656 233.719C916.01 232.823 916.188 231.75 916.188 230.5V228.312C916.188 227.062 916.062 225.958 915.812 225C915.562 224.042 915.146 223.229 914.562 222.562C914 221.896 913.25 221.396 912.312 221.062C911.396 220.708 910.271 220.531 908.938 220.531H907.375V237.469H908.938ZM909.688 262.375C910.771 262.375 911.75 262.24 912.625 261.969C913.521 261.677 914.281 261.24 914.906 260.656C915.552 260.052 916.042 259.292 916.375 258.375C916.729 257.458 916.906 256.375 916.906 255.125V250.969C916.906 249.719 916.781 248.615 916.531 247.656C916.281 246.677 915.865 245.865 915.281 245.219C914.719 244.552 913.979 244.052 913.062 243.719C912.146 243.365 911.021 243.188 909.688 243.188H907.375V262.375H909.688ZM942.062 268.469C940.208 268.469 938.562 268.125 937.125 267.438C935.708 266.75 934.51 265.677 933.531 264.219C932.552 262.76 931.812 260.896 931.312 258.625C930.812 256.333 930.562 253.583 930.562 250.375V242.25C930.562 239.521 930.76 237.188 931.156 235.25C931.573 233.292 932.104 231.656 932.75 230.344C933.417 229.01 934.177 227.958 935.031 227.188C935.906 226.417 936.802 225.833 937.719 225.438C938.635 225.021 939.542 224.76 940.438 224.656C941.354 224.531 942.198 224.469 942.969 224.469C944.385 224.469 945.75 224.688 947.062 225.125C948.375 225.542 949.531 226.271 950.531 227.312C951.531 228.333 952.323 229.708 952.906 231.438C953.51 233.167 953.812 235.323 953.812 237.906C953.812 238.781 953.781 239.667 953.719 240.562C953.677 241.458 953.615 242.344 953.531 243.219C953.448 244.073 953.333 244.906 953.188 245.719C953.062 246.531 952.927 247.281 952.781 247.969H938.5V252.344C938.5 254.219 938.573 255.802 938.719 257.094C938.865 258.365 939.104 259.396 939.438 260.188C939.792 260.958 940.26 261.521 940.844 261.875C941.448 262.208 942.198 262.375 943.094 262.375C943.573 262.375 944.042 262.281 944.5 262.094C944.958 261.885 945.354 261.552 945.688 261.094C946.042 260.635 946.323 260.031 946.531 259.281C946.74 258.51 946.844 257.562 946.844 256.438V255.094H953.438V256.75C953.438 260.833 952.458 263.812 950.5 265.688C948.562 267.542 945.75 268.469 942.062 268.469ZM946.438 242.656C946.458 242.427 946.479 242.125 946.5 241.75C946.521 241.354 946.531 240.948 946.531 240.531C946.552 240.115 946.562 239.708 946.562 239.312C946.562 238.896 946.562 238.542 946.562 238.25C946.562 235.417 946.229 233.375 945.562 232.125C944.896 230.875 943.906 230.25 942.594 230.25C941.906 230.25 941.302 230.417 940.781 230.75C940.26 231.062 939.833 231.604 939.5 232.375C939.167 233.125 938.917 234.125 938.75 235.375C938.583 236.625 938.5 238.177 938.5 240.031V242.656H946.438ZM970.875 268.469C969.021 268.469 967.375 268.125 965.938 267.438C964.521 266.75 963.323 265.677 962.344 264.219C961.365 262.76 960.625 260.896 960.125 258.625C959.625 256.333 959.375 253.583 959.375 250.375V242.25C959.375 239.521 959.573 237.188 959.969 235.25C960.385 233.292 960.917 231.656 961.562 230.344C962.229 229.01 962.99 227.958 963.844 227.188C964.719 226.417 965.615 225.833 966.531 225.438C967.448 225.021 968.354 224.76 969.25 224.656C970.167 224.531 971.01 224.469 971.781 224.469C973.198 224.469 974.562 224.688 975.875 225.125C977.188 225.542 978.344 226.271 979.344 227.312C980.344 228.333 981.135 229.708 981.719 231.438C982.323 233.167 982.625 235.323 982.625 237.906C982.625 238.781 982.594 239.667 982.531 240.562C982.49 241.458 982.427 242.344 982.344 243.219C982.26 244.073 982.146 244.906 982 245.719C981.875 246.531 981.74 247.281 981.594 247.969H967.312V252.344C967.312 254.219 967.385 255.802 967.531 257.094C967.677 258.365 967.917 259.396 968.25 260.188C968.604 260.958 969.073 261.521 969.656 261.875C970.26 262.208 971.01 262.375 971.906 262.375C972.385 262.375 972.854 262.281 973.312 262.094C973.771 261.885 974.167 261.552 974.5 261.094C974.854 260.635 975.135 260.031 975.344 259.281C975.552 258.51 975.656 257.562 975.656 256.438V255.094H982.25V256.75C982.25 260.833 981.271 263.812 979.312 265.688C977.375 267.542 974.562 268.469 970.875 268.469ZM975.25 242.656C975.271 242.427 975.292 242.125 975.312 241.75C975.333 241.354 975.344 240.948 975.344 240.531C975.365 240.115 975.375 239.708 975.375 239.312C975.375 238.896 975.375 238.542 975.375 238.25C975.375 235.417 975.042 233.375 974.375 232.125C973.708 230.875 972.719 230.25 971.406 230.25C970.719 230.25 970.115 230.417 969.594 230.75C969.073 231.062 968.646 231.604 968.312 232.375C967.979 233.125 967.729 234.125 967.562 235.375C967.396 236.625 967.312 238.177 967.312 240.031V242.656H975.25ZM990.219 230.594H986.875V224.969H990.906L992.5 213.812H998.125V224.969H1005V230.594H998.125V257.969C998.125 258.906 998.208 259.667 998.375 260.25C998.562 260.812 998.812 261.26 999.125 261.594C999.438 261.906 999.802 262.115 1000.22 262.219C1000.64 262.323 1001.07 262.375 1001.53 262.375C1002.3 262.375 1002.98 262.281 1003.56 262.094C1004.17 261.906 1004.74 261.646 1005.28 261.312V265.688C1004.82 266.25 1004.32 266.708 1003.78 267.062C1003.26 267.417 1002.72 267.708 1002.16 267.938C1001.59 268.146 1001.02 268.292 1000.44 268.375C999.854 268.458 999.281 268.5 998.719 268.5C997.615 268.5 996.552 268.354 995.531 268.062C994.51 267.771 993.604 267.219 992.812 266.406C992.021 265.573 991.385 264.427 990.906 262.969C990.448 261.51 990.219 259.615 990.219 257.281V230.594ZM1008.75 259C1008.75 258.062 1008.83 257.156 1009 256.281C1009.19 255.406 1009.36 254.708 1009.53 254.188H1015.09C1015.09 255.75 1015.17 257.062 1015.31 258.125C1015.48 259.167 1015.74 260 1016.09 260.625C1016.45 261.25 1016.92 261.698 1017.5 261.969C1018.1 262.24 1018.83 262.375 1019.69 262.375C1020.88 262.375 1021.74 262.042 1022.28 261.375C1022.82 260.708 1023.09 259.938 1023.09 259.062C1023.09 258.604 1023.03 258.167 1022.91 257.75C1022.78 257.333 1022.6 256.917 1022.38 256.5C1022.15 256.062 1021.86 255.625 1021.53 255.188C1021.2 254.75 1020.82 254.271 1020.41 253.75L1014.62 246.938C1013.88 246 1013.15 245.052 1012.44 244.094C1011.75 243.115 1011.14 242.115 1010.59 241.094C1010.07 240.052 1009.65 238.969 1009.31 237.844C1009 236.719 1008.84 235.531 1008.84 234.281C1008.84 232.615 1009.12 231.167 1009.69 229.938C1010.27 228.708 1011.04 227.688 1012 226.875C1012.98 226.062 1014.1 225.458 1015.38 225.062C1016.65 224.667 1017.99 224.469 1019.41 224.469C1020.97 224.469 1022.38 224.656 1023.62 225.031C1024.88 225.406 1025.95 225.969 1026.84 226.719C1027.74 227.469 1028.43 228.406 1028.91 229.531C1029.39 230.635 1029.62 231.927 1029.62 233.406C1029.62 234.406 1029.53 235.375 1029.34 236.312C1029.18 237.25 1029.01 238.052 1028.84 238.719H1023.38C1023.35 237.302 1023.29 236.062 1023.19 235C1023.08 233.938 1022.89 233.062 1022.59 232.375C1022.32 231.667 1021.94 231.135 1021.44 230.781C1020.96 230.427 1020.32 230.25 1019.53 230.25C1018.84 230.25 1018.27 230.365 1017.81 230.594C1017.35 230.802 1016.98 231.083 1016.69 231.438C1016.42 231.792 1016.22 232.188 1016.09 232.625C1015.99 233.062 1015.94 233.51 1015.94 233.969C1015.94 234.969 1016.18 235.896 1016.66 236.75C1017.14 237.604 1017.77 238.531 1018.56 239.531L1024.88 246.938C1025.33 247.5 1025.86 248.188 1026.47 249C1027.07 249.792 1027.65 250.677 1028.19 251.656C1028.73 252.615 1029.19 253.667 1029.56 254.812C1029.94 255.958 1030.12 257.156 1030.12 258.406C1030.12 259.927 1029.89 261.312 1029.41 262.562C1028.93 263.792 1028.22 264.844 1027.28 265.719C1026.34 266.594 1025.19 267.271 1023.81 267.75C1022.46 268.229 1020.91 268.469 1019.16 268.469C1017.72 268.469 1016.36 268.312 1015.09 268C1013.82 267.667 1012.72 267.135 1011.78 266.406C1010.84 265.656 1010.1 264.677 1009.56 263.469C1009.02 262.26 1008.75 260.771 1008.75 259ZM1035.16 262.406C1035.16 260.198 1035.59 258.615 1036.47 257.656C1037.34 256.698 1038.53 256.219 1040.03 256.219C1041.59 256.219 1042.8 256.729 1043.66 257.75C1044.51 258.771 1044.94 260.323 1044.94 262.406C1044.94 264.323 1044.5 265.812 1043.62 266.875C1042.77 267.917 1041.56 268.438 1040 268.438C1038.52 268.438 1037.34 267.927 1036.47 266.906C1035.59 265.885 1035.16 264.385 1035.16 262.406Z" fill="#232735"/>
<defs>
<filter id="filter0_d" x="0.433332" y="0.216666" width="306.133" height="306.133" filterUnits="userSpaceOnUse" color-interpolation-filters="sRGB">
<feFlood flood-opacity="0" result="BackgroundImageFix"/>
<feColorMatrix in="SourceAlpha" type="matrix" values="0 0 0 0 0 0 0 0 0 0 0 0 0 0 0 0 0 0 127 0"/>
<feOffset dy="4.78333"/>
<feGaussianBlur stdDeviation="4.78333"/>
<feColorMatrix type="matrix" values="0 0 0 0 0 0 0 0 0 0 0 0 0 0 0 0 0 0 0.08 0"/>
<feBlend mode="normal" in2="BackgroundImageFix" result="effect1_dropShadow"/>
<feBlend mode="normal" in="SourceGraphic" in2="effect1_dropShadow" result="shape"/>
</filter>
</defs>
</svg>
