<svg width="283" height="305" viewBox="0 0 283 305" fill="none" xmlns="http://www.w3.org/2000/svg">
<path d="M122.88 0L173.137 86.9953H167.299L121.713 60.6766C121.219 60.4072 120.725 60.2724 120.275 60.2724C119.467 60.2724 118.703 60.7216 118.03 61.6198L104.331 85.3785L72.2191 29.6871L72.0395 29.3727L122.88 0Z" fill="#F5C049"/>
<path d="M213.289 30.9446L264.175 60.3173L213.918 147.358L210.998 142.282V89.6451C210.954 88.0282 210.055 87.13 208.349 86.9503H180.952L213.109 31.2141L213.289 30.9446Z" fill="#F5C049"/>
<path d="M213.918 157.598L225.864 178.257L190.069 198.917L213.918 157.598Z" fill="#F5C049"/>
<path d="M173.137 217.96L161.191 238.62L125.395 217.96H173.137Z" fill="#F5C049"/>
<path d="M100.514 92.1152L97.5946 97.1903L52.0086 123.509C50.6163 124.362 50.3019 125.575 51.0205 127.147L64.7188 150.906H0.359299H0V92.1601L100.514 92.1152Z" fill="#F5C049"/>
<path d="M68.5812 157.598L71.5005 162.673V215.31C71.5454 216.927 72.4437 217.825 74.1504 218.005H101.547L69.3897 273.696L69.21 274.011L18.3692 244.638L68.5812 157.598Z" fill="#F5C049"/>
<path d="M115.2 217.96L160.786 244.279C161.28 244.548 161.774 244.683 162.224 244.683C163.032 244.683 163.796 244.234 164.469 243.335L178.167 219.577L210.37 275.313L210.549 275.627L159.664 305L109.362 217.96H115.2Z" fill="#F5C049"/>
<path d="M282.499 154.094V212.84H181.985L184.904 207.765L230.49 181.446C231.883 180.593 232.197 179.38 231.478 177.808L217.78 154.049H282.14L282.499 154.094Z" fill="#F5C049"/>
<path d="M76.6205 171.521L100.469 212.84H76.6205V171.521Z" fill="#F5C049"/>
<path d="M92.4746 106.038L68.6261 147.357L56.6794 126.698L92.4746 106.038Z" fill="#F5C049"/>
<path d="M121.308 66.3354L157.104 86.9951H109.362L121.308 66.3354Z" fill="#F5C049"/>
<path d="M181.985 92.1152H205.834V133.435L181.985 92.1152Z" fill="#F5C049"/>
<path d="M115.56 92.1152H165.951L170.532 94.7651L141.249 145.471L110.754 92.6542L110.664 92.5194C110.574 92.3398 110.44 92.205 110.305 92.0703L115.56 92.1152Z" fill="#F5C049"/>
<path d="M105.903 98.2681L135.186 148.974H74.0605C73.8809 148.974 73.7012 149.019 73.5216 149.064L76.1265 144.528L101.322 100.918L105.903 98.2681Z" fill="#F5C049"/>
<path d="M135.186 155.98L104.691 208.797L104.601 208.932C104.511 209.112 104.466 209.291 104.376 209.471L101.771 204.935L76.5756 161.325V156.025H135.186V155.98Z" fill="#F5C049"/>
<path d="M141.249 159.484L171.745 212.301L171.835 212.436C171.925 212.615 172.059 212.75 172.194 212.885H166.984H116.593L112.012 210.235L141.249 159.484Z" fill="#F5C049"/>
<path d="M208.977 155.891L206.372 160.427L181.177 204.037L176.596 206.687L147.313 155.981H208.438C208.618 155.981 208.798 155.936 208.977 155.891Z" fill="#F5C049"/>
<path d="M178.078 95.5288L180.683 100.065L205.878 143.675V148.975H147.313L177.808 96.1576L177.898 96.0228C177.943 95.8881 178.033 95.7085 178.078 95.5288Z" fill="#F5C049"/>
</svg>
