<svg xmlns="http://www.w3.org/2000/svg" xmlns:xlink="http://www.w3.org/1999/xlink" viewBox="0 0 2340 1560">
  <defs>
    <style>
      .cls-1 {
        fill: url(#linear-gradient);
      }

      .cls-2 {
        fill: url(#linear-gradient-2);
      }

      .cls-103, .cls-21, .cls-3, .cls-42, .cls-65, .cls-76, .cls-85, .cls-86, .cls-88, .cls-89, .cls-91 {
        fill: none;
      }

      .cls-21, .cls-3 {
        stroke-width: 2.82px;
      }

      .cls-3 {
        stroke: url(#linear-gradient-3);
      }

      .cls-4 {
        fill: url(#linear-gradient-4);
      }

      .cls-5 {
        fill: url(#linear-gradient-5);
      }

      .cls-6 {
        fill: url(#linear-gradient-6);
      }

      .cls-7 {
        fill: url(#linear-gradient-7);
      }

      .cls-8 {
        fill: url(#linear-gradient-8);
      }

      .cls-9 {
        fill: url(#linear-gradient-9);
      }

      .cls-10 {
        fill: url(#linear-gradient-10);
      }

      .cls-11 {
        fill: url(#linear-gradient-11);
      }

      .cls-12 {
        fill: url(#linear-gradient-12);
      }

      .cls-13 {
        fill: url(#linear-gradient-13);
      }

      .cls-14 {
        fill: url(#linear-gradient-14);
      }

      .cls-15 {
        fill: url(#linear-gradient-15);
      }

      .cls-16 {
        fill: url(#linear-gradient-16);
      }

      .cls-17 {
        fill: url(#linear-gradient-17);
      }

      .cls-18 {
        fill: url(#linear-gradient-18);
      }

      .cls-19 {
        fill: url(#linear-gradient-19);
      }

      .cls-20 {
        fill: url(#linear-gradient-20);
      }

      .cls-21 {
        stroke: #ed9a68;
      }

      .cls-22 {
        fill: url(#linear-gradient-21);
      }

      .cls-23 {
        fill: url(#linear-gradient-22);
      }

      .cls-24 {
        fill: url(#linear-gradient-23);
      }

      .cls-25 {
        fill: url(#linear-gradient-24);
      }

      .cls-26 {
        fill: url(#linear-gradient-25);
      }

      .cls-27 {
        fill: url(#linear-gradient-27);
      }

      .cls-28 {
        fill: url(#linear-gradient-28);
      }

      .cls-29 {
        fill: url(#linear-gradient-29);
      }

      .cls-30 {
        fill: url(#linear-gradient-30);
      }

      .cls-31 {
        fill: url(#linear-gradient-31);
      }

      .cls-32 {
        fill: url(#linear-gradient-32);
      }

      .cls-33 {
        fill: url(#linear-gradient-33);
      }

      .cls-34 {
        fill: url(#linear-gradient-34);
      }

      .cls-35 {
        fill: url(#linear-gradient-35);
      }

      .cls-36 {
        fill: url(#linear-gradient-36);
      }

      .cls-37 {
        fill: url(#linear-gradient-37);
      }

      .cls-38 {
        fill: url(#linear-gradient-38);
      }

      .cls-39 {
        fill: url(#linear-gradient-39);
      }

      .cls-40 {
        fill: url(#linear-gradient-40);
      }

      .cls-41 {
        fill: url(#linear-gradient-41);
      }

      .cls-42, .cls-86, .cls-88, .cls-89 {
        stroke-linecap: round;
      }

      .cls-42 {
        stroke-width: 3.46px;
        stroke: url(#linear-gradient-42);
      }

      .cls-43 {
        fill: url(#linear-gradient-43);
      }

      .cls-44 {
        fill: url(#linear-gradient-44);
      }

      .cls-45 {
        fill: url(#linear-gradient-45);
      }

      .cls-46 {
        fill: url(#linear-gradient-46);
      }

      .cls-47 {
        fill: url(#linear-gradient-47);
      }

      .cls-48 {
        fill: url(#linear-gradient-48);
      }

      .cls-49 {
        fill: url(#linear-gradient-49);
      }

      .cls-50 {
        fill: url(#linear-gradient-50);
      }

      .cls-51 {
        fill: url(#linear-gradient-51);
      }

      .cls-52 {
        fill: url(#linear-gradient-52);
      }

      .cls-53 {
        fill: url(#linear-gradient-53);
      }

      .cls-54 {
        fill: url(#linear-gradient-54);
      }

      .cls-55 {
        fill: url(#linear-gradient-55);
      }

      .cls-56 {
        fill: url(#linear-gradient-56);
      }

      .cls-57 {
        fill: url(#linear-gradient-57);
      }

      .cls-58 {
        fill: url(#linear-gradient-58);
      }

      .cls-59 {
        fill: url(#linear-gradient-59);
      }

      .cls-60 {
        fill: url(#linear-gradient-60);
      }

      .cls-61 {
        fill: url(#linear-gradient-61);
      }

      .cls-62 {
        fill: url(#linear-gradient-62);
      }

      .cls-63 {
        fill: url(#linear-gradient-63);
      }

      .cls-64 {
        fill-opacity: 0.8;
        fill: url(#linear-gradient-64);
      }

      .cls-65 {
        stroke-width: 4.22px;
        stroke: url(#linear-gradient-65);
      }

      .cls-66 {
        fill: url(#linear-gradient-66);
      }

      .cls-67 {
        fill: url(#linear-gradient-67);
      }

      .cls-68 {
        fill: url(#linear-gradient-68);
      }

      .cls-69 {
        fill: url(#linear-gradient-69);
      }

      .cls-70 {
        fill: url(#linear-gradient-70);
      }

      .cls-71 {
        fill: url(#linear-gradient-71);
      }

      .cls-72 {
        fill: url(#linear-gradient-72);
      }

      .cls-73 {
        fill: url(#linear-gradient-73);
      }

      .cls-74 {
        fill: url(#linear-gradient-74);
      }

      .cls-75 {
        fill: url(#linear-gradient-75);
      }

      .cls-76, .cls-85, .cls-86, .cls-88, .cls-98 {
        stroke-width: 1.41px;
      }

      .cls-76 {
        stroke: url(#linear-gradient-76);
      }

      .cls-77 {
        fill: #dbe2f0;
      }

      .cls-104, .cls-77 {
        opacity: 0.5;
      }

      .cls-78 {
        fill: #2a3636;
      }

      .cls-79 {
        fill: #555e5e;
      }

      .cls-80 {
        fill: #e8e8e8;
      }

      .cls-81 {
        fill: url(#linear-gradient-77);
      }

      .cls-101, .cls-82 {
        fill: #c6822c;
      }

      .cls-83, .cls-94 {
        fill: #ed9a68;
      }

      .cls-83 {
        opacity: 0.67;
      }

      .cls-83, .cls-88 {
        isolation: isolate;
      }

      .cls-84 {
        fill: url(#linear-gradient-78);
      }

      .cls-85, .cls-86 {
        stroke: #f0cbae;
      }

      .cls-87 {
        fill: url(#linear-gradient-79);
      }

      .cls-88 {
        stroke: #fff;
        opacity: 0.64;
      }

      .cls-89 {
        stroke: #e5e5e5;
        stroke-linejoin: round;
        stroke-width: 2.86px;
      }

      .cls-90 {
        fill: #e9dad1;
      }

      .cls-103, .cls-91 {
        stroke: #c6822c;
      }

      .cls-91 {
        stroke-width: 1.16px;
      }

      .cls-102, .cls-92 {
        fill: #c4c4c4;
      }

      .cls-104, .cls-93 {
        fill: #8c8a89;
      }

      .cls-95 {
        fill: #fff;
      }

      .cls-96 {
        fill: #e2ab86;
      }

      .cls-97 {
        fill: #f27996;
      }

      .cls-98 {
        fill: #191c1c;
        stroke: #191c1c;
      }

      .cls-99 {
        fill: url(#radial-gradient);
      }

      .cls-100 {
        fill: url(#radial-gradient-2);
      }

      .cls-101 {
        stroke: #813ca5;
        stroke-miterlimit: 10;
      }

      .cls-102 {
        fill-rule: evenodd;
      }

      .cls-103 {
        stroke-width: 2px;
      }
    </style>
    <linearGradient id="linear-gradient" x1="1637.83" y1="1325.32" x2="1637.83" y2="351.5" gradientTransform="matrix(0.99, -0.1, -0.1, -0.99, 99.94, 1728.35)" gradientUnits="userSpaceOnUse">
      <stop offset="0" stop-color="#5f7074"/>
      <stop offset="0.51" stop-color="#2a3636"/>
    </linearGradient>
    <linearGradient id="linear-gradient-2" x1="1815.52" y1="1270.91" x2="1815.52" y2="295.83" gradientTransform="matrix(1, 0, 0, -1, 0, 1562)" gradientUnits="userSpaceOnUse">
      <stop offset="0" stop-color="#80959a"/>
      <stop offset="0.53" stop-color="#485648"/>
    </linearGradient>
    <linearGradient id="linear-gradient-3" x1="1885.19" y1="1190.13" x2="1885.19" y2="340.51" gradientTransform="matrix(1, 0, 0, -1, 0, 1562)" gradientUnits="userSpaceOnUse">
      <stop offset="0.69" stop-color="#ed9a68"/>
      <stop offset="1" stop-color="#ed9a68" stop-opacity="0"/>
    </linearGradient>
    <linearGradient id="linear-gradient-4" x1="1944.92" y1="1197.99" x2="1944.92" y2="1143.79" gradientTransform="matrix(1, 0, 0, -1, 0, 1562)" gradientUnits="userSpaceOnUse">
      <stop offset="0" stop-color="#f5af85"/>
      <stop offset="0.59" stop-color="#ed9a68"/>
    </linearGradient>
    <linearGradient id="linear-gradient-5" x1="1962.54" y1="1160.69" x2="1935.67" y2="1106.44" xlink:href="#linear-gradient-4"/>
    <linearGradient id="linear-gradient-6" x1="1941.54" y1="992.47" x2="1911.37" y2="939.99" xlink:href="#linear-gradient-4"/>
    <linearGradient id="linear-gradient-7" x1="1953.54" y1="1111.08" x2="1927.75" y2="1059" xlink:href="#linear-gradient-4"/>
    <linearGradient id="linear-gradient-8" x1="1892.83" y1="1094.88" x2="1918.28" y2="1042.63" xlink:href="#linear-gradient-4"/>
    <linearGradient id="linear-gradient-9" x1="1897" y1="1031.4" x2="1905.7" y2="973.93" xlink:href="#linear-gradient-4"/>
    <linearGradient id="linear-gradient-10" x1="1957" y1="1068.56" x2="1922.92" y2="1008.55" xlink:href="#linear-gradient-4"/>
    <linearGradient id="linear-gradient-11" x1="1929.76" y1="932.91" x2="1885.9" y2="879.63" xlink:href="#linear-gradient-4"/>
    <linearGradient id="linear-gradient-12" x1="1881.22" y1="784.6" x2="1837.37" y2="731.32" xlink:href="#linear-gradient-4"/>
    <linearGradient id="linear-gradient-13" x1="1846.28" y1="899.04" x2="1879.88" y2="867.05" xlink:href="#linear-gradient-4"/>
    <linearGradient id="linear-gradient-14" x1="1835.02" y1="831.46" x2="1868.62" y2="799.47" xlink:href="#linear-gradient-4"/>
    <linearGradient id="linear-gradient-15" x1="1876.6" y1="650.48" x2="1836.43" y2="612.23" xlink:href="#linear-gradient-4"/>
    <linearGradient id="linear-gradient-16" x1="1860.99" y1="711.29" x2="1829.52" y2="665.61" xlink:href="#linear-gradient-4"/>
    <linearGradient id="linear-gradient-17" x1="1792.58" y1="748.11" x2="1835.49" y2="707.25" xlink:href="#linear-gradient-4"/>
    <linearGradient id="linear-gradient-18" x1="1902.07" y1="1143.2" x2="1915.84" y2="1090.78" xlink:href="#linear-gradient-4"/>
    <linearGradient id="linear-gradient-19" x1="1885.89" y1="971.97" x2="1885.62" y2="917.77" xlink:href="#linear-gradient-4"/>
    <linearGradient id="linear-gradient-20" x1="1807.14" y1="676.83" x2="1828.15" y2="626.87" xlink:href="#linear-gradient-4"/>
    <linearGradient id="linear-gradient-21" x1="2196.88" y1="1181.54" x2="2136.4" y2="1136.94" gradientTransform="matrix(1, 0, 0, -1, 0, 1562)" gradientUnits="userSpaceOnUse">
      <stop offset="0" stop-color="#f5af85"/>
      <stop offset="0.91" stop-color="#ed9a68"/>
    </linearGradient>
    <linearGradient id="linear-gradient-22" x1="2003.03" y1="800.72" x2="1947.92" y2="775.67" xlink:href="#linear-gradient-21"/>
    <linearGradient id="linear-gradient-23" x1="1952.92" y1="770.14" x2="1912.04" y2="725.49" xlink:href="#linear-gradient-21"/>
    <linearGradient id="linear-gradient-24" x1="2105.66" y1="978.38" x2="2064.24" y2="937.6" xlink:href="#linear-gradient-21"/>
    <linearGradient id="linear-gradient-25" x1="2041.93" y1="847.54" x2="1990.89" y2="819.74" xlink:href="#linear-gradient-21"/>
    <linearGradient id="linear-gradient-27" x1="2114.87" y1="1044.55" x2="2078.32" y2="1008.56" xlink:href="#linear-gradient-21"/>
    <linearGradient id="linear-gradient-28" x1="2049.74" y1="1035.24" x2="2058.44" y2="977.77" xlink:href="#linear-gradient-21"/>
    <linearGradient id="linear-gradient-29" x1="2075.49" y1="1104.11" x2="2076.96" y2="1046.01" xlink:href="#linear-gradient-21"/>
    <linearGradient id="linear-gradient-30" x1="1936.13" y1="715.62" x2="1892.27" y2="662.33" xlink:href="#linear-gradient-21"/>
    <linearGradient id="linear-gradient-31" x1="1965.16" y1="853.75" x2="1971.02" y2="807.73" xlink:href="#linear-gradient-21"/>
    <linearGradient id="linear-gradient-32" x1="2001.92" y1="904.8" x2="2023.37" y2="863.67" xlink:href="#linear-gradient-21"/>
    <linearGradient id="linear-gradient-33" x1="1864.28" y1="740.34" x2="1895.19" y2="710.91" xlink:href="#linear-gradient-21"/>
    <linearGradient id="linear-gradient-34" x1="1913.08" y1="810.29" x2="1925.88" y2="769.56" xlink:href="#linear-gradient-21"/>
    <linearGradient id="linear-gradient-35" x1="2039.34" y1="973.37" x2="2039.07" y2="919.17" xlink:href="#linear-gradient-21"/>
    <linearGradient id="linear-gradient-36" x1="2113.23" y1="1168.46" x2="2099.15" y2="1116.12" xlink:href="#linear-gradient-21"/>
    <linearGradient id="linear-gradient-37" x1="2190.4" y1="1247.26" x2="2190.4" y2="1195.17" xlink:href="#linear-gradient-21"/>
    <linearGradient id="linear-gradient-38" x1="2157.88" y1="1213.57" x2="2124.11" y2="1171.92" xlink:href="#linear-gradient-21"/>
    <linearGradient id="linear-gradient-39" x1="2134.78" y1="1122.52" x2="2115.07" y2="1074.3" xlink:href="#linear-gradient-21"/>
    <linearGradient id="linear-gradient-40" x1="2074.82" y1="923.1" x2="2051.14" y2="876.71" xlink:href="#linear-gradient-21"/>
    <linearGradient id="linear-gradient-41" x1="1787.52" y1="767.46" x2="1787.52" y2="314.2" gradientTransform="matrix(1, 0, 0, -1, 0, 1562)" xlink:href="#linear-gradient"/>
    <linearGradient id="linear-gradient-42" x1="-1220.27" y1="1253.13" x2="-1220.27" y2="504.62" gradientTransform="translate(-509.54 1480.15) rotate(-175.83)" gradientUnits="userSpaceOnUse">
      <stop offset="0.96" stop-color="#ed9a68"/>
      <stop offset="1" stop-color="#ed9a68" stop-opacity="0"/>
    </linearGradient>
    <linearGradient id="linear-gradient-43" x1="-1003" y1="1296.99" x2="-1042.62" y2="1243.42" gradientTransform="translate(-509.54 1480.15) rotate(-175.83)" gradientUnits="userSpaceOnUse">
      <stop offset="0" stop-color="#f5af85"/>
      <stop offset="1" stop-color="#ed9a68"/>
    </linearGradient>
    <linearGradient id="linear-gradient-44" x1="-1073.76" y1="1296.45" x2="-1052.96" y2="1242.84" xlink:href="#linear-gradient-43"/>
    <linearGradient id="linear-gradient-45" x1="-1048.52" y1="1213.95" x2="-1078.02" y2="1154.21" xlink:href="#linear-gradient-43"/>
    <linearGradient id="linear-gradient-46" x1="-1055.68" y1="1105.21" x2="-1085.18" y2="1045.46" xlink:href="#linear-gradient-43"/>
    <linearGradient id="linear-gradient-47" x1="-1053.26" y1="1159.37" x2="-1082.76" y2="1099.63" xlink:href="#linear-gradient-43"/>
    <linearGradient id="linear-gradient-48" x1="-1061.4" y1="1036.49" x2="-1090.13" y2="985.45" xlink:href="#linear-gradient-43"/>
    <linearGradient id="linear-gradient-49" x1="-1123.82" y1="879.9" x2="-1195.58" y2="829.46" xlink:href="#linear-gradient-43"/>
    <linearGradient id="linear-gradient-50" x1="-1157.09" y1="826.79" x2="-1241.92" y2="767.16" xlink:href="#linear-gradient-43"/>
    <linearGradient id="linear-gradient-51" x1="-1077.67" y1="969.86" x2="-1122.06" y2="931.65" xlink:href="#linear-gradient-43"/>
    <linearGradient id="linear-gradient-52" x1="-1115.66" y1="1178.43" x2="-1100.2" y2="1129.47" xlink:href="#linear-gradient-43"/>
    <linearGradient id="linear-gradient-53" x1="-1124.9" y1="1128.71" x2="-1102.94" y2="1082.3" xlink:href="#linear-gradient-43"/>
    <linearGradient id="linear-gradient-54" x1="-1103.5" y1="1241.45" x2="-1091.59" y2="1191.5" xlink:href="#linear-gradient-43"/>
    <linearGradient id="linear-gradient-55" x1="-1136.26" y1="1024.3" x2="-1107.03" y2="973.11" xlink:href="#linear-gradient-43"/>
    <linearGradient id="linear-gradient-56" x1="-1169.04" y1="975.5" x2="-1138.07" y2="921.26" xlink:href="#linear-gradient-43"/>
    <linearGradient id="linear-gradient-57" x1="-1125.61" y1="1087.53" x2="-1108.61" y2="1023.11" xlink:href="#linear-gradient-43"/>
    <linearGradient id="linear-gradient-58" x1="-1224.22" y1="872.85" x2="-1240.84" y2="817.4" xlink:href="#linear-gradient-43"/>
    <linearGradient id="linear-gradient-59" x1="-1182.06" y1="936.38" x2="-1200.98" y2="873.29" xlink:href="#linear-gradient-43"/>
    <linearGradient id="linear-gradient-60" x1="-1266.21" y1="823.18" x2="-1284.7" y2="761.51" xlink:href="#linear-gradient-43"/>
    <linearGradient id="linear-gradient-61" x1="-1032.74" y1="1240.75" x2="-1061.93" y2="1214.71" xlink:href="#linear-gradient-43"/>
    <linearGradient id="linear-gradient-62" x1="-1093.04" y1="935.15" x2="-1148.48" y2="885.69" xlink:href="#linear-gradient-43"/>
    <linearGradient id="linear-gradient-63" x1="588.83" y1="1151.96" x2="577.74" y2="293" gradientTransform="matrix(1, 0, 0, -1, 0, 1562)" gradientUnits="userSpaceOnUse">
      <stop offset="0" stop-color="#5f7074"/>
      <stop offset="0.53" stop-color="#2a3636"/>
    </linearGradient>
    <linearGradient id="linear-gradient-64" x1="1957.69" y1="787.62" x2="1957.69" y2="292.69" xlink:href="#linear-gradient-2"/>
    <linearGradient id="linear-gradient-65" x1="469.03" y1="1060.79" x2="469.03" y2="357.58" gradientTransform="matrix(0.93, -0.37, -0.37, -0.93, 332.51, 1766.76)" gradientUnits="userSpaceOnUse">
      <stop offset="0" stop-color="#d1a771"/>
      <stop offset="0.55" stop-color="#c6822c"/>
    </linearGradient>
    <linearGradient id="linear-gradient-66" x1="507.77" y1="1245.22" x2="507.77" y2="407.56" gradientTransform="matrix(0.93, -0.37, -0.37, -0.93, 332.51, 1766.76)" gradientUnits="userSpaceOnUse">
      <stop offset="0" stop-color="#d1a771"/>
      <stop offset="0.61" stop-color="#c6822c"/>
    </linearGradient>
    <linearGradient id="linear-gradient-67" x1="331.06" y1="1245.22" x2="331.06" y2="407.56" xlink:href="#linear-gradient-66"/>
    <linearGradient id="linear-gradient-68" x1="342.86" y1="1245.22" x2="342.86" y2="407.56" xlink:href="#linear-gradient-66"/>
    <linearGradient id="linear-gradient-69" x1="339.69" y1="1245.22" x2="339.69" y2="407.56" xlink:href="#linear-gradient-66"/>
    <linearGradient id="linear-gradient-70" x1="565.64" y1="1245.22" x2="565.64" y2="407.56" xlink:href="#linear-gradient-66"/>
    <linearGradient id="linear-gradient-71" x1="608.58" y1="1245.22" x2="608.58" y2="407.56" xlink:href="#linear-gradient-66"/>
    <linearGradient id="linear-gradient-72" x1="368.2" y1="1245.22" x2="368.2" y2="407.56" xlink:href="#linear-gradient-66"/>
    <linearGradient id="linear-gradient-73" x1="412.37" y1="1245.22" x2="412.37" y2="407.56" xlink:href="#linear-gradient-66"/>
    <linearGradient id="linear-gradient-74" x1="636.74" y1="1245.22" x2="636.74" y2="407.56" xlink:href="#linear-gradient-66"/>
    <linearGradient id="linear-gradient-75" x1="396.8" y1="1245.22" x2="396.8" y2="407.56" xlink:href="#linear-gradient-66"/>
    <linearGradient id="linear-gradient-76" x1="463.31" y1="1245.68" x2="463.31" y2="407.33" xlink:href="#linear-gradient-65"/>
    <linearGradient id="linear-gradient-77" x1="421.91" y1="774.02" x2="421.91" y2="287.02" gradientTransform="matrix(1, -0.03, -0.03, -1, 18.62, 1576.75)" xlink:href="#linear-gradient-2"/>
    <linearGradient id="linear-gradient-78" x1="695.33" y1="440.66" x2="695.33" y2="217.72" gradientTransform="matrix(1, 0, 0, -1, 0, 1562)" gradientUnits="userSpaceOnUse">
      <stop offset="0" stop-color="#fdf8f4"/>
      <stop offset="0.39" stop-color="#ed9a68"/>
      <stop offset="0.99" stop-color="#ed9a68"/>
    </linearGradient>
    <linearGradient id="linear-gradient-79" x1="855.02" y1="497.1" x2="763.39" y2="232.71" xlink:href="#linear-gradient-78"/>
    <radialGradient id="radial-gradient" cx="1453.96" cy="1320.53" r="50.53" gradientUnits="userSpaceOnUse">
      <stop offset="0" stop-color="#fdf8f4"/>
      <stop offset="0" stop-color="#ed9a68"/>
      <stop offset="0.99" stop-color="#e58251"/>
    </radialGradient>
    <radialGradient id="radial-gradient-2" cx="1644.08" cy="1326.08" r="38.33" xlink:href="#radial-gradient"/>
  </defs>
  <title>Portfolio-Hero Illustration-01</title>
  <g id="Layer_1" data-name="Layer 1">
    <path class="cls-1" d="M1717.78,277.87c-10.67,44.74-13.36,76.86-41.43,84.3-9.62-6.15-2.81-26.66-2.81-26.66.65-20.8,5.71-34.62-21.55-42.64-19-.8-30.52-3.27-33.71,29.59,2.33,70.42-21.69,104.55-67.44,161.58-17.3,7.3-27.4,14.53-39.64-18.28.28-32.58,9.79-58.25-30.44-58.78-17,12-23.53,19.2-27,33.38-13.88,42.23-12,63.59,5.83,98.19,9.73,24.34,7,35.86-7.82,53.81-32.7-.8-44.57-6.29-50.53-27.91-14.5-10.82-22.62-16.68-36.43,3.83-7.43,31.7.1,46.55,25.34,70.08,26.11,29.83,35.91,51.1,45.2,96.75,13.78,196-7.81,306.64-43.12,503.92,42.62-9,66.26-12.19,107.49-11.3,34.7-171.75,69.93-267.89,154.9-440.23,50.18-85.88,88.83-130.46,176.2-203.56,26.3-16.3,42.42-11.07,65.93-56.33.07-6.06-.43-9.38-7.8-14.45-12.74-2.41-17-5.62-13.61-18.33,20.57-33.11,27.17-55.05,34.71-97.06-2.68-25.31-10.11-30.3-35.4-20.53-10.83,5.54-17.17,8.05-29.45,10.29-36.8,3.69-76.38,18.45-79.11-.67-5.43-6.6-5.28-13.67-3-28.43,0,0,3.68-47.71,16.84-79,6.08-17.41,8.25-27.91,10.24-47.78-5.2-11.89-10-16.17-31.32-7.49C1738.1,236.59,1729.83,249.65,1717.78,277.87Z"/>
    <path class="cls-2" d="M1990.35,342.88c-48.28,67.2-65.57,87.33-126.31,128.35-21.09,12.56-30.1,20.54-45.23,35.08-228.37,279.55-268.69,433.28-330.29,759.86,66.18-11.31,104-12.22,172.4-7.7l18.77-102.69C1701,1031,1728.11,963.94,1803.44,849.45c17.77-27.13,32.23-42.47,70-70.17,81.75-68.88,106.41-91.27,107.53-98.4l0-.12c2.76-10.47,4.31-16.38-12-12.72-32.7,6.66-43.39,1.59-6.82-70.17,18.61-43.75,31.53-68.13,74.25-110.38,10.81-16.76,21.85-29.18,11.95-33.37-10.42-2-17.49-2.31-15.37-12,4.78-21.81,17.66-31.88,37.56-50.49,40-39.72,69.13-65.82,71.69-84.71,1.14-12.48-.86-17.46-18.78-15.4-12.26,5.56-25.06,15.39-71.69,59.89-15.57,5.73-23.44,7.36-22.19-18C2019.83,320.9,2012.35,319.71,1990.35,342.88Z"/>
    <g>
      <path class="cls-3" d="M1953.18,372.46c-16.49,36-23.69,62.1-27.46,90.8-2.25,17.19-.66,35.2-3.52,57-6.14,47-12,72.45-23.93,119-23.31,44.67-25,68.77-28.86,109.81-8.15,27-20.05,41.5-33.08,64.76-7.64,31.73-7.47,44.72-4.93,65.47,15.38,92.1,10.27,138.53,4.93,221l-19,159.09"/>
      <path class="cls-4" d="M1932.76,396.39c3.67-11.92,8.17-18.11,17.6-28.86,3.33-2.46,4.84-3.15,7-3.52,1.4.7.79,1.64.7,3.52-3.07,6.5-2.77,8.46-3.52,12A116.89,116.89,0,0,1,1944,407.65a39.33,39.33,0,0,1-8.45,10.56l-2.82-4.93C1931.19,407.59,1931,404,1932.76,396.39Z"/>
      <path class="cls-5" d="M1936.18,428.61c9-10.39,15.91-14.69,29.23-21.49,4-1.06,5.66-1.12,7.72-.57.84,1.29-.15,2-1.15,3.82-5.83,5.22-6.55,7.3-8.92,10.5a146,146,0,0,1-22.91,23.74,43.19,43.19,0,0,1-12.4,7l.06-6.11C1929.3,439.16,1931,435.48,1936.18,428.61Z"/>
      <path class="cls-6" d="M1913.55,595.15c9.64-9.81,16.78-13.68,30.5-19.64,4.11-.81,5.72-.77,7.73-.09.76,1.34-.27,2-1.38,3.74-6.14,4.85-7,6.88-9.55,9.93a146.16,146.16,0,0,1-24.34,22.28,43.51,43.51,0,0,1-12.8,6.24l.43-6.1C1906,605.25,1907.91,601.68,1913.55,595.15Z"/>
      <path class="cls-7" d="M1926.43,485.79c-2.82,5.84-3.32,9.15-2.9,15.12l8.53-5.27,11.26-11.26,9.15-12.67c4.12-6.35,6.14-10,6.34-17.6-1.11-1.82-2.41-1.7-5.63,0a64.11,64.11,0,0,0-14.08,13.38l-7.74,9.15Z"/>
      <path class="cls-8" d="M1919.71,502.17c2.78,5.86,3.26,9.18,2.8,15.14L1914,512l-11.19-11.34-9.06-12.73c-4.08-6.38-6.07-10-6.22-17.64,1.12-1.82,2.42-1.69,5.63,0a64.08,64.08,0,0,1,14,13.47l7.68,9.2Z"/>
      <path class="cls-9" d="M1912.2,572.08c.9,6.42.37,9.73-1.85,15.28l-6.52-7.61-7.29-14.16-4.86-14.86c-2-7.3-2.79-11.4-.67-18.69,1.61-1.4,2.82-.89,5.37,1.72a64.3,64.3,0,0,1,9.33,17l4.58,11.08Z"/>
      <path class="cls-10" d="M1923.16,533.33c-3.74,6.73-4.63,10.59-4.75,17.56l10.07-5.89,13.74-12.81,11.51-14.52c5.24-7.29,7.86-11.49,8.84-20.35-1-2.16-2.52-2.06-6.3-.17a80.41,80.41,0,0,0-17.1,15.2l-9.58,10.45Z"/>
      <path class="cls-11" d="M1888.32,661.54c-4.83,6-6.22,9.77-7.1,17l11.7-3.45,16.46-9.67,14.2-12c6.54-6.18,9.87-9.85,11.89-18.79-.93-2.52-2.56-2.8-6.91-1.84A72.4,72.4,0,0,0,1908.15,644l-11.64,8.31Z"/>
      <path class="cls-12" d="M1839.78,809.85c-4.83,6-6.22,9.77-7.1,17l11.7-3.45,16.46-9.67,14.2-12c6.55-6.18,9.87-9.85,11.89-18.79-.92-2.52-2.55-2.8-6.91-1.84a72.67,72.67,0,0,0-20.41,11.25L1848,800.62Z"/>
      <path class="cls-13" d="M1863.46,695c3.81,3.51,6.56,4.31,12.23,4.33l-.19-9.64-4.2-13.06-6.62-10.89c-3.57-5-5.82-7.42-12.64-8.24-2.26,1.06-2.86,2.48-3,6.09a41.31,41.31,0,0,0,4.6,16.27l4.17,9.1Z"/>
      <path class="cls-14" d="M1852.2,762.6c3.8,3.5,6.56,4.31,12.23,4.32l-.2-9.64L1860,744.22l-6.62-10.89c-3.57-5-5.82-7.42-12.64-8.23-2.27,1-2.86,2.47-3,6.09.73,6.61,1.62,10.2,4.61,16.27l4.17,9.09Z"/>
      <path class="cls-15" d="M1854.53,948.24c-4.55,4.2-7.66,5.35-13.92,5.92l1.16-10.55,5.91-14.69,8.36-12.55c4.42-5.77,7.14-8.68,14.75-10.24,2.39.93,2.9,2.42,2.76,6.36a52.62,52.62,0,0,1-6.67,18.24l-5.49,10.34Z"/>
      <path class="cls-16" d="M1846.92,891.19c-3.59,5-6.4,6.81-12.41,8.65l-1-10.57,2.77-15.59,5.61-14c3.14-6.55,5.21-10,12.33-13,2.53.42,3.34,1.77,4,5.65a52.51,52.51,0,0,1-2.79,19.22l-3.24,11.25Z"/>
      <path class="cls-17" d="M1816,853.25c4.85,4.49,8.2,5.7,14.92,6.26l-1.16-11.35-6.23-15.77-8.9-13.44c-4.71-6.18-7.61-9.29-15.78-10.9-2.58,1-3.15,2.63-3,6.87a55.64,55.64,0,0,0,7,19.58l5.82,11.09Z"/>
      <path class="cls-18" d="M1922.05,447c-6.57-10.6-12.49-15.44-24.35-23.45-3.85-1.53-5.47-1.82-7.7-1.61-1.18,1-.35,1.78.21,3.58,4.63,5.51,4.84,7.48,6.45,10.68A116.66,116.66,0,0,0,1914,460.78a39.2,39.2,0,0,0,10.85,8.07l1.47-5.48C1926.42,457.46,1925.65,453.93,1922.05,447Z"/>
      <path class="cls-19" d="M1897.88,622.47c-3.61-11.93-8.08-18.15-17.46-28.94-3.32-2.48-4.81-3.18-7-3.56-1.4.69-.79,1.64-.72,3.52,3,6.52,2.74,8.47,3.46,12a117.69,117.69,0,0,0,10.42,28.21,39.19,39.19,0,0,0,8.4,10.6l2.84-4.91C1899.4,633.68,1899.57,630.06,1897.88,622.47Z"/>
      <path class="cls-20" d="M1830.89,910.31c-8-9.57-14.54-13.53-27.4-19.79-4-1-5.68-1-7.86-.51-1,1.18-.09,1.81.72,3.51,5.35,4.81,5.84,6.73,7.88,9.67a117.09,117.09,0,0,0,20.65,21.86,39.2,39.2,0,0,0,11.88,6.47l.68-5.64C1836.68,920,1835.42,916.63,1830.89,910.31Z"/>
      <path class="cls-21" d="M2208.7,316.85c-20,33.79-34.13,50.91-63.36,78.84-30,37.1-41.07,57.91-52.08,95-20.91,51-27.56,78.94-33.09,128.11m0,0s-12.11,37.54-23.23,54.9m23.23-54.9-23.23,54.9m0,0c-26.24,41.34-44.42,59.45-80.24,86.58-31.17,25.11-43.77,40.48-57,70.4-9.78,24.76-12.12,39-11.26,64.76"/>
      <path class="cls-22" d="M2152.94,396.52c15.66-6.61,25.46-7.79,43.51-8.43,4.89.88,6.62,1.62,8.45,3.24.12,1.79-1.33,2-3.48,3.51-9.23,2.67-11.22,4.54-15.61,6.78-14.58,6.83-22.93,9.95-38.2,14a54.3,54.3,0,0,1-17.2,1.33l3.69-6.5C2139.44,404.36,2143.38,401.26,2152.94,396.52Z"/>
      <path class="cls-23" d="M1962.74,760c14.34-.62,23.36,2.52,40,10.13,4.53,3.31,6.14,5,7.85,7.76.14,2.19-1.19,1.81-3.15,2.57-8.48-1.1-10.29.2-14.3.83-13.36,1.37-21,1.21-35-1.07a48.59,48.59,0,0,1-15.86-6.38l3.3-6C1950.4,763.11,1954,761.24,1962.74,760Z"/>
      <path class="cls-24" d="M1915.36,806.51c13-6.19,22.48-6.83,40.79-6.36,5.46,1.27,7.6,2.19,10.26,4.06,1,2-.39,2.14-1.9,3.6-8.22,2.32-9.38,4.22-12.83,6.38-11.74,6.49-18.85,9.35-32.64,12.74a48.56,48.56,0,0,1-17.09.34l.67-6.84C1905.22,814.18,1907.78,811.05,1915.36,806.51Z"/>
      <path class="cls-25" d="M2065.82,604.85c-4.56,4.62-5.79,7.92-6.38,14.67l11.48-.47,15.95-5.31,13.61-8.14c6.25-4.37,9.41-7.11,11.06-15.25-1-2.67-2.65-3.34-6.93-3.48-7.93,1-12.28,2.17-19.8,5.87l-11.23,5.19Z"/>
      <path class="cls-26" d="M1997.78,723.9c-5.64,3.18-7.74,6-10.17,12.35l11.17,2.71,16.79-.72,15.33-4.08c7.22-2.48,11-4.24,14.83-11.61-.24-2.85-1.62-3.94-5.7-5.25a53.26,53.26,0,0,0-20.66.19l-12.22,1.89Z"/>
      <path class="cls-26" d="M1997.78,723.9c-5.64,3.18-7.74,6-10.17,12.35l11.17,2.71,16.79-.72,15.33-4.08c7.22-2.48,11-4.24,14.83-11.61-.24-2.85-1.62-3.94-5.7-5.25a53.26,53.26,0,0,0-20.66.19l-12.22,1.89Z"/>
      <path class="cls-27" d="M2078.65,535.11c-4,4.09-5,7.13-5.13,13.45l10.76.24,14.69-4.07,12.33-6.87c5.62-3.75,8.42-6.15,9.5-13.72-1.12-2.58-2.69-3.31-6.72-3.69-7.4.5-11.42,1.33-18.28,4.37l-10.26,4.23Z"/>
      <path class="cls-28" d="M2066.5,568c.89,6.42.17,9.76-2.58,15.4l-7.46-7.48-8.19-14L2043,547.11c-2.14-7.28-3-11.37-.29-18.75,1.92-1.45,3.33-1,6.25,1.58a58.38,58.38,0,0,1,10.51,16.85l5.1,11Z"/>
      <path class="cls-29" d="M2087,500.9c.09,6.48-1,9.71-4.47,15l-6.47-8.34-6.38-14.94-3.42-15.33c-1.22-7.49-1.54-11.65,2.05-18.64,2.09-1.2,3.42-.54,6,2.35a58.58,58.58,0,0,1,8.32,18l3.69,11.55Z"/>
      <path class="cls-30" d="M1894.68,878.84c-4.82,6-6.21,9.76-7.09,17l11.7-3.45,16.46-9.66,14.19-12c6.55-6.17,9.88-9.85,11.9-18.78-.93-2.53-2.56-2.81-6.91-1.85a72.4,72.4,0,0,0-20.41,11.25l-11.65,8.31Z"/>
      <path class="cls-31" d="M1958.24,744c.74,5.12,2.37,7.48,6.76,11.07l5.93-7.59,5-12.78,1.74-12.63c.36-6.09.17-9.42-4.61-14.36-2.41-.61-3.77.11-6.2,2.8a41.53,41.53,0,0,0-6.71,15.52l-2.5,9.69Z"/>
      <path class="cls-32" d="M2005.06,694.53c2.49,4.54,5.15,6,11.46,7.37l4.59-10,1.84-14.54L2021,664.44c-1.51-6-2.78-9.07-10-11.53-3,.56-4.41,1.89-6.43,5.61-2.49,7-3.28,11-3,18l.11,10.42Z"/>
      <path class="cls-33" d="M1881.17,850c3.5,3.24,5.91,4.11,10.75,4.51l-.84-8.18L1886.6,835l-6.42-9.68c-3.39-4.45-5.48-6.69-11.36-7.86-1.86.74-2.27,1.9-2.18,4.95a40,40,0,0,0,5.06,14.11l4.19,8Z"/>
      <path class="cls-34" d="M1914.13,784.71c1.49,4.52,3.18,6.45,7.22,9.15l3.23-7.56,1.58-12.12-.92-11.58c-.81-5.53-1.56-8.5-6.14-12.37-2-.26-2.91.56-4.3,3.27a40,40,0,0,0-2.41,14.8l-.2,9Z"/>
      <path class="cls-35" d="M2051.33,621.06c-3.61-11.93-8.07-18.14-17.45-28.94-3.32-2.48-4.82-3.18-7-3.56-1.41.69-.8,1.64-.73,3.52,3,6.52,2.74,8.47,3.46,12A117.14,117.14,0,0,0,2040,632.27a39.17,39.17,0,0,0,8.39,10.6l2.84-4.91C2052.85,632.27,2053,628.66,2051.33,621.06Z"/>
      <path class="cls-36" d="M2116.55,428c-.44-12.46-3.17-19.61-9.49-32.44-2.58-3.25-3.85-4.3-5.88-5.23-1.54.31-1.19,1.38-1.6,3.22,1.28,7.08.49,8.89.29,12.47a117.22,117.22,0,0,0,2.88,29.93,39.37,39.37,0,0,0,5.42,12.39l4-4C2115.17,439.18,2116.25,435.73,2116.55,428Z"/>
      <path class="cls-37" d="M2186.88,328.11c10.81-3.64,15.6-6.69,22.52-13.37-.93,14.48-3.73,22.17-16.19,34.49-9.34,5.89-14.34,9.49-21.82,17.6.48-16.12,1.13-21.14,2.82-24.64C2176,336.2,2178.92,333.14,2186.88,328.11Z"/>
      <path class="cls-38" d="M2152.1,361.47c-6.51-10.11-8.47-15.73-9.82-25.68-8.63,12.19-11.31,20.21-9.07,38.34,3.85,10.94,5.62,17.13,6.5,28.6,10.06-13.21,12.77-17.65,13.66-21.57C2155.81,375.19,2155.37,370.78,2152.1,361.47Z"/>
      <path class="cls-39" d="M2126.46,450.53c11.4.72,17-.28,25.92-3.85-6.35,13.05-11.85,19.11-28,25.8-10.88,1.92-16.87,3.35-26.86,8,6.54-14.74,9.05-19.14,11.93-21.74C2113.31,453.89,2117.2,452.18,2126.46,450.53Z"/>
      <path class="cls-40" d="M2065.61,649.21c11.29,1.67,16.93,1.13,26.14-1.68-7.41,12.48-13.4,18.06-30.1,23.37-11,1-17.09,1.93-27.43,5.75,7.75-14.14,10.61-18.3,13.7-20.66C2052.22,651.46,2056.24,650.07,2065.61,649.21Z"/>
    </g>
    <path class="cls-41" d="M1705.8,879.85c-20.47,12.33-77.24,172.26-147.18,351.69l47.92,16.26c62-94.09,122.21-137,235.31-211.36,55.28-35.5,82.46-66.06,129.93-119.43l1.85-2.08c28.78-22.93,34.27-41.49,42.79-75.3-6-20.74-10.08-31.85-50.49-20.54-11.59,7.23-19.9,8.48-31.66,9.42-19.71,0-23.82-4.3-24-16.26-6.16-13.25-23,1.79-43.64,12.83-15.42,4.68-18.93-7.59-27.38-23.1-7.91-18.77-21.11.87-41.93,26.53-17.73,24.85-30.66,46.89-41.93,28.24C1741.27,843.45,1730.53,848,1705.8,879.85Z"/>
    <g>
      <path class="cls-42" d="M902,1257.5c-.14-93.31-38.47-330.1-85.76-430.51-28.28-50.08-45.63-78.59-81.56-130.88-25.61-29.85-37.34-48.93-54.44-86.39C659.81,578.8,655.08,558,659.39,514.5c4.78-46,5.48-72.44-.62-122.38-.76-33.25-1.24-51.88-31.08-85.56"/>
      <path class="cls-43" d="M630.08,302.68l.31,7a48.48,48.48,0,0,1-15.71-5.42c-12.55-7.46-19-12.4-29.48-22.31-3.08-3.15-4.06-5.38-11.52-10.11-1.33-1.9-2.58-2.48-1.58-4.12,2.53-1.07,4.54-1.34,9.62-1,16.87,5,25.61,8.44,37.25,18.41C625.75,291.87,628,295.72,630.08,302.68Z"/>
      <path class="cls-44" d="M644.85,317.92l-4.93,3.45a41.49,41.49,0,0,1-3.3-14,124.41,124.41,0,0,1,2.67-31.8c.89-3.69,2.06-5.44,2.07-13.07.77-1.84.61-3,2.27-3.05,2,1.35,3.08,2.69,5.15,6.57,4.16,14.6,5.66,22.57,3.75,35.67C650.74,309.78,649,313.18,644.85,317.92Z"/>
      <path class="cls-45" d="M659.08,396.91l-.47,6.73A47.94,47.94,0,0,1,645.49,395c-10.14-9.93-15.2-16.07-23.32-27.89-2.35-3.7-3-6-9-12.23-1-2.11-2-2.94-.94-4.29,2.32-.45,4.1-.26,8.49,1.22,14.17,8.51,21.42,13.78,30.51,25.9C656.45,385.62,658,389.8,659.08,396.91Z"/>
      <path class="cls-46" d="M661.17,504.73l-1.13,7a49.16,49.16,0,0,1-15.1-7.88c-11.4-9.41-17-15.34-25.79-26.88-2.52-3.63-3.07-6-9.79-11.9-1-2.1-2.15-2.87-.78-4.36,2.83-.66,5-.61,10.14.56,16.38,7.61,24.68,12.45,34.63,24.22C659,493.28,660.44,497.47,661.17,504.73Z"/>
      <path class="cls-47" d="M661.71,450.93l-.9,6.91a48.52,48.52,0,0,1-14.42-8.16c-11-9.58-16.38-15.59-24.95-27.22-2.46-3.65-3-6-9.51-12-1-2.11-2.09-2.9-.83-4.33,2.66-.6,4.67-.5,9.57.77,15.63,7.92,23.57,12.91,33.23,24.8C659.36,439.53,660.85,443.72,661.71,450.93Z"/>
      <path class="cls-48" d="M662.06,564.65l-1.21,6.45a46.24,46.24,0,0,1-15.29-5.41c-11.51-7.23-17.14-12-26-21.4-2.53-3-3.06-5.08-9.85-9.65-1-1.79-2.16-2.35-.75-3.85,2.89-.92,5.06-1.12,10.31-.65,16.59,5,25,8.47,35,18C659.9,554.54,661.38,558.16,662.06,564.65Z"/>
      <path class="cls-49" d="M749.55,719.35l3.26,8.61a63.6,63.6,0,0,1-22-.14c-18.82-4-28.9-7.51-46.19-15.48-5.16-2.66-7.3-5-18.63-7.81-2.44-1.82-4.26-2-3.68-4.5,2.74-2.4,5.15-3.6,11.69-5.29,23.22-.92,35.62-.27,54.35,7.3C739.67,707.63,744,711.52,749.55,719.35Z"/>
      <path class="cls-50" d="M790.5,783.46l4.3,9.64c-8.87.63-14.13.47-24.64-1.78-21.41-5.81-33-10.35-52.95-20.34-6-3.28-8.57-6-21.48-9.9-2.87-2.17-4.92-2.51-4.46-5.18,2.9-2.43,5.52-3.55,12.72-4.91,26,.73,39.93,2.36,61.49,12C778.55,769.94,783.74,774.51,790.5,783.46Z"/>
      <path class="cls-51" d="M683.26,618.94l1.5,6a42.88,42.88,0,0,1-14.86-1.24,121.94,121.94,0,0,1-30-13c-3.28-2.07-4.54-3.8-12-6.28-1.51-1.37-2.72-1.59-2.13-3.26,2-1.49,3.79-2.18,8.35-3,15.81.59,24.16,1.69,36.23,7.82C677.51,610.45,680.16,613.33,683.26,618.94Z"/>
      <path class="cls-52" d="M667.64,408.76l7.34-8.14a46.74,46.74,0,0,1,14.19-11.69c3.59-1.39,5.19-1.4,7,.42,1.68,7.22.1,10.55-3.44,16.3L684.56,417l-11.21,9.89L664,431.31c-2-5.71-2.26-8.84-.23-14.19Z"/>
      <path class="cls-53" d="M670.33,455.94l8.38-7.07a46.77,46.77,0,0,1,15.64-9.66c3.75-.89,5.33-.69,6.91,1.37.69,7.38-1.33,10.47-5.61,15.68L686,466.43l-12.44,8.29-9.83,3.07c-1.24-5.94-1-9.06,1.71-14.09Z"/>
      <path class="cls-54" d="M661.78,346.49l6.75-8.65a46.73,46.73,0,0,1,13.3-12.68c3.48-1.63,5.08-1.77,7-.08,2.19,7.08.85,10.52-2.26,16.5l-7.37,12-10.46,10.67-9,5c-2.45-5.55-2.89-8.65-1.24-14.14Z"/>
      <path class="cls-55" d="M690.3,576.05l2.93-12.25c2.19-8.25,2.46-12.85,1.83-21-1-4.3-2.06-5.83-5-6.4-8,3.08-10.08,6.74-13.22,13.82l-5.45,15.17-2.07,17,1.93,11.68c6.76-1.76,9.86-3.58,13.61-9Z"/>
      <path class="cls-56" d="M718.44,628.82,721.73,616c2.44-8.66,2.82-13.47,2.37-22-1-4.48-2-6.05-5-6.58-8.23,3.4-10.49,7.28-13.88,14.74l-5.93,16-2.52,17.85,1.71,12.15c7-2,10.19-4,14.16-9.69Z"/>
      <path class="cls-57" d="M658.33,529.73l1.31,6.85a48.18,48.18,0,0,0,14-8.9c10.48-10.16,15.58-16.45,23.52-28.52,2.26-3.79,2.69-6.18,8.87-12.52.84-2.15,1.93-3,.58-4.37-2.71-.45-4.73-.25-9.59,1.29-15.26,8.73-22.95,14.13-32,26.53C660,518.22,658.77,522.48,658.33,529.73Z"/>
      <path class="cls-58" d="M771.7,753.19l4.52,4.38a43.41,43.41,0,0,0,7.69-13.26,115.21,115.21,0,0,0,6.16-32.17c.08-3.85-.73-5.81,1.45-13.41-.33-2,.18-3.13-1.66-3.48-2.56,1-4.2,2.09-7.63,5.54-8.83,13.73-12.8,21.38-14.44,34.78C767.48,743.94,768.49,747.66,771.7,753.19Z"/>
      <path class="cls-59" d="M734.3,694.19l5,5a49.25,49.25,0,0,0,8.42-15c4.35-14.15,5.72-22.15,6.6-36.52.06-4.38-.85-6.61,1.52-15.24-.39-2.25.18-3.55-1.86-4-2.83,1.08-4.64,2.34-8.42,6.25-9.68,15.53-14,24.2-15.75,39.42C729.56,683.65,730.71,687.89,734.3,694.19Z"/>
      <path class="cls-60" d="M807.51,812.38l5.51,4.77a51.36,51.36,0,0,0,10-15.08c5.39-14.07,7.21-22,8.68-36.18.22-4.32-.73-6.49,2.23-15.06-.36-2.21.32-3.5-2-3.84-3.23,1.16-5.32,2.46-9.71,6.44-11.46,15.62-16.65,24.31-19.12,39.36C802.5,802.16,803.66,806.3,807.51,812.38Z"/>
      <path class="cls-61" d="M633.72,324.08c2.74,1,5.71,3.37,14.39,11.82-8.27-.47-12.84.21-21,1.91-13.16-.14-18.69-2.82-26.76-10.14,7.23,0,11.4-.88,19.14-4.56C626.45,321.67,629.63,321.77,633.72,324.08Z"/>
      <path class="cls-62" d="M686.13,645c4.55,2.55,9.94,7.28,26.24,23.5-12.81-3.69-19.56-4.29-31.36-4.56-20.16-4.94-29.58-11.08-44.54-25.35,11,2.58,17.11,2.74,27.62-.2C674.14,638.68,679.05,640,686.13,645Z"/>
    </g>
    <path class="cls-63" d="M604.47,1125.27c68.6,66,87.94,79.1,123.07,140.9,73.78-13.86,115.14-10.72,194.83-15S857,893.85,857,893.85c-6.36-40.89-12-63.22-33.16-100-18.74-15.2-25.48-10.27-35.58,5.49-7.09,11.29-16,3.43-41.28-37.67-24.8-32.19-36.54-38.62-76.5-140.61C663.57,602.8,658.64,596,649,586.67c-12.21-20.43-18.89-15.33-30.52,18.91-3.15,29.43-5.45,44.53-23.43,35.35-24.36-14.94-39.36-26.19-57.64-64.61-12.51-33-24.82-48.31-50.22-73.43-23.95-17.7-36.24-25.06-44.8-8-13,28.12-23.57,17.19-43.69-12.44-23.35-33.57-42.2-49.25-84.69-72.39-32.23-6.44-49.7-5.58-79.44,6.4-15.89,11.93-18.53,21.66-5.83,47.45,18.43,28,36.79,37.19,70.32,52.9C330,554.61,327,570.42,292.9,591c-32.92,20.35-41.62,32.84-20.6,59.15,22.47,35,54.54,42.66,114.15,55,29.34,13.79,40.53,22.09,14.07,41.77-22.89-.39-34.18,2.46-35.82,24.79-6.39,22.75,13.55,34.72,68.33,45.44,31.32-.44,64.52,20.07,67.52,27.61,18,18.55-1.76,27.57-24.59,44.24-8.71,36-2.14,49.84,23.15,67.14,40.33,17.4,61.47,29.09,91.1,60.59,17,16.69,27.42,26.28,11,34.3C579.12,1053.94,585.32,1076.33,604.47,1125.27Z"/>
    <path class="cls-64" d="M1924,1186.3c-64,37.52-86.22,47.67-119.33,83l-175.15-12.84L1694,1051.11c6.35-23.51,11.85-36.33,31.76-57.34,17.44-8.61,23.6-5.73,32.72,3.43,6.4,6.56,14.71,2.1,38.49-21.4,23.24-18.35,34.14-22,72.18-80.43,6.61-10.5,11.23-14.37,20.21-19.68,11.49-11.68,17.59-8.69,27.9,11.12,2.55,17,4.49,25.69,21.18,20.54,22.62-8.43,36.58-14.8,53.89-36.8,11.91-18.94,23.44-27.64,47.15-41.92,22.28-10,33.7-14.17,41.38-4.28,11.64,16.29,21.52,10.08,40.42-6.85,21.92-19.16,39.48-28,78.91-41.07,29.78-3.47,45.87-2.84,73.14,4.28,14.5,7,16.82,12.62,4.81,27.38-17.32,16-34.35,21.15-65.44,29.95-28.91,21.55-26.36,30.68,4.81,42.78,30.1,12,38,19.23,18.29,34.23-21.13,20-50.78,24.17-105.86,30.81-27.21,7.73-37.62,12.42-13.47,23.95,21.1,0,31.47,1.68,32.72,14.55,5.62,13.16-12.9,19.9-63.52,25.67-28.86-.48-59.7,11.08-62.55,15.4-16.83,10.56,1.29,15.9,22.13,25.68,7.6,20.78,1.39,28.73-22.13,38.5-37.38,9.73-57,16.3-84.68,34.23-15.88,9.49-25.58,14.93-10.59,19.68C1948.22,1145.4,1942.23,1158.25,1924,1186.3Z"/>
    <g>
      <path class="cls-65" d="M661.7,1253.21c-30.93-81.18-43.23-129-56.31-218.38-17.86-79.65-34.46-118.74-75-179.27-43.47-65.93-69.08-101.37-124.81-152.14-30-30.56-47.94-46.53-81.65-73"/>
      <path class="cls-66" d="M330.92,496c27.88,17.57,40.23,28.66,43.71,55.43,6.11,25,7.79,39.56,8,66.45,1.74-18.93,5.36-29.19,15.58-47,4.56-13.42,9.24-19.7,21.22-28.76,9.24-7.43,12.71-13.11,16.5-25.38-2.52,47.78-14.63,71.81-53.49,110.24,0-2.91.07-5.95.19-9.14-.17-26.89-1.85-41.46-8-66.45C351.63,545.64,342,533.42,330.92,496Z"/>
      <path class="cls-67" d="M287,588.19c-103.45-34.54-126.06-43.07-179.83-70.77,45.53,29.5,68.63,46.91,106.71,79.08,23.19,16.27,38.82,24.22,71.67,36.12,20.46,6.75,29.07,6.46,38.19-2.9C330.86,609.28,320.51,599.59,287,588.19Z"/>
      <path class="cls-68" d="M188.64,697.91c25.19-8.71,38.86-14.79,61.75-29.55,17.47-9.53,27-13.24,45.18-14,11.76-.79,17.82.37,28.08,4.1,10.67,3.28,17.66,4,26.35,3.86,2.88-.24,5.87-.35,9.05-.38-3.31.18-6.27.33-9.05.38-15.48,1.26-27.79,6-48.83,17.83-20.63,8.34-32.32,11.58-53.91,9.08C226.06,690.84,213,692.94,188.64,697.91Z"/>
      <path class="cls-69" d="M358.3,794.54l-.06.09c-11.2,16-20.17,23.85-41.13,35.83-40.37,17.86-64.4,24.59-109.34,31.62-5,1.68-7.33,2.87-9.71,6.08,5.21-11.38,12.66-17.83,22.27-29.93,21.41-20.94,33.84-29.49,56.46-41.09C313.9,779.67,379.37,759.86,388,762.53a99.85,99.85,0,0,1,23.29-7c-16.69,1.48-29.72,1.85-47.95.08-12.55-4.12-18.19-5.44-26.89-6.83-15.82-4.62-24-7.84-45.84-7,29.91-11.73,47.42-15,79.58-16.9,16.46,4.61,24.43,8.35,35.71,17.74l.29.21c10.71,7.88,14.68,10.8,23.69,10.79l17.07,3a126.54,126.54,0,0,0-25.47-2.14c-3.58.37-6.95.7-10.19,1a99.85,99.85,0,0,0-23.29,7C370.5,775,365.94,782.29,358.3,794.54Z"/>
      <path class="cls-70" d="M534.41,715.58c2.92-42.54.86-65.68-14.65-104.66a34,34,0,0,1-3.19-13.87c-.51,14.77.06,23.55-3.88,36.31-6.31,21.93-8.06,33.38-8.16,52.37-1.47,31.77.86,48.37,10.9,75.88l2.3,9.69c1.8,6.47,2.34,10,1.79,16.12C527.16,764.19,530.94,744.27,534.41,715.58Z"/>
      <path class="cls-71" d="M589.64,896.57c6.65-10.06,9.86-17.06,15.35-30.23,2.69-14.18,6.69-21.84,18-35.05,10.58-9.49,15.11-16,21-29.42,5.81-9.36,8.58-14.81,12-25.15,1.46,21.36.16,32.67-6.2,51.59-7.44,20-14.62,29.63-34.51,43.06L588,902.1c.5-1.77,1-3.61,1.61-5.53,1.18-10.24,2.11-19.52,2.79-28.32,2.32-30,1.79-54.53-1.14-92.58-1.68-39-1.29-61.29,3.77-102.07,1.1-10.91,2.19-16.52,5.12-25.46a24.72,24.72,0,0,0-.55-10.34c-.59-1.61-1.14-3.22-1.58-4.7.67,1.75,1.19,3.27,1.58,4.7,2.34,6.4,5.37,13,5.37,13,2,9,2,12.82,4.7,21.6,5.25,39.5,6.56,61.57,7.1,100.82-4.71,42.65-8.49,65.26-24.37,95C591.75,877.05,590.82,886.33,589.64,896.57Z"/>
      <path class="cls-72" d="M472.27,873.11c-18.39-5.11-29.42-9.67-52.65-26.21-5.39-10.42-10.31-14.43-25.13-15.84,9.63-3.28,18.33-4.2,40.81-3.93,17.21,1.19,22.68,6.57,30.6,18.23,9.45,13,30.57,36.87,36.06,40.37l1.15.42q4,1.43,7.84,2.62c-2.35-.07-4.65-.14-6.89-.19-23.69,6.77-36.46,12.17-58,25.68-28.72,18-46.26,25.36-78.74,36.37-29,12-45.49,17.58-72.91,37.73L324,957.82c22.65-22.63,39.86-34.57,77.59-54.69,31.87-12.51,55.37-15.74,102.43-14.55,2.24,0,4.54.12,6.89.19q-3.85-1.2-7.84-2.62c-.21.08-.6-.07-1.15-.42C493.16,882.54,483.62,878.46,472.27,873.11Z"/>
      <path class="cls-73" d="M527.82,979.85c-27.93-14.92-43.32-22.31-65.51-16.61,11.57,4.91,16.61,8.1,21.08,15.16,9,10.62,14.81,13.51,25.65,17.15l11.8,4.64c-25.49-4.21-39.37-5.26-61.13,2.64-27.93,7.43-43.23,12.2-68.25,24.55,22-4.81,34.6-5.66,57.28-4.35,33.76,7.86,47.54,5.74,71.62,1.35,16.25-8,25.5-10.92,42.31-13.6l10,1.37C559.88,1005.36,546.75,996.06,527.82,979.85Z"/>
      <path class="cls-74" d="M651.92,1028.32c-8.77-40.87-7.66-65.51,4.27-112.52,8.77,40.33,12.4,65,2.67,95.34,12.77-29.51,21.81-43.73,40.8-65.53,26.21-26.93,43.77-40.26,57.58-74.81.3,31.32-.84,49.42-22.9,89.92-33,36.58-53,53.95-91.2,79.7l-3.49,2.69C643.16,1038.54,647.18,1033.69,651.92,1028.32Z"/>
      <path class="cls-75" d="M509.84,1078.43c44.13,18.58,59.92,33.22,71.08,67.36,19.68,15.87,32,27.46,45.67,42.56-8.18-4.11-15.41-7.78-21.85-10.81-6.27.78-9.15,2.14-12.68,6.23-14.2,9-22.88,12.67-39.45,17-24.17,7.89-38.68,10.8-65.18,15,16.94-6.17,26.56-10.9,43.66-21.7,15.49-13.46,23.95-20.24,36.62-24.22,8.82-3.89,20.22-.28,37,7.65,6.44,3,13.67,6.7,21.85,10.81-13.68-15.1-26-26.69-45.67-42.56-3.79,3.41-6.39,4.66-12.44,4.89-26-1.88-42.38-9.89-73.15-30.25-62.92-36-81.62-43.06-103.89-46.91,25.29,1.64,39.71,2.11,65.86,2.11C478.28,1074.25,489.77,1075,509.84,1078.43Z"/>
      <path class="cls-76" d="M374.63,551.47c-3.48-26.77-15.83-37.86-43.71-55.43C342,533.42,351.63,545.64,374.63,551.47Zm0,0c6.11,25,7.79,39.56,8,66.45m0,0c-.12,3.19-.19,6.23-.19,9.14m.19-9.14c1.74-18.93,5.36-29.19,15.58-47,4.56-13.42,9.24-19.7,21.22-28.76,9.24-7.43,12.71-13.11,16.5-25.38-2.52,47.78-14.63,71.81-53.49,110.24m18.91,71.24c-13.2-26.09-18.95-42.57-18.91-71.24m75.15,131.58c-3.74-.76-7.26-1.43-10.62-2M388,762.53c-17.53,12.48-22.06,19.79-29.74,32.1-11.2,16-20.17,23.85-41.13,35.83-40.37,17.86-64.4,24.59-109.34,31.62-5,1.68-7.33,2.87-9.71,6.08,5.21-11.38,12.66-17.83,22.27-29.93,21.41-20.94,33.84-29.49,56.46-41.09C313.9,779.67,379.37,759.86,388,762.53Zm0,0c21-8.9,36.09-9.74,58.95-5.88m-17.07-3c-9.09,0-13.05-3-24-11-11.28-9.39-19.25-13.13-35.71-17.74-32.16,1.85-49.67,5.17-79.58,16.9,21.83-.89,30,2.33,45.84,7,8.7,1.39,14.34,2.71,26.89,6.83C387.73,757.94,402.82,756.49,429.86,753.64Zm0,0,17.07,3m60,64.25c5.12-12.47,9.21-23.3,12.55-33.48m0,0c7.64-23.23,11.42-43.15,14.89-71.84,2.92-42.54.86-65.68-14.65-104.66a34,34,0,0,1-3.19-13.87c-.51,14.77.06,23.55-3.88,36.31-6.31,21.93-8.06,33.38-8.16,52.37-1.47,31.77.86,48.37,10.9,75.88l2.3,9.69C519.53,777.77,520.07,781.32,519.52,787.42Zm62.75,159.69c-.41-17.21,1-27.93,5.76-45m1.61-5.53c6.65-10.06,9.86-17.06,15.35-30.23,2.69-14.18,6.69-21.84,18-35.05,10.58-9.49,15.11-16,21-29.42,5.81-9.36,8.58-14.81,12-25.15,1.46,21.36.16,32.67-6.2,51.59-7.44,20-14.62,29.63-34.51,43.06L588,902.1m1.61-5.53c-.58,1.92-1.11,3.76-1.61,5.53m1.61-5.53c1.18-10.24,2.11-19.52,2.79-28.32m0,0c2.32-30,1.79-54.53-1.14-92.58-1.68-39-1.29-61.29,3.77-102.07,1.1-10.91,2.19-16.52,5.12-25.46.73-5.88.11-9.18-2.13-15a172.18,172.18,0,0,0,7,17.69c2,9,2,12.82,4.7,21.6,5.25,39.5,6.56,61.57,7.1,100.82C612.09,815.86,608.31,838.47,592.43,868.25Zm-38,29.28c-16.72-2.08-29.63-4.41-43.52-8.76m-7.84-2.62c-9.12-3.26-19-7.46-30.84-13-18.39-5.11-29.42-9.67-52.65-26.21-5.39-10.42-10.31-14.43-25.13-15.84,9.63-3.28,18.33-4.2,40.81-3.93,17.21,1.19,22.68,6.57,30.6,18.23C476.28,859.62,500.76,887.06,503.11,886.15Zm0,0q4,1.43,7.84,2.62m0,0c-2.35-.07-4.65-.14-6.89-.19m0,0c-47.06-1.19-70.56,2-102.43,14.55-37.73,20.12-54.94,32.06-77.59,54.69l-29.6,30.54c27.42-20.15,43.9-25.77,72.91-37.73,32.48-11,50-18.41,78.74-36.37C467.6,900.75,480.37,895.35,504.06,888.58Zm98.13,136.17c-11.07-4-20.21-7.64-29.53-12.6m-51.11-11.68-.71-.28m0,0L509,995.55c-10.84-3.64-16.69-6.53-25.65-17.15-4.47-7.06-9.51-10.25-21.08-15.16,22.19-5.7,37.58,1.69,65.51,16.61,18.93,16.21,32.06,25.51,44.84,32.3m-51.82-12c-25.49-4.21-39.37-5.26-61.13,2.64-27.93,7.43-43.23,12.2-68.25,24.55,22-4.81,34.6-5.66,57.28-4.35,33.76,7.86,47.54,5.74,71.62,1.35,16.25-8,25.5-10.92,42.31-13.6l10,1.37m42.07,77.25c7.24-18.56,13.1-30.85,24.92-46.29m12.27-14.79.58-.65a166.43,166.43,0,0,0,6.36-16.53m-6.94,17.18c-8.77-40.87-7.66-65.51,4.27-112.52,8.77,40.33,12.4,65,2.67,95.34m-6.94,17.18c-4.74,5.37-8.76,10.22-12.27,14.79m19.21-32c12.77-29.51,21.81-43.73,40.8-65.53,26.21-26.93,43.77-40.26,57.58-74.81.3,31.32-.84,49.42-22.9,89.92-33,36.58-53,53.95-91.2,79.7l-3.49,2.69M642.77,1207c-5.87-6.94-11.12-13-16.18-18.6m-45.67-42.56c-11.16-34.14-26.95-48.78-71.08-67.36-20.07-3.48-31.56-4.18-52.54-2.8-26.15,0-40.57-.47-65.86-2.11,22.27,3.85,41,10.92,103.89,46.91,30.77,20.36,47.14,28.37,73.15,30.25C574.53,1150.45,577.13,1149.2,580.92,1145.79Zm0,0c19.68,15.87,32,27.46,45.67,42.56m0,0c-8.18-4.11-15.41-7.78-21.85-10.81m0,0c-16.81-7.93-28.21-11.54-37-7.65-12.67,4-21.13,10.76-36.62,24.22-17.1,10.8-26.72,15.53-43.66,21.7,26.5-4.23,41-7.14,65.18-15,16.57-4.34,25.25-8,39.45-17C595.59,1179.68,598.47,1178.32,604.74,1177.54ZM107.13,517.42c53.77,27.7,76.38,36.23,179.83,70.77,33.55,11.4,43.9,21.09,36.74,41.53-9.12,9.36-17.73,9.65-38.19,2.9-32.85-11.9-48.48-19.85-71.67-36.12C175.76,564.33,152.66,546.92,107.13,517.42Zm81.51,180.49c25.19-8.71,38.86-14.79,61.75-29.55,17.47-9.53,27-13.24,45.18-14,11.76-.79,17.82.37,28.08,4.1,14.08,4.34,21.76,4.23,35.4,3.48-20.25.15-32.92,4.12-57.88,18.21-20.63,8.34-32.32,11.58-53.91,9.08C226.06,690.84,213,692.94,188.64,697.91Z"/>
    </g>
    <path class="cls-77" d="M605.54,941.18c-139.75-7.89-160.24-177.55-50-241.46,91.38-53,235.87-23.94,330.46-24.87,140.94-1.39,211.78-94.32,333.19-143.37,119.74-48.36,179-5.32,269.53,72.35,82.08,70.45,169.54,90.76,264,128.91,87.37,35.3,152,94.65,150,202.52-2.12,112.08-112.54,149.87-201.51,153.88-101.69,4.58-199.16,3.27-296.25,33.88-145.29,45.83-291,57.6-436,9.19-74.53-24.89-113.6-56.82-179.16-100.94C739.63,997.57,656.18,944,605.54,941.18Z"/>
    <path class="cls-78" d="M1495.92,1155c0,86.76-53.25,157.1-118.94,157.1H1010.62c-65.69,0-118.93-70.34-118.93-157.1V324.17c0-86.76,53.24-157.1,118.93-157.1H1377c65.69,0,118.94,70.34,118.94,157.1Z"/>
    <path class="cls-79" d="M1455,1155c0,86.76-53.24,157.1-118.93,157.1H969.71c-65.69,0-118.94-70.34-118.94-157.1V324.17c0-86.76,53.25-157.1,118.94-157.1h366.36c65.69,0,118.93,70.34,118.93,157.1Z"/>
    <path class="cls-80" d="M1420.05,1142c0,85.07-47.28,90-105.61,90H989.12c-58.33,0-105.61-4.92-105.61-90V327.51c0-85.07,47.28-86.58,105.61-86.58h325.32c58.33,0,105.61,1.51,105.61,86.58Z"/>
    <path class="cls-81" d="M474.25,923.67c83.21,61.24,124.83,99.29,191.82,172.52,38.81,50.67,75.29,114.07,99.46,168-43.16-1.52-66.3-.9-105.15,3.58-10.94-28.6-11-74.21-42.36-93.07-36.62-19.07-56.71-30.05-115.66-34.49-38.33-.53-52.39,11.23-113.87-26.86-25.38-15.21-76.57-28.49-14.94-32.53,25.6-.65,38.32-2.41,59.71-6.64,19.4-4,25.25-6.73,18.77-12.94-20.7-11.67-34.33-17-61.55-24.8-35-5.58-55-7.55-95.93,3.27-25.09,2.72-60.52-12.47-29.37-27.43,17.05-8.31,26.4-13.37,35.64-36.56,8.91-17.67-21-24.63-81.92-36.4-52.85-9.57-84.72-14.48-80.36-35.69,2.91-12.81,8-16.93,27.93-14.78,21-1.12,34.44-1.2,25.7-12.4-39.78-31.45-58.35-41.87-82.94-44-32-12.07-35.08-17.79-24-26.85,11.76-7.2,20.51-7.66,39.06-3.63,36.19,7.61,56.16,16,91.24,39.15,0,0,14.58.21,19-6-5.06-15.83-6.43-23.41,14-16.61,30.81,13.09,46.26,21.86,69.77,40.65,11.08,7.29,15.54,8,16-5.15-2-11.46,5.57-10.45,23.66-4.65,36.25,20.07,54.31,36.76,85.35,69.33C450.92,905.65,457.3,905.45,474.25,923.67Z"/>
    <g>
      <path class="cls-82" d="M643.14,1062.45c39.86,25.52,27.11,61.13-8.26,84.1-27.52,23.27-58.42,22.74-72.67-13.4-17.76-28.59-14.88-67.27,6.75-82.9C583.9,1033.23,603.29,1036.94,643.14,1062.45Z"/>
      <ellipse class="cls-83" cx="626.21" cy="1124.06" rx="51.91" ry="24.54" transform="translate(-603.01 743.72) rotate(-43.69)"/>
      <path class="cls-84" d="M670.68,1144.35c-10.77-11.67-30-27.16-42.14-22-14.85,7.67-9.94,28.48-2.4,43.09,34.32,45.64,46.1,82,64.09,137.67h0c2.55,7.91,5.24,16.22,8.14,25,6.89,15.17,13.32,16.78,26.13,16a31,31,0,0,0,3.84-.2c2.62-.18,5.34-.46,8.13-.85a101.31,101.31,0,0,0,19.63-4.65l0,.08.62-.32a36.19,36.19,0,0,0,9.28-4.76l5.69-2.92-13.18-25.71a22.33,22.33,0,0,0-2-5.4C729.32,1236.88,710.32,1203.17,670.68,1144.35Z"/>
      <path class="cls-85" d="M630.85,1121.69l-4.93-28.15"/>
      <path class="cls-85" d="M625.92,1123.81l-13.37-20.42"/>
      <path class="cls-85" d="M621,1128.73l-19.71-12.67"/>
      <path class="cls-85" d="M619.59,1134.36l-26.05-8.44"/>
      <path class="cls-85" d="M618.18,1140l-30.27-3.52"/>
      <path class="cls-85" d="M619.59,1147l-34.49,2.12"/>
      <path class="cls-85" d="M621,1154.07,588.62,1159"/>
      <path class="cls-86" d="M649.86,1126.62l16.19-22.52"/>
      <path class="cls-86" d="M645.63,1123.81l19-34.5"/>
      <path class="cls-85" d="M635.07,1121l4.23-34.49"/>
      <path class="cls-86" d="M639.3,1121.69l14.08-38"/>
    </g>
    <g>
      <path class="cls-82" d="M825.13,987.55c34.22,34.78,12.23,67.19-47.42,83.79-42.69,17.93-78.68,10.93-79.17-28.79-8-32.79,12.74-71.52,45.11-82.9C777.82,944.42,790.9,952.77,825.13,987.55Z"/>
      <path class="cls-83" d="M784.06,1070.9c-36.75,13.66-71,12.7-76.54-2.15s19.8-38,56.56-51.62c36.71-18.48,71-18,76.54,2.15C846.14,1034.13,820.82,1057.24,784.06,1070.9Z"/>
      <path class="cls-87" d="M817.19,1070.41c-6.35-14.54-29.18-32.7-42.33-31.77-16.55,2.38-18.73,23.65-16.38,39.93,17.48,54.36,16.69,92.61,15.47,151.06h0c-.17,8.32-.35,17-.49,26.28-3.14,29.95-6.08,46-17.72,70.72,46.9,5.43,78.69,25.43,111.92-11.27.21-1.87,0-35.19-3.52-64S852.57,1134.67,817.19,1070.41Z"/>
      <path class="cls-88" d="M756.44,1072.52H710"/>
      <path class="cls-88" d="M757.85,1064.08l-49.27-7"/>
      <path class="cls-88" d="M759.26,1054.22l-40.83-9.85"/>
      <path class="cls-88" d="M760.67,1047.18l-26.75-15.48"/>
      <path class="cls-88" d="M794.46,1044.37,821.2,1005"/>
      <path class="cls-88" d="M783.19,1040.14l14.08-33.78"/>
      <path class="cls-88" d="M776.15,1038.74V1012"/>
      <path class="cls-88" d="M766.3,1041.55l-12.67-19.71"/>
      <path class="cls-88" d="M798.68,1051.41l39.42-36.61"/>
    </g>
    <g>
      <path class="cls-89" d="M1701.94,1212.24c-.15,25.42,2.43,36.17,8.11,53.91"/>
      <path class="cls-89" d="M1750.13,1168.82c-14.62,16.45-18.24,26-18.13,43.42,1.57,25-3.06,37-22.42,54.39m84-84.45c-23.45,31.91-31.12,50-29.58,83m72-124c1.81,26.53-1.26,40-14.79,61.07-17.11,27.3-22.85,40.88-22,60.11m0,1c20.6-13.8,31.13-21.89,34.83-41.51"/>
      <path class="cls-90" d="M1696.78,1186.06a3.33,3.33,0,0,1,4.34-.26c5.52,4.18,8.82,9.38,12.73,20.13a3.69,3.69,0,0,1-2.64,4.87,76.9,76.9,0,0,1-18.28,2.16,3.7,3.7,0,0,1-3.71-4C1690.21,1196.55,1692.19,1190.65,1696.78,1186.06Z"/>
      <path class="cls-90" d="M1757,1143.83a3.3,3.3,0,0,1,4,1.66c3.17,6.2,3.86,12.34,2.68,23.84a3.69,3.69,0,0,1-4.33,3.26,55.05,55.05,0,0,1-17.87-6.14,3.67,3.67,0,0,1-1.4-5.08C1746.41,1150.46,1750.78,1146,1757,1143.83Z"/>
      <path class="cls-90" d="M1830.51,1108.18a3.4,3.4,0,0,1,4.37-.26c7.25,5.3,11.41,11.83,16.49,25.95a3.77,3.77,0,0,1-2.66,4.93l-11.27,2.77a3.56,3.56,0,0,1-.92.11h-12a3.76,3.76,0,0,1-3.77-4C1821.92,1121.38,1824.43,1114,1830.51,1108.18Z"/>
      <path class="cls-90" d="M1835.54,1200.8a2.93,2.93,0,0,1,4.93.89c1.87,4.39,2.64,9.61,2.85,18.79a3.77,3.77,0,0,1-3.6,3.85l-3.89.19a3.86,3.86,0,0,1-1.35-.18l-3.91-1.25a3.78,3.78,0,0,1-2.51-4.58C1830.63,1209.05,1832.71,1204.08,1835.54,1200.8Z"/>
      <path class="cls-90" d="M1789.12,1166.9a3.25,3.25,0,0,1,4.55,1.17c3.49,6,4.72,12.55,4.77,25.06a3.78,3.78,0,0,1-4,3.77l-8-.41a3.7,3.7,0,0,1-1-.21l-7.83-2.69a3.77,3.77,0,0,1-2.32-4.9C1780.1,1176,1783.71,1170.35,1789.12,1166.9Z"/>
    </g>
    <g>
      <path class="cls-82" d="M1735.17,1253.92c-15.92-8.71-25.41-11.49-43-14.16,10.81,8.46,17.1,14.26,25.62,26.62,9.65,2.57,14.77,8.07,23.59,22.25,5.36,7.21,7.93,15.09,12,33.87.49,13.48,5.56,19.3,13.18,30.2-11.67-5.55-18.18-9.82-29.66-23.11-7.23-10.69-10.35-17.57-10.91-34.62.82-9.72,0-15.08-5.31-24.33-1-1.51-1.93-2.92-2.85-4.26-8.52-12.36-14.81-18.16-25.62-26.62,17.55,2.67,27,5.45,43,14.16,8.77-10.3,15.86-12.08,28.8-14.73,17.63.81,28,3.11,47,10,26.73,11.44,43.74,13.76,76.63,12.73-39.18,17.17-59.83,23.61-93.08,26.48C1761.16,1280.23,1741.18,1276.28,1735.17,1253.92Z"/>
      <path class="cls-91" d="M1735.17,1253.92c-15.92-8.71-25.41-11.49-43-14.16,10.81,8.46,17.1,14.26,25.62,26.62m17.34-12.46c6,22.36,26,26.31,59.37,34.53,33.25-2.87,53.9-9.31,93.08-26.48-32.89,1-49.9-1.29-76.63-12.73-19.07-6.94-29.39-9.24-47-10C1751,1241.84,1743.94,1243.62,1735.17,1253.92Zm-17.34,12.46c.92,1.34,1.87,2.75,2.85,4.26,5.28,9.25,6.13,14.61,5.31,24.33.56,17,3.68,23.93,10.91,34.62,11.48,13.29,18,17.56,29.66,23.11-7.62-10.9-12.69-16.72-13.18-30.2-4-18.78-6.6-26.66-12-33.87C1732.6,1274.45,1727.48,1269,1717.83,1266.38Z"/>
    </g>
    <g>
      <rect class="cls-92" x="920.11" y="387.93" width="461.69" height="234.84" rx="20"/>
      <rect class="cls-93" x="949.98" y="529.95" width="44.51" height="92.83"/>
      <rect class="cls-93" x="1092.95" y="576.36" width="44.51" height="46.41"/>
      <rect class="cls-93" x="1164.44" y="529.95" width="44.51" height="92.83"/>
      <rect class="cls-94" x="1235.92" y="480.69" width="44.51" height="142.09"/>
      <rect class="cls-93" x="1307.41" y="529.95" width="44.51" height="92.83"/>
    </g>
    <rect class="cls-92" x="919.98" y="660.18" width="461.69" height="254.16" rx="25"/>
    <g>
      <rect class="cls-95" x="971.41" y="868.21" width="373.08" height="10.79"/>
      <rect class="cls-93" x="1201.28" y="868.21" width="143.21" height="10.79"/>
      <circle class="cls-93" cx="1201.28" cy="873.61" r="11.02"/>
    </g>
    <g>
      <rect class="cls-92" x="1030.1" y="273.96" width="349.1" height="64.73" rx="29.89"/>
      <g>
        <rect class="cls-92" x="929.87" y="273.96" width="67.78" height="16.39" rx="7.93"/>
        <rect class="cls-92" x="929.87" y="298.13" width="67.78" height="16.39" rx="7.93"/>
        <rect class="cls-92" x="929.87" y="322.29" width="67.78" height="16.39" rx="7.93"/>
      </g>
    </g>
    <g>
      <path class="cls-96" d="M1479.13,1242.26s-.6,56.75-23.84,65c-44,15.56-68.25,27.94-51.51,32.72s109.94,0,109.94,0l12.12-92.9Z"/>
      <path class="cls-96" d="M1651,1249.84s-8.53,47.82,3,59.88c18.78,19.59,27.63,27.57,10.89,32.36s-57.26-.6-62.81-15.35c0-17.74,3.85-76.89,3.85-76.89Z"/>
      <path class="cls-97" d="M1570.2,634.13s-1.42,34.55-10.5,40.63c-7.35,4.92-47.37,22.23-43.78,36.58S1564.68,809,1564.68,809h51.26s42.15-83.49,42.15-99.54c0-18.47-37.69-28.18-47.49-37.15-5.33-4.88-7.32-38.18-7.32-38.18Z"/>
      <path class="cls-96" d="M1521.78,575c5.38,44.83,30.49,70.84,66.36,70.84,36.77,0,45.78-41.95,50.22-64.57,4.39-22.37,5.27-104.27-63.67-100.46C1509.22,484.37,1519.44,555.5,1521.78,575Z"/>
      <path class="cls-98" d="M1532.5,838.54h125.59S1686.75,884,1676,972.47s-23.11,311.91-23.11,311.91l-56.49-2.66s17.93-350.35,1.19-348-70.24,350.62-70.24,350.62l-61-2.66s45.31-257.26,49.83-299.1C1523.53,914.63,1532.5,838.54,1532.5,838.54Z"/>
      <path class="cls-99" d="M1464.8,1297.29s-64.26,26.65-77.24,40.16c-3.89,4,.67,5.36,31.72,5.88,46.22.78,101.23.29,101.23.29l1-44.76Z"/>
      <path class="cls-100" d="M1599.8,1296.81h53.61s2.74,10.55,11.35,17.6,41.52,40.65,14.48,40.85c-53.61.41-73.57.13-79.44-19.72C1596.79,1325.36,1599.8,1296.81,1599.8,1296.81Z"/>
      <g>
        <path class="cls-96" d="M1344.05,535.86c3.21-18.3,20-18.42,22-27,3.15-13.41-6.94-33.09,4.84-33.06,3.12,0,7.45,18.26,13.58,42.62,3.66,3.34,16.42,15.84,16.77,27.8.5,17.09-2.88,22.44-2.89,22.47,6.31,19.9,13.78,39,22.64,52.47,28.63,43.55,109.47,61.76,109.47,61.76l-6.73,69.48s-65.76-40.92-101-67.53c-35-26.5-47.68-75.41-51-86.3C1364.33,574.63,1337.89,571,1344.05,535.86Z"/>
        <path class="cls-78" d="M1530.46,680.1c22.45,7.1,14.63,78.84-10.66,76.5-22.26-2.05-78.46-37.31-111.36-76.5-34.28-40.84-42.48-86.89-42.48-86.89L1407,576.69s12.84,48.45,47.8,75.53C1480,671.74,1513.56,674.75,1530.46,680.1Z"/>
      </g>
      <g>
        <path class="cls-78" d="M1657.33,704.89s57,102.43,48.39,111.81C1695.29,828.13,1643.5,795,1643.5,795l-14,30.42s99.88,69.11,121.07,8.66c9.93-28.3-46.56-138.71-93.86-152.67C1649.92,679.39,1657.33,704.89,1657.33,704.89Z"/>
        <path class="cls-78" d="M1650.38,680.05c33.5,3.49,108.22,85,108.22,136.42,0,89.21-118.93,33.28-118.93,33.28L1656,799.48s54.82,30.24,45.69,5c-3.51-9.71-34.73-41.77-38.13-58.45C1655.19,705.26,1647,679.7,1650.38,680.05Z"/>
        <path class="cls-78" d="M1646.2,796.66a38.52,38.52,0,0,1-9.15-14.82c-3.79-11.78-1.1-23.37-5.7-24-6.33-.88-6.35,27.16-14.61,26-5.39-.78-18-1.5-25-23.65-3.33-10.45-11,13.27-11.3,19.55s-4.06,15,13.23,27a207.66,207.66,0,0,0,37.77,20Z"/>
      </g>
      <g>
        <path class="cls-78" d="M1557,676.38c-20.29,7.08-43.63.91-36.24,45.26s5.06,161.53,5.06,161.53h146.39s-9.74-122.64-4.72-162.22c5.19-40.89-14.56-44.38-50.52-46.67Z"/>
        <polygon class="cls-78" points="1555.61 676.56 1617.34 674.28 1617.34 663.82 1555.61 666.1 1555.61 676.56"/>
      </g>
      <path class="cls-101" d="M1510.39,490.32c2.61-3.06,12.24-6.69,20.85-14.51,31.39-28.52,67.88-29.26,92-19,17.52,7.43,27.38,26,27.38,26s13.92-10.77,27.76,18.58a126.94,126.94,0,0,1,8.48,22.61l.11,0s3.15,14.51,17.51,64.42c17.58,61.13,9.64,108.85-25,121.55s-81,19.24-113.62-19.47c-18.48-21.94-23.82-67.34-19.61-108.95.92-9.11-10.48-8.4-10.48-8.4S1487.15,517.56,1510.39,490.32Z"/>
      <path class="cls-96" d="M1538.19,567.91c3.39-3.44,17.88-5.43,16.85,10.22s-10.18,26.62-19.93,27.39c-5.32.43-3.61-7.82-3.61-7.82S1532.63,573.55,1538.19,567.91Z"/>
    </g>
    <rect class="cls-93" x="920.11" y="952.37" width="461.69" height="233.58" rx="26.44"/>
    <path class="cls-102" d="M1355.36,952.21H946.54a26.43,26.43,0,0,0-26.43,26.43V1125l195.08-112.11,156.55,100.86,60.44-44.81,49.62,29.16V978.64A26.43,26.43,0,0,0,1355.36,952.21Z"/>
    <circle class="cls-93" cx="1261.8" cy="1009.92" r="23.19"/>
    <g>
      <path class="cls-82" d="M920.58,1148.2c18.53-18.76,25.84-31.62,38.72-54.66-4.75,33-15.21,51.26-48.59,83.13-13.24,14.85-18.92,23.4-25.81,39.1-.73,2.67-1.39,5.19-2,7.59,5.24-11.2,9.63-17,23.64-25.43l16.32-9.49c10-6.92,15.25-11.28,22.77-21.26-3.13,12.27-5.53,18.43-11,28.09-7.22,8.54-12.72,11.33-23.92,14.43-13.39,2.78-19.29,6.46-28.19,15.18a195.59,195.59,0,0,0-5.9,36.82c-.17,2.53-.32,5.17-.45,8-1,13-2,23-3.46,32.65,4.7-21.65,11.26-30.76,29.27-42.14,9.26-7.43,14.32-12.32,20.12-24.29-3.3,26.35-8.36,37.59-24.3,49.73-12.13,5.56-17.84,9.86-25.64,20.12.19-1.14.37-2.28.55-3.42,1.47-9.67,2.48-19.67,3.46-32.65.13-2.8.28-5.44.45-8l-.45-.33c-7.67-5.73-10.36-12.48-11.39-31.55,1.12-20.09,1.54-31.24,0-49.73,1.3,11,2.28,14.8,6.07,25.81,1.78,1.49,5.8,18.68,5.32,28.09a198.52,198.52,0,0,0,0,27.38l.45.33a195.59,195.59,0,0,1,5.9-36.82c.12-.5.25-1,.38-1.52.61-2.4,1.27-4.92,2-7.59,6.89-15.7,12.57-24.25,25.81-39.1C908.1,1166.58,911.85,1160.09,920.58,1148.2Z"/>
      <path class="cls-103" d="M910.71,1176.67c-2.61-10.09,1.14-16.58,9.87-28.47,18.53-18.76,25.84-31.62,38.72-54.66C954.55,1126.59,944.09,1144.8,910.71,1176.67Zm0,0c-13.24,14.85-18.92,23.4-25.81,39.1-.73,2.67-1.39,5.19-2,7.59m-16.6,110.47c2.58-10.66,4.43-19.37,5.86-28.09m0,0c7.8-10.26,13.51-14.56,25.64-20.12,15.94-12.14,21-23.38,24.3-49.73-5.8,12-10.86,16.86-20.12,24.29-18,11.38-24.57,20.49-29.27,42.14m-.55,3.42c.19-1.14.37-2.28.55-3.42m0,0c1.47-9.67,2.48-19.67,3.46-32.65.13-2.8.28-5.44.45-8m0,0-.45-.33m.45.33a195.59,195.59,0,0,1,5.9-36.82m-6.35,36.49c-7.67-5.73-10.36-12.48-11.39-31.55,1.12-20.09,1.54-31.24,0-49.73,1.3,11,2.28,14.8,6.07,25.81,1.78,1.49,5.8,18.68,5.32,28.09A198.52,198.52,0,0,0,876.17,1261.37Zm6.35-36.49c8.9-8.72,14.8-12.4,28.19-15.18,11.2-3.1,16.7-5.89,23.92-14.43,5.47-9.66,7.87-15.82,11-28.09-7.52,10-12.74,14.34-22.77,21.26l-16.32,9.49c-14,8.41-18.4,14.23-23.64,25.43m-.38,1.52c.12-.5.25-1,.38-1.52"/>
    </g>
    <g>
      <circle class="cls-104" cx="1107.06" cy="765.31" r="64.23"/>
      <circle class="cls-104" cx="1194.59" cy="765.31" r="64.23"/>
    </g>
  </g>
</svg>
